<?xml version="1.0" encoding="utf-8"?>
<!-- Generator: Adobe Illustrator 22.0.1, SVG Export Plug-In . SVG Version: 6.00 Build 0)  -->
<svg version="1.1" id="Layer_1" xmlns="http://www.w3.org/2000/svg" xmlns:xlink="http://www.w3.org/1999/xlink" x="0px" y="0px"
	 viewBox="0 0 2000 2000" style="enable-background:new 0 0 2000 2000;" xml:space="preserve">
<path d="M576.3,1876c27.5,20,54.8,40.1,82.5,59.9h795.9c13.5-8.2,25.4-19.4,36-34.7c14.7-21.2,31.3-41.2,48.7-64.1
	c-15.9-8.9-27.6-15.2-39.1-21.9c-11.3-6.6-22.3-13.5-34.2-20.8c4.8-7.2,7.4-11.3,10.2-15.2c24.3-34.7,21.9-56.4-9.7-84.4
	c-6.4-5.7-13.4-10.7-20.4-15.7c-19.5-13.7-39.6-26.7-58.6-41c-21.2-15.9-42.5-33.2-48.6-60.2c-4.8-21-10.3-39.2-32.1-48
	c-2.9-1.2-5-5.3-6.4-8.6c-7.5-18.1-15.3-36.1-21.9-54.4c-47.9-132.5-77-269.1-87.7-409.6c-8.2-108.5-6.5-216.5,12-324
	c2.8-16.2,1.9-37.8,11.8-46.7c10.5-9.5,32.1-5.9,48.5-9.9c8.1-1.9,18.8-6,22.1-12.4c18.9-36.1,22.6-66.1-17.1-87.5
	c-4.3-2.3-8.4-5.3-11.5-9c-2.4-2.9-5.2-8.2-4.1-10.8c9-21.1-2-34.1-17.5-45c-16.4-11.4-25.3-24-19.3-45.8
	c3.1-11.1-1.7-24.2-1.7-36.4c0.1-20.1-2.6-41.2,2.6-60c8.4-30.4,21.6-59.6,33.9-88.8c10.9-25.9,23.5-51.1,35.3-76.6
	c-1.7-1.3-3.4-2.7-5.1-4c-8.9,5.8-17.7,11.9-26.8,17.4c-8.7,5.4-17.2,12.2-26.8,15c-17.7,5.3-23.9-0.7-26.6-19.1
	c-0.8-5.6-5.8-12.2-10.8-15.3c-34.8-21.9-70.2-43-104.8-64c11-29.8,17.4-55.4-8.2-76c-18.2-14.7-48-15.1-67.1-0.8
	c-31.2,23.4-17.1,51.8-7,79.8c-35.6,20.2-70.8,40.1-108.3,61.4c-0.5,3.2-1,11.3-3,18.9c-5.5,21.4-20.9,26.7-38.6,13.4
	c-4.8-3.6-8.3-9.1-13.1-12.8c-8.3-6.4-17.2-12-25.9-18c-1.3,1.1-2.7,2.2-4,3.3c2.3,8.6,3.7,17.5,7.2,25.6
	c13.3,31.5,27.7,62.6,40.9,94.1c13.4,32.1,21.4,65.4,13.5,100.2c-2.6,11.6-1.8,20.4,4.6,30.8c13.4,21.9,12.2,41-6.8,49.1
	c-27.7,11.9-31.4,31.2-28.3,56.4c0.5,4-0.9,8.2-1.4,12c-50.8,12.6-64.7,54.2-30.6,89.9c20,20.9,45,28.2,74.3,22.9
	c1.4,6.8,2.8,12.7,3.7,18.7c20.2,124.5,24.3,249.6,12.4,375.2c-14,147-44,290.2-102.3,426.4c-6.3,14.8-20.3,26.3-30.7,39.4
	c-3.6,4.5-9.8,9.2-9.8,13.8c0.5,39.2-23.3,63-52.1,83.4c-21.5,15.1-44,28.7-65.8,43.4c-44.3,29.7-49.6,53.6-21.5,97.6
	c8.3,13,8,22.1-7.3,28.9c-11.1,5-22.1,10.5-32.5,16.9c-26.5,16.4-27,27.3-2.8,46.6C575.4,1875.3,575.8,1875.7,576.3,1876z"/>
</svg>
