  0
SECTION
  2
HEADER
  9
$ACADVER
  1
AC1024
  9
$ACADMAINTVER
 70
     6
  9
$DWGCODEPAGE
  3
ANSI_1252
  9
$INSBASE
 10
0.0
 20
0.0
 30
0.0
  9
$EXTMIN
 10
1.000000000000000E+20
 20
1.000000000000000E+20
 30
1.000000000000000E+20
  9
$EXTMAX
 10
-1.000000000000000E+20
 20
-1.000000000000000E+20
 30
-1.000000000000000E+20
  9
$LIMMIN
 10
0.0
 20
0.0
  9
$LIMMAX
 10
12.0
 20
9.0
  9
$ORTHOMODE
 70
     0
  9
$REGENMODE
 70
     1
  9
$FILLMODE
 70
     1
  9
$QTEXTMODE
 70
     0
  9
$MIRRTEXT
 70
     1
  9
$LTSCALE
 40
1.0
  9
$ATTMODE
 70
     1
  9
$TEXTSIZE
 40
0.2
  9
$TRACEWID
 40
0.05
  9
$TEXTSTYLE
  7
Standard
  9
$CLAYER
  8
0
  9
$CELTYPE
  6
ByLayer
  9
$CECOLOR
 62
   256
  9
$CELTSCALE
 40
1.0
  9
$DISPSILH
 70
     0
  9
$DIMSCALE
 40
1.0
  9
$DIMASZ
 40
0.18
  9
$DIMEXO
 40
0.0625
  9
$DIMDLI
 40
0.38
  9
$DIMRND
 40
0.0
  9
$DIMDLE
 40
0.0
  9
$DIMEXE
 40
0.18
  9
$DIMTP
 40
0.0
  9
$DIMTM
 40
0.0
  9
$DIMTXT
 40
0.18
  9
$DIMCEN
 40
0.09
  9
$DIMTSZ
 40
0.0
  9
$DIMTOL
 70
     0
  9
$DIMLIM
 70
     0
  9
$DIMTIH
 70
     1
  9
$DIMTOH
 70
     1
  9
$DIMSE1
 70
     0
  9
$DIMSE2
 70
     0
  9
$DIMTAD
 70
     0
  9
$DIMZIN
 70
     0
  9
$DIMBLK
  1

  9
$DIMASO
 70
     1
  9
$DIMSHO
 70
     1
  9
$DIMPOST
  1

  9
$DIMAPOST
  1

  9
$DIMALT
 70
     0
  9
$DIMALTD
 70
     2
  9
$DIMALTF
 40
25.4
  9
$DIMLFAC
 40
1.0
  9
$DIMTOFL
 70
     0
  9
$DIMTVP
 40
0.0
  9
$DIMTIX
 70
     0
  9
$DIMSOXD
 70
     0
  9
$DIMSAH
 70
     0
  9
$DIMBLK1
  1

  9
$DIMBLK2
  1

  9
$DIMSTYLE
  2
Standard
  9
$DIMCLRD
 70
     0
  9
$DIMCLRE
 70
     0
  9
$DIMCLRT
 70
     0
  9
$DIMTFAC
 40
1.0
  9
$DIMGAP
 40
0.09
  9
$DIMJUST
 70
     0
  9
$DIMSD1
 70
     0
  9
$DIMSD2
 70
     0
  9
$DIMTOLJ
 70
     1
  9
$DIMTZIN
 70
     0
  9
$DIMALTZ
 70
     0
  9
$DIMALTTZ
 70
     0
  9
$DIMUPT
 70
     0
  9
$DIMDEC
 70
     4
  9
$DIMTDEC
 70
     4
  9
$DIMALTU
 70
     2
  9
$DIMALTTD
 70
     2
  9
$DIMTXSTY
  7
Standard
  9
$DIMAUNIT
 70
     0
  9
$DIMADEC
 70
     0
  9
$DIMALTRND
 40
0.0
  9
$DIMAZIN
 70
     0
  9
$DIMDSEP
 70
    46
  9
$DIMATFIT
 70
     3
  9
$DIMFRAC
 70
     0
  9
$DIMLDRBLK
  1

  9
$DIMLUNIT
 70
     2
  9
$DIMLWD
 70
    -2
  9
$DIMLWE
 70
    -2
  9
$DIMTMOVE
 70
     0
  9
$DIMFXL
 40
1.0
  9
$DIMFXLON
 70
     0
  9
$DIMJOGANG
 40
0.7853981633974483
  9
$DIMTFILL
 70
     0
  9
$DIMTFILLCLR
 70
     0
  9
$DIMARCSYM
 70
     0
  9
$DIMLTYPE
  6

  9
$DIMLTEX1
  6

  9
$DIMLTEX2
  6

  9
$DIMTXTDIRECTION
 70
     0
  9
$LUNITS
 70
     2
  9
$LUPREC
 70
     4
  9
$SKETCHINC
 40
0.1
  9
$FILLETRAD
 40
0.5
  9
$AUNITS
 70
     0
  9
$AUPREC
 70
     0
  9
$MENU
  1
.
  9
$ELEVATION
 40
0.0
  9
$PELEVATION
 40
0.0
  9
$THICKNESS
 40
0.0
  9
$LIMCHECK
 70
     0
  9
$CHAMFERA
 40
0.5
  9
$CHAMFERB
 40
0.5
  9
$CHAMFERC
 40
1.0
  9
$CHAMFERD
 40
0.0
  9
$SKPOLY
 70
     0
  9
$TDCREATE
 40
2458271.557824861
  9
$TDUCREATE
 40
2458271.724491528
  9
$TDUPDATE
 40
2458271.557824861
  9
$TDUUPDATE
 40
2458271.724491528
  9
$TDINDWG
 40
0.0000000116
  9
$TDUSRTIMER
 40
0.0000000116
  9
$USRTIMER
 70
     1
  9
$ANGBASE
 50
0.0
  9
$ANGDIR
 70
     0
  9
$PDMODE
 70
     0
  9
$PDSIZE
 40
0.0
  9
$PLINEWID
 40
0.0
  9
$SPLFRAME
 70
     0
  9
$SPLINETYPE
 70
     6
  9
$SPLINESEGS
 70
     8
  9
$HANDSEED
  5
45
  9
$SURFTAB1
 70
     6
  9
$SURFTAB2
 70
     6
  9
$SURFTYPE
 70
     6
  9
$SURFU
 70
     6
  9
$SURFV
 70
     6
  9
$UCSBASE
  2

  9
$UCSNAME
  2

  9
$UCSORG
 10
0.0
 20
0.0
 30
0.0
  9
$UCSXDIR
 10
1.0
 20
0.0
 30
0.0
  9
$UCSYDIR
 10
0.0
 20
1.0
 30
0.0
  9
$UCSORTHOREF
  2

  9
$UCSORTHOVIEW
 70
     0
  9
$UCSORGTOP
 10
0.0
 20
0.0
 30
0.0
  9
$UCSORGBOTTOM
 10
0.0
 20
0.0
 30
0.0
  9
$UCSORGLEFT
 10
0.0
 20
0.0
 30
0.0
  9
$UCSORGRIGHT
 10
0.0
 20
0.0
 30
0.0
  9
$UCSORGFRONT
 10
0.0
 20
0.0
 30
0.0
  9
$UCSORGBACK
 10
0.0
 20
0.0
 30
0.0
  9
$PUCSBASE
  2

  9
$PUCSNAME
  2

  9
$PUCSORG
 10
0.0
 20
0.0
 30
0.0
  9
$PUCSXDIR
 10
1.0
 20
0.0
 30
0.0
  9
$PUCSYDIR
 10
0.0
 20
1.0
 30
0.0
  9
$PUCSORTHOREF
  2

  9
$PUCSORTHOVIEW
 70
     0
  9
$PUCSORGTOP
 10
0.0
 20
0.0
 30
0.0
  9
$PUCSORGBOTTOM
 10
0.0
 20
0.0
 30
0.0
  9
$PUCSORGLEFT
 10
0.0
 20
0.0
 30
0.0
  9
$PUCSORGRIGHT
 10
0.0
 20
0.0
 30
0.0
  9
$PUCSORGFRONT
 10
0.0
 20
0.0
 30
0.0
  9
$PUCSORGBACK
 10
0.0
 20
0.0
 30
0.0
  9
$USERI1
 70
     0
  9
$USERI2
 70
     0
  9
$USERI3
 70
     0
  9
$USERI4
 70
     0
  9
$USERI5
 70
     0
  9
$USERR1
 40
0.0
  9
$USERR2
 40
0.0
  9
$USERR3
 40
0.0
  9
$USERR4
 40
0.0
  9
$USERR5
 40
0.0
  9
$WORLDVIEW
 70
     1
  9
$SHADEDGE
 70
     3
  9
$SHADEDIF
 70
    70
  9
$TILEMODE
 70
     1
  9
$MAXACTVP
 70
    64
  9
$PINSBASE
 10
0.0
 20
0.0
 30
0.0
  9
$PLIMCHECK
 70
     0
  9
$PEXTMIN
 10
1.000000000000000E+20
 20
1.000000000000000E+20
 30
1.000000000000000E+20
  9
$PEXTMAX
 10
-1.000000000000000E+20
 20
-1.000000000000000E+20
 30
-1.000000000000000E+20
  9
$PLIMMIN
 10
0.0
 20
0.0
  9
$PLIMMAX
 10
12.0
 20
9.0
  9
$UNITMODE
 70
     0
  9
$VISRETAIN
 70
     1
  9
$PLINEGEN
 70
     0
  9
$PSLTSCALE
 70
     1
  9
$TREEDEPTH
 70
  3020
  9
$CMLSTYLE
  2
Standard
  9
$CMLJUST
 70
     0
  9
$CMLSCALE
 40
1.0
  9
$PROXYGRAPHICS
 70
     1
  9
$MEASUREMENT
 70
     0
  9
$CELWEIGHT
370
    -1
  9
$ENDCAPS
280
     0
  9
$JOINSTYLE
280
     0
  9
$LWDISPLAY
290
     1
  9
$INSUNITS
 70
     1
  9
$HYPERLINKBASE
  1

  9
$STYLESHEET
  1

  9
$XEDIT
290
     1
  9
$CEPSNTYPE
380
     0
  9
$PSTYLEMODE
290
     1
  9
$FINGERPRINTGUID
  2
{953CB00D-0BE0-4768-91FE-6654117F59F1}
  9
$VERSIONGUID
  2
{FAEB1C32-E019-11D5-929B-00C0DF256EC4}
  9
$EXTNAMES
290
     1
  9
$PSVPSCALE
 40
0.0
  9
$OLESTARTUP
290
     0
  9
$SORTENTS
280
   127
  9
$INDEXCTL
280
     0
  9
$HIDETEXT
280
     1
  9
$XCLIPFRAME
280
     2
  9
$HALOGAP
280
     0
  9
$OBSCOLOR
 70
   257
  9
$OBSLTYPE
280
     0
  9
$INTERSECTIONDISPLAY
280
     0
  9
$INTERSECTIONCOLOR
 70
   257
  9
$DIMASSOC
280
     2
  9
$PROJECTNAME
  1

  9
$CAMERADISPLAY
290
     0
  9
$LENSLENGTH
 40
50.0
  9
$CAMERAHEIGHT
 40
0.0
  9
$STEPSPERSEC
 40
2.0
  9
$STEPSIZE
 40
6.0
  9
$3DDWFPREC
 40
2.0
  9
$PSOLWIDTH
 40
0.25
  9
$PSOLHEIGHT
 40
4.0
  9
$LOFTANG1
 40
1.570796326794897
  9
$LOFTANG2
 40
1.570796326794897
  9
$LOFTMAG1
 40
0.0
  9
$LOFTMAG2
 40
0.0
  9
$LOFTPARAM
 70
     7
  9
$LOFTNORMALS
280
     1
  9
$LATITUDE
 40
37.795
  9
$LONGITUDE
 40
-122.394
  9
$NORTHDIRECTION
 40
0.0
  9
$TIMEZONE
 70
 -8000
  9
$LIGHTGLYPHDISPLAY
280
     1
  9
$TILEMODELIGHTSYNCH
280
     1
  9
$CMATERIAL
347
3C
  9
$SOLIDHIST
280
     1
  9
$SHOWHIST
280
     1
  9
$DWFFRAME
280
     2
  9
$DGNFRAME
280
     2
  9
$REALWORLDSCALE
290
     1
  9
$INTERFERECOLOR
 62
   256
  9
$CSHADOW
280
     0
  9
$SHADOWPLANELOCATION
 40
0.0
  0
ENDSEC
  0
SECTION
  2
CLASSES
  0
CLASS
  1
ACDBDICTIONARYWDFLT
  2
AcDbDictionaryWithDefault
  3
ObjectDBX Classes
 90
        0
 91
        4
280
     0
281
     0
  0
CLASS
  1
VISUALSTYLE
  2
AcDbVisualStyle
  3
ObjectDBX Classes
 90
     4095
 91
        4
280
     0
281
     0
  0
CLASS
  1
MATERIAL
  2
AcDbMaterial
  3
ObjectDBX Classes
 90
     1153
 91
        4
280
     0
281
     0
  0
CLASS
  1
SUN
  2
AcDbSun
  3
SCENEOE
 90
     1024
 91
        4
280
     0
281
     0
  0
ENDSEC
  0
SECTION
  2
TABLES
  0
TABLE
  2
VPORT
  5
8
330
0
100
AcDbSymbolTable
 70
     1
  0
VPORT
  5
29
330
8
100
AcDbSymbolTableRecord
100
AcDbViewportTableRecord
  2
*Active
 70
     0
 10
0.0
 20
0.0
 11
1.0
 21
1.0
 12
0.0
 22
0.0
 13
0.0
 23
0.0
 14
0.5
 24
0.5
 15
0.5
 25
0.5
 16
0.0
 26
0.0
 36
1.0
 17
1000.0
 27
-1000.0
 37
0.0
 40
2000.0
 41
1.0
 42
50.0
 43
0.0
 44
0.0
 50
0.0
 51
0.0
 71
     0
 72
   100
 73
     1
 74
     3
 75
     0
 76
     0
 77
     0
 78
     0
281
     0
 65
     1
110
0.0
120
0.0
130
0.0
111
1.0
121
0.0
131
0.0
112
0.0
122
1.0
132
0.0
 79
     0
146
0.0
 60
     3
 61
     5
292
     1
282
     1
141
0.0
142
0.0
 63
   250
361
3F
  0
ENDTAB
  0
TABLE
  2
LTYPE
  5
5
330
0
100
AcDbSymbolTable
 70
     1
  0
LTYPE
  5
14
330
5
100
AcDbSymbolTableRecord
100
AcDbLinetypeTableRecord
  2
ByBlock
 70
     0
  3

 72
    65
 73
     0
 40
0.0
  0
LTYPE
  5
15
330
5
100
AcDbSymbolTableRecord
100
AcDbLinetypeTableRecord
  2
ByLayer
 70
     0
  3

 72
    65
 73
     0
 40
0.0
  0
LTYPE
  5
16
330
5
100
AcDbSymbolTableRecord
100
AcDbLinetypeTableRecord
  2
Continuous
 70
     0
  3
Solid line
 72
    65
 73
     0
 40
0.0
  0
ENDTAB
  0
TABLE
  2
LAYER
  5
2
330
0
100
AcDbSymbolTable
 70
     2
  0
LAYER
  5
10
330
2
100
AcDbSymbolTableRecord
100
AcDbLayerTableRecord
  2
0
 70
     0
 62
     7
  6
Continuous
370
    -3
390
F
347
3E
  0
LAYER
  5
40
330
2
100
AcDbSymbolTableRecord
100
AcDbLayerTableRecord
  2
Layer 1
 70
     0
 62
     7
  6
Continuous
370
    -3
390
F
347
3E
  0
ENDTAB
  0
TABLE
  2
STYLE
  5
3
330
0
100
AcDbSymbolTable
 70
     1
  0
STYLE
  5
11
330
3
100
AcDbSymbolTableRecord
100
AcDbTextStyleTableRecord
  2
Standard
 70
     0
 40
0.0
 41
1.0
 50
0.0
 71
     0
 42
0.2
  3
txt
  4

  0
ENDTAB
  0
TABLE
  2
VIEW
  5
6
330
0
100
AcDbSymbolTable
 70
     0
  0
ENDTAB
  0
TABLE
  2
UCS
  5
7
330
0
100
AcDbSymbolTable
 70
     0
  0
ENDTAB
  0
TABLE
  2
APPID
  5
9
330
0
100
AcDbSymbolTable
 70
     1
  0
APPID
  5
12
330
9
100
AcDbSymbolTableRecord
100
AcDbRegAppTableRecord
  2
ACAD
 70
     0
  0
ENDTAB
  0
TABLE
  2
DIMSTYLE
  5
A
330
0
100
AcDbSymbolTable
 70
     1
100
AcDbDimStyleTable
  0
DIMSTYLE
105
27
330
A
100
AcDbSymbolTableRecord
100
AcDbDimStyleTableRecord
  2
Standard
 70
     0
178
     0
340
11
  0
ENDTAB
  0
TABLE
  2
BLOCK_RECORD
  5
1
330
0
100
AcDbSymbolTable
 70
     1
  0
BLOCK_RECORD
  5
1F
330
1
100
AcDbSymbolTableRecord
100
AcDbBlockTableRecord
  2
*Model_Space
340
22
 70
     0
280
     1
281
     0
  0
BLOCK_RECORD
  5
1B
330
1
100
AcDbSymbolTableRecord
100
AcDbBlockTableRecord
  2
*Paper_Space
340
1E
 70
     0
280
     1
281
     0
  0
BLOCK_RECORD
  5
23
330
1
100
AcDbSymbolTableRecord
100
AcDbBlockTableRecord
  2
*Paper_Space0
340
26
 70
     0
280
     1
281
     0
  0
ENDTAB
  0
ENDSEC
  0
SECTION
  2
BLOCKS
  0
BLOCK
  5
20
330
1F
100
AcDbEntity
  8
0
100
AcDbBlockBegin
  2
*Model_Space
 70
     0
 10
0.0
 20
0.0
 30
0.0
  3
*Model_Space
  1

  0
ENDBLK
  5
21
330
1F
100
AcDbEntity
  8
0
100
AcDbBlockEnd
  0
BLOCK
  5
1C
330
1B
100
AcDbEntity
 67
     1
  8
0
100
AcDbBlockBegin
  2
*Paper_Space
 70
     0
 10
0.0
 20
0.0
 30
0.0
  3
*Paper_Space
  1

  0
ENDBLK
  5
1D
330
1B
100
AcDbEntity
 67
     1
  8
0
100
AcDbBlockEnd
  0
BLOCK
  5
24
330
23
100
AcDbEntity
  8
0
100
AcDbBlockBegin
  2
*Paper_Space0
 70
     0
 10
0.0
 20
0.0
 30
0.0
  3
*Paper_Space0
  1

  0
ENDBLK
  5
25
330
23
100
AcDbEntity
  8
0
100
AcDbBlockEnd
  0
ENDSEC
  0
SECTION
  2
ENTITIES
  0
SPLINE
  5
41
330
1F
100
AcDbEntity
  8
Layer 1
370
     0
100
AcDbSpline
210
0.0
220
0.0
230
1.0
 70
    11
 71
     3
 72
   197
 73
   193
 74
     0
 42
0.0000000001
 43
0.0000000001
 12
1.0
 22
0.0
 32
0.0
 13
1.0
 23
0.0
 33
0.0
 40
0.0
 40
0.0
 40
0.0
 40
0.0
 40
1.0
 40
1.0
 40
1.0
 40
2.0
 40
2.0
 40
2.0
 40
3.0
 40
3.0
 40
3.0
 40
4.0
 40
4.0
 40
4.0
 40
5.0
 40
5.0
 40
5.0
 40
6.0
 40
6.0
 40
6.0
 40
7.0
 40
7.0
 40
7.0
 40
8.0
 40
8.0
 40
8.0
 40
9.0
 40
9.0
 40
9.0
 40
10.0
 40
10.0
 40
10.0
 40
11.0
 40
11.0
 40
11.0
 40
12.0
 40
12.0
 40
12.0
 40
13.0
 40
13.0
 40
13.0
 40
14.0
 40
14.0
 40
14.0
 40
15.0
 40
15.0
 40
15.0
 40
16.0
 40
16.0
 40
16.0
 40
17.0
 40
17.0
 40
17.0
 40
18.0
 40
18.0
 40
18.0
 40
19.0
 40
19.0
 40
19.0
 40
20.0
 40
20.0
 40
20.0
 40
21.0
 40
21.0
 40
21.0
 40
22.0
 40
22.0
 40
22.0
 40
23.0
 40
23.0
 40
23.0
 40
24.0
 40
24.0
 40
24.0
 40
25.0
 40
25.0
 40
25.0
 40
26.0
 40
26.0
 40
26.0
 40
27.0
 40
27.0
 40
27.0
 40
28.0
 40
28.0
 40
28.0
 40
29.0
 40
29.0
 40
29.0
 40
30.0
 40
30.0
 40
30.0
 40
31.0
 40
31.0
 40
31.0
 40
32.0
 40
32.0
 40
32.0
 40
33.0
 40
33.0
 40
33.0
 40
34.0
 40
34.0
 40
34.0
 40
35.0
 40
35.0
 40
35.0
 40
36.0
 40
36.0
 40
36.0
 40
37.0
 40
37.0
 40
37.0
 40
38.0
 40
38.0
 40
38.0
 40
39.0
 40
39.0
 40
39.0
 40
40.0
 40
40.0
 40
40.0
 40
41.0
 40
41.0
 40
41.0
 40
42.0
 40
42.0
 40
42.0
 40
43.0
 40
43.0
 40
43.0
 40
44.0
 40
44.0
 40
44.0
 40
45.0
 40
45.0
 40
45.0
 40
46.0
 40
46.0
 40
46.0
 40
47.0
 40
47.0
 40
47.0
 40
48.0
 40
48.0
 40
48.0
 40
49.0
 40
49.0
 40
49.0
 40
50.0
 40
50.0
 40
50.0
 40
51.0
 40
51.0
 40
51.0
 40
52.0
 40
52.0
 40
52.0
 40
53.0
 40
53.0
 40
53.0
 40
54.0
 40
54.0
 40
54.0
 40
55.0
 40
55.0
 40
55.0
 40
56.0
 40
56.0
 40
56.0
 40
57.0
 40
57.0
 40
57.0
 40
58.0
 40
58.0
 40
58.0
 40
59.0
 40
59.0
 40
59.0
 40
60.0
 40
60.0
 40
60.0
 40
61.0
 40
61.0
 40
61.0
 40
62.0
 40
62.0
 40
62.0
 40
63.0
 40
63.0
 40
63.0
 40
64.0
 40
64.0
 40
64.0
 40
64.0
 10
576.334716796875
 20
-1876.0166015625
 30
0.0
 10
603.7974243164062
 20
-1896.03466796875
 30
0.0
 10
631.1845092773438
 20
-1916.158813476562
 30
0.0
 10
658.8356323242188
 20
-1935.91259765625
 30
0.0
 10
658.8356323242188
 20
-1935.91259765625
 30
0.0
 10
1454.7001953125
 20
-1935.91259765625
 30
0.0
 10
1454.7001953125
 20
-1935.91259765625
 30
0.0
 10
1468.209594726562
 20
-1927.733154296875
 30
0.0
 10
1480.14501953125
 20
-1916.463134765625
 30
0.0
 10
1490.712646484375
 20
-1901.220947265625
 30
0.0
 10
1505.442626953125
 20
-1879.974975585938
 30
0.0
 10
1521.981079101562
 20
-1859.983154296875
 30
0.0
 10
1539.46044921875
 20
-1837.130126953125
 30
0.0
 10
1523.607299804688
 20
-1828.27099609375
 30
0.0
 10
1511.889892578125
 20
-1821.948120117188
 30
0.0
 10
1500.398681640625
 20
-1815.238159179688
 30
0.0
 10
1489.138916015625
 20
-1808.662231445312
 30
0.0
 10
1478.109497070312
 20
-1801.6923828125
 30
0.0
 10
1466.215087890625
 20
-1794.429077148438
 30
0.0
 10
1471.05224609375
 20
-1787.190673828125
 30
0.0
 10
1473.649169921875
 20
-1783.142822265625
 30
0.0
 10
1476.404663085938
 20
-1779.20654296875
 30
0.0
 10
1500.702392578125
 20
-1744.495239257812
 30
0.0
 10
1498.321044921875
 20
-1722.7822265625
 30
0.0
 10
1466.734741210938
 20
-1694.7783203125
 30
0.0
 10
1460.343017578125
 20
-1689.111328125
 30
0.0
 10
1453.377075195312
 20
-1684.042724609375
 30
0.0
 10
1446.38330078125
 20
-1679.11328125
 30
0.0
 10
1426.888916015625
 20
-1665.37353515625
 30
0.0
 10
1406.813232421875
 20
-1652.419677734375
 30
0.0
 10
1387.767211914062
 20
-1638.092041015625
 30
0.0
 10
1366.611328125
 20
-1622.177001953125
 30
0.0
 10
1345.313598632812
 20
-1604.869262695312
 30
0.0
 10
1339.160766601562
 20
-1577.86962890625
 30
0.0
 10
1334.3681640625
 20
-1556.838745117188
 30
0.0
 10
1328.841430664062
 20
-1538.68505859375
 30
0.0
 10
1307.015747070312
 20
-1529.833740234375
 30
0.0
 10
1304.163818359375
 20
-1528.67724609375
 30
0.0
 10
1301.97509765625
 20
-1524.51123046875
 30
0.0
 10
1300.621337890625
 20
-1521.262939453125
 30
0.0
 10
1293.09619140625
 20
-1503.209594726562
 30
0.0
 10
1285.36572265625
 20
-1485.211181640625
 30
0.0
 10
1278.719970703125
 20
-1466.827026367188
 30
0.0
 10
1230.812377929688
 20
-1334.30322265625
 30
0.0
 10
1201.692626953125
 20
-1197.737060546875
 30
0.0
 10
1191.050659179688
 20
-1057.211181640625
 30
0.0
 10
1182.83740234375
 20
-948.7559814453125
 30
0.0
 10
1184.597778320312
 20
-840.6773681640625
 30
0.0
 10
1203.099487304688
 20
-733.2443237304688
 30
0.0
 10
1205.890014648438
 20
-717.0397338867188
 30
0.0
 10
1204.984008789062
 20
-695.4722290039062
 30
0.0
 10
1214.919677734375
 20
-686.5173950195312
 30
0.0
 10
1225.425170898438
 20
-677.0490112304688
 30
0.0
 10
1247.06591796875
 20
-680.5985717773438
 30
0.0
 10
1263.4091796875
 20
-676.6624145507812
 30
0.0
 10
1271.480590820312
 20
-674.7185668945312
 30
0.0
 10
1282.19091796875
 20
-670.6143188476562
 30
0.0
 10
1285.516357421875
 20
-664.2518920898438
 30
0.0
 10
1304.400146484375
 20
-628.1205444335938
 30
0.0
 10
1308.12890625
 20
-598.1077880859375
 30
0.0
 10
1268.416748046875
 20
-576.753662109375
 30
0.0
 10
1264.165405273438
 20
-574.4676513671875
 30
0.0
 10
1259.981201171875
 20
-571.4159545898438
 30
0.0
 10
1256.925537109375
 20
-567.7522583007812
 30
0.0
 10
1254.529052734375
 20
-564.8787841796875
 30
0.0
 10
1251.744873046875
 20
-559.57373046875
 30
0.0
 10
1252.869873046875
 20
-556.9530639648438
 30
0.0
 10
1261.9111328125
 20
-535.8920288085938
 30
0.0
 10
1250.918212890625
 20
-522.8119506835938
 30
0.0
 10
1235.3955078125
 20
-511.99072265625
 30
0.0
 10
1219.04052734375
 20
-500.5891723632812
 30
0.0
 10
1210.047119140625
 20
-488.010009765625
 30
0.0
 10
1216.130859375
 20
-466.1869506835938
 30
0.0
 10
1219.2236328125
 20
-455.0933227539062
 30
0.0
 10
1214.419677734375
 20
-441.9951171875
 30
0.0
 10
1214.449951171875
 20
-429.8062133789062
 30
0.0
 10
1214.5
 20
-409.7313842773438
 30
0.0
 10
1211.871826171875
 20
-388.636962890625
 30
0.0
 10
1217.063720703125
 20
-369.8182983398438
 30
0.0
 10
1225.4560546875
 20
-339.3982543945312
 30
0.0
 10
1238.644287109375
 20
-310.2086791992188
 30
0.0
 10
1250.991943359375
 20
-281.0001831054688
 30
0.0
 10
1261.93603515625
 20
-255.1116943359375
 30
0.0
 10
1274.493408203125
 20
-229.9051513671875
 30
0.0
 10
1286.338500976562
 20
-204.3976440429688
 30
0.0
 10
1284.635986328125
 20
-203.05419921875
 30
0.0
 10
1282.933349609375
 20
-201.710693359375
 30
0.0
 10
1281.230712890625
 20
-200.3672485351562
 30
0.0
 10
1272.299072265625
 20
-206.1975708007812
 30
0.0
 10
1263.485229492188
 20
-212.2193603515625
 30
0.0
 10
1254.402099609375
 20
-217.803466796875
 30
0.0
 10
1245.662719726562
 20
-223.1763916015625
 30
0.0
 10
1237.199951171875
 20
-229.95703125
 30
0.0
 10
1227.629150390625
 20
-232.8128051757812
 30
0.0
 10
1209.894897460938
 20
-238.1041870117188
 30
0.0
 10
1203.7578125
 20
-232.1114501953125
 30
0.0
 10
1200.9833984375
 20
-213.7286987304688
 30
0.0
 10
1200.137451171875
 20
-208.1229858398438
 30
0.0
 10
1195.171142578125
 20
-201.5379028320312
 30
0.0
 10
1190.198974609375
 20
-198.41357421875
 30
0.0
 10
1155.366821289062
 20
-176.5260620117188
 30
0.0
 10
1120.038696289062
 20
-155.427978515625
 30
0.0
 10
1085.445068359375
 20
-134.4267578125
 30
0.0
 10
1096.417236328125
 20
-104.6712646484375
 30
0.0
 10
1102.841796875
 20
-79.01214599609375
 30
0.0
 10
1077.250366210938
 20
-58.41802978515625
 30
0.0
 10
1059.016845703125
 20
-43.7449951171875
 30
0.0
 10
1029.268310546875
 20
-43.3477783203125
 30
0.0
 10
1010.190734863281
 20
-57.653076171875
 30
0.0
 10
979.0011596679688
 20
-81.0404052734375
 30
0.0
 10
993.097900390625
 20
-109.48974609375
 30
0.0
 10
1003.208984375
 20
-137.4088134765625
 30
0.0
 10
967.5786743164062
 20
-157.5941162109375
 30
0.0
 10
932.436767578125
 20
-177.5027465820312
 30
0.0
 10
894.8660888671875
 20
-198.7872924804688
 30
0.0
 10
894.3839111328125
 20
-202.0127563476562
 30
0.0
 10
893.86865234375
 20
-210.0420532226562
 30
0.0
 10
891.907470703125
 20
-217.7009887695312
 30
0.0
 10
886.4374389648438
 20
-239.0625
 30
0.0
 10
871.05419921875
 20
-244.3938598632812
 30
0.0
 10
853.2855224609375
 20
-231.128662109375
 30
0.0
 10
848.4508056640625
 20
-227.5193481445312
 30
0.0
 10
845.029541015625
 20
-222.0305786132812
 30
0.0
 10
840.2310791015625
 20
-218.355712890625
 30
0.0
 10
831.8934326171875
 20
-211.9705200195312
 30
0.0
 10
822.9884643554688
 20
-206.326171875
 30
0.0
 10
814.3214111328125
 20
-200.37109375
 30
0.0
 10
812.989501953125
 20
-201.45751953125
 30
0.0
 10
811.6575317382812
 20
-202.5439453125
 30
0.0
 10
810.3255615234375
 20
-203.63037109375
 30
0.0
 10
812.655517578125
 20
-212.1962280273438
 30
0.0
 10
814.0557250976562
 20
-221.1549682617188
 30
0.0
 10
817.479736328125
 20
-229.2586669921875
 30
0.0
 10
830.7949829101562
 20
-260.7722778320312
 30
0.0
 10
845.1843872070312
 20
-291.8345336914062
 30
0.0
 10
858.3511962890625
 20
-323.4078369140625
 30
0.0
 10
871.7371826171875
 20
-355.5070190429688
 30
0.0
 10
879.7255859375
 20
-388.8262939453125
 30
0.0
 10
871.8307495117188
 20
-423.6494750976562
 30
0.0
 10
869.2068481445312
 20
-435.2233276367188
 30
0.0
 10
870.0680541992188
 20
-444.0335693359375
 30
0.0
 10
876.41357421875
 20
-454.4115600585938
 30
0.0
 10
889.8123168945312
 20
-476.3251342773438
 30
0.0
 10
888.6223754882812
 20
-495.3687133789062
 30
0.0
 10
869.6072387695312
 20
-503.4999389648438
 30
0.0
 10
841.8759765625
 20
-515.3583984375
 30
0.0
 10
838.1925048828125
 20
-534.7379150390625
 30
0.0
 10
841.3430786132812
 20
-559.919677734375
 30
0.0
 10
841.8423461914062
 20
-563.9103393554688
 30
0.0
 10
840.4068603515625
 20
-568.1429443359375
 30
0.0
 10
839.912841796875
 20
-571.9066772460938
 30
0.0
 10
789.1356811523438
 20
-584.5462646484375
 30
0.0
 10
775.170654296875
 20
-626.1363525390625
 30
0.0
 10
809.3016357421875
 20
-661.80224609375
 30
0.0
 10
829.26123046875
 20
-682.6594848632812
 30
0.0
 10
854.2902221679688
 20
-690.0264892578125
 30
0.0
 10
883.596923828125
 20
-684.6722412109375
 30
0.0
 10
884.9798583984375
 20
-691.521484375
 30
0.0
 10
886.36962890625
 20
-697.3898315429688
 30
0.0
 10
887.3334350585938
 20
-703.3272705078125
 30
0.0
 10
907.54736328125
 20
-827.8646850585938
 30
0.0
 10
911.6337280273438
 20
-952.8949584960938
 30
0.0
 10
899.6956176757812
 20
-1078.53759765625
 30
0.0
 10
885.727783203125
 20
-1225.54150390625
 30
0.0
 10
855.662109375
 20
-1368.693359375
 30
0.0
 10
797.3901977539062
 20
-1504.911743164062
 30
0.0
 10
791.0577392578125
 20
-1519.714477539062
 30
0.0
 10
777.0809936523438
 20
-1531.232421875
 30
0.0
 10
766.7349243164062
 20
-1544.3408203125
 30
0.0
 10
763.1818237304688
 20
-1548.842529296875
 30
0.0
 10
756.8916015625
 20
-1553.585205078125
 30
0.0
 10
756.9466552734375
 20
-1558.156494140625
 30
0.0
 10
757.4188842773438
 20
-1597.406005859375
 30
0.0
 10
733.6182250976562
 20
-1621.192504882812
 30
0.0
 10
704.822021484375
 20
-1641.517822265625
 30
0.0
 10
683.3636474609375
 20
-1656.6640625
 30
0.0
 10
660.7913208007812
 20
-1670.22119140625
 30
0.0
 10
638.9757690429688
 20
-1684.873779296875
 30
0.0
 10
594.6986083984375
 20
-1714.613037109375
 30
0.0
 10
589.3479614257812
 20
-1738.48095703125
 30
0.0
 10
617.4715576171875
 20
-1782.439697265625
 30
0.0
 10
625.7680053710938
 20
-1795.40771484375
 30
0.0
 10
625.4912719726562
 20
-1804.551391601562
 30
0.0
 10
610.1981201171875
 20
-1811.36181640625
 30
0.0
 10
599.0574951171875
 20
-1816.323486328125
 30
0.0
 10
588.07763671875
 20
-1821.893188476562
 30
0.0
 10
577.7135009765625
 20
-1828.303344726562
 30
0.0
 10
551.1743774414062
 20
-1844.718139648438
 30
0.0
 10
550.7010498046875
 20
-1855.6142578125
 30
0.0
 10
574.8881225585938
 20
-1874.885498046875
 30
0.0
 10
575.366943359375
 20
-1875.2666015625
 30
0.0
 10
575.8402709960938
 20
-1875.65625
 30
0.0
 10
576.334716796875
 20
-1876.0166015625
 30
0.0
  0
HATCH
  5
42
330
1F
100
AcDbEntity
  8
Layer 1
 62
     7
420
 16777215
100
AcDbHatch
 10
0.0
 20
0.0
 30
0.0
210
0.0
220
0.0
230
1.0
  2
SOLID
 70
     1
 71
     0
 91
        1
 92
        1
 93
        1
 72
     4
 94
        3
 73
     0
 74
     1
 95
      197
 96
      193
 40
0.0
 40
0.0
 40
0.0
 40
0.0
 40
1.0
 40
1.0
 40
1.0
 40
2.0
 40
2.0
 40
2.0
 40
3.0
 40
3.0
 40
3.0
 40
4.0
 40
4.0
 40
4.0
 40
5.0
 40
5.0
 40
5.0
 40
6.0
 40
6.0
 40
6.0
 40
7.0
 40
7.0
 40
7.0
 40
8.0
 40
8.0
 40
8.0
 40
9.0
 40
9.0
 40
9.0
 40
10.0
 40
10.0
 40
10.0
 40
11.0
 40
11.0
 40
11.0
 40
12.0
 40
12.0
 40
12.0
 40
13.0
 40
13.0
 40
13.0
 40
14.0
 40
14.0
 40
14.0
 40
15.0
 40
15.0
 40
15.0
 40
16.0
 40
16.0
 40
16.0
 40
17.0
 40
17.0
 40
17.0
 40
18.0
 40
18.0
 40
18.0
 40
19.0
 40
19.0
 40
19.0
 40
20.0
 40
20.0
 40
20.0
 40
21.0
 40
21.0
 40
21.0
 40
22.0
 40
22.0
 40
22.0
 40
23.0
 40
23.0
 40
23.0
 40
24.0
 40
24.0
 40
24.0
 40
25.0
 40
25.0
 40
25.0
 40
26.0
 40
26.0
 40
26.0
 40
27.0
 40
27.0
 40
27.0
 40
28.0
 40
28.0
 40
28.0
 40
29.0
 40
29.0
 40
29.0
 40
30.0
 40
30.0
 40
30.0
 40
31.0
 40
31.0
 40
31.0
 40
32.0
 40
32.0
 40
32.0
 40
33.0
 40
33.0
 40
33.0
 40
34.0
 40
34.0
 40
34.0
 40
35.0
 40
35.0
 40
35.0
 40
36.0
 40
36.0
 40
36.0
 40
37.0
 40
37.0
 40
37.0
 40
38.0
 40
38.0
 40
38.0
 40
39.0
 40
39.0
 40
39.0
 40
40.0
 40
40.0
 40
40.0
 40
41.0
 40
41.0
 40
41.0
 40
42.0
 40
42.0
 40
42.0
 40
43.0
 40
43.0
 40
43.0
 40
44.0
 40
44.0
 40
44.0
 40
45.0
 40
45.0
 40
45.0
 40
46.0
 40
46.0
 40
46.0
 40
47.0
 40
47.0
 40
47.0
 40
48.0
 40
48.0
 40
48.0
 40
49.0
 40
49.0
 40
49.0
 40
50.0
 40
50.0
 40
50.0
 40
51.0
 40
51.0
 40
51.0
 40
52.0
 40
52.0
 40
52.0
 40
53.0
 40
53.0
 40
53.0
 40
54.0
 40
54.0
 40
54.0
 40
55.0
 40
55.0
 40
55.0
 40
56.0
 40
56.0
 40
56.0
 40
57.0
 40
57.0
 40
57.0
 40
58.0
 40
58.0
 40
58.0
 40
59.0
 40
59.0
 40
59.0
 40
60.0
 40
60.0
 40
60.0
 40
61.0
 40
61.0
 40
61.0
 40
62.0
 40
62.0
 40
62.0
 40
63.0
 40
63.0
 40
63.0
 40
64.0
 40
64.0
 40
64.0
 40
64.0
 10
576.334716796875
 20
-1876.0166015625
 10
603.7974243164062
 20
-1896.03466796875
 10
631.1845092773438
 20
-1916.158813476562
 10
658.8356323242188
 20
-1935.91259765625
 10
658.8356323242188
 20
-1935.91259765625
 10
1454.7001953125
 20
-1935.91259765625
 10
1454.7001953125
 20
-1935.91259765625
 10
1468.209594726562
 20
-1927.733154296875
 10
1480.14501953125
 20
-1916.463134765625
 10
1490.712646484375
 20
-1901.220947265625
 10
1505.442626953125
 20
-1879.974975585938
 10
1521.981079101562
 20
-1859.983154296875
 10
1539.46044921875
 20
-1837.130126953125
 10
1523.607299804688
 20
-1828.27099609375
 10
1511.889892578125
 20
-1821.948120117188
 10
1500.398681640625
 20
-1815.238159179688
 10
1489.138916015625
 20
-1808.662231445312
 10
1478.109497070312
 20
-1801.6923828125
 10
1466.215087890625
 20
-1794.429077148438
 10
1471.05224609375
 20
-1787.190673828125
 10
1473.649169921875
 20
-1783.142822265625
 10
1476.404663085938
 20
-1779.20654296875
 10
1500.702392578125
 20
-1744.495239257812
 10
1498.321044921875
 20
-1722.7822265625
 10
1466.734741210938
 20
-1694.7783203125
 10
1460.343017578125
 20
-1689.111328125
 10
1453.377075195312
 20
-1684.042724609375
 10
1446.38330078125
 20
-1679.11328125
 10
1426.888916015625
 20
-1665.37353515625
 10
1406.813232421875
 20
-1652.419677734375
 10
1387.767211914062
 20
-1638.092041015625
 10
1366.611328125
 20
-1622.177001953125
 10
1345.313598632812
 20
-1604.869262695312
 10
1339.160766601562
 20
-1577.86962890625
 10
1334.3681640625
 20
-1556.838745117188
 10
1328.841430664062
 20
-1538.68505859375
 10
1307.015747070312
 20
-1529.833740234375
 10
1304.163818359375
 20
-1528.67724609375
 10
1301.97509765625
 20
-1524.51123046875
 10
1300.621337890625
 20
-1521.262939453125
 10
1293.09619140625
 20
-1503.209594726562
 10
1285.36572265625
 20
-1485.211181640625
 10
1278.719970703125
 20
-1466.827026367188
 10
1230.812377929688
 20
-1334.30322265625
 10
1201.692626953125
 20
-1197.737060546875
 10
1191.050659179688
 20
-1057.211181640625
 10
1182.83740234375
 20
-948.7559814453125
 10
1184.597778320312
 20
-840.6773681640625
 10
1203.099487304688
 20
-733.2443237304688
 10
1205.890014648438
 20
-717.0397338867188
 10
1204.984008789062
 20
-695.4722290039062
 10
1214.919677734375
 20
-686.5173950195312
 10
1225.425170898438
 20
-677.0490112304688
 10
1247.06591796875
 20
-680.5985717773438
 10
1263.4091796875
 20
-676.6624145507812
 10
1271.480590820312
 20
-674.7185668945312
 10
1282.19091796875
 20
-670.6143188476562
 10
1285.516357421875
 20
-664.2518920898438
 10
1304.400146484375
 20
-628.1205444335938
 10
1308.12890625
 20
-598.1077880859375
 10
1268.416748046875
 20
-576.753662109375
 10
1264.165405273438
 20
-574.4676513671875
 10
1259.981201171875
 20
-571.4159545898438
 10
1256.925537109375
 20
-567.7522583007812
 10
1254.529052734375
 20
-564.8787841796875
 10
1251.744873046875
 20
-559.57373046875
 10
1252.869873046875
 20
-556.9530639648438
 10
1261.9111328125
 20
-535.8920288085938
 10
1250.918212890625
 20
-522.8119506835938
 10
1235.3955078125
 20
-511.99072265625
 10
1219.04052734375
 20
-500.5891723632812
 10
1210.047119140625
 20
-488.010009765625
 10
1216.130859375
 20
-466.1869506835938
 10
1219.2236328125
 20
-455.0933227539062
 10
1214.419677734375
 20
-441.9951171875
 10
1214.449951171875
 20
-429.8062133789062
 10
1214.5
 20
-409.7313842773438
 10
1211.871826171875
 20
-388.636962890625
 10
1217.063720703125
 20
-369.8182983398438
 10
1225.4560546875
 20
-339.3982543945312
 10
1238.644287109375
 20
-310.2086791992188
 10
1250.991943359375
 20
-281.0001831054688
 10
1261.93603515625
 20
-255.1116943359375
 10
1274.493408203125
 20
-229.9051513671875
 10
1286.338500976562
 20
-204.3976440429688
 10
1284.635986328125
 20
-203.05419921875
 10
1282.933349609375
 20
-201.710693359375
 10
1281.230712890625
 20
-200.3672485351562
 10
1272.299072265625
 20
-206.1975708007812
 10
1263.485229492188
 20
-212.2193603515625
 10
1254.402099609375
 20
-217.803466796875
 10
1245.662719726562
 20
-223.1763916015625
 10
1237.199951171875
 20
-229.95703125
 10
1227.629150390625
 20
-232.8128051757812
 10
1209.894897460938
 20
-238.1041870117188
 10
1203.7578125
 20
-232.1114501953125
 10
1200.9833984375
 20
-213.7286987304688
 10
1200.137451171875
 20
-208.1229858398438
 10
1195.171142578125
 20
-201.5379028320312
 10
1190.198974609375
 20
-198.41357421875
 10
1155.366821289062
 20
-176.5260620117188
 10
1120.038696289062
 20
-155.427978515625
 10
1085.445068359375
 20
-134.4267578125
 10
1096.417236328125
 20
-104.6712646484375
 10
1102.841796875
 20
-79.01214599609375
 10
1077.250366210938
 20
-58.41802978515625
 10
1059.016845703125
 20
-43.7449951171875
 10
1029.268310546875
 20
-43.3477783203125
 10
1010.190734863281
 20
-57.653076171875
 10
979.0011596679688
 20
-81.0404052734375
 10
993.097900390625
 20
-109.48974609375
 10
1003.208984375
 20
-137.4088134765625
 10
967.5786743164062
 20
-157.5941162109375
 10
932.436767578125
 20
-177.5027465820312
 10
894.8660888671875
 20
-198.7872924804688
 10
894.3839111328125
 20
-202.0127563476562
 10
893.86865234375
 20
-210.0420532226562
 10
891.907470703125
 20
-217.7009887695312
 10
886.4374389648438
 20
-239.0625
 10
871.05419921875
 20
-244.3938598632812
 10
853.2855224609375
 20
-231.128662109375
 10
848.4508056640625
 20
-227.5193481445312
 10
845.029541015625
 20
-222.0305786132812
 10
840.2310791015625
 20
-218.355712890625
 10
831.8934326171875
 20
-211.9705200195312
 10
822.9884643554688
 20
-206.326171875
 10
814.3214111328125
 20
-200.37109375
 10
812.989501953125
 20
-201.45751953125
 10
811.6575317382812
 20
-202.5439453125
 10
810.3255615234375
 20
-203.63037109375
 10
812.655517578125
 20
-212.1962280273438
 10
814.0557250976562
 20
-221.1549682617188
 10
817.479736328125
 20
-229.2586669921875
 10
830.7949829101562
 20
-260.7722778320312
 10
845.1843872070312
 20
-291.8345336914062
 10
858.3511962890625
 20
-323.4078369140625
 10
871.7371826171875
 20
-355.5070190429688
 10
879.7255859375
 20
-388.8262939453125
 10
871.8307495117188
 20
-423.6494750976562
 10
869.2068481445312
 20
-435.2233276367188
 10
870.0680541992188
 20
-444.0335693359375
 10
876.41357421875
 20
-454.4115600585938
 10
889.8123168945312
 20
-476.3251342773438
 10
888.6223754882812
 20
-495.3687133789062
 10
869.6072387695312
 20
-503.4999389648438
 10
841.8759765625
 20
-515.3583984375
 10
838.1925048828125
 20
-534.7379150390625
 10
841.3430786132812
 20
-559.919677734375
 10
841.8423461914062
 20
-563.9103393554688
 10
840.4068603515625
 20
-568.1429443359375
 10
839.912841796875
 20
-571.9066772460938
 10
789.1356811523438
 20
-584.5462646484375
 10
775.170654296875
 20
-626.1363525390625
 10
809.3016357421875
 20
-661.80224609375
 10
829.26123046875
 20
-682.6594848632812
 10
854.2902221679688
 20
-690.0264892578125
 10
883.596923828125
 20
-684.6722412109375
 10
884.9798583984375
 20
-691.521484375
 10
886.36962890625
 20
-697.3898315429688
 10
887.3334350585938
 20
-703.3272705078125
 10
907.54736328125
 20
-827.8646850585938
 10
911.6337280273438
 20
-952.8949584960938
 10
899.6956176757812
 20
-1078.53759765625
 10
885.727783203125
 20
-1225.54150390625
 10
855.662109375
 20
-1368.693359375
 10
797.3901977539062
 20
-1504.911743164062
 10
791.0577392578125
 20
-1519.714477539062
 10
777.0809936523438
 20
-1531.232421875
 10
766.7349243164062
 20
-1544.3408203125
 10
763.1818237304688
 20
-1548.842529296875
 10
756.8916015625
 20
-1553.585205078125
 10
756.9466552734375
 20
-1558.156494140625
 10
757.4188842773438
 20
-1597.406005859375
 10
733.6182250976562
 20
-1621.192504882812
 10
704.822021484375
 20
-1641.517822265625
 10
683.3636474609375
 20
-1656.6640625
 10
660.7913208007812
 20
-1670.22119140625
 10
638.9757690429688
 20
-1684.873779296875
 10
594.6986083984375
 20
-1714.613037109375
 10
589.3479614257812
 20
-1738.48095703125
 10
617.4715576171875
 20
-1782.439697265625
 10
625.7680053710938
 20
-1795.40771484375
 10
625.4912719726562
 20
-1804.551391601562
 10
610.1981201171875
 20
-1811.36181640625
 10
599.0574951171875
 20
-1816.323486328125
 10
588.07763671875
 20
-1821.893188476562
 10
577.7135009765625
 20
-1828.303344726562
 10
551.1743774414062
 20
-1844.718139648438
 10
550.7010498046875
 20
-1855.6142578125
 10
574.8881225585938
 20
-1874.885498046875
 10
575.366943359375
 20
-1875.2666015625
 10
575.8402709960938
 20
-1875.65625
 10
576.334716796875
 20
-1876.0166015625
 97
        0
 97
        0
 75
     2
 76
     1
 98
        0
  0
ENDSEC
  0
SECTION
  2
OBJECTS
  0
DICTIONARY
  5
C
330
0
100
AcDbDictionary
281
     1
  3
ACAD_GROUP
350
D
  3
ACAD_LAYOUT
350
1A
  3
ACAD_MATERIAL
350
3B
  3
ACAD_MLEADERSTYLE
350
44
  3
ACAD_MLINESTYLE
350
17
  3
ACAD_PLOTSETTINGS
350
19
  3
ACAD_PLOTSTYLENAME
350
E
  3
ACAD_TABLESTYLE
350
43
  3
ACAD_VISUALSTYLE
350
2A
  0
SUN
  5
3F
330
29
100
AcDbSun
 90
        1
290
     0
 63
     7
421
 16777215
 40
1.0
291
     1
 91
  2455826
 92
 54000000
292
     0
 70
     2
 71
   256
280
     1
  0
DICTIONARY
  5
D
102
{ACAD_REACTORS
330
C
102
}
330
C
100
AcDbDictionary
281
     1
  0
DICTIONARY
  5
1A
102
{ACAD_REACTORS
330
C
102
}
330
C
100
AcDbDictionary
281
     1
  3
Layout1
350
1E
  3
Layout2
350
26
  3
Model
350
22
  0
DICTIONARY
  5
3B
102
{ACAD_REACTORS
330
C
102
}
330
C
100
AcDbDictionary
281
     1
  3
ByBlock
350
3D
  3
ByLayer
350
3C
  3
Global
350
3E
  0
DICTIONARY
  5
44
102
{ACAD_REACTORS
330
C
102
}
330
C
100
AcDbDictionary
281
     1
  0
DICTIONARY
  5
17
102
{ACAD_REACTORS
330
C
102
}
330
C
100
AcDbDictionary
281
     1
  3
Standard
350
18
  0
DICTIONARY
  5
19
102
{ACAD_REACTORS
330
C
102
}
330
C
100
AcDbDictionary
281
     1
  0
ACDBDICTIONARYWDFLT
  5
E
102
{ACAD_REACTORS
330
C
102
}
330
C
100
AcDbDictionary
281
     1
  3
Normal
350
F
100
AcDbDictionaryWithDefault
340
F
  0
DICTIONARY
  5
43
102
{ACAD_REACTORS
330
C
102
}
330
C
100
AcDbDictionary
281
     1
  0
DICTIONARY
  5
2A
102
{ACAD_REACTORS
330
C
102
}
330
C
100
AcDbDictionary
281
     1
  3
2dWireframe
350
2F
  3
3D Hidden
350
31
  3
3dWireframe
350
30
  3
Basic
350
32
  3
Brighten
350
36
  3
ColorChange
350
3A
  3
Conceptual
350
34
  3
Dim
350
35
  3
Facepattern
350
39
  3
Flat
350
2B
  3
FlatWithEdges
350
2C
  3
Gouraud
350
2D
  3
GouraudWithEdges
350
2E
  3
Linepattern
350
38
  3
Realistic
350
33
  3
Thicken
350
37
  0
LAYOUT
  5
1E
102
{ACAD_REACTORS
330
1A
102
}
330
1A
100
AcDbPlotSettings
  1

  2
none_device
  4

  6

 40
0.0
 41
0.0
 42
0.0
 43
0.0
 44
0.0
 45
0.0
 46
0.0
 47
0.0
 48
0.0
 49
0.0
140
0.0
141
0.0
142
1.0
143
1.0
 70
   688
 72
     0
 73
     0
 74
     5
  7

 75
    16
 76
     0
 77
     2
 78
   300
147
1.0
148
0.0
149
0.0
100
AcDbLayout
  1
Layout1
 70
     1
 71
     1
 10
0.0
 20
0.0
 11
12.0
 21
9.0
 12
0.0
 22
0.0
 32
0.0
 14
1.000000000000000E+20
 24
1.000000000000000E+20
 34
1.000000000000000E+20
 15
-1.000000000000000E+20
 25
-1.000000000000000E+20
 35
-1.000000000000000E+20
146
0.0
 13
0.0
 23
0.0
 33
0.0
 16
1.0
 26
0.0
 36
0.0
 17
0.0
 27
1.0
 37
0.0
 76
     0
330
1B
  0
LAYOUT
  5
26
102
{ACAD_REACTORS
330
1A
102
}
330
1A
100
AcDbPlotSettings
  1

  2
none_device
  4

  6

 40
0.0
 41
0.0
 42
0.0
 43
0.0
 44
0.0
 45
0.0
 46
0.0
 47
0.0
 48
0.0
 49
0.0
140
0.0
141
0.0
142
1.0
143
1.0
 70
   688
 72
     0
 73
     0
 74
     5
  7

 75
    16
 76
     0
 77
     2
 78
   300
147
1.0
148
0.0
149
0.0
100
AcDbLayout
  1
Layout2
 70
     1
 71
     2
 10
0.0
 20
0.0
 11
0.0
 21
0.0
 12
0.0
 22
0.0
 32
0.0
 14
0.0
 24
0.0
 34
0.0
 15
0.0
 25
0.0
 35
0.0
146
0.0
 13
0.0
 23
0.0
 33
0.0
 16
1.0
 26
0.0
 36
0.0
 17
0.0
 27
1.0
 37
0.0
 76
     0
330
23
  0
LAYOUT
  5
22
102
{ACAD_REACTORS
330
1A
102
}
330
1A
100
AcDbPlotSettings
  1

  2
none_device
  4

  6

 40
0.0
 41
0.0
 42
0.0
 43
0.0
 44
0.0
 45
0.0
 46
0.0
 47
0.0
 48
0.0
 49
0.0
140
0.0
141
0.0
142
1.0
143
1.0
 70
  1712
 72
     0
 73
     0
 74
     0
  7

 75
     0
 76
     0
 77
     2
 78
   300
147
1.0
148
0.0
149
0.0
100
AcDbLayout
  1
Model
 70
     1
 71
     0
 10
0.0
 20
0.0
 11
12.0
 21
9.0
 12
0.0
 22
0.0
 32
0.0
 14
1.000000000000000E+20
 24
1.000000000000000E+20
 34
1.000000000000000E+20
 15
-1.000000000000000E+20
 25
-1.000000000000000E+20
 35
-1.000000000000000E+20
146
0.0
 13
0.0
 23
0.0
 33
0.0
 16
1.0
 26
0.0
 36
0.0
 17
0.0
 27
1.0
 37
0.0
 76
     0
330
1F
331
29
  0
MATERIAL
  5
3D
102
{ACAD_REACTORS
330
3B
102
}
330
3B
100
AcDbMaterial
  1
ByBlock
 72
     1
 94
      127
  0
MATERIAL
  5
3C
102
{ACAD_REACTORS
330
3B
102
}
330
3B
100
AcDbMaterial
  1
ByLayer
 72
     1
 94
      127
  0
MATERIAL
  5
3E
102
{ACAD_REACTORS
330
3B
102
}
330
3B
100
AcDbMaterial
  1
Global
 72
     1
 94
      127
  0
MLINESTYLE
  5
18
102
{ACAD_REACTORS
330
17
102
}
330
17
100
AcDbMlineStyle
  2
Standard
 70
     0
  3

 62
   256
 51
90.0
 52
90.0
 71
     2
 49
0.5
 62
   256
  6
BYLAYER
 49
-0.5
 62
   256
  6
BYLAYER
  0
ACDBPLACEHOLDER
  5
F
102
{ACAD_REACTORS
330
E
102
}
330
E
  0
VISUALSTYLE
  5
2F
102
{ACAD_REACTORS
330
2A
102
}
330
2A
100
AcDbVisualStyle
  2
2dWireframe
 70
     4
177
     2
291
     0
 71
     0
176
     1
 72
     2
176
     1
 73
     0
176
     1
 90
        0
176
     1
 40
-0.6
176
     1
 41
-30.0
176
     1
 62
     5
 63
     7
421
 16777215
176
     1
 74
     1
176
     1
 91
        4
176
     1
 64
     7
176
     1
 65
   257
176
     1
 75
     1
176
     1
175
     1
176
     1
 42
1.0
176
     1
 92
        0
176
     1
 66
   257
176
     1
 43
1.0
176
     1
 76
     1
176
     1
 77
     6
176
     1
 78
     2
176
     1
 67
     7
176
     1
 79
     5
176
     1
170
     0
176
     1
171
     0
176
     1
290
     0
176
     1
 93
        1
176
     1
 44
0.0
176
     1
173
     0
176
     1
  0
VISUALSTYLE
  5
31
102
{ACAD_REACTORS
330
2A
102
}
330
2A
100
AcDbVisualStyle
  2
3D Hidden
 70
     6
177
     2
291
     0
 71
     1
176
     1
 72
     2
176
     1
 73
     2
176
     1
 90
        0
176
     1
 40
-0.6
176
     1
 41
-30.0
176
     1
 62
     5
 63
     7
421
 16777215
176
     1
 74
     2
176
     1
 91
        2
176
     1
 64
     7
176
     1
 65
   257
176
     1
 75
     2
176
     1
175
     1
176
     1
 42
40.0
176
     1
 92
        0
176
     1
 66
   257
176
     1
 43
1.0
176
     1
 76
     1
176
     1
 77
     6
176
     1
 78
     2
176
     1
 67
     7
176
     1
 79
     3
176
     1
170
     0
176
     1
171
     0
176
     1
290
     0
176
     1
 93
        1
176
     1
 44
0.0
176
     1
173
     0
176
     1
  0
VISUALSTYLE
  5
30
102
{ACAD_REACTORS
330
2A
102
}
330
2A
100
AcDbVisualStyle
  2
3dWireframe
 70
     5
177
     2
291
     0
 71
     0
176
     1
 72
     2
176
     1
 73
     0
176
     1
 90
        0
176
     1
 40
-0.6
176
     1
 41
-30.0
176
     1
 62
     5
 63
     7
421
 16777215
176
     1
 74
     1
176
     1
 91
        4
176
     1
 64
     7
176
     1
 65
   257
176
     1
 75
     1
176
     1
175
     1
176
     1
 42
1.0
176
     1
 92
        0
176
     1
 66
   257
176
     1
 43
1.0
176
     1
 76
     1
176
     1
 77
     6
176
     1
 78
     2
176
     1
 67
     7
176
     1
 79
     5
176
     1
170
     0
176
     1
171
     0
176
     1
290
     0
176
     1
 93
        1
176
     1
 44
0.0
176
     1
173
     0
176
     1
  0
VISUALSTYLE
  5
32
102
{ACAD_REACTORS
330
2A
102
}
330
2A
100
AcDbVisualStyle
  2
Basic
 70
     7
177
     2
291
     1
 71
     1
176
     1
 72
     0
176
     1
 73
     1
176
     1
 90
        0
176
     1
 40
-0.6
176
     1
 41
-30.0
176
     1
 62
     5
 63
     7
421
 16777215
176
     1
 74
     0
176
     1
 91
        4
176
     1
 64
     7
176
     1
 65
   257
176
     1
 75
     1
176
     1
175
     1
176
     1
 42
1.0
176
     1
 92
        8
176
     1
 66
     7
176
     1
 43
1.0
176
     1
 76
     1
176
     1
 77
     6
176
     1
 78
     2
176
     1
 67
     7
176
     1
 79
     5
176
     1
170
     0
176
     1
171
     0
176
     1
290
     0
176
     1
 93
        1
176
     1
 44
0.0
176
     1
173
     0
176
     1
  0
VISUALSTYLE
  5
36
102
{ACAD_REACTORS
330
2A
102
}
330
2A
100
AcDbVisualStyle
  2
Brighten
 70
    12
177
     2
291
     1
 71
     2
176
     1
 72
     2
176
     1
 73
     0
176
     1
 90
        0
176
     1
 40
-0.6
176
     1
 41
-30.0
176
     1
 62
     5
 63
     7
421
 16777215
176
     1
 74
     1
176
     1
 91
        4
176
     1
 64
     7
176
     1
 65
   257
176
     1
 75
     1
176
     1
175
     1
176
     1
 42
1.0
176
     1
 92
        8
176
     1
 66
     7
176
     1
 43
1.0
176
     1
 76
     1
176
     1
 77
     6
176
     1
 78
     2
176
     1
 67
     7
176
     1
 79
     5
176
     1
170
     0
176
     1
171
     0
176
     1
290
     0
176
     1
 93
        1
176
     1
 44
50.0
176
     1
173
     0
176
     1
  0
VISUALSTYLE
  5
3A
102
{ACAD_REACTORS
330
2A
102
}
330
2A
100
AcDbVisualStyle
  2
ColorChange
 70
    16
177
     2
291
     1
 71
     2
176
     1
 72
     2
176
     1
 73
     3
176
     1
 90
        0
176
     1
 40
-0.6
176
     1
 41
-30.0
176
     1
 62
     5
 63
     8
421
  8421504
176
     1
 74
     1
176
     1
 91
        4
176
     1
 64
     7
176
     1
 65
   257
176
     1
 75
     1
176
     1
175
     1
176
     1
 42
1.0
176
     1
 92
        8
176
     1
 66
     8
424
  8421504
176
     1
 43
1.0
176
     1
 76
     1
176
     1
 77
     6
176
     1
 78
     2
176
     1
 67
     7
176
     1
 79
     5
176
     1
170
     0
176
     1
171
     0
176
     1
290
     0
176
     1
 93
        1
176
     1
 44
0.0
176
     1
173
     0
176
     1
  0
VISUALSTYLE
  5
34
102
{ACAD_REACTORS
330
2A
102
}
330
2A
100
AcDbVisualStyle
  2
Conceptual
 70
     9
177
     2
291
     0
 71
     3
176
     1
 72
     2
176
     1
 73
     0
176
     1
 90
        0
176
     1
 40
-0.6
176
     1
 41
-30.0
176
     1
 62
     5
 63
     7
421
 16777215
176
     1
 74
     2
176
     1
 91
        2
176
     1
 64
     7
176
     1
 65
   257
176
     1
 75
     1
176
     1
175
     1
176
     1
 42
40.0
176
     1
 92
        8
176
     1
 66
     7
176
     1
 43
1.0
176
     1
 76
     1
176
     1
 77
     6
176
     1
 78
     2
176
     1
 67
     7
176
     1
 79
     3
176
     1
170
     0
176
     1
171
     0
176
     1
290
     0
176
     1
 93
        1
176
     1
 44
0.0
176
     1
173
     0
176
     1
  0
VISUALSTYLE
  5
35
102
{ACAD_REACTORS
330
2A
102
}
330
2A
100
AcDbVisualStyle
  2
Dim
 70
    11
177
     2
291
     1
 71
     2
176
     1
 72
     2
176
     1
 73
     0
176
     1
 90
        0
176
     1
 40
-0.6
176
     1
 41
-30.0
176
     1
 62
     5
 63
     7
421
 16777215
176
     1
 74
     1
176
     1
 91
        4
176
     1
 64
     7
176
     1
 65
   257
176
     1
 75
     1
176
     1
175
     1
176
     1
 42
1.0
176
     1
 92
        8
176
     1
 66
     7
176
     1
 43
1.0
176
     1
 76
     1
176
     1
 77
     6
176
     1
 78
     2
176
     1
 67
     7
176
     1
 79
     5
176
     1
170
     0
176
     1
171
     0
176
     1
290
     0
176
     1
 93
        1
176
     1
 44
-50.0
176
     1
173
     0
176
     1
  0
VISUALSTYLE
  5
39
102
{ACAD_REACTORS
330
2A
102
}
330
2A
100
AcDbVisualStyle
  2
Facepattern
 70
    15
177
     2
291
     1
 71
     2
176
     1
 72
     2
176
     1
 73
     0
176
     1
 90
        0
176
     1
 40
-0.6
176
     1
 41
-30.0
176
     1
 62
     5
 63
     7
421
 16777215
176
     1
 74
     1
176
     1
 91
        4
176
     1
 64
     7
176
     1
 65
   257
176
     1
 75
     1
176
     1
175
     1
176
     1
 42
1.0
176
     1
 92
        8
176
     1
 66
     7
176
     1
 43
1.0
176
     1
 76
     1
176
     1
 77
     6
176
     1
 78
     2
176
     1
 67
     7
176
     1
 79
     5
176
     1
170
     0
176
     1
171
     0
176
     1
290
     0
176
     1
 93
        1
176
     1
 44
0.0
176
     1
173
     0
176
     1
  0
VISUALSTYLE
  5
2B
102
{ACAD_REACTORS
330
2A
102
}
330
2A
100
AcDbVisualStyle
  2
Flat
 70
     0
177
     2
291
     1
 71
     2
176
     1
 72
     1
176
     1
 73
     1
176
     1
 90
        2
176
     1
 40
-0.6
176
     1
 41
30.0
176
     1
 62
     5
 63
     7
421
 16777215
176
     1
 74
     0
176
     1
 91
        4
176
     1
 64
     7
176
     1
 65
   257
176
     1
 75
     1
176
     1
175
     1
176
     1
 42
1.0
176
     1
 92
        8
176
     1
 66
     7
176
     1
 43
1.0
176
     1
 76
     1
176
     1
 77
     6
176
     1
 78
     2
176
     1
 67
     7
176
     1
 79
     5
176
     1
170
     0
176
     1
171
     0
176
     1
290
     0
176
     1
 93
       13
176
     1
 44
0.0
176
     1
173
     0
176
     1
  0
VISUALSTYLE
  5
2C
102
{ACAD_REACTORS
330
2A
102
}
330
2A
100
AcDbVisualStyle
  2
FlatWithEdges
 70
     1
177
     2
291
     1
 71
     2
176
     1
 72
     1
176
     1
 73
     1
176
     1
 90
        2
176
     1
 40
-0.6
176
     1
 41
30.0
176
     1
 62
     5
 63
     7
421
 16777215
176
     1
 74
     1
176
     1
 91
        4
176
     1
 64
     7
176
     1
 65
   257
176
     1
 75
     1
176
     1
175
     1
176
     1
 42
1.0
176
     1
 92
        0
176
     1
 66
   257
176
     1
 43
1.0
176
     1
 76
     1
176
     1
 77
     6
176
     1
 78
     2
176
     1
 67
     7
176
     1
 79
     5
176
     1
170
     0
176
     1
171
     0
176
     1
290
     0
176
     1
 93
       13
176
     1
 44
0.0
176
     1
173
     0
176
     1
  0
VISUALSTYLE
  5
2D
102
{ACAD_REACTORS
330
2A
102
}
330
2A
100
AcDbVisualStyle
  2
Gouraud
 70
     2
177
     2
291
     1
 71
     2
176
     1
 72
     2
176
     1
 73
     1
176
     1
 90
        2
176
     1
 40
-0.6
176
     1
 41
30.0
176
     1
 62
     5
 63
     7
421
 16777215
176
     1
 74
     0
176
     1
 91
        4
176
     1
 64
     7
176
     1
 65
   257
176
     1
 75
     1
176
     1
175
     1
176
     1
 42
1.0
176
     1
 92
        0
176
     1
 66
     7
176
     1
 43
1.0
176
     1
 76
     1
176
     1
 77
     6
176
     1
 78
     2
176
     1
 67
     7
176
     1
 79
     5
176
     1
170
     0
176
     1
171
     0
176
     1
290
     0
176
     1
 93
       13
176
     1
 44
0.0
176
     1
173
     0
176
     1
  0
VISUALSTYLE
  5
2E
102
{ACAD_REACTORS
330
2A
102
}
330
2A
100
AcDbVisualStyle
  2
GouraudWithEdges
 70
     3
177
     2
291
     1
 71
     2
176
     1
 72
     2
176
     1
 73
     1
176
     1
 90
        2
176
     1
 40
-0.6
176
     1
 41
30.0
176
     1
 62
     5
 63
     7
421
 16777215
176
     1
 74
     1
176
     1
 91
        4
176
     1
 64
     7
176
     1
 65
   257
176
     1
 75
     1
176
     1
175
     1
176
     1
 42
1.0
176
     1
 92
        0
176
     1
 66
   257
176
     1
 43
1.0
176
     1
 76
     1
176
     1
 77
     6
176
     1
 78
     2
176
     1
 67
     7
176
     1
 79
     5
176
     1
170
     0
176
     1
171
     0
176
     1
290
     0
176
     1
 93
       13
176
     1
 44
0.0
176
     1
173
     0
176
     1
  0
VISUALSTYLE
  5
38
102
{ACAD_REACTORS
330
2A
102
}
330
2A
100
AcDbVisualStyle
  2
Linepattern
 70
    14
177
     2
291
     1
 71
     2
176
     1
 72
     2
176
     1
 73
     0
176
     1
 90
        0
176
     1
 40
-0.6
176
     1
 41
-30.0
176
     1
 62
     5
 63
     7
421
 16777215
176
     1
 74
     1
176
     1
 91
        4
176
     1
 64
     7
176
     1
 65
   257
176
     1
 75
     7
176
     1
175
     7
176
     1
 42
1.0
176
     1
 92
        8
176
     1
 66
     7
176
     1
 43
1.0
176
     1
 76
     1
176
     1
 77
     6
176
     1
 78
     2
176
     1
 67
     7
176
     1
 79
     5
176
     1
170
     0
176
     1
171
     0
176
     1
290
     0
176
     1
 93
        1
176
     1
 44
0.0
176
     1
173
     0
176
     1
  0
VISUALSTYLE
  5
33
102
{ACAD_REACTORS
330
2A
102
}
330
2A
100
AcDbVisualStyle
  2
Realistic
 70
     8
177
     2
291
     0
 71
     2
176
     1
 72
     2
176
     1
 73
     0
176
     1
 90
        0
176
     1
 40
-0.6
176
     1
 41
-30.0
176
     1
 62
     5
 63
     7
421
 16777215
176
     1
 74
     1
176
     1
 91
        0
176
     1
 64
     7
176
     1
 65
   257
176
     1
 75
     1
176
     1
175
     1
176
     1
 42
1.0
176
     1
 92
        8
176
     1
 66
     8
424
  7895160
176
     1
 43
1.0
176
     1
 76
     1
176
     1
 77
     6
176
     1
 78
     2
176
     1
 67
     7
176
     1
 79
     5
176
     1
170
     0
176
     1
171
     0
176
     1
290
     0
176
     1
 93
       13
176
     1
 44
0.0
176
     1
173
     0
176
     1
  0
VISUALSTYLE
  5
37
102
{ACAD_REACTORS
330
2A
102
}
330
2A
100
AcDbVisualStyle
  2
Thicken
 70
    13
177
     2
291
     1
 71
     2
176
     1
 72
     2
176
     1
 73
     0
176
     1
 90
        0
176
     1
 40
-0.6
176
     1
 41
-30.0
176
     1
 62
     5
 63
     7
421
 16777215
176
     1
 74
     1
176
     1
 91
        4
176
     1
 64
     7
176
     1
 65
   257
176
     1
 75
     1
176
     1
175
     1
176
     1
 42
1.0
176
     1
 92
       12
176
     1
 66
     7
176
     1
 43
1.0
176
     1
 76
     1
176
     1
 77
     6
176
     1
 78
     2
176
     1
 67
     7
176
     1
 79
     5
176
     1
170
     0
176
     1
171
     0
176
     1
290
     0
176
     1
 93
        1
176
     1
 44
0.0
176
     1
173
     0
176
     1
  0
ENDSEC
  0
EOF
