<?xml version="1.0" encoding="utf-8"?>
<!-- Generator: Adobe Illustrator 22.1.0, SVG Export Plug-In . SVG Version: 6.00 Build 0)  -->
<svg version="1.1" id="Layer_1" xmlns="http://www.w3.org/2000/svg" xmlns:xlink="http://www.w3.org/1999/xlink" x="0px" y="0px"
	 viewBox="0 0 2000 2000" style="enable-background:new 0 0 2000 2000;" xml:space="preserve">
<path d="M348.1,1927.8c-29.8-360.5,47.1-665.2,409.8-832.2c-250.8-149.2-232.3-410.3,35.8-585.1c-38.4-77.4-72.7-160-37.2-246
	c17.4-42.2,50.2-83.8,86.9-111.1c105.8-78.7,255.6-74,348.1,2.8c97.6,81,110.4,187.7,39.7,358.1c120.1,51.7,201.1,138.5,209.5,274.7
	c8.1,131.4-40.9,235.9-174.8,307.1c365.9,167.6,445.8,470.1,410.5,831.6C1233.3,1927.8,791.8,1927.8,348.1,1927.8z"/>
</svg>
