  0
SECTION
  2
HEADER
  9
$ACADVER
  1
AC1024
  9
$ACADMAINTVER
 70
     6
  9
$DWGCODEPAGE
  3
ANSI_1252
  9
$INSBASE
 10
0.0
 20
0.0
 30
0.0
  9
$EXTMIN
 10
1.000000000000000E+20
 20
1.000000000000000E+20
 30
1.000000000000000E+20
  9
$EXTMAX
 10
-1.000000000000000E+20
 20
-1.000000000000000E+20
 30
-1.000000000000000E+20
  9
$LIMMIN
 10
0.0
 20
0.0
  9
$LIMMAX
 10
12.0
 20
9.0
  9
$ORTHOMODE
 70
     0
  9
$REGENMODE
 70
     1
  9
$FILLMODE
 70
     1
  9
$QTEXTMODE
 70
     0
  9
$MIRRTEXT
 70
     1
  9
$LTSCALE
 40
1.0
  9
$ATTMODE
 70
     1
  9
$TEXTSIZE
 40
0.2
  9
$TRACEWID
 40
0.05
  9
$TEXTSTYLE
  7
Standard
  9
$CLAYER
  8
0
  9
$CELTYPE
  6
ByLayer
  9
$CECOLOR
 62
   256
  9
$CELTSCALE
 40
1.0
  9
$DISPSILH
 70
     0
  9
$DIMSCALE
 40
1.0
  9
$DIMASZ
 40
0.18
  9
$DIMEXO
 40
0.0625
  9
$DIMDLI
 40
0.38
  9
$DIMRND
 40
0.0
  9
$DIMDLE
 40
0.0
  9
$DIMEXE
 40
0.18
  9
$DIMTP
 40
0.0
  9
$DIMTM
 40
0.0
  9
$DIMTXT
 40
0.18
  9
$DIMCEN
 40
0.09
  9
$DIMTSZ
 40
0.0
  9
$DIMTOL
 70
     0
  9
$DIMLIM
 70
     0
  9
$DIMTIH
 70
     1
  9
$DIMTOH
 70
     1
  9
$DIMSE1
 70
     0
  9
$DIMSE2
 70
     0
  9
$DIMTAD
 70
     0
  9
$DIMZIN
 70
     0
  9
$DIMBLK
  1

  9
$DIMASO
 70
     1
  9
$DIMSHO
 70
     1
  9
$DIMPOST
  1

  9
$DIMAPOST
  1

  9
$DIMALT
 70
     0
  9
$DIMALTD
 70
     2
  9
$DIMALTF
 40
25.4
  9
$DIMLFAC
 40
1.0
  9
$DIMTOFL
 70
     0
  9
$DIMTVP
 40
0.0
  9
$DIMTIX
 70
     0
  9
$DIMSOXD
 70
     0
  9
$DIMSAH
 70
     0
  9
$DIMBLK1
  1

  9
$DIMBLK2
  1

  9
$DIMSTYLE
  2
Standard
  9
$DIMCLRD
 70
     0
  9
$DIMCLRE
 70
     0
  9
$DIMCLRT
 70
     0
  9
$DIMTFAC
 40
1.0
  9
$DIMGAP
 40
0.09
  9
$DIMJUST
 70
     0
  9
$DIMSD1
 70
     0
  9
$DIMSD2
 70
     0
  9
$DIMTOLJ
 70
     1
  9
$DIMTZIN
 70
     0
  9
$DIMALTZ
 70
     0
  9
$DIMALTTZ
 70
     0
  9
$DIMUPT
 70
     0
  9
$DIMDEC
 70
     4
  9
$DIMTDEC
 70
     4
  9
$DIMALTU
 70
     2
  9
$DIMALTTD
 70
     2
  9
$DIMTXSTY
  7
Standard
  9
$DIMAUNIT
 70
     0
  9
$DIMADEC
 70
     0
  9
$DIMALTRND
 40
0.0
  9
$DIMAZIN
 70
     0
  9
$DIMDSEP
 70
    46
  9
$DIMATFIT
 70
     3
  9
$DIMFRAC
 70
     0
  9
$DIMLDRBLK
  1

  9
$DIMLUNIT
 70
     2
  9
$DIMLWD
 70
    -2
  9
$DIMLWE
 70
    -2
  9
$DIMTMOVE
 70
     0
  9
$DIMFXL
 40
1.0
  9
$DIMFXLON
 70
     0
  9
$DIMJOGANG
 40
0.7853981633974483
  9
$DIMTFILL
 70
     0
  9
$DIMTFILLCLR
 70
     0
  9
$DIMARCSYM
 70
     0
  9
$DIMLTYPE
  6

  9
$DIMLTEX1
  6

  9
$DIMLTEX2
  6

  9
$DIMTXTDIRECTION
 70
     0
  9
$LUNITS
 70
     2
  9
$LUPREC
 70
     4
  9
$SKETCHINC
 40
0.1
  9
$FILLETRAD
 40
0.5
  9
$AUNITS
 70
     0
  9
$AUPREC
 70
     0
  9
$MENU
  1
.
  9
$ELEVATION
 40
0.0
  9
$PELEVATION
 40
0.0
  9
$THICKNESS
 40
0.0
  9
$LIMCHECK
 70
     0
  9
$CHAMFERA
 40
0.5
  9
$CHAMFERB
 40
0.5
  9
$CHAMFERC
 40
1.0
  9
$CHAMFERD
 40
0.0
  9
$SKPOLY
 70
     0
  9
$TDCREATE
 40
2458270.903687025
  9
$TDUCREATE
 40
2458271.070353692
  9
$TDUPDATE
 40
2458270.903687049
  9
$TDUUPDATE
 40
2458271.070353715
  9
$TDINDWG
 40
0.0000000116
  9
$TDUSRTIMER
 40
0.0000000116
  9
$USRTIMER
 70
     1
  9
$ANGBASE
 50
0.0
  9
$ANGDIR
 70
     0
  9
$PDMODE
 70
     0
  9
$PDSIZE
 40
0.0
  9
$PLINEWID
 40
0.0
  9
$SPLFRAME
 70
     0
  9
$SPLINETYPE
 70
     6
  9
$SPLINESEGS
 70
     8
  9
$HANDSEED
  5
48
  9
$SURFTAB1
 70
     6
  9
$SURFTAB2
 70
     6
  9
$SURFTYPE
 70
     6
  9
$SURFU
 70
     6
  9
$SURFV
 70
     6
  9
$UCSBASE
  2

  9
$UCSNAME
  2

  9
$UCSORG
 10
0.0
 20
0.0
 30
0.0
  9
$UCSXDIR
 10
1.0
 20
0.0
 30
0.0
  9
$UCSYDIR
 10
0.0
 20
1.0
 30
0.0
  9
$UCSORTHOREF
  2

  9
$UCSORTHOVIEW
 70
     0
  9
$UCSORGTOP
 10
0.0
 20
0.0
 30
0.0
  9
$UCSORGBOTTOM
 10
0.0
 20
0.0
 30
0.0
  9
$UCSORGLEFT
 10
0.0
 20
0.0
 30
0.0
  9
$UCSORGRIGHT
 10
0.0
 20
0.0
 30
0.0
  9
$UCSORGFRONT
 10
0.0
 20
0.0
 30
0.0
  9
$UCSORGBACK
 10
0.0
 20
0.0
 30
0.0
  9
$PUCSBASE
  2

  9
$PUCSNAME
  2

  9
$PUCSORG
 10
0.0
 20
0.0
 30
0.0
  9
$PUCSXDIR
 10
1.0
 20
0.0
 30
0.0
  9
$PUCSYDIR
 10
0.0
 20
1.0
 30
0.0
  9
$PUCSORTHOREF
  2

  9
$PUCSORTHOVIEW
 70
     0
  9
$PUCSORGTOP
 10
0.0
 20
0.0
 30
0.0
  9
$PUCSORGBOTTOM
 10
0.0
 20
0.0
 30
0.0
  9
$PUCSORGLEFT
 10
0.0
 20
0.0
 30
0.0
  9
$PUCSORGRIGHT
 10
0.0
 20
0.0
 30
0.0
  9
$PUCSORGFRONT
 10
0.0
 20
0.0
 30
0.0
  9
$PUCSORGBACK
 10
0.0
 20
0.0
 30
0.0
  9
$USERI1
 70
     0
  9
$USERI2
 70
     0
  9
$USERI3
 70
     0
  9
$USERI4
 70
     0
  9
$USERI5
 70
     0
  9
$USERR1
 40
0.0
  9
$USERR2
 40
0.0
  9
$USERR3
 40
0.0
  9
$USERR4
 40
0.0
  9
$USERR5
 40
0.0
  9
$WORLDVIEW
 70
     1
  9
$SHADEDGE
 70
     3
  9
$SHADEDIF
 70
    70
  9
$TILEMODE
 70
     1
  9
$MAXACTVP
 70
    64
  9
$PINSBASE
 10
0.0
 20
0.0
 30
0.0
  9
$PLIMCHECK
 70
     0
  9
$PEXTMIN
 10
1.000000000000000E+20
 20
1.000000000000000E+20
 30
1.000000000000000E+20
  9
$PEXTMAX
 10
-1.000000000000000E+20
 20
-1.000000000000000E+20
 30
-1.000000000000000E+20
  9
$PLIMMIN
 10
0.0
 20
0.0
  9
$PLIMMAX
 10
12.0
 20
9.0
  9
$UNITMODE
 70
     0
  9
$VISRETAIN
 70
     1
  9
$PLINEGEN
 70
     0
  9
$PSLTSCALE
 70
     1
  9
$TREEDEPTH
 70
  3020
  9
$CMLSTYLE
  2
Standard
  9
$CMLJUST
 70
     0
  9
$CMLSCALE
 40
1.0
  9
$PROXYGRAPHICS
 70
     1
  9
$MEASUREMENT
 70
     0
  9
$CELWEIGHT
370
    -1
  9
$ENDCAPS
280
     0
  9
$JOINSTYLE
280
     0
  9
$LWDISPLAY
290
     1
  9
$INSUNITS
 70
     1
  9
$HYPERLINKBASE
  1

  9
$STYLESHEET
  1

  9
$XEDIT
290
     1
  9
$CEPSNTYPE
380
     0
  9
$PSTYLEMODE
290
     1
  9
$FINGERPRINTGUID
  2
{489A9812-C06C-412D-9575-3730F1182F9C}
  9
$VERSIONGUID
  2
{FAEB1C32-E019-11D5-929B-00C0DF256EC4}
  9
$EXTNAMES
290
     1
  9
$PSVPSCALE
 40
0.0
  9
$OLESTARTUP
290
     0
  9
$SORTENTS
280
   127
  9
$INDEXCTL
280
     0
  9
$HIDETEXT
280
     1
  9
$XCLIPFRAME
280
     2
  9
$HALOGAP
280
     0
  9
$OBSCOLOR
 70
   257
  9
$OBSLTYPE
280
     0
  9
$INTERSECTIONDISPLAY
280
     0
  9
$INTERSECTIONCOLOR
 70
   257
  9
$DIMASSOC
280
     2
  9
$PROJECTNAME
  1

  9
$CAMERADISPLAY
290
     0
  9
$LENSLENGTH
 40
50.0
  9
$CAMERAHEIGHT
 40
0.0
  9
$STEPSPERSEC
 40
2.0
  9
$STEPSIZE
 40
6.0
  9
$3DDWFPREC
 40
2.0
  9
$PSOLWIDTH
 40
0.25
  9
$PSOLHEIGHT
 40
4.0
  9
$LOFTANG1
 40
1.570796326794897
  9
$LOFTANG2
 40
1.570796326794897
  9
$LOFTMAG1
 40
0.0
  9
$LOFTMAG2
 40
0.0
  9
$LOFTPARAM
 70
     7
  9
$LOFTNORMALS
280
     1
  9
$LATITUDE
 40
37.795
  9
$LONGITUDE
 40
-122.394
  9
$NORTHDIRECTION
 40
0.0
  9
$TIMEZONE
 70
 -8000
  9
$LIGHTGLYPHDISPLAY
280
     1
  9
$TILEMODELIGHTSYNCH
280
     1
  9
$CMATERIAL
347
3C
  9
$SOLIDHIST
280
     1
  9
$SHOWHIST
280
     1
  9
$DWFFRAME
280
     2
  9
$DGNFRAME
280
     2
  9
$REALWORLDSCALE
290
     1
  9
$INTERFERECOLOR
 62
   256
  9
$CSHADOW
280
     0
  9
$SHADOWPLANELOCATION
 40
0.0
  0
ENDSEC
  0
SECTION
  2
CLASSES
  0
CLASS
  1
ACDBDICTIONARYWDFLT
  2
AcDbDictionaryWithDefault
  3
ObjectDBX Classes
 90
        0
 91
        4
280
     0
281
     0
  0
CLASS
  1
VISUALSTYLE
  2
AcDbVisualStyle
  3
ObjectDBX Classes
 90
     4095
 91
        4
280
     0
281
     0
  0
CLASS
  1
MATERIAL
  2
AcDbMaterial
  3
ObjectDBX Classes
 90
     1153
 91
        4
280
     0
281
     0
  0
CLASS
  1
SUN
  2
AcDbSun
  3
SCENEOE
 90
     1024
 91
        4
280
     0
281
     0
  0
ENDSEC
  0
SECTION
  2
TABLES
  0
TABLE
  2
VPORT
  5
8
330
0
100
AcDbSymbolTable
 70
     1
  0
VPORT
  5
29
330
8
100
AcDbSymbolTableRecord
100
AcDbViewportTableRecord
  2
*Active
 70
     0
 10
0.0
 20
0.0
 11
1.0
 21
1.0
 12
0.0
 22
0.0
 13
0.0
 23
0.0
 14
0.5
 24
0.5
 15
0.5
 25
0.5
 16
0.0
 26
0.0
 36
1.0
 17
1000.0
 27
-1000.0
 37
0.0
 40
2000.0
 41
1.0
 42
50.0
 43
0.0
 44
0.0
 50
0.0
 51
0.0
 71
     0
 72
   100
 73
     1
 74
     3
 75
     0
 76
     0
 77
     0
 78
     0
281
     0
 65
     1
110
0.0
120
0.0
130
0.0
111
1.0
121
0.0
131
0.0
112
0.0
122
1.0
132
0.0
 79
     0
146
0.0
 60
     3
 61
     5
292
     1
282
     1
141
0.0
142
0.0
 63
   250
361
3F
  0
ENDTAB
  0
TABLE
  2
LTYPE
  5
5
330
0
100
AcDbSymbolTable
 70
     1
  0
LTYPE
  5
14
330
5
100
AcDbSymbolTableRecord
100
AcDbLinetypeTableRecord
  2
ByBlock
 70
     0
  3

 72
    65
 73
     0
 40
0.0
  0
LTYPE
  5
15
330
5
100
AcDbSymbolTableRecord
100
AcDbLinetypeTableRecord
  2
ByLayer
 70
     0
  3

 72
    65
 73
     0
 40
0.0
  0
LTYPE
  5
16
330
5
100
AcDbSymbolTableRecord
100
AcDbLinetypeTableRecord
  2
Continuous
 70
     0
  3
Solid line
 72
    65
 73
     0
 40
0.0
  0
ENDTAB
  0
TABLE
  2
LAYER
  5
2
330
0
100
AcDbSymbolTable
 70
     2
  0
LAYER
  5
10
330
2
100
AcDbSymbolTableRecord
100
AcDbLayerTableRecord
  2
0
 70
     0
 62
     7
  6
Continuous
370
    -3
390
F
347
3E
  0
LAYER
  5
40
330
2
100
AcDbSymbolTableRecord
100
AcDbLayerTableRecord
  2
Layer 1
 70
     0
 62
     7
  6
Continuous
370
    -3
390
F
347
3E
  0
ENDTAB
  0
TABLE
  2
STYLE
  5
3
330
0
100
AcDbSymbolTable
 70
     1
  0
STYLE
  5
11
330
3
100
AcDbSymbolTableRecord
100
AcDbTextStyleTableRecord
  2
Standard
 70
     0
 40
0.0
 41
1.0
 50
0.0
 71
     0
 42
0.2
  3
txt
  4

  0
ENDTAB
  0
TABLE
  2
VIEW
  5
6
330
0
100
AcDbSymbolTable
 70
     0
  0
ENDTAB
  0
TABLE
  2
UCS
  5
7
330
0
100
AcDbSymbolTable
 70
     0
  0
ENDTAB
  0
TABLE
  2
APPID
  5
9
330
0
100
AcDbSymbolTable
 70
     1
  0
APPID
  5
12
330
9
100
AcDbSymbolTableRecord
100
AcDbRegAppTableRecord
  2
ACAD
 70
     0
  0
ENDTAB
  0
TABLE
  2
DIMSTYLE
  5
A
330
0
100
AcDbSymbolTable
 70
     1
100
AcDbDimStyleTable
  0
DIMSTYLE
105
27
330
A
100
AcDbSymbolTableRecord
100
AcDbDimStyleTableRecord
  2
Standard
 70
     0
178
     0
340
11
  0
ENDTAB
  0
TABLE
  2
BLOCK_RECORD
  5
1
330
0
100
AcDbSymbolTable
 70
     1
  0
BLOCK_RECORD
  5
1F
330
1
100
AcDbSymbolTableRecord
100
AcDbBlockTableRecord
  2
*Model_Space
340
22
 70
     0
280
     1
281
     0
  0
BLOCK_RECORD
  5
1B
330
1
100
AcDbSymbolTableRecord
100
AcDbBlockTableRecord
  2
*Paper_Space
340
1E
 70
     0
280
     1
281
     0
  0
BLOCK_RECORD
  5
23
330
1
100
AcDbSymbolTableRecord
100
AcDbBlockTableRecord
  2
*Paper_Space0
340
26
 70
     0
280
     1
281
     0
  0
ENDTAB
  0
ENDSEC
  0
SECTION
  2
BLOCKS
  0
BLOCK
  5
20
330
1F
100
AcDbEntity
  8
0
100
AcDbBlockBegin
  2
*Model_Space
 70
     0
 10
0.0
 20
0.0
 30
0.0
  3
*Model_Space
  1

  0
ENDBLK
  5
21
330
1F
100
AcDbEntity
  8
0
100
AcDbBlockEnd
  0
BLOCK
  5
1C
330
1B
100
AcDbEntity
 67
     1
  8
0
100
AcDbBlockBegin
  2
*Paper_Space
 70
     0
 10
0.0
 20
0.0
 30
0.0
  3
*Paper_Space
  1

  0
ENDBLK
  5
1D
330
1B
100
AcDbEntity
 67
     1
  8
0
100
AcDbBlockEnd
  0
BLOCK
  5
24
330
23
100
AcDbEntity
  8
0
100
AcDbBlockBegin
  2
*Paper_Space0
 70
     0
 10
0.0
 20
0.0
 30
0.0
  3
*Paper_Space0
  1

  0
ENDBLK
  5
25
330
23
100
AcDbEntity
  8
0
100
AcDbBlockEnd
  0
ENDSEC
  0
SECTION
  2
ENTITIES
  0
SPLINE
  5
41
330
1F
100
AcDbEntity
  8
Layer 1
370
     0
100
AcDbSpline
210
0.0
220
0.0
230
1.0
 70
    11
 71
     3
 72
   122
 73
   118
 74
     0
 42
0.0000000001
 43
0.0000000001
 12
1.0
 22
0.0
 32
0.0
 13
1.0
 23
0.0
 33
0.0
 40
0.0
 40
0.0
 40
0.0
 40
0.0
 40
1.0
 40
1.0
 40
1.0
 40
2.0
 40
2.0
 40
2.0
 40
3.0
 40
3.0
 40
3.0
 40
4.0
 40
4.0
 40
4.0
 40
5.0
 40
5.0
 40
5.0
 40
6.0
 40
6.0
 40
6.0
 40
7.0
 40
7.0
 40
7.0
 40
8.0
 40
8.0
 40
8.0
 40
9.0
 40
9.0
 40
9.0
 40
10.0
 40
10.0
 40
10.0
 40
11.0
 40
11.0
 40
11.0
 40
12.0
 40
12.0
 40
12.0
 40
13.0
 40
13.0
 40
13.0
 40
14.0
 40
14.0
 40
14.0
 40
15.0
 40
15.0
 40
15.0
 40
16.0
 40
16.0
 40
16.0
 40
17.0
 40
17.0
 40
17.0
 40
18.0
 40
18.0
 40
18.0
 40
19.0
 40
19.0
 40
19.0
 40
20.0
 40
20.0
 40
20.0
 40
21.0
 40
21.0
 40
21.0
 40
22.0
 40
22.0
 40
22.0
 40
23.0
 40
23.0
 40
23.0
 40
24.0
 40
24.0
 40
24.0
 40
25.0
 40
25.0
 40
25.0
 40
26.0
 40
26.0
 40
26.0
 40
27.0
 40
27.0
 40
27.0
 40
28.0
 40
28.0
 40
28.0
 40
29.0
 40
29.0
 40
29.0
 40
30.0
 40
30.0
 40
30.0
 40
31.0
 40
31.0
 40
31.0
 40
32.0
 40
32.0
 40
32.0
 40
33.0
 40
33.0
 40
33.0
 40
34.0
 40
34.0
 40
34.0
 40
35.0
 40
35.0
 40
35.0
 40
36.0
 40
36.0
 40
36.0
 40
37.0
 40
37.0
 40
37.0
 40
38.0
 40
38.0
 40
38.0
 40
39.0
 40
39.0
 40
39.0
 40
39.0
 10
1674.200000000001
 20
-1898.844444444445
 30
0.0
 10
1670.918568589952
 20
-1898.844444444445
 30
0.0
 10
1667.636986965603
 20
-1898.844444444445
 30
0.0
 10
1664.355555555556
 20
-1898.844444444445
 30
0.0
 10
1637.77228088379
 20
-1881.515422227647
 30
0.0
 10
1613.171834988065
 20
-1858.50033806695
 30
0.0
 10
1584.082835557725
 20
-1848.355915662978
 30
0.0
 10
1550.79534640842
 20
-1836.74735446506
 30
0.0
 10
1513.607542928061
 20
-1835.841562228732
 30
0.0
 10
1477.961238606771
 20
-1831.559703572591
 30
0.0
 10
1315.929428100586
 20
-1812.096887207032
 30
0.0
 10
1150.339791870118
 20
-1805.321320936415
 30
0.0
 10
1012.454704962836
 20
-1694.529260932075
 30
0.0
 10
923.9967325846355
 20
-1780.986153496637
 30
0.0
 10
812.2053719414607
 20
-1801.33568488227
 30
0.0
 10
697.011056518555
 20
-1814.581732177734
 30
0.0
 10
610.9769421047631
 20
-1824.47454562717
 30
0.0
 10
524.8894265068902
 20
-1835.809716796875
 30
0.0
 10
439.9906881120469
 20
-1852.447452799479
 30
0.0
 10
416.1240390777584
 20
-1857.12482571072
 30
0.0
 10
396.3724169413254
 20
-1882.800355360243
 30
0.0
 10
374.7333145565453
 20
-1898.844444444445
 30
0.0
 10
368.1703766292994
 20
-1898.844444444445
 30
0.0
 10
361.6074011484779
 20
-1898.844444444445
 30
0.0
 10
355.0444444444447
 20
-1898.844444444445
 30
0.0
 10
306.3143899917604
 20
-1840.23668246799
 30
0.0
 10
258.0715744018553
 20
-1781.213427734376
 30
0.0
 10
208.6109198358326
 20
-1723.228904893664
 30
0.0
 10
189.2291652096646
 20
-1700.506738620334
 30
0.0
 10
192.6083204110464
 20
-1681.718835110134
 30
0.0
 10
207.5126749144656
 20
-1657.56587761773
 30
0.0
 10
263.9557877858479
 20
-1566.098587036133
 30
0.0
 10
337.9626937442354
 20
-1513.217895507812
 30
0.0
 10
451.6765345679387
 20
-1529.758743286133
 30
0.0
 10
495.1636686537004
 20
-1536.084567938911
 30
0.0
 10
540.6364668104379
 20
-1537.377762858074
 30
0.0
 10
584.2180669148765
 20
-1532.373974270291
 30
0.0
 10
646.3717125786679
 20
-1525.237893676758
 30
0.0
 10
707.6175381130643
 20
-1510.194982910156
 30
0.0
 10
769.2511043124732
 20
-1498.529340277779
 30
0.0
 10
735.2746572706437
 20
-1477.342664591471
 30
0.0
 10
701.9955801222059
 20
-1469.616542222764
 30
0.0
 10
670.891944037543
 20
-1456.665666029188
 30
0.0
 10
620.1538717481826
 20
-1435.539526706272
 30
0.0
 10
606.5775407579213
 20
-1402.799118041992
 30
0.0
 10
622.5084058125813
 20
-1350.266698371041
 30
0.0
 10
632.9720336066348
 20
-1315.762773810493
 30
0.0
 10
642.6599923027889
 20
-1280.97261589898
 30
0.0
 10
654.6195667690699
 20
-1246.987756856282
 30
0.0
 10
666.4885244581437
 20
-1213.260365125869
 30
0.0
 10
662.1234470791287
 20
-1185.954484558106
 30
0.0
 10
639.0503426445857
 20
-1156.495957946778
 30
0.0
 10
608.9036843193899
 20
-1118.006247117784
 30
0.0
 10
582.6242180718318
 20
-1075.844247266981
 30
0.0
 10
559.3257170783145
 20
-1032.750993855794
 30
0.0
 10
479.5867460462778
 20
-885.2648096720377
 30
0.0
 10
503.9794080098472
 20
-726.8203795539011
 30
0.0
 10
622.5633091396758
 20
-609.0649478488504
 30
0.0
 10
699.573750050863
 20
-532.5926872253422
 30
0.0
 10
782.2946251763242
 20
-463.8365221659342
 30
0.0
 10
883.1711142645945
 20
-421.9703318277998
 30
0.0
 10
869.4088555230037
 20
-391.9505294799801
 30
0.0
 10
853.7607313368053
 20
-364.9950988769533
 30
0.0
 10
844.3886357625324
 20
-336.0103293948705
 30
0.0
 10
817.641552395291
 20
-253.2914258321125
 30
0.0
 10
849.8189578586152
 20
-176.2219037585792
 30
0.0
 10
921.0142276340066
 20
-146.0579590532516
 30
0.0
 10
935.8583297729492
 20
-139.7688054667578
 30
0.0
 10
950.6071960449217
 20
-133.254832707511
 30
0.0
 10
965.3999999999996
 20
-126.8444550063878
 30
0.0
 10
1001.496271260579
 20
-126.8444444444449
 30
0.0
 10
1037.59261762831
 20
-126.8444444444449
 30
0.0
 10
1073.68888888889
 20
-126.8444491386417
 30
0.0
 10
1078.913792928061
 20
-130.29954940478
 30
0.0
 10
1083.766991678873
 20
-134.6009734736544
 30
0.0
 10
1089.4191051907
 20
-137.0833915445537
 30
0.0
 10
1181.575879414877
 20
-177.558266512553
 30
0.0
 10
1216.458869764539
 20
-261.1479342142738
 30
0.0
 10
1178.780616590711
 20
-354.7282705942789
 30
0.0
 10
1169.29375729031
 20
-378.2905103471549
 30
0.0
 10
1155.910414123535
 20
-400.2838743845623
 30
0.0
 10
1148.650932481554
 20
-414.5078167809379
 30
0.0
 10
1225.489603339302
 20
-469.236876508925
 30
0.0
 10
1303.243454827203
 20
-515.70983903673
 30
0.0
 10
1370.473067050511
 20
-574.2657770792648
 30
0.0
 10
1535.486255900065
 20
-717.989543660482
 30
0.0
 10
1569.314516533746
 20
-888.5017025417756
 30
0.0
 10
1444.809843614366
 20
-1067.302686564128
 30
0.0
 10
1375.419098239476
 20
-1166.954853990343
 30
0.0
 10
1369.803336588542
 20
-1250.826333109539
 30
0.0
 10
1407.945226203072
 20
-1354.389855617947
 30
0.0
 10
1425.967787848578
 20
-1403.325018310547
 30
0.0
 10
1407.238918558756
 20
-1436.627228461371
 30
0.0
 10
1359.190696207683
 20
-1456.461825222439
 30
0.0
 10
1328.028063456217
 20
-1469.325877549913
 30
0.0
 10
1294.737269592286
 20
-1477.034725273979
 30
0.0
 10
1254.43529832628
 20
-1489.520988633898
 30
0.0
 10
1275.567145792644
 20
-1496.849794175891
 30
0.0
 10
1289.984789530436
 20
-1502.020470852322
 30
0.0
 10
1304.51246524387
 20
-1506.860976494683
 30
0.0
 10
1398.25077073839
 20
-1538.093984646268
 30
0.0
 10
1494.594468180339
 20
-1538.677567206489
 30
0.0
 10
1591.347950236002
 20
-1529.314108954535
 30
0.0
 10
1681.227175225153
 20
-1520.615799628364
 30
0.0
 10
1751.239056735569
 20
-1552.298248969184
 30
0.0
 10
1802.295395575629
 20
-1626.584177992079
 30
0.0
 10
1815.158095974391
 20
-1645.299077351889
 30
0.0
 10
1828.457018703884
 20
-1663.713848537869
 30
0.0
 10
1841.555555555555
 20
-1682.266666666666
 30
0.0
 10
1841.555555555555
 20
-1688.829679701063
 30
0.0
 10
1841.555555555555
 20
-1695.392542521158
 30
0.0
 10
1841.555555555555
 20
-1701.955555555556
 30
0.0
 10
1830.537336561414
 20
-1715.44765387641
 30
0.0
 10
1819.773280164931
 20
-1729.157112291125
 30
0.0
 10
1808.456134711372
 20
-1742.393395657009
 30
0.0
 10
1763.798324245876
 20
-1794.624260118273
 30
0.0
 10
1718.967016262479
 20
-1846.706863064235
 30
0.0
 10
1674.200000000001
 20
-1898.844444444445
 30
0.0
  0
SPLINE
  5
42
330
1F
100
AcDbEntity
  8
Layer 1
370
     0
100
AcDbSpline
210
0.0
220
0.0
230
1.0
 70
    11
 71
     3
 72
    32
 73
    28
 74
     0
 42
0.0000000001
 43
0.0000000001
 12
1.0
 22
0.0
 32
0.0
 13
1.0
 23
0.0
 33
0.0
 40
0.0
 40
0.0
 40
0.0
 40
0.0
 40
1.0
 40
1.0
 40
1.0
 40
2.0
 40
2.0
 40
2.0
 40
3.0
 40
3.0
 40
3.0
 40
4.0
 40
4.0
 40
4.0
 40
5.0
 40
5.0
 40
5.0
 40
6.0
 40
6.0
 40
6.0
 40
7.0
 40
7.0
 40
7.0
 40
8.0
 40
8.0
 40
8.0
 40
9.0
 40
9.0
 40
9.0
 40
9.0
 10
1267.938888041179
 20
-1283.354188537598
 30
0.0
 10
1268.174198744033
 20
-1275.562122090658
 30
0.0
 10
1268.409509446887
 20
-1267.769980536566
 30
0.0
 10
1268.644820149741
 20
-1259.977914089626
 30
0.0
 10
1241.900665961371
 20
-1252.760492451986
 30
0.0
 10
1215.386790296767
 20
-1240.518552652995
 30
0.0
 10
1188.368645222981
 20
-1239.28071170383
 30
0.0
 10
1111.477624681262
 20
-1235.757810804578
 30
0.0
 10
1034.372924296062
 20
-1235.682703653971
 30
0.0
 10
957.3681915283205
 20
-1236.286114501952
 30
0.0
 10
906.6842339409723
 20
-1236.683206007216
 30
0.0
 10
855.7909527248803
 20
-1238.522805447048
 30
0.0
 10
805.5080673217772
 20
-1244.251528252496
 30
0.0
 10
791.0204237196176
 20
-1245.90223320855
 30
0.0
 10
778.3262637668186
 20
-1263.294420539009
 30
0.0
 10
764.809793175591
 20
-1273.469486660428
 30
0.0
 10
777.8788880242246
 20
-1284.089112006293
 30
0.0
 10
790.1036282857258
 20
-1296.094238959418
 30
0.0
 10
804.3526940239799
 20
-1304.777526855469
 30
0.0
 10
812.1506939358178
 20
-1309.529706488716
 30
0.0
 10
823.3846206665039
 20
-1310.199512057834
 30
0.0
 10
833.0438508775496
 20
-1310.105703226725
 30
0.0
 10
955.6773793538414
 20
-1308.915179782443
 30
0.0
 10
1078.337645975749
 20
-1308.321683078342
 30
0.0
 10
1200.908084445529
 20
-1304.738471137152
 30
0.0
 10
1223.440830485026
 20
-1304.079706319173
 30
0.0
 10
1245.604725307889
 20
-1290.805418735081
 30
0.0
 10
1267.938888041179
 20
-1283.354188537598
 30
0.0
  0
SPLINE
  5
43
330
1F
100
AcDbEntity
  8
Layer 1
370
     0
100
AcDbSpline
210
0.0
220
0.0
230
1.0
 70
    11
 71
     3
 72
    29
 73
    25
 74
     0
 42
0.0000000001
 43
0.0000000001
 12
1.0
 22
0.0
 32
0.0
 13
1.0
 23
0.0
 33
0.0
 40
0.0
 40
0.0
 40
0.0
 40
0.0
 40
1.0
 40
1.0
 40
1.0
 40
2.0
 40
2.0
 40
2.0
 40
3.0
 40
3.0
 40
3.0
 40
4.0
 40
4.0
 40
4.0
 40
5.0
 40
5.0
 40
5.0
 40
6.0
 40
6.0
 40
6.0
 40
7.0
 40
7.0
 40
7.0
 40
8.0
 40
8.0
 40
8.0
 40
8.0
 10
1018.937203131782
 20
-1157.188971625434
 30
0.0
 10
1084.241068013509
 20
-1153.970329793294
 30
0.0
 10
1152.887877061632
 20
-1152.287854512533
 30
0.0
 10
1221.104247029623
 20
-1145.962555609809
 30
0.0
 10
1237.055728997124
 20
-1144.483470492893
 30
0.0
 10
1251.54780392117
 20
-1127.266132609049
 30
0.0
 10
1266.711336771647
 20
-1117.289724900987
 30
0.0
 10
1251.708908759223
 20
-1106.459123569064
 30
0.0
 10
1237.075632392036
 20
-1095.0486199273
 30
0.0
 10
1221.493151855469
 20
-1085.129068332248
 30
0.0
 10
1216.40088704427
 20
-1081.887443712023
 30
0.0
 10
1208.835644192166
 20
-1081.522723388673
 30
0.0
 10
1202.405645921495
 20
-1081.538946533203
 30
0.0
 10
1073.406486002605
 20
-1081.864986673991
 30
0.0
 10
944.3738282945424
 20
-1081.131940884061
 30
0.0
 10
815.449700419108
 20
-1084.504477267796
 30
0.0
 10
797.9849595811629
 20
-1084.961354064941
 30
0.0
 10
781.0653839959041
 20
-1106.260390048557
 30
0.0
 10
763.8933732774522
 20
-1117.908908250596
 30
0.0
 10
780.9061943901906
 20
-1127.992418755426
 30
0.0
 10
797.2573966132268
 20
-1145.239724392361
 30
0.0
 10
815.0497548421226
 20
-1146.882918633355
 30
0.0
 10
881.654325358073
 20
-1153.034194268121
 30
0.0
 10
948.730193244086
 20
-1154.081563483345
 30
0.0
 10
1018.937203131782
 20
-1157.188971625434
 30
0.0
  0
SPLINE
  5
44
330
1F
100
AcDbEntity
  8
Layer 1
370
     0
100
AcDbSpline
210
0.0
220
0.0
230
1.0
 70
    11
 71
     3
 72
    17
 73
    13
 74
     0
 42
0.0000000001
 43
0.0000000001
 12
1.0
 22
0.0
 32
0.0
 13
1.0
 23
0.0
 33
0.0
 40
0.0
 40
0.0
 40
0.0
 40
0.0
 40
1.0
 40
1.0
 40
1.0
 40
2.0
 40
2.0
 40
2.0
 40
3.0
 40
3.0
 40
3.0
 40
4.0
 40
4.0
 40
4.0
 40
4.0
 10
1075.197941758897
 20
-293.9570846981469
 30
0.0
 10
1075.843863254124
 20
-252.7148000717161
 30
0.0
 10
1053.97416314019
 20
-233.6275382359827
 30
0.0
 10
1014.350259229872
 20
-234.0203767988414
 30
0.0
 10
974.8880610148117
 20
-234.4116193347509
 30
0.0
 10
952.052633158366
 20
-255.3702697118124
 30
0.0
 10
952.5715484619141
 20
-294.7927456325951
 30
0.0
 10
953.1096160888674
 20
-335.6723096635606
 30
0.0
 10
980.6767193264432
 20
-351.9488178253177
 30
0.0
 10
1017.943685743543
 20
-352.4777787102594
 30
0.0
 10
1056.290768093533
 20
-353.0220426771375
 30
0.0
 10
1074.479541863335
 20
-331.4084767235654
 30
0.0
 10
1075.197941758897
 20
-293.9570846981469
 30
0.0
  0
HATCH
  5
45
330
1F
100
AcDbEntity
  8
Layer 1
 62
     7
420
 16777215
100
AcDbHatch
 10
0.0
 20
0.0
 30
0.0
210
0.0
220
0.0
230
1.0
  2
SOLID
 70
     1
 71
     0
 91
        4
 92
        1
 93
        1
 72
     4
 94
        3
 73
     0
 74
     1
 95
      122
 96
      118
 40
0.0
 40
0.0
 40
0.0
 40
0.0
 40
1.0
 40
1.0
 40
1.0
 40
2.0
 40
2.0
 40
2.0
 40
3.0
 40
3.0
 40
3.0
 40
4.0
 40
4.0
 40
4.0
 40
5.0
 40
5.0
 40
5.0
 40
6.0
 40
6.0
 40
6.0
 40
7.0
 40
7.0
 40
7.0
 40
8.0
 40
8.0
 40
8.0
 40
9.0
 40
9.0
 40
9.0
 40
10.0
 40
10.0
 40
10.0
 40
11.0
 40
11.0
 40
11.0
 40
12.0
 40
12.0
 40
12.0
 40
13.0
 40
13.0
 40
13.0
 40
14.0
 40
14.0
 40
14.0
 40
15.0
 40
15.0
 40
15.0
 40
16.0
 40
16.0
 40
16.0
 40
17.0
 40
17.0
 40
17.0
 40
18.0
 40
18.0
 40
18.0
 40
19.0
 40
19.0
 40
19.0
 40
20.0
 40
20.0
 40
20.0
 40
21.0
 40
21.0
 40
21.0
 40
22.0
 40
22.0
 40
22.0
 40
23.0
 40
23.0
 40
23.0
 40
24.0
 40
24.0
 40
24.0
 40
25.0
 40
25.0
 40
25.0
 40
26.0
 40
26.0
 40
26.0
 40
27.0
 40
27.0
 40
27.0
 40
28.0
 40
28.0
 40
28.0
 40
29.0
 40
29.0
 40
29.0
 40
30.0
 40
30.0
 40
30.0
 40
31.0
 40
31.0
 40
31.0
 40
32.0
 40
32.0
 40
32.0
 40
33.0
 40
33.0
 40
33.0
 40
34.0
 40
34.0
 40
34.0
 40
35.0
 40
35.0
 40
35.0
 40
36.0
 40
36.0
 40
36.0
 40
37.0
 40
37.0
 40
37.0
 40
38.0
 40
38.0
 40
38.0
 40
39.0
 40
39.0
 40
39.0
 40
39.0
 10
1674.200000000001
 20
-1898.844444444445
 10
1670.918568589952
 20
-1898.844444444445
 10
1667.636986965603
 20
-1898.844444444445
 10
1664.355555555556
 20
-1898.844444444445
 10
1637.77228088379
 20
-1881.515422227647
 10
1613.171834988065
 20
-1858.50033806695
 10
1584.082835557725
 20
-1848.355915662978
 10
1550.79534640842
 20
-1836.74735446506
 10
1513.607542928061
 20
-1835.841562228732
 10
1477.961238606771
 20
-1831.559703572591
 10
1315.929428100586
 20
-1812.096887207032
 10
1150.339791870118
 20
-1805.321320936415
 10
1012.454704962836
 20
-1694.529260932075
 10
923.9967325846355
 20
-1780.986153496637
 10
812.2053719414607
 20
-1801.33568488227
 10
697.011056518555
 20
-1814.581732177734
 10
610.9769421047631
 20
-1824.47454562717
 10
524.8894265068902
 20
-1835.809716796875
 10
439.9906881120469
 20
-1852.447452799479
 10
416.1240390777584
 20
-1857.12482571072
 10
396.3724169413254
 20
-1882.800355360243
 10
374.7333145565453
 20
-1898.844444444445
 10
368.1703766292994
 20
-1898.844444444445
 10
361.6074011484779
 20
-1898.844444444445
 10
355.0444444444447
 20
-1898.844444444445
 10
306.3143899917604
 20
-1840.23668246799
 10
258.0715744018553
 20
-1781.213427734376
 10
208.6109198358326
 20
-1723.228904893664
 10
189.2291652096646
 20
-1700.506738620334
 10
192.6083204110464
 20
-1681.718835110134
 10
207.5126749144656
 20
-1657.56587761773
 10
263.9557877858479
 20
-1566.098587036133
 10
337.9626937442354
 20
-1513.217895507812
 10
451.6765345679387
 20
-1529.758743286133
 10
495.1636686537004
 20
-1536.084567938911
 10
540.6364668104379
 20
-1537.377762858074
 10
584.2180669148765
 20
-1532.373974270291
 10
646.3717125786679
 20
-1525.237893676758
 10
707.6175381130643
 20
-1510.194982910156
 10
769.2511043124732
 20
-1498.529340277779
 10
735.2746572706437
 20
-1477.342664591471
 10
701.9955801222059
 20
-1469.616542222764
 10
670.891944037543
 20
-1456.665666029188
 10
620.1538717481826
 20
-1435.539526706272
 10
606.5775407579213
 20
-1402.799118041992
 10
622.5084058125813
 20
-1350.266698371041
 10
632.9720336066348
 20
-1315.762773810493
 10
642.6599923027889
 20
-1280.97261589898
 10
654.6195667690699
 20
-1246.987756856282
 10
666.4885244581437
 20
-1213.260365125869
 10
662.1234470791287
 20
-1185.954484558106
 10
639.0503426445857
 20
-1156.495957946778
 10
608.9036843193899
 20
-1118.006247117784
 10
582.6242180718318
 20
-1075.844247266981
 10
559.3257170783145
 20
-1032.750993855794
 10
479.5867460462778
 20
-885.2648096720377
 10
503.9794080098472
 20
-726.8203795539011
 10
622.5633091396758
 20
-609.0649478488504
 10
699.573750050863
 20
-532.5926872253422
 10
782.2946251763242
 20
-463.8365221659342
 10
883.1711142645945
 20
-421.9703318277998
 10
869.4088555230037
 20
-391.9505294799801
 10
853.7607313368053
 20
-364.9950988769533
 10
844.3886357625324
 20
-336.0103293948705
 10
817.641552395291
 20
-253.2914258321125
 10
849.8189578586152
 20
-176.2219037585792
 10
921.0142276340066
 20
-146.0579590532516
 10
935.8583297729492
 20
-139.7688054667578
 10
950.6071960449217
 20
-133.254832707511
 10
965.3999999999996
 20
-126.8444550063878
 10
1001.496271260579
 20
-126.8444444444449
 10
1037.59261762831
 20
-126.8444444444449
 10
1073.68888888889
 20
-126.8444491386417
 10
1078.913792928061
 20
-130.29954940478
 10
1083.766991678873
 20
-134.6009734736544
 10
1089.4191051907
 20
-137.0833915445537
 10
1181.575879414877
 20
-177.558266512553
 10
1216.458869764539
 20
-261.1479342142738
 10
1178.780616590711
 20
-354.7282705942789
 10
1169.29375729031
 20
-378.2905103471549
 10
1155.910414123535
 20
-400.2838743845623
 10
1148.650932481554
 20
-414.5078167809379
 10
1225.489603339302
 20
-469.236876508925
 10
1303.243454827203
 20
-515.70983903673
 10
1370.473067050511
 20
-574.2657770792648
 10
1535.486255900065
 20
-717.989543660482
 10
1569.314516533746
 20
-888.5017025417756
 10
1444.809843614366
 20
-1067.302686564128
 10
1375.419098239476
 20
-1166.954853990343
 10
1369.803336588542
 20
-1250.826333109539
 10
1407.945226203072
 20
-1354.389855617947
 10
1425.967787848578
 20
-1403.325018310547
 10
1407.238918558756
 20
-1436.627228461371
 10
1359.190696207683
 20
-1456.461825222439
 10
1328.028063456217
 20
-1469.325877549913
 10
1294.737269592286
 20
-1477.034725273979
 10
1254.43529832628
 20
-1489.520988633898
 10
1275.567145792644
 20
-1496.849794175891
 10
1289.984789530436
 20
-1502.020470852322
 10
1304.51246524387
 20
-1506.860976494683
 10
1398.25077073839
 20
-1538.093984646268
 10
1494.594468180339
 20
-1538.677567206489
 10
1591.347950236002
 20
-1529.314108954535
 10
1681.227175225153
 20
-1520.615799628364
 10
1751.239056735569
 20
-1552.298248969184
 10
1802.295395575629
 20
-1626.584177992079
 10
1815.158095974391
 20
-1645.299077351889
 10
1828.457018703884
 20
-1663.713848537869
 10
1841.555555555555
 20
-1682.266666666666
 10
1841.555555555555
 20
-1688.829679701063
 10
1841.555555555555
 20
-1695.392542521158
 10
1841.555555555555
 20
-1701.955555555556
 10
1830.537336561414
 20
-1715.44765387641
 10
1819.773280164931
 20
-1729.157112291125
 10
1808.456134711372
 20
-1742.393395657009
 10
1763.798324245876
 20
-1794.624260118273
 10
1718.967016262479
 20
-1846.706863064235
 10
1674.200000000001
 20
-1898.844444444445
 97
        0
 97
        0
 92
        1
 93
        1
 72
     4
 94
        3
 73
     0
 74
     1
 95
       32
 96
       28
 40
0.0
 40
0.0
 40
0.0
 40
0.0
 40
1.0
 40
1.0
 40
1.0
 40
2.0
 40
2.0
 40
2.0
 40
3.0
 40
3.0
 40
3.0
 40
4.0
 40
4.0
 40
4.0
 40
5.0
 40
5.0
 40
5.0
 40
6.0
 40
6.0
 40
6.0
 40
7.0
 40
7.0
 40
7.0
 40
8.0
 40
8.0
 40
8.0
 40
9.0
 40
9.0
 40
9.0
 40
9.0
 10
1267.938888041179
 20
-1283.354188537598
 10
1268.174198744033
 20
-1275.562122090658
 10
1268.409509446887
 20
-1267.769980536566
 10
1268.644820149741
 20
-1259.977914089626
 10
1241.900665961371
 20
-1252.760492451986
 10
1215.386790296767
 20
-1240.518552652995
 10
1188.368645222981
 20
-1239.28071170383
 10
1111.477624681262
 20
-1235.757810804578
 10
1034.372924296062
 20
-1235.682703653971
 10
957.3681915283205
 20
-1236.286114501952
 10
906.6842339409723
 20
-1236.683206007216
 10
855.7909527248803
 20
-1238.522805447048
 10
805.5080673217772
 20
-1244.251528252496
 10
791.0204237196176
 20
-1245.90223320855
 10
778.3262637668186
 20
-1263.294420539009
 10
764.809793175591
 20
-1273.469486660428
 10
777.8788880242246
 20
-1284.089112006293
 10
790.1036282857258
 20
-1296.094238959418
 10
804.3526940239799
 20
-1304.777526855469
 10
812.1506939358178
 20
-1309.529706488716
 10
823.3846206665039
 20
-1310.199512057834
 10
833.0438508775496
 20
-1310.105703226725
 10
955.6773793538414
 20
-1308.915179782443
 10
1078.337645975749
 20
-1308.321683078342
 10
1200.908084445529
 20
-1304.738471137152
 10
1223.440830485026
 20
-1304.079706319173
 10
1245.604725307889
 20
-1290.805418735081
 10
1267.938888041179
 20
-1283.354188537598
 97
        0
 97
        0
 92
        1
 93
        1
 72
     4
 94
        3
 73
     0
 74
     1
 95
       29
 96
       25
 40
0.0
 40
0.0
 40
0.0
 40
0.0
 40
1.0
 40
1.0
 40
1.0
 40
2.0
 40
2.0
 40
2.0
 40
3.0
 40
3.0
 40
3.0
 40
4.0
 40
4.0
 40
4.0
 40
5.0
 40
5.0
 40
5.0
 40
6.0
 40
6.0
 40
6.0
 40
7.0
 40
7.0
 40
7.0
 40
8.0
 40
8.0
 40
8.0
 40
8.0
 10
1018.937203131782
 20
-1157.188971625434
 10
1084.241068013509
 20
-1153.970329793294
 10
1152.887877061632
 20
-1152.287854512533
 10
1221.104247029623
 20
-1145.962555609809
 10
1237.055728997124
 20
-1144.483470492893
 10
1251.54780392117
 20
-1127.266132609049
 10
1266.711336771647
 20
-1117.289724900987
 10
1251.708908759223
 20
-1106.459123569064
 10
1237.075632392036
 20
-1095.0486199273
 10
1221.493151855469
 20
-1085.129068332248
 10
1216.40088704427
 20
-1081.887443712023
 10
1208.835644192166
 20
-1081.522723388673
 10
1202.405645921495
 20
-1081.538946533203
 10
1073.406486002605
 20
-1081.864986673991
 10
944.3738282945424
 20
-1081.131940884061
 10
815.449700419108
 20
-1084.504477267796
 10
797.9849595811629
 20
-1084.961354064941
 10
781.0653839959041
 20
-1106.260390048557
 10
763.8933732774522
 20
-1117.908908250596
 10
780.9061943901906
 20
-1127.992418755426
 10
797.2573966132268
 20
-1145.239724392361
 10
815.0497548421226
 20
-1146.882918633355
 10
881.654325358073
 20
-1153.034194268121
 10
948.730193244086
 20
-1154.081563483345
 10
1018.937203131782
 20
-1157.188971625434
 97
        0
 97
        0
 92
        1
 93
        1
 72
     4
 94
        3
 73
     0
 74
     1
 95
       17
 96
       13
 40
0.0
 40
0.0
 40
0.0
 40
0.0
 40
1.0
 40
1.0
 40
1.0
 40
2.0
 40
2.0
 40
2.0
 40
3.0
 40
3.0
 40
3.0
 40
4.0
 40
4.0
 40
4.0
 40
4.0
 10
1075.197941758897
 20
-293.9570846981469
 10
1075.843863254124
 20
-252.7148000717161
 10
1053.97416314019
 20
-233.6275382359827
 10
1014.350259229872
 20
-234.0203767988414
 10
974.8880610148117
 20
-234.4116193347509
 10
952.052633158366
 20
-255.3702697118124
 10
952.5715484619141
 20
-294.7927456325951
 10
953.1096160888674
 20
-335.6723096635606
 10
980.6767193264432
 20
-351.9488178253177
 10
1017.943685743543
 20
-352.4777787102594
 10
1056.290768093533
 20
-353.0220426771375
 10
1074.479541863335
 20
-331.4084767235654
 10
1075.197941758897
 20
-293.9570846981469
 97
        0
 97
        0
 75
     2
 76
     1
 98
        0
  0
ENDSEC
  0
SECTION
  2
OBJECTS
  0
DICTIONARY
  5
C
330
0
100
AcDbDictionary
281
     1
  3
ACAD_GROUP
350
D
  3
ACAD_LAYOUT
350
1A
  3
ACAD_MATERIAL
350
3B
  3
ACAD_MLEADERSTYLE
350
47
  3
ACAD_MLINESTYLE
350
17
  3
ACAD_PLOTSETTINGS
350
19
  3
ACAD_PLOTSTYLENAME
350
E
  3
ACAD_TABLESTYLE
350
46
  3
ACAD_VISUALSTYLE
350
2A
  0
SUN
  5
3F
330
29
100
AcDbSun
 90
        1
290
     0
 63
     7
421
 16777215
 40
1.0
291
     1
 91
  2455826
 92
 54000000
292
     0
 70
     2
 71
   256
280
     1
  0
DICTIONARY
  5
D
102
{ACAD_REACTORS
330
C
102
}
330
C
100
AcDbDictionary
281
     1
  0
DICTIONARY
  5
1A
102
{ACAD_REACTORS
330
C
102
}
330
C
100
AcDbDictionary
281
     1
  3
Layout1
350
1E
  3
Layout2
350
26
  3
Model
350
22
  0
DICTIONARY
  5
3B
102
{ACAD_REACTORS
330
C
102
}
330
C
100
AcDbDictionary
281
     1
  3
ByBlock
350
3D
  3
ByLayer
350
3C
  3
Global
350
3E
  0
DICTIONARY
  5
47
102
{ACAD_REACTORS
330
C
102
}
330
C
100
AcDbDictionary
281
     1
  0
DICTIONARY
  5
17
102
{ACAD_REACTORS
330
C
102
}
330
C
100
AcDbDictionary
281
     1
  3
Standard
350
18
  0
DICTIONARY
  5
19
102
{ACAD_REACTORS
330
C
102
}
330
C
100
AcDbDictionary
281
     1
  0
ACDBDICTIONARYWDFLT
  5
E
102
{ACAD_REACTORS
330
C
102
}
330
C
100
AcDbDictionary
281
     1
  3
Normal
350
F
100
AcDbDictionaryWithDefault
340
F
  0
DICTIONARY
  5
46
102
{ACAD_REACTORS
330
C
102
}
330
C
100
AcDbDictionary
281
     1
  0
DICTIONARY
  5
2A
102
{ACAD_REACTORS
330
C
102
}
330
C
100
AcDbDictionary
281
     1
  3
2dWireframe
350
2F
  3
3D Hidden
350
31
  3
3dWireframe
350
30
  3
Basic
350
32
  3
Brighten
350
36
  3
ColorChange
350
3A
  3
Conceptual
350
34
  3
Dim
350
35
  3
Facepattern
350
39
  3
Flat
350
2B
  3
FlatWithEdges
350
2C
  3
Gouraud
350
2D
  3
GouraudWithEdges
350
2E
  3
Linepattern
350
38
  3
Realistic
350
33
  3
Thicken
350
37
  0
LAYOUT
  5
1E
102
{ACAD_REACTORS
330
1A
102
}
330
1A
100
AcDbPlotSettings
  1

  2
none_device
  4

  6

 40
0.0
 41
0.0
 42
0.0
 43
0.0
 44
0.0
 45
0.0
 46
0.0
 47
0.0
 48
0.0
 49
0.0
140
0.0
141
0.0
142
1.0
143
1.0
 70
   688
 72
     0
 73
     0
 74
     5
  7

 75
    16
 76
     0
 77
     2
 78
   300
147
1.0
148
0.0
149
0.0
100
AcDbLayout
  1
Layout1
 70
     1
 71
     1
 10
0.0
 20
0.0
 11
12.0
 21
9.0
 12
0.0
 22
0.0
 32
0.0
 14
1.000000000000000E+20
 24
1.000000000000000E+20
 34
1.000000000000000E+20
 15
-1.000000000000000E+20
 25
-1.000000000000000E+20
 35
-1.000000000000000E+20
146
0.0
 13
0.0
 23
0.0
 33
0.0
 16
1.0
 26
0.0
 36
0.0
 17
0.0
 27
1.0
 37
0.0
 76
     0
330
1B
  0
LAYOUT
  5
26
102
{ACAD_REACTORS
330
1A
102
}
330
1A
100
AcDbPlotSettings
  1

  2
none_device
  4

  6

 40
0.0
 41
0.0
 42
0.0
 43
0.0
 44
0.0
 45
0.0
 46
0.0
 47
0.0
 48
0.0
 49
0.0
140
0.0
141
0.0
142
1.0
143
1.0
 70
   688
 72
     0
 73
     0
 74
     5
  7

 75
    16
 76
     0
 77
     2
 78
   300
147
1.0
148
0.0
149
0.0
100
AcDbLayout
  1
Layout2
 70
     1
 71
     2
 10
0.0
 20
0.0
 11
0.0
 21
0.0
 12
0.0
 22
0.0
 32
0.0
 14
0.0
 24
0.0
 34
0.0
 15
0.0
 25
0.0
 35
0.0
146
0.0
 13
0.0
 23
0.0
 33
0.0
 16
1.0
 26
0.0
 36
0.0
 17
0.0
 27
1.0
 37
0.0
 76
     0
330
23
  0
LAYOUT
  5
22
102
{ACAD_REACTORS
330
1A
102
}
330
1A
100
AcDbPlotSettings
  1

  2
none_device
  4

  6

 40
0.0
 41
0.0
 42
0.0
 43
0.0
 44
0.0
 45
0.0
 46
0.0
 47
0.0
 48
0.0
 49
0.0
140
0.0
141
0.0
142
1.0
143
1.0
 70
  1712
 72
     0
 73
     0
 74
     0
  7

 75
     0
 76
     0
 77
     2
 78
   300
147
1.0
148
0.0
149
0.0
100
AcDbLayout
  1
Model
 70
     1
 71
     0
 10
0.0
 20
0.0
 11
12.0
 21
9.0
 12
0.0
 22
0.0
 32
0.0
 14
1.000000000000000E+20
 24
1.000000000000000E+20
 34
1.000000000000000E+20
 15
-1.000000000000000E+20
 25
-1.000000000000000E+20
 35
-1.000000000000000E+20
146
0.0
 13
0.0
 23
0.0
 33
0.0
 16
1.0
 26
0.0
 36
0.0
 17
0.0
 27
1.0
 37
0.0
 76
     0
330
1F
331
29
  0
MATERIAL
  5
3D
102
{ACAD_REACTORS
330
3B
102
}
330
3B
100
AcDbMaterial
  1
ByBlock
 72
     1
 94
      127
  0
MATERIAL
  5
3C
102
{ACAD_REACTORS
330
3B
102
}
330
3B
100
AcDbMaterial
  1
ByLayer
 72
     1
 94
      127
  0
MATERIAL
  5
3E
102
{ACAD_REACTORS
330
3B
102
}
330
3B
100
AcDbMaterial
  1
Global
 72
     1
 94
      127
  0
MLINESTYLE
  5
18
102
{ACAD_REACTORS
330
17
102
}
330
17
100
AcDbMlineStyle
  2
Standard
 70
     0
  3

 62
   256
 51
90.0
 52
90.0
 71
     2
 49
0.5
 62
   256
  6
BYLAYER
 49
-0.5
 62
   256
  6
BYLAYER
  0
ACDBPLACEHOLDER
  5
F
102
{ACAD_REACTORS
330
E
102
}
330
E
  0
VISUALSTYLE
  5
2F
102
{ACAD_REACTORS
330
2A
102
}
330
2A
100
AcDbVisualStyle
  2
2dWireframe
 70
     4
177
     2
291
     0
 71
     0
176
     1
 72
     2
176
     1
 73
     0
176
     1
 90
        0
176
     1
 40
-0.6
176
     1
 41
-30.0
176
     1
 62
     5
 63
     7
421
 16777215
176
     1
 74
     1
176
     1
 91
        4
176
     1
 64
     7
176
     1
 65
   257
176
     1
 75
     1
176
     1
175
     1
176
     1
 42
1.0
176
     1
 92
        0
176
     1
 66
   257
176
     1
 43
1.0
176
     1
 76
     1
176
     1
 77
     6
176
     1
 78
     2
176
     1
 67
     7
176
     1
 79
     5
176
     1
170
     0
176
     1
171
     0
176
     1
290
     0
176
     1
 93
        1
176
     1
 44
0.0
176
     1
173
     0
176
     1
  0
VISUALSTYLE
  5
31
102
{ACAD_REACTORS
330
2A
102
}
330
2A
100
AcDbVisualStyle
  2
3D Hidden
 70
     6
177
     2
291
     0
 71
     1
176
     1
 72
     2
176
     1
 73
     2
176
     1
 90
        0
176
     1
 40
-0.6
176
     1
 41
-30.0
176
     1
 62
     5
 63
     7
421
 16777215
176
     1
 74
     2
176
     1
 91
        2
176
     1
 64
     7
176
     1
 65
   257
176
     1
 75
     2
176
     1
175
     1
176
     1
 42
40.0
176
     1
 92
        0
176
     1
 66
   257
176
     1
 43
1.0
176
     1
 76
     1
176
     1
 77
     6
176
     1
 78
     2
176
     1
 67
     7
176
     1
 79
     3
176
     1
170
     0
176
     1
171
     0
176
     1
290
     0
176
     1
 93
        1
176
     1
 44
0.0
176
     1
173
     0
176
     1
  0
VISUALSTYLE
  5
30
102
{ACAD_REACTORS
330
2A
102
}
330
2A
100
AcDbVisualStyle
  2
3dWireframe
 70
     5
177
     2
291
     0
 71
     0
176
     1
 72
     2
176
     1
 73
     0
176
     1
 90
        0
176
     1
 40
-0.6
176
     1
 41
-30.0
176
     1
 62
     5
 63
     7
421
 16777215
176
     1
 74
     1
176
     1
 91
        4
176
     1
 64
     7
176
     1
 65
   257
176
     1
 75
     1
176
     1
175
     1
176
     1
 42
1.0
176
     1
 92
        0
176
     1
 66
   257
176
     1
 43
1.0
176
     1
 76
     1
176
     1
 77
     6
176
     1
 78
     2
176
     1
 67
     7
176
     1
 79
     5
176
     1
170
     0
176
     1
171
     0
176
     1
290
     0
176
     1
 93
        1
176
     1
 44
0.0
176
     1
173
     0
176
     1
  0
VISUALSTYLE
  5
32
102
{ACAD_REACTORS
330
2A
102
}
330
2A
100
AcDbVisualStyle
  2
Basic
 70
     7
177
     2
291
     1
 71
     1
176
     1
 72
     0
176
     1
 73
     1
176
     1
 90
        0
176
     1
 40
-0.6
176
     1
 41
-30.0
176
     1
 62
     5
 63
     7
421
 16777215
176
     1
 74
     0
176
     1
 91
        4
176
     1
 64
     7
176
     1
 65
   257
176
     1
 75
     1
176
     1
175
     1
176
     1
 42
1.0
176
     1
 92
        8
176
     1
 66
     7
176
     1
 43
1.0
176
     1
 76
     1
176
     1
 77
     6
176
     1
 78
     2
176
     1
 67
     7
176
     1
 79
     5
176
     1
170
     0
176
     1
171
     0
176
     1
290
     0
176
     1
 93
        1
176
     1
 44
0.0
176
     1
173
     0
176
     1
  0
VISUALSTYLE
  5
36
102
{ACAD_REACTORS
330
2A
102
}
330
2A
100
AcDbVisualStyle
  2
Brighten
 70
    12
177
     2
291
     1
 71
     2
176
     1
 72
     2
176
     1
 73
     0
176
     1
 90
        0
176
     1
 40
-0.6
176
     1
 41
-30.0
176
     1
 62
     5
 63
     7
421
 16777215
176
     1
 74
     1
176
     1
 91
        4
176
     1
 64
     7
176
     1
 65
   257
176
     1
 75
     1
176
     1
175
     1
176
     1
 42
1.0
176
     1
 92
        8
176
     1
 66
     7
176
     1
 43
1.0
176
     1
 76
     1
176
     1
 77
     6
176
     1
 78
     2
176
     1
 67
     7
176
     1
 79
     5
176
     1
170
     0
176
     1
171
     0
176
     1
290
     0
176
     1
 93
        1
176
     1
 44
50.0
176
     1
173
     0
176
     1
  0
VISUALSTYLE
  5
3A
102
{ACAD_REACTORS
330
2A
102
}
330
2A
100
AcDbVisualStyle
  2
ColorChange
 70
    16
177
     2
291
     1
 71
     2
176
     1
 72
     2
176
     1
 73
     3
176
     1
 90
        0
176
     1
 40
-0.6
176
     1
 41
-30.0
176
     1
 62
     5
 63
     8
421
  8421504
176
     1
 74
     1
176
     1
 91
        4
176
     1
 64
     7
176
     1
 65
   257
176
     1
 75
     1
176
     1
175
     1
176
     1
 42
1.0
176
     1
 92
        8
176
     1
 66
     8
424
  8421504
176
     1
 43
1.0
176
     1
 76
     1
176
     1
 77
     6
176
     1
 78
     2
176
     1
 67
     7
176
     1
 79
     5
176
     1
170
     0
176
     1
171
     0
176
     1
290
     0
176
     1
 93
        1
176
     1
 44
0.0
176
     1
173
     0
176
     1
  0
VISUALSTYLE
  5
34
102
{ACAD_REACTORS
330
2A
102
}
330
2A
100
AcDbVisualStyle
  2
Conceptual
 70
     9
177
     2
291
     0
 71
     3
176
     1
 72
     2
176
     1
 73
     0
176
     1
 90
        0
176
     1
 40
-0.6
176
     1
 41
-30.0
176
     1
 62
     5
 63
     7
421
 16777215
176
     1
 74
     2
176
     1
 91
        2
176
     1
 64
     7
176
     1
 65
   257
176
     1
 75
     1
176
     1
175
     1
176
     1
 42
40.0
176
     1
 92
        8
176
     1
 66
     7
176
     1
 43
1.0
176
     1
 76
     1
176
     1
 77
     6
176
     1
 78
     2
176
     1
 67
     7
176
     1
 79
     3
176
     1
170
     0
176
     1
171
     0
176
     1
290
     0
176
     1
 93
        1
176
     1
 44
0.0
176
     1
173
     0
176
     1
  0
VISUALSTYLE
  5
35
102
{ACAD_REACTORS
330
2A
102
}
330
2A
100
AcDbVisualStyle
  2
Dim
 70
    11
177
     2
291
     1
 71
     2
176
     1
 72
     2
176
     1
 73
     0
176
     1
 90
        0
176
     1
 40
-0.6
176
     1
 41
-30.0
176
     1
 62
     5
 63
     7
421
 16777215
176
     1
 74
     1
176
     1
 91
        4
176
     1
 64
     7
176
     1
 65
   257
176
     1
 75
     1
176
     1
175
     1
176
     1
 42
1.0
176
     1
 92
        8
176
     1
 66
     7
176
     1
 43
1.0
176
     1
 76
     1
176
     1
 77
     6
176
     1
 78
     2
176
     1
 67
     7
176
     1
 79
     5
176
     1
170
     0
176
     1
171
     0
176
     1
290
     0
176
     1
 93
        1
176
     1
 44
-50.0
176
     1
173
     0
176
     1
  0
VISUALSTYLE
  5
39
102
{ACAD_REACTORS
330
2A
102
}
330
2A
100
AcDbVisualStyle
  2
Facepattern
 70
    15
177
     2
291
     1
 71
     2
176
     1
 72
     2
176
     1
 73
     0
176
     1
 90
        0
176
     1
 40
-0.6
176
     1
 41
-30.0
176
     1
 62
     5
 63
     7
421
 16777215
176
     1
 74
     1
176
     1
 91
        4
176
     1
 64
     7
176
     1
 65
   257
176
     1
 75
     1
176
     1
175
     1
176
     1
 42
1.0
176
     1
 92
        8
176
     1
 66
     7
176
     1
 43
1.0
176
     1
 76
     1
176
     1
 77
     6
176
     1
 78
     2
176
     1
 67
     7
176
     1
 79
     5
176
     1
170
     0
176
     1
171
     0
176
     1
290
     0
176
     1
 93
        1
176
     1
 44
0.0
176
     1
173
     0
176
     1
  0
VISUALSTYLE
  5
2B
102
{ACAD_REACTORS
330
2A
102
}
330
2A
100
AcDbVisualStyle
  2
Flat
 70
     0
177
     2
291
     1
 71
     2
176
     1
 72
     1
176
     1
 73
     1
176
     1
 90
        2
176
     1
 40
-0.6
176
     1
 41
30.0
176
     1
 62
     5
 63
     7
421
 16777215
176
     1
 74
     0
176
     1
 91
        4
176
     1
 64
     7
176
     1
 65
   257
176
     1
 75
     1
176
     1
175
     1
176
     1
 42
1.0
176
     1
 92
        8
176
     1
 66
     7
176
     1
 43
1.0
176
     1
 76
     1
176
     1
 77
     6
176
     1
 78
     2
176
     1
 67
     7
176
     1
 79
     5
176
     1
170
     0
176
     1
171
     0
176
     1
290
     0
176
     1
 93
       13
176
     1
 44
0.0
176
     1
173
     0
176
     1
  0
VISUALSTYLE
  5
2C
102
{ACAD_REACTORS
330
2A
102
}
330
2A
100
AcDbVisualStyle
  2
FlatWithEdges
 70
     1
177
     2
291
     1
 71
     2
176
     1
 72
     1
176
     1
 73
     1
176
     1
 90
        2
176
     1
 40
-0.6
176
     1
 41
30.0
176
     1
 62
     5
 63
     7
421
 16777215
176
     1
 74
     1
176
     1
 91
        4
176
     1
 64
     7
176
     1
 65
   257
176
     1
 75
     1
176
     1
175
     1
176
     1
 42
1.0
176
     1
 92
        0
176
     1
 66
   257
176
     1
 43
1.0
176
     1
 76
     1
176
     1
 77
     6
176
     1
 78
     2
176
     1
 67
     7
176
     1
 79
     5
176
     1
170
     0
176
     1
171
     0
176
     1
290
     0
176
     1
 93
       13
176
     1
 44
0.0
176
     1
173
     0
176
     1
  0
VISUALSTYLE
  5
2D
102
{ACAD_REACTORS
330
2A
102
}
330
2A
100
AcDbVisualStyle
  2
Gouraud
 70
     2
177
     2
291
     1
 71
     2
176
     1
 72
     2
176
     1
 73
     1
176
     1
 90
        2
176
     1
 40
-0.6
176
     1
 41
30.0
176
     1
 62
     5
 63
     7
421
 16777215
176
     1
 74
     0
176
     1
 91
        4
176
     1
 64
     7
176
     1
 65
   257
176
     1
 75
     1
176
     1
175
     1
176
     1
 42
1.0
176
     1
 92
        0
176
     1
 66
     7
176
     1
 43
1.0
176
     1
 76
     1
176
     1
 77
     6
176
     1
 78
     2
176
     1
 67
     7
176
     1
 79
     5
176
     1
170
     0
176
     1
171
     0
176
     1
290
     0
176
     1
 93
       13
176
     1
 44
0.0
176
     1
173
     0
176
     1
  0
VISUALSTYLE
  5
2E
102
{ACAD_REACTORS
330
2A
102
}
330
2A
100
AcDbVisualStyle
  2
GouraudWithEdges
 70
     3
177
     2
291
     1
 71
     2
176
     1
 72
     2
176
     1
 73
     1
176
     1
 90
        2
176
     1
 40
-0.6
176
     1
 41
30.0
176
     1
 62
     5
 63
     7
421
 16777215
176
     1
 74
     1
176
     1
 91
        4
176
     1
 64
     7
176
     1
 65
   257
176
     1
 75
     1
176
     1
175
     1
176
     1
 42
1.0
176
     1
 92
        0
176
     1
 66
   257
176
     1
 43
1.0
176
     1
 76
     1
176
     1
 77
     6
176
     1
 78
     2
176
     1
 67
     7
176
     1
 79
     5
176
     1
170
     0
176
     1
171
     0
176
     1
290
     0
176
     1
 93
       13
176
     1
 44
0.0
176
     1
173
     0
176
     1
  0
VISUALSTYLE
  5
38
102
{ACAD_REACTORS
330
2A
102
}
330
2A
100
AcDbVisualStyle
  2
Linepattern
 70
    14
177
     2
291
     1
 71
     2
176
     1
 72
     2
176
     1
 73
     0
176
     1
 90
        0
176
     1
 40
-0.6
176
     1
 41
-30.0
176
     1
 62
     5
 63
     7
421
 16777215
176
     1
 74
     1
176
     1
 91
        4
176
     1
 64
     7
176
     1
 65
   257
176
     1
 75
     7
176
     1
175
     7
176
     1
 42
1.0
176
     1
 92
        8
176
     1
 66
     7
176
     1
 43
1.0
176
     1
 76
     1
176
     1
 77
     6
176
     1
 78
     2
176
     1
 67
     7
176
     1
 79
     5
176
     1
170
     0
176
     1
171
     0
176
     1
290
     0
176
     1
 93
        1
176
     1
 44
0.0
176
     1
173
     0
176
     1
  0
VISUALSTYLE
  5
33
102
{ACAD_REACTORS
330
2A
102
}
330
2A
100
AcDbVisualStyle
  2
Realistic
 70
     8
177
     2
291
     0
 71
     2
176
     1
 72
     2
176
     1
 73
     0
176
     1
 90
        0
176
     1
 40
-0.6
176
     1
 41
-30.0
176
     1
 62
     5
 63
     7
421
 16777215
176
     1
 74
     1
176
     1
 91
        0
176
     1
 64
     7
176
     1
 65
   257
176
     1
 75
     1
176
     1
175
     1
176
     1
 42
1.0
176
     1
 92
        8
176
     1
 66
     8
424
  7895160
176
     1
 43
1.0
176
     1
 76
     1
176
     1
 77
     6
176
     1
 78
     2
176
     1
 67
     7
176
     1
 79
     5
176
     1
170
     0
176
     1
171
     0
176
     1
290
     0
176
     1
 93
       13
176
     1
 44
0.0
176
     1
173
     0
176
     1
  0
VISUALSTYLE
  5
37
102
{ACAD_REACTORS
330
2A
102
}
330
2A
100
AcDbVisualStyle
  2
Thicken
 70
    13
177
     2
291
     1
 71
     2
176
     1
 72
     2
176
     1
 73
     0
176
     1
 90
        0
176
     1
 40
-0.6
176
     1
 41
-30.0
176
     1
 62
     5
 63
     7
421
 16777215
176
     1
 74
     1
176
     1
 91
        4
176
     1
 64
     7
176
     1
 65
   257
176
     1
 75
     1
176
     1
175
     1
176
     1
 42
1.0
176
     1
 92
       12
176
     1
 66
     7
176
     1
 43
1.0
176
     1
 76
     1
176
     1
 77
     6
176
     1
 78
     2
176
     1
 67
     7
176
     1
 79
     5
176
     1
170
     0
176
     1
171
     0
176
     1
290
     0
176
     1
 93
        1
176
     1
 44
0.0
176
     1
173
     0
176
     1
  0
ENDSEC
  0
EOF
