<?xml version="1.0" encoding="utf-8"?>
<!-- Generator: Adobe Illustrator 22.0.1, SVG Export Plug-In . SVG Version: 6.00 Build 0)  -->
<svg version="1.1" id="Layer_1" xmlns="http://www.w3.org/2000/svg" xmlns:xlink="http://www.w3.org/1999/xlink" x="0px" y="0px"
	 viewBox="0 0 2000 2000" style="enable-background:new 0 0 2000 2000;" xml:space="preserve">
<path d="M845.2,903.1c-34,0-64.8,0.1-95.7,0c-33.7-0.2-45.1-11.6-45.2-44.8c0-14.6-0.2-29.2-0.1-43.8c0.1-27.8,13.7-41,41.8-40.9
	c8.4,0,16.9,0,27.2,0c-2.5-5.4-4.3-8.9-5.8-12.5c-9.7-22.5,2.5-44.3,26.8-46.7c12.6-1.2,25.4-0.2,42.1-0.2
	c-13.5-21.3-16.1-40.1,3.2-55.5c-19.4-31.6-19.2-39.6-2.4-59.4c-11.3-29.8-22.6-56.9-31.7-84.6c-32.8-99.8-65-199.8-97.1-299.8
	c-11.8-36.8-3.6-47.6,35.4-47.8c6,0,12,0,20.8,0c0-10.1-0.5-18.9,0.1-27.7c1.6-23.5,9.7-31.4,33-31.8c20.7-0.4,41.4,0.6,62-0.3
	c19.1-0.9,28.3,8.5,31,25.9c1.7,10.7,2.3,21.5,3.4,33c16.9,0,32.6,0,51.2,0c0-24.8,0-49.5,0-74.2c0.1-34.4,11.2-45.4,46-45.4
	c33.4-0.1,66.9-0.1,100.3,0c29.5,0.2,40.8,11.1,41.4,40.5c0.4,21.9,0.4,43.8-0.1,65.6c-0.2,11,3.8,15.3,15,14.6
	c12-0.8,24.1-0.2,37.9-0.2c1.4-12.4,2.9-23.6,3.8-34.8c1.4-16.8,9.7-25.2,27.1-24.9c20.7,0.4,41.3-0.1,62,0.1
	c25,0.2,32.4,6.9,35,31.6c0.9,8.4,0.9,16.9,1.4,27.9c6.8,0,13.3,0,19.7,0c40,0.1,47.3,9.6,35.4,47.2
	c-21.7,68.9-43.8,137.7-65.7,206.6c-12.9,40.5-25.2,81.2-39.1,121.4c-6.4,18.5-15.9,35.9-24.7,55.3c19.1,21.4,19.4,34.1-0.3,57.6
	c4.7,9.2,11.8,17.7,13,26.9c1.2,9.4-3.4,19.5-5.3,28.9c16.6,2.8,36.6,2,52.2,9.8c21.6,10.8,13.6,31.8,5.3,52.7c12,0,22-0.2,32,0
	c22.8,0.5,35.1,11.9,36,34.6c0.8,19.4,0.7,38.9,0,58.3c-0.8,24.7-12.9,36.3-38,36.5c-35.2,0.3-70.3,0.1-107.4,0.1
	c3.7,27,7.3,52.4,10.8,77.9c12.8,92,27,183.9,37.7,276.2c5,43.2,2.7,87.3,4.3,131c1.1,29.8,3.9,59.5,4.7,89.2
	c1.1,42.1,20.1,77.9,42.9,110.6c30.4,43.7,65.5,84,98.2,126.2c4.9,6.3,9.7,14.4,10.4,22c3.6,35.9-4,69.2-29.2,96.3
	c-9.6,10.3-8.1,18.3,1,26c13.4,11.3,27.6,21.8,41.7,32.3c20.9,15.6,22.1,25.6,2.5,43.2c-16.2,14.6-33.5,28.2-51,41.1
	c-4.8,3.5-12.4,4.6-18.7,4.6c-232.8,0.2-465.6,0.3-698.4-0.1c-7.1,0-15.9-2.6-21-7.2c-19.3-17.6-37.6-36.2-55.8-55
	c-19.2-19.7-17.2-32,6.4-45.5c14.2-8.1,29-15.5,42.5-24.7c17-11.6,17.6-23,2.3-36.5c-16.8-14.8-35.2-27.1-36.1-53.6
	c-1.1-31,12-55.5,30.7-77.7c16.4-19.5,37.2-35.5,51.9-56c29.9-41.8,57.2-85.5,85.1-128.8c3-4.6,2.8-11.7,3-17.6
	c1.8-55.3,1.4-110.7,5.5-165.7c4.8-64.1,13.3-127.9,20.6-191.8C827.9,1048.5,836.5,977.4,845.2,903.1z"/>
</svg>
