<?xml version="1.0" encoding="utf-8"?>
<!-- Generator: Adobe Illustrator 22.1.0, SVG Export Plug-In . SVG Version: 6.00 Build 0)  -->
<svg version="1.1" id="Layer_1" xmlns="http://www.w3.org/2000/svg" xmlns:xlink="http://www.w3.org/1999/xlink" x="0px" y="0px"
	 viewBox="0 0 2000 2000" style="enable-background:new 0 0 2000 2000;" xml:space="preserve">
<path d="M1646.6,1889c-417.3,0-834.5,0-1255.3,0c-24.9-338.9,40.2-628,382.9-784.2c-231.8-145.8-215-395.4,34.4-549.1
	c-60.6-137.7-77.1-270.3,81.6-359c93.1-52,228.8-36.9,303.6,30.1c86.4,77.3,94.7,168.3,28.2,331.4c111.3,50.2,190.1,128.6,197,258.5
	c6.6,125.9-40.8,224.1-161.5,283.9c49,31.4,94.7,57.9,137.3,88.6c141.2,101.9,218.9,241.6,241.3,413.3c1.6,12.5,6.9,24.6,10.6,36.9
	C1646.6,1722.5,1646.6,1805.8,1646.6,1889z M496.4,1769.2c350.2,0,694.7,0,1038.8,0c20.2-179.8-54.2-370.3-189.3-479
	c-51.4-41.3-109.5-74.1-162.2-113.9c-82.3-62.2-84.2-106.8,5.7-155.9c158.3-86.4,116.6-291.3,0.7-367.2
	c-116.5-76.4-114.2-79.9-57.8-209.2c35.9-82.4-4.9-160.6-91.9-175.4c-49.7-8.4-94.1,0.7-127.8,41.8c-35.8,43.7-31.6,88.5-9.1,137.6
	C959.2,569.8,960.7,574.3,854,644c-136.2,89-165.1,282.7-4.6,378.1c6.4,3.8,12.1,9.1,17.9,13.9c51.9,43.2,54.6,74.4,2.5,119.6
	c-41.2,35.7-87.5,65.7-132.6,96.9C557.3,1376.8,488,1552.6,496.4,1769.2z"/>
</svg>
