  0
SECTION
  2
HEADER
  9
$ACADVER
  1
AC1024
  9
$ACADMAINTVER
 70
     6
  9
$DWGCODEPAGE
  3
ANSI_1252
  9
$INSBASE
 10
0.0
 20
0.0
 30
0.0
  9
$EXTMIN
 10
1.000000000000000E+20
 20
1.000000000000000E+20
 30
1.000000000000000E+20
  9
$EXTMAX
 10
-1.000000000000000E+20
 20
-1.000000000000000E+20
 30
-1.000000000000000E+20
  9
$LIMMIN
 10
0.0
 20
0.0
  9
$LIMMAX
 10
12.0
 20
9.0
  9
$ORTHOMODE
 70
     0
  9
$REGENMODE
 70
     1
  9
$FILLMODE
 70
     1
  9
$QTEXTMODE
 70
     0
  9
$MIRRTEXT
 70
     1
  9
$LTSCALE
 40
1.0
  9
$ATTMODE
 70
     1
  9
$TEXTSIZE
 40
0.2
  9
$TRACEWID
 40
0.05
  9
$TEXTSTYLE
  7
Standard
  9
$CLAYER
  8
0
  9
$CELTYPE
  6
ByLayer
  9
$CECOLOR
 62
   256
  9
$CELTSCALE
 40
1.0
  9
$DISPSILH
 70
     0
  9
$DIMSCALE
 40
1.0
  9
$DIMASZ
 40
0.18
  9
$DIMEXO
 40
0.0625
  9
$DIMDLI
 40
0.38
  9
$DIMRND
 40
0.0
  9
$DIMDLE
 40
0.0
  9
$DIMEXE
 40
0.18
  9
$DIMTP
 40
0.0
  9
$DIMTM
 40
0.0
  9
$DIMTXT
 40
0.18
  9
$DIMCEN
 40
0.09
  9
$DIMTSZ
 40
0.0
  9
$DIMTOL
 70
     0
  9
$DIMLIM
 70
     0
  9
$DIMTIH
 70
     1
  9
$DIMTOH
 70
     1
  9
$DIMSE1
 70
     0
  9
$DIMSE2
 70
     0
  9
$DIMTAD
 70
     0
  9
$DIMZIN
 70
     0
  9
$DIMBLK
  1

  9
$DIMASO
 70
     1
  9
$DIMSHO
 70
     1
  9
$DIMPOST
  1

  9
$DIMAPOST
  1

  9
$DIMALT
 70
     0
  9
$DIMALTD
 70
     2
  9
$DIMALTF
 40
25.4
  9
$DIMLFAC
 40
1.0
  9
$DIMTOFL
 70
     0
  9
$DIMTVP
 40
0.0
  9
$DIMTIX
 70
     0
  9
$DIMSOXD
 70
     0
  9
$DIMSAH
 70
     0
  9
$DIMBLK1
  1

  9
$DIMBLK2
  1

  9
$DIMSTYLE
  2
Standard
  9
$DIMCLRD
 70
     0
  9
$DIMCLRE
 70
     0
  9
$DIMCLRT
 70
     0
  9
$DIMTFAC
 40
1.0
  9
$DIMGAP
 40
0.09
  9
$DIMJUST
 70
     0
  9
$DIMSD1
 70
     0
  9
$DIMSD2
 70
     0
  9
$DIMTOLJ
 70
     1
  9
$DIMTZIN
 70
     0
  9
$DIMALTZ
 70
     0
  9
$DIMALTTZ
 70
     0
  9
$DIMUPT
 70
     0
  9
$DIMDEC
 70
     4
  9
$DIMTDEC
 70
     4
  9
$DIMALTU
 70
     2
  9
$DIMALTTD
 70
     2
  9
$DIMTXSTY
  7
Standard
  9
$DIMAUNIT
 70
     0
  9
$DIMADEC
 70
     0
  9
$DIMALTRND
 40
0.0
  9
$DIMAZIN
 70
     0
  9
$DIMDSEP
 70
    46
  9
$DIMATFIT
 70
     3
  9
$DIMFRAC
 70
     0
  9
$DIMLDRBLK
  1

  9
$DIMLUNIT
 70
     2
  9
$DIMLWD
 70
    -2
  9
$DIMLWE
 70
    -2
  9
$DIMTMOVE
 70
     0
  9
$DIMFXL
 40
1.0
  9
$DIMFXLON
 70
     0
  9
$DIMJOGANG
 40
0.7853981633974483
  9
$DIMTFILL
 70
     0
  9
$DIMTFILLCLR
 70
     0
  9
$DIMARCSYM
 70
     0
  9
$DIMLTYPE
  6

  9
$DIMLTEX1
  6

  9
$DIMLTEX2
  6

  9
$DIMTXTDIRECTION
 70
     0
  9
$LUNITS
 70
     2
  9
$LUPREC
 70
     4
  9
$SKETCHINC
 40
0.1
  9
$FILLETRAD
 40
0.5
  9
$AUNITS
 70
     0
  9
$AUPREC
 70
     0
  9
$MENU
  1
.
  9
$ELEVATION
 40
0.0
  9
$PELEVATION
 40
0.0
  9
$THICKNESS
 40
0.0
  9
$LIMCHECK
 70
     0
  9
$CHAMFERA
 40
0.5
  9
$CHAMFERB
 40
0.5
  9
$CHAMFERC
 40
1.0
  9
$CHAMFERD
 40
0.0
  9
$SKPOLY
 70
     0
  9
$TDCREATE
 40
2458270.896359873
  9
$TDUCREATE
 40
2458271.06302654
  9
$TDUPDATE
 40
2458270.896359919
  9
$TDUUPDATE
 40
2458271.063026586
  9
$TDINDWG
 40
0.0000000116
  9
$TDUSRTIMER
 40
0.0000000116
  9
$USRTIMER
 70
     1
  9
$ANGBASE
 50
0.0
  9
$ANGDIR
 70
     0
  9
$PDMODE
 70
     0
  9
$PDSIZE
 40
0.0
  9
$PLINEWID
 40
0.0
  9
$SPLFRAME
 70
     0
  9
$SPLINETYPE
 70
     6
  9
$SPLINESEGS
 70
     8
  9
$HANDSEED
  5
4E
  9
$SURFTAB1
 70
     6
  9
$SURFTAB2
 70
     6
  9
$SURFTYPE
 70
     6
  9
$SURFU
 70
     6
  9
$SURFV
 70
     6
  9
$UCSBASE
  2

  9
$UCSNAME
  2

  9
$UCSORG
 10
0.0
 20
0.0
 30
0.0
  9
$UCSXDIR
 10
1.0
 20
0.0
 30
0.0
  9
$UCSYDIR
 10
0.0
 20
1.0
 30
0.0
  9
$UCSORTHOREF
  2

  9
$UCSORTHOVIEW
 70
     0
  9
$UCSORGTOP
 10
0.0
 20
0.0
 30
0.0
  9
$UCSORGBOTTOM
 10
0.0
 20
0.0
 30
0.0
  9
$UCSORGLEFT
 10
0.0
 20
0.0
 30
0.0
  9
$UCSORGRIGHT
 10
0.0
 20
0.0
 30
0.0
  9
$UCSORGFRONT
 10
0.0
 20
0.0
 30
0.0
  9
$UCSORGBACK
 10
0.0
 20
0.0
 30
0.0
  9
$PUCSBASE
  2

  9
$PUCSNAME
  2

  9
$PUCSORG
 10
0.0
 20
0.0
 30
0.0
  9
$PUCSXDIR
 10
1.0
 20
0.0
 30
0.0
  9
$PUCSYDIR
 10
0.0
 20
1.0
 30
0.0
  9
$PUCSORTHOREF
  2

  9
$PUCSORTHOVIEW
 70
     0
  9
$PUCSORGTOP
 10
0.0
 20
0.0
 30
0.0
  9
$PUCSORGBOTTOM
 10
0.0
 20
0.0
 30
0.0
  9
$PUCSORGLEFT
 10
0.0
 20
0.0
 30
0.0
  9
$PUCSORGRIGHT
 10
0.0
 20
0.0
 30
0.0
  9
$PUCSORGFRONT
 10
0.0
 20
0.0
 30
0.0
  9
$PUCSORGBACK
 10
0.0
 20
0.0
 30
0.0
  9
$USERI1
 70
     0
  9
$USERI2
 70
     0
  9
$USERI3
 70
     0
  9
$USERI4
 70
     0
  9
$USERI5
 70
     0
  9
$USERR1
 40
0.0
  9
$USERR2
 40
0.0
  9
$USERR3
 40
0.0
  9
$USERR4
 40
0.0
  9
$USERR5
 40
0.0
  9
$WORLDVIEW
 70
     1
  9
$SHADEDGE
 70
     3
  9
$SHADEDIF
 70
    70
  9
$TILEMODE
 70
     1
  9
$MAXACTVP
 70
    64
  9
$PINSBASE
 10
0.0
 20
0.0
 30
0.0
  9
$PLIMCHECK
 70
     0
  9
$PEXTMIN
 10
1.000000000000000E+20
 20
1.000000000000000E+20
 30
1.000000000000000E+20
  9
$PEXTMAX
 10
-1.000000000000000E+20
 20
-1.000000000000000E+20
 30
-1.000000000000000E+20
  9
$PLIMMIN
 10
0.0
 20
0.0
  9
$PLIMMAX
 10
12.0
 20
9.0
  9
$UNITMODE
 70
     0
  9
$VISRETAIN
 70
     1
  9
$PLINEGEN
 70
     0
  9
$PSLTSCALE
 70
     1
  9
$TREEDEPTH
 70
  3020
  9
$CMLSTYLE
  2
Standard
  9
$CMLJUST
 70
     0
  9
$CMLSCALE
 40
1.0
  9
$PROXYGRAPHICS
 70
     1
  9
$MEASUREMENT
 70
     0
  9
$CELWEIGHT
370
    -1
  9
$ENDCAPS
280
     0
  9
$JOINSTYLE
280
     0
  9
$LWDISPLAY
290
     1
  9
$INSUNITS
 70
     1
  9
$HYPERLINKBASE
  1

  9
$STYLESHEET
  1

  9
$XEDIT
290
     1
  9
$CEPSNTYPE
380
     0
  9
$PSTYLEMODE
290
     1
  9
$FINGERPRINTGUID
  2
{D56B9C01-A5EA-41A8-AD0F-18B73C805E8D}
  9
$VERSIONGUID
  2
{FAEB1C32-E019-11D5-929B-00C0DF256EC4}
  9
$EXTNAMES
290
     1
  9
$PSVPSCALE
 40
0.0
  9
$OLESTARTUP
290
     0
  9
$SORTENTS
280
   127
  9
$INDEXCTL
280
     0
  9
$HIDETEXT
280
     1
  9
$XCLIPFRAME
280
     2
  9
$HALOGAP
280
     0
  9
$OBSCOLOR
 70
   257
  9
$OBSLTYPE
280
     0
  9
$INTERSECTIONDISPLAY
280
     0
  9
$INTERSECTIONCOLOR
 70
   257
  9
$DIMASSOC
280
     2
  9
$PROJECTNAME
  1

  9
$CAMERADISPLAY
290
     0
  9
$LENSLENGTH
 40
50.0
  9
$CAMERAHEIGHT
 40
0.0
  9
$STEPSPERSEC
 40
2.0
  9
$STEPSIZE
 40
6.0
  9
$3DDWFPREC
 40
2.0
  9
$PSOLWIDTH
 40
0.25
  9
$PSOLHEIGHT
 40
4.0
  9
$LOFTANG1
 40
1.570796326794897
  9
$LOFTANG2
 40
1.570796326794897
  9
$LOFTMAG1
 40
0.0
  9
$LOFTMAG2
 40
0.0
  9
$LOFTPARAM
 70
     7
  9
$LOFTNORMALS
280
     1
  9
$LATITUDE
 40
37.795
  9
$LONGITUDE
 40
-122.394
  9
$NORTHDIRECTION
 40
0.0
  9
$TIMEZONE
 70
 -8000
  9
$LIGHTGLYPHDISPLAY
280
     1
  9
$TILEMODELIGHTSYNCH
280
     1
  9
$CMATERIAL
347
3C
  9
$SOLIDHIST
280
     1
  9
$SHOWHIST
280
     1
  9
$DWFFRAME
280
     2
  9
$DGNFRAME
280
     2
  9
$REALWORLDSCALE
290
     1
  9
$INTERFERECOLOR
 62
   256
  9
$CSHADOW
280
     0
  9
$SHADOWPLANELOCATION
 40
0.0
  0
ENDSEC
  0
SECTION
  2
CLASSES
  0
CLASS
  1
ACDBDICTIONARYWDFLT
  2
AcDbDictionaryWithDefault
  3
ObjectDBX Classes
 90
        0
 91
        4
280
     0
281
     0
  0
CLASS
  1
VISUALSTYLE
  2
AcDbVisualStyle
  3
ObjectDBX Classes
 90
     4095
 91
        4
280
     0
281
     0
  0
CLASS
  1
MATERIAL
  2
AcDbMaterial
  3
ObjectDBX Classes
 90
     1153
 91
        4
280
     0
281
     0
  0
CLASS
  1
SUN
  2
AcDbSun
  3
SCENEOE
 90
     1024
 91
        4
280
     0
281
     0
  0
ENDSEC
  0
SECTION
  2
TABLES
  0
TABLE
  2
VPORT
  5
8
330
0
100
AcDbSymbolTable
 70
     1
  0
VPORT
  5
29
330
8
100
AcDbSymbolTableRecord
100
AcDbViewportTableRecord
  2
*Active
 70
     0
 10
0.0
 20
0.0
 11
1.0
 21
1.0
 12
0.0
 22
0.0
 13
0.0
 23
0.0
 14
0.5
 24
0.5
 15
0.5
 25
0.5
 16
0.0
 26
0.0
 36
1.0
 17
1000.0
 27
-1000.0
 37
0.0
 40
2000.0
 41
1.0
 42
50.0
 43
0.0
 44
0.0
 50
0.0
 51
0.0
 71
     0
 72
   100
 73
     1
 74
     3
 75
     0
 76
     0
 77
     0
 78
     0
281
     0
 65
     1
110
0.0
120
0.0
130
0.0
111
1.0
121
0.0
131
0.0
112
0.0
122
1.0
132
0.0
 79
     0
146
0.0
 60
     3
 61
     5
292
     1
282
     1
141
0.0
142
0.0
 63
   250
361
3F
  0
ENDTAB
  0
TABLE
  2
LTYPE
  5
5
330
0
100
AcDbSymbolTable
 70
     1
  0
LTYPE
  5
14
330
5
100
AcDbSymbolTableRecord
100
AcDbLinetypeTableRecord
  2
ByBlock
 70
     0
  3

 72
    65
 73
     0
 40
0.0
  0
LTYPE
  5
15
330
5
100
AcDbSymbolTableRecord
100
AcDbLinetypeTableRecord
  2
ByLayer
 70
     0
  3

 72
    65
 73
     0
 40
0.0
  0
LTYPE
  5
16
330
5
100
AcDbSymbolTableRecord
100
AcDbLinetypeTableRecord
  2
Continuous
 70
     0
  3
Solid line
 72
    65
 73
     0
 40
0.0
  0
ENDTAB
  0
TABLE
  2
LAYER
  5
2
330
0
100
AcDbSymbolTable
 70
     2
  0
LAYER
  5
10
330
2
100
AcDbSymbolTableRecord
100
AcDbLayerTableRecord
  2
0
 70
     0
 62
     7
  6
Continuous
370
    -3
390
F
347
3E
  0
LAYER
  5
40
330
2
100
AcDbSymbolTableRecord
100
AcDbLayerTableRecord
  2
Layer 1
 70
     0
 62
     7
  6
Continuous
370
    -3
390
F
347
3E
  0
ENDTAB
  0
TABLE
  2
STYLE
  5
3
330
0
100
AcDbSymbolTable
 70
     1
  0
STYLE
  5
11
330
3
100
AcDbSymbolTableRecord
100
AcDbTextStyleTableRecord
  2
Standard
 70
     0
 40
0.0
 41
1.0
 50
0.0
 71
     0
 42
0.2
  3
txt
  4

  0
ENDTAB
  0
TABLE
  2
VIEW
  5
6
330
0
100
AcDbSymbolTable
 70
     0
  0
ENDTAB
  0
TABLE
  2
UCS
  5
7
330
0
100
AcDbSymbolTable
 70
     0
  0
ENDTAB
  0
TABLE
  2
APPID
  5
9
330
0
100
AcDbSymbolTable
 70
     1
  0
APPID
  5
12
330
9
100
AcDbSymbolTableRecord
100
AcDbRegAppTableRecord
  2
ACAD
 70
     0
  0
ENDTAB
  0
TABLE
  2
DIMSTYLE
  5
A
330
0
100
AcDbSymbolTable
 70
     1
100
AcDbDimStyleTable
  0
DIMSTYLE
105
27
330
A
100
AcDbSymbolTableRecord
100
AcDbDimStyleTableRecord
  2
Standard
 70
     0
178
     0
340
11
  0
ENDTAB
  0
TABLE
  2
BLOCK_RECORD
  5
1
330
0
100
AcDbSymbolTable
 70
     1
  0
BLOCK_RECORD
  5
1F
330
1
100
AcDbSymbolTableRecord
100
AcDbBlockTableRecord
  2
*Model_Space
340
22
 70
     0
280
     1
281
     0
  0
BLOCK_RECORD
  5
1B
330
1
100
AcDbSymbolTableRecord
100
AcDbBlockTableRecord
  2
*Paper_Space
340
1E
 70
     0
280
     1
281
     0
  0
BLOCK_RECORD
  5
23
330
1
100
AcDbSymbolTableRecord
100
AcDbBlockTableRecord
  2
*Paper_Space0
340
26
 70
     0
280
     1
281
     0
  0
ENDTAB
  0
ENDSEC
  0
SECTION
  2
BLOCKS
  0
BLOCK
  5
20
330
1F
100
AcDbEntity
  8
0
100
AcDbBlockBegin
  2
*Model_Space
 70
     0
 10
0.0
 20
0.0
 30
0.0
  3
*Model_Space
  1

  0
ENDBLK
  5
21
330
1F
100
AcDbEntity
  8
0
100
AcDbBlockEnd
  0
BLOCK
  5
1C
330
1B
100
AcDbEntity
 67
     1
  8
0
100
AcDbBlockBegin
  2
*Paper_Space
 70
     0
 10
0.0
 20
0.0
 30
0.0
  3
*Paper_Space
  1

  0
ENDBLK
  5
1D
330
1B
100
AcDbEntity
 67
     1
  8
0
100
AcDbBlockEnd
  0
BLOCK
  5
24
330
23
100
AcDbEntity
  8
0
100
AcDbBlockBegin
  2
*Paper_Space0
 70
     0
 10
0.0
 20
0.0
 30
0.0
  3
*Paper_Space0
  1

  0
ENDBLK
  5
25
330
23
100
AcDbEntity
  8
0
100
AcDbBlockEnd
  0
ENDSEC
  0
SECTION
  2
ENTITIES
  0
SPLINE
  5
41
330
1F
100
AcDbEntity
  8
Layer 1
370
     0
100
AcDbSpline
210
0.0
220
0.0
230
1.0
 70
    11
 71
     3
 72
   134
 73
   130
 74
     0
 42
0.0000000001
 43
0.0000000001
 12
1.0
 22
0.0
 32
0.0
 13
1.0
 23
0.0
 33
0.0
 40
0.0
 40
0.0
 40
0.0
 40
0.0
 40
1.0
 40
1.0
 40
1.0
 40
2.0
 40
2.0
 40
2.0
 40
3.0
 40
3.0
 40
3.0
 40
4.0
 40
4.0
 40
4.0
 40
5.0
 40
5.0
 40
5.0
 40
6.0
 40
6.0
 40
6.0
 40
7.0
 40
7.0
 40
7.0
 40
8.0
 40
8.0
 40
8.0
 40
9.0
 40
9.0
 40
9.0
 40
10.0
 40
10.0
 40
10.0
 40
11.0
 40
11.0
 40
11.0
 40
12.0
 40
12.0
 40
12.0
 40
13.0
 40
13.0
 40
13.0
 40
14.0
 40
14.0
 40
14.0
 40
15.0
 40
15.0
 40
15.0
 40
16.0
 40
16.0
 40
16.0
 40
17.0
 40
17.0
 40
17.0
 40
18.0
 40
18.0
 40
18.0
 40
19.0
 40
19.0
 40
19.0
 40
20.0
 40
20.0
 40
20.0
 40
21.0
 40
21.0
 40
21.0
 40
22.0
 40
22.0
 40
22.0
 40
23.0
 40
23.0
 40
23.0
 40
24.0
 40
24.0
 40
24.0
 40
25.0
 40
25.0
 40
25.0
 40
26.0
 40
26.0
 40
26.0
 40
27.0
 40
27.0
 40
27.0
 40
28.0
 40
28.0
 40
28.0
 40
29.0
 40
29.0
 40
29.0
 40
30.0
 40
30.0
 40
30.0
 40
31.0
 40
31.0
 40
31.0
 40
32.0
 40
32.0
 40
32.0
 40
33.0
 40
33.0
 40
33.0
 40
34.0
 40
34.0
 40
34.0
 40
35.0
 40
35.0
 40
35.0
 40
36.0
 40
36.0
 40
36.0
 40
37.0
 40
37.0
 40
37.0
 40
38.0
 40
38.0
 40
38.0
 40
39.0
 40
39.0
 40
39.0
 40
40.0
 40
40.0
 40
40.0
 40
41.0
 40
41.0
 40
41.0
 40
42.0
 40
42.0
 40
42.0
 40
43.0
 40
43.0
 40
43.0
 40
43.0
 10
575.5226254418858
 20
-873.9108158959643
 30
0.0
 10
575.5226254418858
 20
-773.8405102869265
 30
0.0
 10
579.5214272254825
 20
-673.512454768912
 30
0.0
 10
573.0981254271301
 20
-573.8561791623943
 30
0.0
 10
571.1584218042135
 20
-543.7619518496076
 30
0.0
 10
546.1693211891652
 20
-508.4985316349912
 30
0.0
 10
521.473578168494
 20
-487.9236788245853
 30
0.0
 10
471.4461271232803
 20
-446.2441405153641
 30
0.0
 10
468.661785717446
 20
-363.8120552451555
 30
0.0
 10
498.6501570110695
 20
-318.7298762207802
 30
0.0
 10
531.8748559169817
 20
-268.7824906621663
 30
0.0
 10
602.1617675484595
 20
-246.3671505025959
 30
0.0
 10
658.9072940049291
 20
-267.7542021836853
 30
0.0
 10
715.4362041637851
 20
-289.0596169429818
 30
0.0
 10
747.7287484343942
 20
-347.5573713499316
 30
0.0
 10
739.6282935702793
 20
-413.979484902331
 30
0.0
 10
722.4310939285788
 20
-554.9916004364713
 30
0.0
 10
774.0098450758251
 20
-762.5721111442717
 30
0.0
 10
856.9187659507879
 20
-880.2127200083924
 30
0.0
 10
893.1025291339683
 20
-705.1525253318468
 30
0.0
 10
935.9111177278392
 20
-533.8607013263845
 30
0.0
 10
865.8936295239282
 20
-358.941469567364
 30
0.0
 10
844.7808623583969
 20
-306.1970761445045
 30
0.0
 10
863.2785541376425
 20
-258.4557956456129
 30
0.0
 10
906.3930027333745
 20
-227.3242354677177
 30
0.0
 10
956.1105184063308
 20
-191.4248534870776
 30
0.0
 10
1019.101031937846
 20
-189.3630549617974
 30
0.0
 10
1062.701692943945
 20
-222.2080266981538
 30
0.0
 10
1103.260262635233
 20
-252.761363481327
 30
0.0
 10
1124.167534429143
 20
-310.3710929523158
 30
0.0
 10
1104.760344311029
 20
-359.0342705864477
 30
0.0
 10
1035.037733331133
 20
-533.8619446597259
 30
0.0
 10
1074.731910054199
 20
-705.2025349617816
 30
0.0
 10
1117.182418645891
 20
-890.95539637007
 30
0.0
 10
1183.27104256663
 20
-729.3487591828116
 30
0.0
 10
1263.13676694159
 20
-585.7488352532928
 30
0.0
 10
1231.989954344621
 20
-413.234555545946
 30
0.0
 10
1218.989246487719
 20
-341.2264733947341
 30
0.0
 10
1251.328484832688
 20
-290.7766948238032
 30
0.0
 10
1316.32166300602
 20
-266.8756403959314
 30
0.0
 10
1368.873080733261
 20
-247.5499835884984
 30
0.0
 10
1429.810367400427
 20
-265.7764128429444
 30
0.0
 10
1461.5887242605
 20
-310.3252364011105
 30
0.0
 10
1502.164769692636
 20
-367.2072359602635
 30
0.0
 10
1500.945612277808
 20
-427.5227005403121
 30
0.0
 10
1453.590775322935
 20
-479.4362364581148
 30
0.0
 10
1397.573634982009
 20
-540.8459897948242
 30
0.0
 10
1383.697344156815
 20
-615.3283916370201
 30
0.0
 10
1383.767523416502
 20
-693.4736189644718
 30
0.0
 10
1383.821677490905
 20
-753.6297123861441
 30
0.0
 10
1390.183676048144
 20
-813.7801071966696
 30
0.0
 10
1393.801085329418
 20
-874.953765346756
 30
0.0
 10
1472.560864697647
 20
-823.6170152195009
 30
0.0
 10
1568.888391580203
 20
-672.2669455946652
 30
0.0
 10
1543.227649201806
 20
-594.3623032686774
 30
0.0
 10
1529.023394670914
 20
-551.2386678210378
 30
0.0
 10
1529.827140601732
 20
-504.6075199446432
 30
0.0
 10
1561.021683384177
 20
-464.8802740084147
 30
0.0
 10
1607.326179962289
 20
-405.9102342513688
 30
0.0
 10
1690.023734169297
 20
-394.5241846913314
 30
0.0
 10
1746.202369696392
 20
-439.5493085301741
 30
0.0
 10
1803.920666343967
 20
-485.808457978379
 30
0.0
 10
1813.020070473422
 20
-571.728490445741
 30
0.0
 10
1766.159389447481
 20
-629.4749002416356
 30
0.0
 10
1761.425881270525
 20
-635.308102221582
 30
0.0
 10
1756.699971241762
 20
-642.6296778216974
 30
0.0
 10
1750.299843795403
 20
-645.3979249681743
 30
0.0
 10
1689.381345276499
 20
-671.746921424834
 30
0.0
 10
1685.813945625157
 20
-726.3323288866759
 30
0.0
 10
1676.104755566066
 20
-782.000714225479
 30
0.0
 10
1659.039038425166
 20
-879.8469037098694
 30
0.0
 10
1638.062761630836
 20
-977.3127713400936
 30
0.0
 10
1612.23651776995
 20
-1073.190211553243
 30
0.0
 10
1600.926190664079
 20
-1115.17820014212
 30
0.0
 10
1576.035071623699
 20
-1154.339746676756
 30
0.0
 10
1552.78225148218
 20
-1191.987742091073
 30
0.0
 10
1537.166813609365
 20
-1217.270096689388
 30
0.0
 10
1513.661182355196
 20
-1237.695507739625
 30
0.0
 10
1493.582868529295
 20
-1260.20212065438
 30
0.0
 10
1420.457599565727
 20
-1342.171219671771
 30
0.0
 10
1418.337163626897
 20
-1366.857879451645
 30
0.0
 10
1462.140349819412
 20
-1466.734984874323
 30
0.0
 10
1478.078639916415
 20
-1503.075960651053
 30
0.0
 10
1486.137374039536
 20
-1543.395879414962
 30
0.0
 10
1493.887899642261
 20
-1582.67084557992
 30
0.0
 10
1503.344416736853
 20
-1630.588912538222
 30
0.0
 10
1476.148157682444
 20
-1658.002893075436
 30
0.0
 10
1432.745601121995
 20
-1667.149405723696
 30
0.0
 10
1370.889629264051
 20
-1680.184650617844
 30
0.0
 10
1308.513667773314
 20
-1693.475884032068
 30
0.0
 10
1245.696875539154
 20
-1698.727724064032
 30
0.0
 10
1039.173267245193
 20
-1715.994308613563
 30
0.0
 10
832.6853011736712
 20
-1712.857102298172
 30
0.0
 10
627.0614863111123
 20
-1684.954629906133
 30
0.0
 10
592.8860173068206
 20
-1680.317272840874
 30
0.0
 10
559.1370116384578
 20
-1671.126414636788
 30
0.0
 10
525.8544631951563
 20
-1661.697389023848
 30
0.0
 10
489.1238405642025
 20
-1651.291655997553
 30
0.0
 10
468.4354645123649
 20
-1626.000874362149
 30
0.0
 10
477.0928981761663
 20
-1587.209012274207
 30
0.0
 10
488.1462006508445
 20
-1537.681657528334
 30
0.0
 10
497.5127142263691
 20
-1486.277283882147
 30
0.0
 10
518.7680502816565
 20
-1440.911642124567
 30
0.0
 10
544.6512802540001
 20
-1385.668545862425
 30
0.0
 10
539.8504939284858
 20
-1339.975354843591
 30
0.0
 10
503.0628161119994
 20
-1294.540431789292
 30
0.0
 10
502.1155342543825
 20
-1293.370662337729
 30
0.0
 10
501.5101345284756
 20
-1291.831761032066
 30
0.0
 10
500.3800826697461
 20
-1290.915355285748
 30
0.0
 10
347.765508500177
 20
-1167.16417749555
 30
0.0
 10
337.4344963539688
 20
-983.6407854526806
 30
0.0
 10
299.1931373712277
 20
-811.8738008887713
 30
0.0
 10
295.9202523050126
 20
-797.1731109844868
 30
0.0
 10
292.0857604761195
 20
-782.3521631165067
 30
0.0
 10
291.1483734796739
 20
-767.4216637663794
 30
0.0
 10
288.0434247570729
 20
-717.9671821690981
 30
0.0
 10
274.2222550433262
 20
-679.8762492520873
 30
0.0
 10
227.2680995260771
 20
-649.2319850841013
 30
0.0
 10
172.2142295324493
 20
-613.3015510691293
 30
0.0
 10
160.806548994271
 20
-543.3049232357153
 30
0.0
 10
185.8719462417284
 20
-487.6662052119073
 30
0.0
 10
209.2430730043379
 20
-435.7883287850618
 30
0.0
 10
268.4006143365987
 20
-405.1433393392945
 30
0.0
 10
328.0641491673105
 20
-414.007287217315
 30
0.0
 10
392.8187454873387
 20
-423.6275962110503
 30
0.0
 10
447.4091090140264
 20
-487.5432878963438
 30
0.0
 10
432.6425569797111
 20
-554.7690092314133
 30
0.0
 10
401.6477418836657
 20
-695.8749791642722
 30
0.0
 10
480.7657394022226
 20
-785.5869710991574
 30
0.0
 10
575.5226254418858
 20
-873.9108158959643
 30
0.0
  0
SPLINE
  5
42
330
1F
100
AcDbEntity
  8
Layer 1
370
     0
100
AcDbSpline
210
0.0
220
0.0
230
1.0
 70
    11
 71
     3
 72
    53
 73
    49
 74
     0
 42
0.0000000001
 43
0.0000000001
 12
1.0
 22
0.0
 32
0.0
 13
1.0
 23
0.0
 33
0.0
 40
0.0
 40
0.0
 40
0.0
 40
0.0
 40
1.0
 40
1.0
 40
1.0
 40
2.0
 40
2.0
 40
2.0
 40
3.0
 40
3.0
 40
3.0
 40
4.0
 40
4.0
 40
4.0
 40
5.0
 40
5.0
 40
5.0
 40
6.0
 40
6.0
 40
6.0
 40
7.0
 40
7.0
 40
7.0
 40
8.0
 40
8.0
 40
8.0
 40
9.0
 40
9.0
 40
9.0
 40
10.0
 40
10.0
 40
10.0
 40
11.0
 40
11.0
 40
11.0
 40
12.0
 40
12.0
 40
12.0
 40
13.0
 40
13.0
 40
13.0
 40
14.0
 40
14.0
 40
14.0
 40
15.0
 40
15.0
 40
15.0
 40
16.0
 40
16.0
 40
16.0
 40
16.0
 10
1339.926622779312
 20
-1027.23267405132
 30
0.0
 10
1325.634091581214
 20
-895.1263652843436
 30
0.0
 10
1312.296992981524
 20
-771.8501408303682
 30
0.0
 10
1298.846060307069
 20
-647.5224362774006
 30
0.0
 10
1254.682031149394
 20
-770.4834411924212
 30
0.0
 10
1205.0139034397
 20
-890.9153334068633
 30
0.0
 10
1103.515905784936
 20
-988.4851575192015
 30
0.0
 10
1084.103466037161
 20
-951.022280624532
 30
0.0
 10
1063.298285725352
 20
-917.8051798668139
 30
0.0
 10
1049.306779343902
 20
-881.9307303892192
 30
0.0
 10
1035.163448146714
 20
-845.6670485018476
 30
0.0
 10
1027.303163839617
 20
-806.8910043769638
 30
0.0
 10
1017.553358224723
 20
-768.993513405575
 30
0.0
 10
1008.268559279326
 20
-732.9034492044457
 30
0.0
 10
1000.097648859226
 20
-696.5267966682395
 30
0.0
 10
991.4370032509605
 20
-660.2761352439102
 30
0.0
 10
958.4159347166578
 20
-773.3706684322151
 30
0.0
 10
941.306631834751
 20
-888.7723102456721
 30
0.0
 10
866.5195097129226
 20
-985.9931030595899
 30
0.0
 10
766.2705094731673
 20
-895.7993539921436
 30
0.0
 10
721.4232341076295
 20
-776.2692928943006
 30
0.0
 10
674.4005398399631
 20
-652.4135024182797
 30
0.0
 10
659.7948958621828
 20
-778.7549234649841
 30
0.0
 10
645.9698580002641
 20
-898.3439738224452
 30
0.0
 10
630.3957264239971
 20
-1033.063354827545
 30
0.0
 10
579.1339907416432
 20
-990.6956660511732
 30
0.0
 10
537.0790693745812
 20
-959.8678375302188
 30
0.0
 10
499.8205481293035
 20
-924.0505123122311
 30
0.0
 10
461.690933730576
 20
-887.3958020891469
 30
0.0
 10
428.2616028789735
 20
-845.8518216511202
 30
0.0
 10
392.7748316444795
 20
-806.4479632631565
 30
0.0
 10
405.6634322784757
 20
-896.5001795519638
 30
0.0
 10
426.9424089357599
 20
-982.4632797047743
 30
0.0
 10
450.149001252923
 20
-1067.902729298841
 30
0.0
 10
456.8910799050673
 20
-1092.725050561023
 30
0.0
 10
468.1698056218593
 20
-1111.143238080525
 30
0.0
 10
502.0205228649147
 20
-1094.257044459237
 30
0.0
 10
711.2703121939858
 20
-989.8742371572853
 30
0.0
 10
934.8998732772407
 20
-987.0004793620174
 30
0.0
 10
1160.574199650717
 20
-1007.055998743337
 30
0.0
 10
1278.171499070129
 20
-1017.5067680662
 30
0.0
 10
1391.731902353862
 20
-1046.522714539091
 30
0.0
 10
1499.963655234795
 20
-1108.334478989356
 30
0.0
 10
1554.413090380995
 20
-1011.550994141064
 30
0.0
 10
1564.91124451896
 20
-908.5994016626382
 30
0.0
 10
1580.09441683359
 20
-806.1360938168136
 30
0.0
 10
1511.793695677163
 20
-887.7061519058498
 30
0.0
 10
1443.753521929732
 20
-967.0113401662875
 30
0.0
 10
1339.926622779312
 20
-1027.23267405132
 30
0.0
  0
SPLINE
  5
43
330
1F
100
AcDbEntity
  8
Layer 1
370
     0
100
AcDbSpline
210
0.0
220
0.0
230
1.0
 70
    11
 71
     3
 72
    17
 73
    13
 74
     0
 42
0.0000000001
 43
0.0000000001
 12
1.0
 22
0.0
 32
0.0
 13
1.0
 23
0.0
 33
0.0
 40
0.0
 40
0.0
 40
0.0
 40
0.0
 40
1.0
 40
1.0
 40
1.0
 40
2.0
 40
2.0
 40
2.0
 40
3.0
 40
3.0
 40
3.0
 40
4.0
 40
4.0
 40
4.0
 40
4.0
 10
1350.97239617987
 20
-1287.737257118259
 30
0.0
 10
1107.452437290376
 20
-1258.61790675585
 30
0.0
 10
863.120581729273
 20
-1257.357304896326
 30
0.0
 10
622.018733502644
 20
-1288.048021379409
 30
0.0
 10
626.9668202920175
 20
-1336.454372970311
 30
0.0
 10
631.5750280978409
 20
-1381.535982133571
 30
0.0
 10
636.4258585903272
 20
-1428.990700200164
 30
0.0
 10
869.8506069554178
 20
-1400.781538917368
 30
0.0
 10
1106.666167100406
 20
-1402.080960406758
 30
0.0
 10
1336.393898313367
 20
-1428.365441677839
 30
0.0
 10
1341.409643158708
 20
-1379.981815457446
 30
0.0
 10
1345.957756519721
 20
-1336.110245931179
 30
0.0
 10
1350.97239617987
 20
-1287.737257118259
 30
0.0
  0
SPLINE
  5
44
330
1F
100
AcDbEntity
  8
Layer 1
370
     0
100
AcDbSpline
210
0.0
220
0.0
230
1.0
 70
    11
 71
     3
 72
    29
 73
    25
 74
     0
 42
0.0000000001
 43
0.0000000001
 12
1.0
 22
0.0
 32
0.0
 13
1.0
 23
0.0
 33
0.0
 40
0.0
 40
0.0
 40
0.0
 40
0.0
 40
1.0
 40
1.0
 40
1.0
 40
2.0
 40
2.0
 40
2.0
 40
3.0
 40
3.0
 40
3.0
 40
4.0
 40
4.0
 40
4.0
 40
5.0
 40
5.0
 40
5.0
 40
6.0
 40
6.0
 40
6.0
 40
7.0
 40
7.0
 40
7.0
 40
8.0
 40
8.0
 40
8.0
 40
8.0
 10
987.409432115337
 20
-1485.039062022761
 30
0.0
 10
874.8052903189064
 20
-1493.255285035728
 30
0.0
 10
774.081613039225
 20
-1498.135506546911
 30
0.0
 10
674.1324633568502
 20
-1509.706104765479
 30
0.0
 10
650.3863507123287
 20
-1512.455114782209
 30
0.0
 10
629.2339695650753
 20
-1537.609129750115
 30
0.0
 10
606.8884373920409
 20
-1552.457430951594
 30
0.0
 10
628.1167654842011
 20
-1565.865675848012
 30
0.0
 10
648.4110048669736
 20
-1588.880328580675
 30
0.0
 10
670.7320502805997
 20
-1591.05077414944
 30
0.0
 10
778.2918160278114
 20
-1601.509279768647
 30
0.0
 10
886.3688429818758
 20
-1611.123147604936
 30
0.0
 10
994.3186354907211
 20
-1611.779627608932
 30
0.0
 10
1093.251429240983
 20
-1612.38112464963
 30
0.0
 10
1192.501203919102
 20
-1603.567272744134
 30
0.0
 10
1291.06382970415
 20
-1593.527217868215
 30
0.0
 10
1316.995825973085
 20
-1590.885825259547
 30
0.0
 10
1361.348012909684
 20
-1569.021670311664
 30
0.0
 10
1361.825867357036
 20
-1554.795312076934
 30
0.0
 10
1363.1562340318
 20
-1515.191691465532
 30
0.0
 10
1319.900943398174
 20
-1512.718287006033
 30
0.0
 10
1290.514621737844
 20
-1509.714808098866
 30
0.0
 10
1185.913885730863
 20
-1499.024075441208
 30
0.0
 10
1080.90291879546
 20
-1492.347375400574
 30
0.0
 10
987.409432115337
 20
-1485.039062022761
 30
0.0
  0
SPLINE
  5
45
330
1F
100
AcDbEntity
  8
Layer 1
370
     0
100
AcDbSpline
210
0.0
220
0.0
230
1.0
 70
    11
 71
     3
 72
    26
 73
    22
 74
     0
 42
0.0000000001
 43
0.0000000001
 12
1.0
 22
0.0
 32
0.0
 13
1.0
 23
0.0
 33
0.0
 40
0.0
 40
0.0
 40
0.0
 40
0.0
 40
1.0
 40
1.0
 40
1.0
 40
2.0
 40
2.0
 40
2.0
 40
3.0
 40
3.0
 40
3.0
 40
4.0
 40
4.0
 40
4.0
 40
5.0
 40
5.0
 40
5.0
 40
6.0
 40
6.0
 40
6.0
 40
7.0
 40
7.0
 40
7.0
 40
7.0
 10
1394.569465334096
 20
-1195.170191925255
 30
0.0
 10
1387.865273811811
 20
-1148.916741088196
 30
0.0
 10
1371.872553344108
 20
-1129.571510414904
 30
0.0
 10
1312.70743113217
 20
-1120.789087213305
 30
0.0
 10
1204.237027323861
 20
-1104.687644152347
 30
0.0
 10
1095.031951659228
 20
-1089.91435739577
 30
0.0
 10
985.6458328453446
 20
-1084.579766622561
 30
0.0
 10
866.6299591580391
 20
-1078.775610290941
 30
0.0
 10
747.1483880604919
 20
-1087.80607849405
 30
0.0
 10
634.1519745950063
 20
-1131.021996905214
 30
0.0
 10
612.1351659424909
 20
-1139.442402882387
 30
0.0
 10
596.4222990876024
 20
-1164.345678959877
 30
0.0
 10
577.8017245298306
 20
-1181.646247954059
 30
0.0
 10
600.7969674475598
 20
-1187.103514283568
 30
0.0
 10
624.1929436084683
 20
-1198.585766760858
 30
0.0
 10
646.725562912271
 20
-1197.087273788775
 30
0.0
 10
875.6598747685521
 20
-1181.860861103512
 30
0.0
 10
1104.43010116087
 20
-1177.711167004183
 30
0.0
 10
1333.293163109311
 20
-1197.999466016548
 30
0.0
 10
1352.214071742983
 20
-1199.676791767499
 30
0.0
 10
1371.577607046016
 20
-1196.36365378437
 30
0.0
 10
1394.569465334096
 20
-1195.170191925255
 30
0.0
  0
SPLINE
  5
46
330
1F
100
AcDbEntity
  8
Layer 1
370
     0
100
AcDbSpline
210
0.0
220
0.0
230
1.0
 70
    11
 71
     3
 72
    17
 73
    13
 74
     0
 42
0.0000000001
 43
0.0000000001
 12
1.0
 22
0.0
 32
0.0
 13
1.0
 23
0.0
 33
0.0
 40
0.0
 40
0.0
 40
0.0
 40
0.0
 40
1.0
 40
1.0
 40
1.0
 40
2.0
 40
2.0
 40
2.0
 40
3.0
 40
3.0
 40
3.0
 40
4.0
 40
4.0
 40
4.0
 40
4.0
 10
986.0839006257884
 20
-267.044474702514
 30
0.0
 10
949.7758041085181
 20
-267.7303543594662
 30
0.0
 10
929.6927932455501
 20
-285.302220415485
 30
0.0
 10
929.1614063904635
 20
-322.4603252249663
 30
0.0
 10
928.6248389797911
 20
-359.9769935551485
 30
0.0
 10
951.2053611542551
 20
-382.9990372137809
 30
0.0
 10
987.6695650798838
 20
-381.7448592431847
 30
0.0
 10
1025.090030492815
 20
-380.4578020131294
 30
0.0
 10
1041.27843781356
 20
-358.8919434559521
 30
0.0
 10
1041.565647815309
 20
-323.1225556456629
 30
0.0
 10
1041.864945780093
 20
-285.8471457891719
 30
0.0
 10
1022.825298812364
 20
-267.6464120904366
 30
0.0
 10
986.0839006257884
 20
-267.044474702514
 30
0.0
  0
SPLINE
  5
47
330
1F
100
AcDbEntity
  8
Layer 1
370
     0
100
AcDbSpline
210
0.0
220
0.0
230
1.0
 70
    11
 71
     3
 72
    17
 73
    13
 74
     0
 42
0.0000000001
 43
0.0000000001
 12
1.0
 22
0.0
 32
0.0
 13
1.0
 23
0.0
 33
0.0
 40
0.0
 40
0.0
 40
0.0
 40
0.0
 40
1.0
 40
1.0
 40
1.0
 40
2.0
 40
2.0
 40
2.0
 40
3.0
 40
3.0
 40
3.0
 40
4.0
 40
4.0
 40
4.0
 40
4.0
 10
602.2738056972885
 20
-337.1760387404529
 30
0.0
 10
572.9062031111471
 20
-338.0171710140912
 30
0.0
 10
551.520662425437
 20
-361.3090007391811
 30
0.0
 10
554.1444411451093
 20
-398.4594901319488
 30
0.0
 10
556.6734156975381
 20
-434.2673349332126
 30
0.0
 10
575.9497795185598
 20
-452.4322796270999
 30
0.0
 10
612.5824551118803
 20
-451.5366133716489
 30
0.0
 10
649.7455505232438
 20
-450.62799572723
 30
0.0
 10
670.0312937948529
 20
-428.8518584187723
 30
0.0
 10
667.6399838728921
 20
-390.7426036035022
 30
0.0
 10
665.3677576553591
 20
-354.5310553738555
 30
0.0
 10
645.1562344767945
 20
-337.1126632771047
 30
0.0
 10
602.2738056972885
 20
-337.1760387404529
 30
0.0
  0
SPLINE
  5
48
330
1F
100
AcDbEntity
  8
Layer 1
370
     0
100
AcDbSpline
210
0.0
220
0.0
230
1.0
 70
    11
 71
     3
 72
    17
 73
    13
 74
     0
 42
0.0000000001
 43
0.0000000001
 12
1.0
 22
0.0
 32
0.0
 13
1.0
 23
0.0
 33
0.0
 40
0.0
 40
0.0
 40
0.0
 40
0.0
 40
1.0
 40
1.0
 40
1.0
 40
2.0
 40
2.0
 40
2.0
 40
3.0
 40
3.0
 40
3.0
 40
4.0
 40
4.0
 40
4.0
 40
4.0
 10
1350.733814326566
 20
-451.4744985101597
 30
0.0
 10
1397.138330164546
 20
-451.3534980001641
 30
0.0
 10
1417.700576956355
 20
-429.941415601329
 30
0.0
 10
1416.655209912957
 20
-392.3009837981717
 30
0.0
 10
1415.624072128903
 20
-355.177087924083
 30
0.0
 10
1394.511028667073
 20
-338.4888260632579
 30
0.0
 10
1359.520589194859
 20
-337.2221802222157
 30
0.0
 10
1324.560266019123
 20
-335.9566568348837
 30
0.0
 10
1300.519310687623
 20
-361.0037624039896
 30
0.0
 10
1302.037766067235
 20
-396.7614248901327
 30
0.0
 10
1303.584127372942
 20
-433.1736678432226
 30
0.0
 10
1324.481659722349
 20
-450.0192631772288
 30
0.0
 10
1350.733814326566
 20
-451.4744985101597
 30
0.0
  0
SPLINE
  5
49
330
1F
100
AcDbEntity
  8
Layer 1
370
     0
100
AcDbSpline
210
0.0
220
0.0
230
1.0
 70
    11
 71
     3
 72
    17
 73
    13
 74
     0
 42
0.0000000001
 43
0.0000000001
 12
1.0
 22
0.0
 32
0.0
 13
1.0
 23
0.0
 33
0.0
 40
0.0
 40
0.0
 40
0.0
 40
0.0
 40
1.0
 40
1.0
 40
1.0
 40
2.0
 40
2.0
 40
2.0
 40
3.0
 40
3.0
 40
3.0
 40
4.0
 40
4.0
 40
4.0
 40
4.0
 10
303.4043592024136
 20
-602.3705442433429
 30
0.0
 10
339.0359787711222
 20
-600.3065072863365
 30
0.0
 10
359.6843609338275
 20
-582.5992992156052
 30
0.0
 10
360.2557071410092
 20
-545.8318946399831
 30
0.0
 10
360.8226844129786
 20
-509.344032843841
 30
0.0
 10
340.9411971623476
 20
-489.0343899424561
 30
0.0
 10
305.6378003271175
 20
-487.148702245795
 30
0.0
 10
270.0250034437076
 20
-485.2464367712546
 30
0.0
 10
248.3622943998289
 20
-502.8417103042666
 30
0.0
 10
246.9509124699425
 20
-540.3806722919917
 30
0.0
 10
245.5426820447055
 20
-577.8358474273555
 30
0.0
 10
267.6187648873965
 20
-601.8583945180035
 30
0.0
 10
303.4043592024136
 20
-602.3705442433429
 30
0.0
  0
SPLINE
  5
4A
330
1F
100
AcDbEntity
  8
Layer 1
370
     0
100
AcDbSpline
210
0.0
220
0.0
230
1.0
 70
    11
 71
     3
 72
    17
 73
    13
 74
     0
 42
0.0000000001
 43
0.0000000001
 12
1.0
 22
0.0
 32
0.0
 13
1.0
 23
0.0
 33
0.0
 40
0.0
 40
0.0
 40
0.0
 40
0.0
 40
1.0
 40
1.0
 40
1.0
 40
2.0
 40
2.0
 40
2.0
 40
3.0
 40
3.0
 40
3.0
 40
4.0
 40
4.0
 40
4.0
 40
4.0
 10
1721.386403249062
 20
-544.0811431478469
 30
0.0
 10
1721.856659548221
 20
-507.5607129255795
 30
0.0
 10
1703.371608324607
 20
-487.4859564145136
 30
0.0
 10
1667.166984770929
 20
-486.9748428002922
 30
0.0
 10
1631.760443073959
 20
-486.4749882602127
 30
0.0
 10
1610.781817761097
 20
-505.0006550396283
 30
0.0
 10
1608.930494416496
 20
-541.2602615566047
 30
0.0
 10
1607.141890331537
 20
-576.2856179734763
 30
0.0
 10
1632.368018633213
 20
-603.2766234155242
 30
0.0
 10
1666.37152772905
 20
-601.752158591431
 30
0.0
 10
1702.007947945938
 20
-600.1545443224486
 30
0.0
 10
1721.189818433051
 20
-580.6767259631633
 30
0.0
 10
1721.386403249062
 20
-544.0811431478469
 30
0.0
  0
HATCH
  5
4B
330
1F
100
AcDbEntity
  8
Layer 1
 62
     7
420
 16777215
100
AcDbHatch
 10
0.0
 20
0.0
 30
0.0
210
0.0
220
0.0
230
1.0
  2
SOLID
 70
     1
 71
     0
 91
       10
 92
        1
 93
        1
 72
     4
 94
        3
 73
     0
 74
     1
 95
      134
 96
      130
 40
0.0
 40
0.0
 40
0.0
 40
0.0
 40
1.0
 40
1.0
 40
1.0
 40
2.0
 40
2.0
 40
2.0
 40
3.0
 40
3.0
 40
3.0
 40
4.0
 40
4.0
 40
4.0
 40
5.0
 40
5.0
 40
5.0
 40
6.0
 40
6.0
 40
6.0
 40
7.0
 40
7.0
 40
7.0
 40
8.0
 40
8.0
 40
8.0
 40
9.0
 40
9.0
 40
9.0
 40
10.0
 40
10.0
 40
10.0
 40
11.0
 40
11.0
 40
11.0
 40
12.0
 40
12.0
 40
12.0
 40
13.0
 40
13.0
 40
13.0
 40
14.0
 40
14.0
 40
14.0
 40
15.0
 40
15.0
 40
15.0
 40
16.0
 40
16.0
 40
16.0
 40
17.0
 40
17.0
 40
17.0
 40
18.0
 40
18.0
 40
18.0
 40
19.0
 40
19.0
 40
19.0
 40
20.0
 40
20.0
 40
20.0
 40
21.0
 40
21.0
 40
21.0
 40
22.0
 40
22.0
 40
22.0
 40
23.0
 40
23.0
 40
23.0
 40
24.0
 40
24.0
 40
24.0
 40
25.0
 40
25.0
 40
25.0
 40
26.0
 40
26.0
 40
26.0
 40
27.0
 40
27.0
 40
27.0
 40
28.0
 40
28.0
 40
28.0
 40
29.0
 40
29.0
 40
29.0
 40
30.0
 40
30.0
 40
30.0
 40
31.0
 40
31.0
 40
31.0
 40
32.0
 40
32.0
 40
32.0
 40
33.0
 40
33.0
 40
33.0
 40
34.0
 40
34.0
 40
34.0
 40
35.0
 40
35.0
 40
35.0
 40
36.0
 40
36.0
 40
36.0
 40
37.0
 40
37.0
 40
37.0
 40
38.0
 40
38.0
 40
38.0
 40
39.0
 40
39.0
 40
39.0
 40
40.0
 40
40.0
 40
40.0
 40
41.0
 40
41.0
 40
41.0
 40
42.0
 40
42.0
 40
42.0
 40
43.0
 40
43.0
 40
43.0
 40
43.0
 10
575.5226254418858
 20
-873.9108158959643
 10
575.5226254418858
 20
-773.8405102869265
 10
579.5214272254825
 20
-673.512454768912
 10
573.0981254271301
 20
-573.8561791623943
 10
571.1584218042135
 20
-543.7619518496076
 10
546.1693211891652
 20
-508.4985316349912
 10
521.473578168494
 20
-487.9236788245853
 10
471.4461271232803
 20
-446.2441405153641
 10
468.661785717446
 20
-363.8120552451555
 10
498.6501570110695
 20
-318.7298762207802
 10
531.8748559169817
 20
-268.7824906621663
 10
602.1617675484595
 20
-246.3671505025959
 10
658.9072940049291
 20
-267.7542021836853
 10
715.4362041637851
 20
-289.0596169429818
 10
747.7287484343942
 20
-347.5573713499316
 10
739.6282935702793
 20
-413.979484902331
 10
722.4310939285788
 20
-554.9916004364713
 10
774.0098450758251
 20
-762.5721111442717
 10
856.9187659507879
 20
-880.2127200083924
 10
893.1025291339683
 20
-705.1525253318468
 10
935.9111177278392
 20
-533.8607013263845
 10
865.8936295239282
 20
-358.941469567364
 10
844.7808623583969
 20
-306.1970761445045
 10
863.2785541376425
 20
-258.4557956456129
 10
906.3930027333745
 20
-227.3242354677177
 10
956.1105184063308
 20
-191.4248534870776
 10
1019.101031937846
 20
-189.3630549617974
 10
1062.701692943945
 20
-222.2080266981538
 10
1103.260262635233
 20
-252.761363481327
 10
1124.167534429143
 20
-310.3710929523158
 10
1104.760344311029
 20
-359.0342705864477
 10
1035.037733331133
 20
-533.8619446597259
 10
1074.731910054199
 20
-705.2025349617816
 10
1117.182418645891
 20
-890.95539637007
 10
1183.27104256663
 20
-729.3487591828116
 10
1263.13676694159
 20
-585.7488352532928
 10
1231.989954344621
 20
-413.234555545946
 10
1218.989246487719
 20
-341.2264733947341
 10
1251.328484832688
 20
-290.7766948238032
 10
1316.32166300602
 20
-266.8756403959314
 10
1368.873080733261
 20
-247.5499835884984
 10
1429.810367400427
 20
-265.7764128429444
 10
1461.5887242605
 20
-310.3252364011105
 10
1502.164769692636
 20
-367.2072359602635
 10
1500.945612277808
 20
-427.5227005403121
 10
1453.590775322935
 20
-479.4362364581148
 10
1397.573634982009
 20
-540.8459897948242
 10
1383.697344156815
 20
-615.3283916370201
 10
1383.767523416502
 20
-693.4736189644718
 10
1383.821677490905
 20
-753.6297123861441
 10
1390.183676048144
 20
-813.7801071966696
 10
1393.801085329418
 20
-874.953765346756
 10
1472.560864697647
 20
-823.6170152195009
 10
1568.888391580203
 20
-672.2669455946652
 10
1543.227649201806
 20
-594.3623032686774
 10
1529.023394670914
 20
-551.2386678210378
 10
1529.827140601732
 20
-504.6075199446432
 10
1561.021683384177
 20
-464.8802740084147
 10
1607.326179962289
 20
-405.9102342513688
 10
1690.023734169297
 20
-394.5241846913314
 10
1746.202369696392
 20
-439.5493085301741
 10
1803.920666343967
 20
-485.808457978379
 10
1813.020070473422
 20
-571.728490445741
 10
1766.159389447481
 20
-629.4749002416356
 10
1761.425881270525
 20
-635.308102221582
 10
1756.699971241762
 20
-642.6296778216974
 10
1750.299843795403
 20
-645.3979249681743
 10
1689.381345276499
 20
-671.746921424834
 10
1685.813945625157
 20
-726.3323288866759
 10
1676.104755566066
 20
-782.000714225479
 10
1659.039038425166
 20
-879.8469037098694
 10
1638.062761630836
 20
-977.3127713400936
 10
1612.23651776995
 20
-1073.190211553243
 10
1600.926190664079
 20
-1115.17820014212
 10
1576.035071623699
 20
-1154.339746676756
 10
1552.78225148218
 20
-1191.987742091073
 10
1537.166813609365
 20
-1217.270096689388
 10
1513.661182355196
 20
-1237.695507739625
 10
1493.582868529295
 20
-1260.20212065438
 10
1420.457599565727
 20
-1342.171219671771
 10
1418.337163626897
 20
-1366.857879451645
 10
1462.140349819412
 20
-1466.734984874323
 10
1478.078639916415
 20
-1503.075960651053
 10
1486.137374039536
 20
-1543.395879414962
 10
1493.887899642261
 20
-1582.67084557992
 10
1503.344416736853
 20
-1630.588912538222
 10
1476.148157682444
 20
-1658.002893075436
 10
1432.745601121995
 20
-1667.149405723696
 10
1370.889629264051
 20
-1680.184650617844
 10
1308.513667773314
 20
-1693.475884032068
 10
1245.696875539154
 20
-1698.727724064032
 10
1039.173267245193
 20
-1715.994308613563
 10
832.6853011736712
 20
-1712.857102298172
 10
627.0614863111123
 20
-1684.954629906133
 10
592.8860173068206
 20
-1680.317272840874
 10
559.1370116384578
 20
-1671.126414636788
 10
525.8544631951563
 20
-1661.697389023848
 10
489.1238405642025
 20
-1651.291655997553
 10
468.4354645123649
 20
-1626.000874362149
 10
477.0928981761663
 20
-1587.209012274207
 10
488.1462006508445
 20
-1537.681657528334
 10
497.5127142263691
 20
-1486.277283882147
 10
518.7680502816565
 20
-1440.911642124567
 10
544.6512802540001
 20
-1385.668545862425
 10
539.8504939284858
 20
-1339.975354843591
 10
503.0628161119994
 20
-1294.540431789292
 10
502.1155342543825
 20
-1293.370662337729
 10
501.5101345284756
 20
-1291.831761032066
 10
500.3800826697461
 20
-1290.915355285748
 10
347.765508500177
 20
-1167.16417749555
 10
337.4344963539688
 20
-983.6407854526806
 10
299.1931373712277
 20
-811.8738008887713
 10
295.9202523050126
 20
-797.1731109844868
 10
292.0857604761195
 20
-782.3521631165067
 10
291.1483734796739
 20
-767.4216637663794
 10
288.0434247570729
 20
-717.9671821690981
 10
274.2222550433262
 20
-679.8762492520873
 10
227.2680995260771
 20
-649.2319850841013
 10
172.2142295324493
 20
-613.3015510691293
 10
160.806548994271
 20
-543.3049232357153
 10
185.8719462417284
 20
-487.6662052119073
 10
209.2430730043379
 20
-435.7883287850618
 10
268.4006143365987
 20
-405.1433393392945
 10
328.0641491673105
 20
-414.007287217315
 10
392.8187454873387
 20
-423.6275962110503
 10
447.4091090140264
 20
-487.5432878963438
 10
432.6425569797111
 20
-554.7690092314133
 10
401.6477418836657
 20
-695.8749791642722
 10
480.7657394022226
 20
-785.5869710991574
 10
575.5226254418858
 20
-873.9108158959643
 97
        0
 97
        0
 92
        1
 93
        1
 72
     4
 94
        3
 73
     0
 74
     1
 95
       53
 96
       49
 40
0.0
 40
0.0
 40
0.0
 40
0.0
 40
1.0
 40
1.0
 40
1.0
 40
2.0
 40
2.0
 40
2.0
 40
3.0
 40
3.0
 40
3.0
 40
4.0
 40
4.0
 40
4.0
 40
5.0
 40
5.0
 40
5.0
 40
6.0
 40
6.0
 40
6.0
 40
7.0
 40
7.0
 40
7.0
 40
8.0
 40
8.0
 40
8.0
 40
9.0
 40
9.0
 40
9.0
 40
10.0
 40
10.0
 40
10.0
 40
11.0
 40
11.0
 40
11.0
 40
12.0
 40
12.0
 40
12.0
 40
13.0
 40
13.0
 40
13.0
 40
14.0
 40
14.0
 40
14.0
 40
15.0
 40
15.0
 40
15.0
 40
16.0
 40
16.0
 40
16.0
 40
16.0
 10
1339.926622779312
 20
-1027.23267405132
 10
1325.634091581214
 20
-895.1263652843436
 10
1312.296992981524
 20
-771.8501408303682
 10
1298.846060307069
 20
-647.5224362774006
 10
1254.682031149394
 20
-770.4834411924212
 10
1205.0139034397
 20
-890.9153334068633
 10
1103.515905784936
 20
-988.4851575192015
 10
1084.103466037161
 20
-951.022280624532
 10
1063.298285725352
 20
-917.8051798668139
 10
1049.306779343902
 20
-881.9307303892192
 10
1035.163448146714
 20
-845.6670485018476
 10
1027.303163839617
 20
-806.8910043769638
 10
1017.553358224723
 20
-768.993513405575
 10
1008.268559279326
 20
-732.9034492044457
 10
1000.097648859226
 20
-696.5267966682395
 10
991.4370032509605
 20
-660.2761352439102
 10
958.4159347166578
 20
-773.3706684322151
 10
941.306631834751
 20
-888.7723102456721
 10
866.5195097129226
 20
-985.9931030595899
 10
766.2705094731673
 20
-895.7993539921436
 10
721.4232341076295
 20
-776.2692928943006
 10
674.4005398399631
 20
-652.4135024182797
 10
659.7948958621828
 20
-778.7549234649841
 10
645.9698580002641
 20
-898.3439738224452
 10
630.3957264239971
 20
-1033.063354827545
 10
579.1339907416432
 20
-990.6956660511732
 10
537.0790693745812
 20
-959.8678375302188
 10
499.8205481293035
 20
-924.0505123122311
 10
461.690933730576
 20
-887.3958020891469
 10
428.2616028789735
 20
-845.8518216511202
 10
392.7748316444795
 20
-806.4479632631565
 10
405.6634322784757
 20
-896.5001795519638
 10
426.9424089357599
 20
-982.4632797047743
 10
450.149001252923
 20
-1067.902729298841
 10
456.8910799050673
 20
-1092.725050561023
 10
468.1698056218593
 20
-1111.143238080525
 10
502.0205228649147
 20
-1094.257044459237
 10
711.2703121939858
 20
-989.8742371572853
 10
934.8998732772407
 20
-987.0004793620174
 10
1160.574199650717
 20
-1007.055998743337
 10
1278.171499070129
 20
-1017.5067680662
 10
1391.731902353862
 20
-1046.522714539091
 10
1499.963655234795
 20
-1108.334478989356
 10
1554.413090380995
 20
-1011.550994141064
 10
1564.91124451896
 20
-908.5994016626382
 10
1580.09441683359
 20
-806.1360938168136
 10
1511.793695677163
 20
-887.7061519058498
 10
1443.753521929732
 20
-967.0113401662875
 10
1339.926622779312
 20
-1027.23267405132
 97
        0
 97
        0
 92
        1
 93
        1
 72
     4
 94
        3
 73
     0
 74
     1
 95
       17
 96
       13
 40
0.0
 40
0.0
 40
0.0
 40
0.0
 40
1.0
 40
1.0
 40
1.0
 40
2.0
 40
2.0
 40
2.0
 40
3.0
 40
3.0
 40
3.0
 40
4.0
 40
4.0
 40
4.0
 40
4.0
 10
1350.97239617987
 20
-1287.737257118259
 10
1107.452437290376
 20
-1258.61790675585
 10
863.120581729273
 20
-1257.357304896326
 10
622.018733502644
 20
-1288.048021379409
 10
626.9668202920175
 20
-1336.454372970311
 10
631.5750280978409
 20
-1381.535982133571
 10
636.4258585903272
 20
-1428.990700200164
 10
869.8506069554178
 20
-1400.781538917368
 10
1106.666167100406
 20
-1402.080960406758
 10
1336.393898313367
 20
-1428.365441677839
 10
1341.409643158708
 20
-1379.981815457446
 10
1345.957756519721
 20
-1336.110245931179
 10
1350.97239617987
 20
-1287.737257118259
 97
        0
 97
        0
 92
        1
 93
        1
 72
     4
 94
        3
 73
     0
 74
     1
 95
       29
 96
       25
 40
0.0
 40
0.0
 40
0.0
 40
0.0
 40
1.0
 40
1.0
 40
1.0
 40
2.0
 40
2.0
 40
2.0
 40
3.0
 40
3.0
 40
3.0
 40
4.0
 40
4.0
 40
4.0
 40
5.0
 40
5.0
 40
5.0
 40
6.0
 40
6.0
 40
6.0
 40
7.0
 40
7.0
 40
7.0
 40
8.0
 40
8.0
 40
8.0
 40
8.0
 10
987.409432115337
 20
-1485.039062022761
 10
874.8052903189064
 20
-1493.255285035728
 10
774.081613039225
 20
-1498.135506546911
 10
674.1324633568502
 20
-1509.706104765479
 10
650.3863507123287
 20
-1512.455114782209
 10
629.2339695650753
 20
-1537.609129750115
 10
606.8884373920409
 20
-1552.457430951594
 10
628.1167654842011
 20
-1565.865675848012
 10
648.4110048669736
 20
-1588.880328580675
 10
670.7320502805997
 20
-1591.05077414944
 10
778.2918160278114
 20
-1601.509279768647
 10
886.3688429818758
 20
-1611.123147604936
 10
994.3186354907211
 20
-1611.779627608932
 10
1093.251429240983
 20
-1612.38112464963
 10
1192.501203919102
 20
-1603.567272744134
 10
1291.06382970415
 20
-1593.527217868215
 10
1316.995825973085
 20
-1590.885825259547
 10
1361.348012909684
 20
-1569.021670311664
 10
1361.825867357036
 20
-1554.795312076934
 10
1363.1562340318
 20
-1515.191691465532
 10
1319.900943398174
 20
-1512.718287006033
 10
1290.514621737844
 20
-1509.714808098866
 10
1185.913885730863
 20
-1499.024075441208
 10
1080.90291879546
 20
-1492.347375400574
 10
987.409432115337
 20
-1485.039062022761
 97
        0
 97
        0
 92
        1
 93
        1
 72
     4
 94
        3
 73
     0
 74
     1
 95
       26
 96
       22
 40
0.0
 40
0.0
 40
0.0
 40
0.0
 40
1.0
 40
1.0
 40
1.0
 40
2.0
 40
2.0
 40
2.0
 40
3.0
 40
3.0
 40
3.0
 40
4.0
 40
4.0
 40
4.0
 40
5.0
 40
5.0
 40
5.0
 40
6.0
 40
6.0
 40
6.0
 40
7.0
 40
7.0
 40
7.0
 40
7.0
 10
1394.569465334096
 20
-1195.170191925255
 10
1387.865273811811
 20
-1148.916741088196
 10
1371.872553344108
 20
-1129.571510414904
 10
1312.70743113217
 20
-1120.789087213305
 10
1204.237027323861
 20
-1104.687644152347
 10
1095.031951659228
 20
-1089.91435739577
 10
985.6458328453446
 20
-1084.579766622561
 10
866.6299591580391
 20
-1078.775610290941
 10
747.1483880604919
 20
-1087.80607849405
 10
634.1519745950063
 20
-1131.021996905214
 10
612.1351659424909
 20
-1139.442402882387
 10
596.4222990876024
 20
-1164.345678959877
 10
577.8017245298306
 20
-1181.646247954059
 10
600.7969674475598
 20
-1187.103514283568
 10
624.1929436084683
 20
-1198.585766760858
 10
646.725562912271
 20
-1197.087273788775
 10
875.6598747685521
 20
-1181.860861103512
 10
1104.43010116087
 20
-1177.711167004183
 10
1333.293163109311
 20
-1197.999466016548
 10
1352.214071742983
 20
-1199.676791767499
 10
1371.577607046016
 20
-1196.36365378437
 10
1394.569465334096
 20
-1195.170191925255
 97
        0
 97
        0
 92
        1
 93
        1
 72
     4
 94
        3
 73
     0
 74
     1
 95
       17
 96
       13
 40
0.0
 40
0.0
 40
0.0
 40
0.0
 40
1.0
 40
1.0
 40
1.0
 40
2.0
 40
2.0
 40
2.0
 40
3.0
 40
3.0
 40
3.0
 40
4.0
 40
4.0
 40
4.0
 40
4.0
 10
986.0839006257884
 20
-267.044474702514
 10
949.7758041085181
 20
-267.7303543594662
 10
929.6927932455501
 20
-285.302220415485
 10
929.1614063904635
 20
-322.4603252249663
 10
928.6248389797911
 20
-359.9769935551485
 10
951.2053611542551
 20
-382.9990372137809
 10
987.6695650798838
 20
-381.7448592431847
 10
1025.090030492815
 20
-380.4578020131294
 10
1041.27843781356
 20
-358.8919434559521
 10
1041.565647815309
 20
-323.1225556456629
 10
1041.864945780093
 20
-285.8471457891719
 10
1022.825298812364
 20
-267.6464120904366
 10
986.0839006257884
 20
-267.044474702514
 97
        0
 97
        0
 92
        1
 93
        1
 72
     4
 94
        3
 73
     0
 74
     1
 95
       17
 96
       13
 40
0.0
 40
0.0
 40
0.0
 40
0.0
 40
1.0
 40
1.0
 40
1.0
 40
2.0
 40
2.0
 40
2.0
 40
3.0
 40
3.0
 40
3.0
 40
4.0
 40
4.0
 40
4.0
 40
4.0
 10
602.2738056972885
 20
-337.1760387404529
 10
572.9062031111471
 20
-338.0171710140912
 10
551.520662425437
 20
-361.3090007391811
 10
554.1444411451093
 20
-398.4594901319488
 10
556.6734156975381
 20
-434.2673349332126
 10
575.9497795185598
 20
-452.4322796270999
 10
612.5824551118803
 20
-451.5366133716489
 10
649.7455505232438
 20
-450.62799572723
 10
670.0312937948529
 20
-428.8518584187723
 10
667.6399838728921
 20
-390.7426036035022
 10
665.3677576553591
 20
-354.5310553738555
 10
645.1562344767945
 20
-337.1126632771047
 10
602.2738056972885
 20
-337.1760387404529
 97
        0
 97
        0
 92
        1
 93
        1
 72
     4
 94
        3
 73
     0
 74
     1
 95
       17
 96
       13
 40
0.0
 40
0.0
 40
0.0
 40
0.0
 40
1.0
 40
1.0
 40
1.0
 40
2.0
 40
2.0
 40
2.0
 40
3.0
 40
3.0
 40
3.0
 40
4.0
 40
4.0
 40
4.0
 40
4.0
 10
1350.733814326566
 20
-451.4744985101597
 10
1397.138330164546
 20
-451.3534980001641
 10
1417.700576956355
 20
-429.941415601329
 10
1416.655209912957
 20
-392.3009837981717
 10
1415.624072128903
 20
-355.177087924083
 10
1394.511028667073
 20
-338.4888260632579
 10
1359.520589194859
 20
-337.2221802222157
 10
1324.560266019123
 20
-335.9566568348837
 10
1300.519310687623
 20
-361.0037624039896
 10
1302.037766067235
 20
-396.7614248901327
 10
1303.584127372942
 20
-433.1736678432226
 10
1324.481659722349
 20
-450.0192631772288
 10
1350.733814326566
 20
-451.4744985101597
 97
        0
 97
        0
 92
        1
 93
        1
 72
     4
 94
        3
 73
     0
 74
     1
 95
       17
 96
       13
 40
0.0
 40
0.0
 40
0.0
 40
0.0
 40
1.0
 40
1.0
 40
1.0
 40
2.0
 40
2.0
 40
2.0
 40
3.0
 40
3.0
 40
3.0
 40
4.0
 40
4.0
 40
4.0
 40
4.0
 10
303.4043592024136
 20
-602.3705442433429
 10
339.0359787711222
 20
-600.3065072863365
 10
359.6843609338275
 20
-582.5992992156052
 10
360.2557071410092
 20
-545.8318946399831
 10
360.8226844129786
 20
-509.344032843841
 10
340.9411971623476
 20
-489.0343899424561
 10
305.6378003271175
 20
-487.148702245795
 10
270.0250034437076
 20
-485.2464367712546
 10
248.3622943998289
 20
-502.8417103042666
 10
246.9509124699425
 20
-540.3806722919917
 10
245.5426820447055
 20
-577.8358474273555
 10
267.6187648873965
 20
-601.8583945180035
 10
303.4043592024136
 20
-602.3705442433429
 97
        0
 97
        0
 92
        1
 93
        1
 72
     4
 94
        3
 73
     0
 74
     1
 95
       17
 96
       13
 40
0.0
 40
0.0
 40
0.0
 40
0.0
 40
1.0
 40
1.0
 40
1.0
 40
2.0
 40
2.0
 40
2.0
 40
3.0
 40
3.0
 40
3.0
 40
4.0
 40
4.0
 40
4.0
 40
4.0
 10
1721.386403249062
 20
-544.0811431478469
 10
1721.856659548221
 20
-507.5607129255795
 10
1703.371608324607
 20
-487.4859564145136
 10
1667.166984770929
 20
-486.9748428002922
 10
1631.760443073959
 20
-486.4749882602127
 10
1610.781817761097
 20
-505.0006550396283
 10
1608.930494416496
 20
-541.2602615566047
 10
1607.141890331537
 20
-576.2856179734763
 10
1632.368018633213
 20
-603.2766234155242
 10
1666.37152772905
 20
-601.752158591431
 10
1702.007947945938
 20
-600.1545443224486
 10
1721.189818433051
 20
-580.6767259631633
 10
1721.386403249062
 20
-544.0811431478469
 97
        0
 97
        0
 75
     2
 76
     1
 98
        0
  0
ENDSEC
  0
SECTION
  2
OBJECTS
  0
DICTIONARY
  5
C
330
0
100
AcDbDictionary
281
     1
  3
ACAD_GROUP
350
D
  3
ACAD_LAYOUT
350
1A
  3
ACAD_MATERIAL
350
3B
  3
ACAD_MLEADERSTYLE
350
4D
  3
ACAD_MLINESTYLE
350
17
  3
ACAD_PLOTSETTINGS
350
19
  3
ACAD_PLOTSTYLENAME
350
E
  3
ACAD_TABLESTYLE
350
4C
  3
ACAD_VISUALSTYLE
350
2A
  0
SUN
  5
3F
330
29
100
AcDbSun
 90
        1
290
     0
 63
     7
421
 16777215
 40
1.0
291
     1
 91
  2455826
 92
 54000000
292
     0
 70
     2
 71
   256
280
     1
  0
DICTIONARY
  5
D
102
{ACAD_REACTORS
330
C
102
}
330
C
100
AcDbDictionary
281
     1
  0
DICTIONARY
  5
1A
102
{ACAD_REACTORS
330
C
102
}
330
C
100
AcDbDictionary
281
     1
  3
Layout1
350
1E
  3
Layout2
350
26
  3
Model
350
22
  0
DICTIONARY
  5
3B
102
{ACAD_REACTORS
330
C
102
}
330
C
100
AcDbDictionary
281
     1
  3
ByBlock
350
3D
  3
ByLayer
350
3C
  3
Global
350
3E
  0
DICTIONARY
  5
4D
102
{ACAD_REACTORS
330
C
102
}
330
C
100
AcDbDictionary
281
     1
  0
DICTIONARY
  5
17
102
{ACAD_REACTORS
330
C
102
}
330
C
100
AcDbDictionary
281
     1
  3
Standard
350
18
  0
DICTIONARY
  5
19
102
{ACAD_REACTORS
330
C
102
}
330
C
100
AcDbDictionary
281
     1
  0
ACDBDICTIONARYWDFLT
  5
E
102
{ACAD_REACTORS
330
C
102
}
330
C
100
AcDbDictionary
281
     1
  3
Normal
350
F
100
AcDbDictionaryWithDefault
340
F
  0
DICTIONARY
  5
4C
102
{ACAD_REACTORS
330
C
102
}
330
C
100
AcDbDictionary
281
     1
  0
DICTIONARY
  5
2A
102
{ACAD_REACTORS
330
C
102
}
330
C
100
AcDbDictionary
281
     1
  3
2dWireframe
350
2F
  3
3D Hidden
350
31
  3
3dWireframe
350
30
  3
Basic
350
32
  3
Brighten
350
36
  3
ColorChange
350
3A
  3
Conceptual
350
34
  3
Dim
350
35
  3
Facepattern
350
39
  3
Flat
350
2B
  3
FlatWithEdges
350
2C
  3
Gouraud
350
2D
  3
GouraudWithEdges
350
2E
  3
Linepattern
350
38
  3
Realistic
350
33
  3
Thicken
350
37
  0
LAYOUT
  5
1E
102
{ACAD_REACTORS
330
1A
102
}
330
1A
100
AcDbPlotSettings
  1

  2
none_device
  4

  6

 40
0.0
 41
0.0
 42
0.0
 43
0.0
 44
0.0
 45
0.0
 46
0.0
 47
0.0
 48
0.0
 49
0.0
140
0.0
141
0.0
142
1.0
143
1.0
 70
   688
 72
     0
 73
     0
 74
     5
  7

 75
    16
 76
     0
 77
     2
 78
   300
147
1.0
148
0.0
149
0.0
100
AcDbLayout
  1
Layout1
 70
     1
 71
     1
 10
0.0
 20
0.0
 11
12.0
 21
9.0
 12
0.0
 22
0.0
 32
0.0
 14
1.000000000000000E+20
 24
1.000000000000000E+20
 34
1.000000000000000E+20
 15
-1.000000000000000E+20
 25
-1.000000000000000E+20
 35
-1.000000000000000E+20
146
0.0
 13
0.0
 23
0.0
 33
0.0
 16
1.0
 26
0.0
 36
0.0
 17
0.0
 27
1.0
 37
0.0
 76
     0
330
1B
  0
LAYOUT
  5
26
102
{ACAD_REACTORS
330
1A
102
}
330
1A
100
AcDbPlotSettings
  1

  2
none_device
  4

  6

 40
0.0
 41
0.0
 42
0.0
 43
0.0
 44
0.0
 45
0.0
 46
0.0
 47
0.0
 48
0.0
 49
0.0
140
0.0
141
0.0
142
1.0
143
1.0
 70
   688
 72
     0
 73
     0
 74
     5
  7

 75
    16
 76
     0
 77
     2
 78
   300
147
1.0
148
0.0
149
0.0
100
AcDbLayout
  1
Layout2
 70
     1
 71
     2
 10
0.0
 20
0.0
 11
0.0
 21
0.0
 12
0.0
 22
0.0
 32
0.0
 14
0.0
 24
0.0
 34
0.0
 15
0.0
 25
0.0
 35
0.0
146
0.0
 13
0.0
 23
0.0
 33
0.0
 16
1.0
 26
0.0
 36
0.0
 17
0.0
 27
1.0
 37
0.0
 76
     0
330
23
  0
LAYOUT
  5
22
102
{ACAD_REACTORS
330
1A
102
}
330
1A
100
AcDbPlotSettings
  1

  2
none_device
  4

  6

 40
0.0
 41
0.0
 42
0.0
 43
0.0
 44
0.0
 45
0.0
 46
0.0
 47
0.0
 48
0.0
 49
0.0
140
0.0
141
0.0
142
1.0
143
1.0
 70
  1712
 72
     0
 73
     0
 74
     0
  7

 75
     0
 76
     0
 77
     2
 78
   300
147
1.0
148
0.0
149
0.0
100
AcDbLayout
  1
Model
 70
     1
 71
     0
 10
0.0
 20
0.0
 11
12.0
 21
9.0
 12
0.0
 22
0.0
 32
0.0
 14
1.000000000000000E+20
 24
1.000000000000000E+20
 34
1.000000000000000E+20
 15
-1.000000000000000E+20
 25
-1.000000000000000E+20
 35
-1.000000000000000E+20
146
0.0
 13
0.0
 23
0.0
 33
0.0
 16
1.0
 26
0.0
 36
0.0
 17
0.0
 27
1.0
 37
0.0
 76
     0
330
1F
331
29
  0
MATERIAL
  5
3D
102
{ACAD_REACTORS
330
3B
102
}
330
3B
100
AcDbMaterial
  1
ByBlock
 72
     1
 94
      127
  0
MATERIAL
  5
3C
102
{ACAD_REACTORS
330
3B
102
}
330
3B
100
AcDbMaterial
  1
ByLayer
 72
     1
 94
      127
  0
MATERIAL
  5
3E
102
{ACAD_REACTORS
330
3B
102
}
330
3B
100
AcDbMaterial
  1
Global
 72
     1
 94
      127
  0
MLINESTYLE
  5
18
102
{ACAD_REACTORS
330
17
102
}
330
17
100
AcDbMlineStyle
  2
Standard
 70
     0
  3

 62
   256
 51
90.0
 52
90.0
 71
     2
 49
0.5
 62
   256
  6
BYLAYER
 49
-0.5
 62
   256
  6
BYLAYER
  0
ACDBPLACEHOLDER
  5
F
102
{ACAD_REACTORS
330
E
102
}
330
E
  0
VISUALSTYLE
  5
2F
102
{ACAD_REACTORS
330
2A
102
}
330
2A
100
AcDbVisualStyle
  2
2dWireframe
 70
     4
177
     2
291
     0
 71
     0
176
     1
 72
     2
176
     1
 73
     0
176
     1
 90
        0
176
     1
 40
-0.6
176
     1
 41
-30.0
176
     1
 62
     5
 63
     7
421
 16777215
176
     1
 74
     1
176
     1
 91
        4
176
     1
 64
     7
176
     1
 65
   257
176
     1
 75
     1
176
     1
175
     1
176
     1
 42
1.0
176
     1
 92
        0
176
     1
 66
   257
176
     1
 43
1.0
176
     1
 76
     1
176
     1
 77
     6
176
     1
 78
     2
176
     1
 67
     7
176
     1
 79
     5
176
     1
170
     0
176
     1
171
     0
176
     1
290
     0
176
     1
 93
        1
176
     1
 44
0.0
176
     1
173
     0
176
     1
  0
VISUALSTYLE
  5
31
102
{ACAD_REACTORS
330
2A
102
}
330
2A
100
AcDbVisualStyle
  2
3D Hidden
 70
     6
177
     2
291
     0
 71
     1
176
     1
 72
     2
176
     1
 73
     2
176
     1
 90
        0
176
     1
 40
-0.6
176
     1
 41
-30.0
176
     1
 62
     5
 63
     7
421
 16777215
176
     1
 74
     2
176
     1
 91
        2
176
     1
 64
     7
176
     1
 65
   257
176
     1
 75
     2
176
     1
175
     1
176
     1
 42
40.0
176
     1
 92
        0
176
     1
 66
   257
176
     1
 43
1.0
176
     1
 76
     1
176
     1
 77
     6
176
     1
 78
     2
176
     1
 67
     7
176
     1
 79
     3
176
     1
170
     0
176
     1
171
     0
176
     1
290
     0
176
     1
 93
        1
176
     1
 44
0.0
176
     1
173
     0
176
     1
  0
VISUALSTYLE
  5
30
102
{ACAD_REACTORS
330
2A
102
}
330
2A
100
AcDbVisualStyle
  2
3dWireframe
 70
     5
177
     2
291
     0
 71
     0
176
     1
 72
     2
176
     1
 73
     0
176
     1
 90
        0
176
     1
 40
-0.6
176
     1
 41
-30.0
176
     1
 62
     5
 63
     7
421
 16777215
176
     1
 74
     1
176
     1
 91
        4
176
     1
 64
     7
176
     1
 65
   257
176
     1
 75
     1
176
     1
175
     1
176
     1
 42
1.0
176
     1
 92
        0
176
     1
 66
   257
176
     1
 43
1.0
176
     1
 76
     1
176
     1
 77
     6
176
     1
 78
     2
176
     1
 67
     7
176
     1
 79
     5
176
     1
170
     0
176
     1
171
     0
176
     1
290
     0
176
     1
 93
        1
176
     1
 44
0.0
176
     1
173
     0
176
     1
  0
VISUALSTYLE
  5
32
102
{ACAD_REACTORS
330
2A
102
}
330
2A
100
AcDbVisualStyle
  2
Basic
 70
     7
177
     2
291
     1
 71
     1
176
     1
 72
     0
176
     1
 73
     1
176
     1
 90
        0
176
     1
 40
-0.6
176
     1
 41
-30.0
176
     1
 62
     5
 63
     7
421
 16777215
176
     1
 74
     0
176
     1
 91
        4
176
     1
 64
     7
176
     1
 65
   257
176
     1
 75
     1
176
     1
175
     1
176
     1
 42
1.0
176
     1
 92
        8
176
     1
 66
     7
176
     1
 43
1.0
176
     1
 76
     1
176
     1
 77
     6
176
     1
 78
     2
176
     1
 67
     7
176
     1
 79
     5
176
     1
170
     0
176
     1
171
     0
176
     1
290
     0
176
     1
 93
        1
176
     1
 44
0.0
176
     1
173
     0
176
     1
  0
VISUALSTYLE
  5
36
102
{ACAD_REACTORS
330
2A
102
}
330
2A
100
AcDbVisualStyle
  2
Brighten
 70
    12
177
     2
291
     1
 71
     2
176
     1
 72
     2
176
     1
 73
     0
176
     1
 90
        0
176
     1
 40
-0.6
176
     1
 41
-30.0
176
     1
 62
     5
 63
     7
421
 16777215
176
     1
 74
     1
176
     1
 91
        4
176
     1
 64
     7
176
     1
 65
   257
176
     1
 75
     1
176
     1
175
     1
176
     1
 42
1.0
176
     1
 92
        8
176
     1
 66
     7
176
     1
 43
1.0
176
     1
 76
     1
176
     1
 77
     6
176
     1
 78
     2
176
     1
 67
     7
176
     1
 79
     5
176
     1
170
     0
176
     1
171
     0
176
     1
290
     0
176
     1
 93
        1
176
     1
 44
50.0
176
     1
173
     0
176
     1
  0
VISUALSTYLE
  5
3A
102
{ACAD_REACTORS
330
2A
102
}
330
2A
100
AcDbVisualStyle
  2
ColorChange
 70
    16
177
     2
291
     1
 71
     2
176
     1
 72
     2
176
     1
 73
     3
176
     1
 90
        0
176
     1
 40
-0.6
176
     1
 41
-30.0
176
     1
 62
     5
 63
     8
421
  8421504
176
     1
 74
     1
176
     1
 91
        4
176
     1
 64
     7
176
     1
 65
   257
176
     1
 75
     1
176
     1
175
     1
176
     1
 42
1.0
176
     1
 92
        8
176
     1
 66
     8
424
  8421504
176
     1
 43
1.0
176
     1
 76
     1
176
     1
 77
     6
176
     1
 78
     2
176
     1
 67
     7
176
     1
 79
     5
176
     1
170
     0
176
     1
171
     0
176
     1
290
     0
176
     1
 93
        1
176
     1
 44
0.0
176
     1
173
     0
176
     1
  0
VISUALSTYLE
  5
34
102
{ACAD_REACTORS
330
2A
102
}
330
2A
100
AcDbVisualStyle
  2
Conceptual
 70
     9
177
     2
291
     0
 71
     3
176
     1
 72
     2
176
     1
 73
     0
176
     1
 90
        0
176
     1
 40
-0.6
176
     1
 41
-30.0
176
     1
 62
     5
 63
     7
421
 16777215
176
     1
 74
     2
176
     1
 91
        2
176
     1
 64
     7
176
     1
 65
   257
176
     1
 75
     1
176
     1
175
     1
176
     1
 42
40.0
176
     1
 92
        8
176
     1
 66
     7
176
     1
 43
1.0
176
     1
 76
     1
176
     1
 77
     6
176
     1
 78
     2
176
     1
 67
     7
176
     1
 79
     3
176
     1
170
     0
176
     1
171
     0
176
     1
290
     0
176
     1
 93
        1
176
     1
 44
0.0
176
     1
173
     0
176
     1
  0
VISUALSTYLE
  5
35
102
{ACAD_REACTORS
330
2A
102
}
330
2A
100
AcDbVisualStyle
  2
Dim
 70
    11
177
     2
291
     1
 71
     2
176
     1
 72
     2
176
     1
 73
     0
176
     1
 90
        0
176
     1
 40
-0.6
176
     1
 41
-30.0
176
     1
 62
     5
 63
     7
421
 16777215
176
     1
 74
     1
176
     1
 91
        4
176
     1
 64
     7
176
     1
 65
   257
176
     1
 75
     1
176
     1
175
     1
176
     1
 42
1.0
176
     1
 92
        8
176
     1
 66
     7
176
     1
 43
1.0
176
     1
 76
     1
176
     1
 77
     6
176
     1
 78
     2
176
     1
 67
     7
176
     1
 79
     5
176
     1
170
     0
176
     1
171
     0
176
     1
290
     0
176
     1
 93
        1
176
     1
 44
-50.0
176
     1
173
     0
176
     1
  0
VISUALSTYLE
  5
39
102
{ACAD_REACTORS
330
2A
102
}
330
2A
100
AcDbVisualStyle
  2
Facepattern
 70
    15
177
     2
291
     1
 71
     2
176
     1
 72
     2
176
     1
 73
     0
176
     1
 90
        0
176
     1
 40
-0.6
176
     1
 41
-30.0
176
     1
 62
     5
 63
     7
421
 16777215
176
     1
 74
     1
176
     1
 91
        4
176
     1
 64
     7
176
     1
 65
   257
176
     1
 75
     1
176
     1
175
     1
176
     1
 42
1.0
176
     1
 92
        8
176
     1
 66
     7
176
     1
 43
1.0
176
     1
 76
     1
176
     1
 77
     6
176
     1
 78
     2
176
     1
 67
     7
176
     1
 79
     5
176
     1
170
     0
176
     1
171
     0
176
     1
290
     0
176
     1
 93
        1
176
     1
 44
0.0
176
     1
173
     0
176
     1
  0
VISUALSTYLE
  5
2B
102
{ACAD_REACTORS
330
2A
102
}
330
2A
100
AcDbVisualStyle
  2
Flat
 70
     0
177
     2
291
     1
 71
     2
176
     1
 72
     1
176
     1
 73
     1
176
     1
 90
        2
176
     1
 40
-0.6
176
     1
 41
30.0
176
     1
 62
     5
 63
     7
421
 16777215
176
     1
 74
     0
176
     1
 91
        4
176
     1
 64
     7
176
     1
 65
   257
176
     1
 75
     1
176
     1
175
     1
176
     1
 42
1.0
176
     1
 92
        8
176
     1
 66
     7
176
     1
 43
1.0
176
     1
 76
     1
176
     1
 77
     6
176
     1
 78
     2
176
     1
 67
     7
176
     1
 79
     5
176
     1
170
     0
176
     1
171
     0
176
     1
290
     0
176
     1
 93
       13
176
     1
 44
0.0
176
     1
173
     0
176
     1
  0
VISUALSTYLE
  5
2C
102
{ACAD_REACTORS
330
2A
102
}
330
2A
100
AcDbVisualStyle
  2
FlatWithEdges
 70
     1
177
     2
291
     1
 71
     2
176
     1
 72
     1
176
     1
 73
     1
176
     1
 90
        2
176
     1
 40
-0.6
176
     1
 41
30.0
176
     1
 62
     5
 63
     7
421
 16777215
176
     1
 74
     1
176
     1
 91
        4
176
     1
 64
     7
176
     1
 65
   257
176
     1
 75
     1
176
     1
175
     1
176
     1
 42
1.0
176
     1
 92
        0
176
     1
 66
   257
176
     1
 43
1.0
176
     1
 76
     1
176
     1
 77
     6
176
     1
 78
     2
176
     1
 67
     7
176
     1
 79
     5
176
     1
170
     0
176
     1
171
     0
176
     1
290
     0
176
     1
 93
       13
176
     1
 44
0.0
176
     1
173
     0
176
     1
  0
VISUALSTYLE
  5
2D
102
{ACAD_REACTORS
330
2A
102
}
330
2A
100
AcDbVisualStyle
  2
Gouraud
 70
     2
177
     2
291
     1
 71
     2
176
     1
 72
     2
176
     1
 73
     1
176
     1
 90
        2
176
     1
 40
-0.6
176
     1
 41
30.0
176
     1
 62
     5
 63
     7
421
 16777215
176
     1
 74
     0
176
     1
 91
        4
176
     1
 64
     7
176
     1
 65
   257
176
     1
 75
     1
176
     1
175
     1
176
     1
 42
1.0
176
     1
 92
        0
176
     1
 66
     7
176
     1
 43
1.0
176
     1
 76
     1
176
     1
 77
     6
176
     1
 78
     2
176
     1
 67
     7
176
     1
 79
     5
176
     1
170
     0
176
     1
171
     0
176
     1
290
     0
176
     1
 93
       13
176
     1
 44
0.0
176
     1
173
     0
176
     1
  0
VISUALSTYLE
  5
2E
102
{ACAD_REACTORS
330
2A
102
}
330
2A
100
AcDbVisualStyle
  2
GouraudWithEdges
 70
     3
177
     2
291
     1
 71
     2
176
     1
 72
     2
176
     1
 73
     1
176
     1
 90
        2
176
     1
 40
-0.6
176
     1
 41
30.0
176
     1
 62
     5
 63
     7
421
 16777215
176
     1
 74
     1
176
     1
 91
        4
176
     1
 64
     7
176
     1
 65
   257
176
     1
 75
     1
176
     1
175
     1
176
     1
 42
1.0
176
     1
 92
        0
176
     1
 66
   257
176
     1
 43
1.0
176
     1
 76
     1
176
     1
 77
     6
176
     1
 78
     2
176
     1
 67
     7
176
     1
 79
     5
176
     1
170
     0
176
     1
171
     0
176
     1
290
     0
176
     1
 93
       13
176
     1
 44
0.0
176
     1
173
     0
176
     1
  0
VISUALSTYLE
  5
38
102
{ACAD_REACTORS
330
2A
102
}
330
2A
100
AcDbVisualStyle
  2
Linepattern
 70
    14
177
     2
291
     1
 71
     2
176
     1
 72
     2
176
     1
 73
     0
176
     1
 90
        0
176
     1
 40
-0.6
176
     1
 41
-30.0
176
     1
 62
     5
 63
     7
421
 16777215
176
     1
 74
     1
176
     1
 91
        4
176
     1
 64
     7
176
     1
 65
   257
176
     1
 75
     7
176
     1
175
     7
176
     1
 42
1.0
176
     1
 92
        8
176
     1
 66
     7
176
     1
 43
1.0
176
     1
 76
     1
176
     1
 77
     6
176
     1
 78
     2
176
     1
 67
     7
176
     1
 79
     5
176
     1
170
     0
176
     1
171
     0
176
     1
290
     0
176
     1
 93
        1
176
     1
 44
0.0
176
     1
173
     0
176
     1
  0
VISUALSTYLE
  5
33
102
{ACAD_REACTORS
330
2A
102
}
330
2A
100
AcDbVisualStyle
  2
Realistic
 70
     8
177
     2
291
     0
 71
     2
176
     1
 72
     2
176
     1
 73
     0
176
     1
 90
        0
176
     1
 40
-0.6
176
     1
 41
-30.0
176
     1
 62
     5
 63
     7
421
 16777215
176
     1
 74
     1
176
     1
 91
        0
176
     1
 64
     7
176
     1
 65
   257
176
     1
 75
     1
176
     1
175
     1
176
     1
 42
1.0
176
     1
 92
        8
176
     1
 66
     8
424
  7895160
176
     1
 43
1.0
176
     1
 76
     1
176
     1
 77
     6
176
     1
 78
     2
176
     1
 67
     7
176
     1
 79
     5
176
     1
170
     0
176
     1
171
     0
176
     1
290
     0
176
     1
 93
       13
176
     1
 44
0.0
176
     1
173
     0
176
     1
  0
VISUALSTYLE
  5
37
102
{ACAD_REACTORS
330
2A
102
}
330
2A
100
AcDbVisualStyle
  2
Thicken
 70
    13
177
     2
291
     1
 71
     2
176
     1
 72
     2
176
     1
 73
     0
176
     1
 90
        0
176
     1
 40
-0.6
176
     1
 41
-30.0
176
     1
 62
     5
 63
     7
421
 16777215
176
     1
 74
     1
176
     1
 91
        4
176
     1
 64
     7
176
     1
 65
   257
176
     1
 75
     1
176
     1
175
     1
176
     1
 42
1.0
176
     1
 92
       12
176
     1
 66
     7
176
     1
 43
1.0
176
     1
 76
     1
176
     1
 77
     6
176
     1
 78
     2
176
     1
 67
     7
176
     1
 79
     5
176
     1
170
     0
176
     1
171
     0
176
     1
290
     0
176
     1
 93
        1
176
     1
 44
0.0
176
     1
173
     0
176
     1
  0
ENDSEC
  0
EOF
