  0
SECTION
  2
HEADER
  9
$ACADVER
  1
AC1024
  9
$ACADMAINTVER
 70
     6
  9
$DWGCODEPAGE
  3
ANSI_1252
  9
$INSBASE
 10
0.0
 20
0.0
 30
0.0
  9
$EXTMIN
 10
1.000000000000000E+20
 20
1.000000000000000E+20
 30
1.000000000000000E+20
  9
$EXTMAX
 10
-1.000000000000000E+20
 20
-1.000000000000000E+20
 30
-1.000000000000000E+20
  9
$LIMMIN
 10
0.0
 20
0.0
  9
$LIMMAX
 10
12.0
 20
9.0
  9
$ORTHOMODE
 70
     0
  9
$REGENMODE
 70
     1
  9
$FILLMODE
 70
     1
  9
$QTEXTMODE
 70
     0
  9
$MIRRTEXT
 70
     1
  9
$LTSCALE
 40
1.0
  9
$ATTMODE
 70
     1
  9
$TEXTSIZE
 40
0.2
  9
$TRACEWID
 40
0.05
  9
$TEXTSTYLE
  7
Standard
  9
$CLAYER
  8
0
  9
$CELTYPE
  6
ByLayer
  9
$CECOLOR
 62
   256
  9
$CELTSCALE
 40
1.0
  9
$DISPSILH
 70
     0
  9
$DIMSCALE
 40
1.0
  9
$DIMASZ
 40
0.18
  9
$DIMEXO
 40
0.0625
  9
$DIMDLI
 40
0.38
  9
$DIMRND
 40
0.0
  9
$DIMDLE
 40
0.0
  9
$DIMEXE
 40
0.18
  9
$DIMTP
 40
0.0
  9
$DIMTM
 40
0.0
  9
$DIMTXT
 40
0.18
  9
$DIMCEN
 40
0.09
  9
$DIMTSZ
 40
0.0
  9
$DIMTOL
 70
     0
  9
$DIMLIM
 70
     0
  9
$DIMTIH
 70
     1
  9
$DIMTOH
 70
     1
  9
$DIMSE1
 70
     0
  9
$DIMSE2
 70
     0
  9
$DIMTAD
 70
     0
  9
$DIMZIN
 70
     0
  9
$DIMBLK
  1

  9
$DIMASO
 70
     1
  9
$DIMSHO
 70
     1
  9
$DIMPOST
  1

  9
$DIMAPOST
  1

  9
$DIMALT
 70
     0
  9
$DIMALTD
 70
     2
  9
$DIMALTF
 40
25.4
  9
$DIMLFAC
 40
1.0
  9
$DIMTOFL
 70
     0
  9
$DIMTVP
 40
0.0
  9
$DIMTIX
 70
     0
  9
$DIMSOXD
 70
     0
  9
$DIMSAH
 70
     0
  9
$DIMBLK1
  1

  9
$DIMBLK2
  1

  9
$DIMSTYLE
  2
Standard
  9
$DIMCLRD
 70
     0
  9
$DIMCLRE
 70
     0
  9
$DIMCLRT
 70
     0
  9
$DIMTFAC
 40
1.0
  9
$DIMGAP
 40
0.09
  9
$DIMJUST
 70
     0
  9
$DIMSD1
 70
     0
  9
$DIMSD2
 70
     0
  9
$DIMTOLJ
 70
     1
  9
$DIMTZIN
 70
     0
  9
$DIMALTZ
 70
     0
  9
$DIMALTTZ
 70
     0
  9
$DIMUPT
 70
     0
  9
$DIMDEC
 70
     4
  9
$DIMTDEC
 70
     4
  9
$DIMALTU
 70
     2
  9
$DIMALTTD
 70
     2
  9
$DIMTXSTY
  7
Standard
  9
$DIMAUNIT
 70
     0
  9
$DIMADEC
 70
     0
  9
$DIMALTRND
 40
0.0
  9
$DIMAZIN
 70
     0
  9
$DIMDSEP
 70
    46
  9
$DIMATFIT
 70
     3
  9
$DIMFRAC
 70
     0
  9
$DIMLDRBLK
  1

  9
$DIMLUNIT
 70
     2
  9
$DIMLWD
 70
    -2
  9
$DIMLWE
 70
    -2
  9
$DIMTMOVE
 70
     0
  9
$DIMFXL
 40
1.0
  9
$DIMFXLON
 70
     0
  9
$DIMJOGANG
 40
0.7853981633974483
  9
$DIMTFILL
 70
     0
  9
$DIMTFILLCLR
 70
     0
  9
$DIMARCSYM
 70
     0
  9
$DIMLTYPE
  6

  9
$DIMLTEX1
  6

  9
$DIMLTEX2
  6

  9
$DIMTXTDIRECTION
 70
     0
  9
$LUNITS
 70
     2
  9
$LUPREC
 70
     4
  9
$SKETCHINC
 40
0.1
  9
$FILLETRAD
 40
0.5
  9
$AUNITS
 70
     0
  9
$AUPREC
 70
     0
  9
$MENU
  1
.
  9
$ELEVATION
 40
0.0
  9
$PELEVATION
 40
0.0
  9
$THICKNESS
 40
0.0
  9
$LIMCHECK
 70
     0
  9
$CHAMFERA
 40
0.5
  9
$CHAMFERB
 40
0.5
  9
$CHAMFERC
 40
1.0
  9
$CHAMFERD
 40
0.0
  9
$SKPOLY
 70
     0
  9
$TDCREATE
 40
2458270.898074525
  9
$TDUCREATE
 40
2458271.064741192
  9
$TDUPDATE
 40
2458270.89807456
  9
$TDUUPDATE
 40
2458271.064741227
  9
$TDINDWG
 40
0.0000000116
  9
$TDUSRTIMER
 40
0.0000000116
  9
$USRTIMER
 70
     1
  9
$ANGBASE
 50
0.0
  9
$ANGDIR
 70
     0
  9
$PDMODE
 70
     0
  9
$PDSIZE
 40
0.0
  9
$PLINEWID
 40
0.0
  9
$SPLFRAME
 70
     0
  9
$SPLINETYPE
 70
     6
  9
$SPLINESEGS
 70
     8
  9
$HANDSEED
  5
4A
  9
$SURFTAB1
 70
     6
  9
$SURFTAB2
 70
     6
  9
$SURFTYPE
 70
     6
  9
$SURFU
 70
     6
  9
$SURFV
 70
     6
  9
$UCSBASE
  2

  9
$UCSNAME
  2

  9
$UCSORG
 10
0.0
 20
0.0
 30
0.0
  9
$UCSXDIR
 10
1.0
 20
0.0
 30
0.0
  9
$UCSYDIR
 10
0.0
 20
1.0
 30
0.0
  9
$UCSORTHOREF
  2

  9
$UCSORTHOVIEW
 70
     0
  9
$UCSORGTOP
 10
0.0
 20
0.0
 30
0.0
  9
$UCSORGBOTTOM
 10
0.0
 20
0.0
 30
0.0
  9
$UCSORGLEFT
 10
0.0
 20
0.0
 30
0.0
  9
$UCSORGRIGHT
 10
0.0
 20
0.0
 30
0.0
  9
$UCSORGFRONT
 10
0.0
 20
0.0
 30
0.0
  9
$UCSORGBACK
 10
0.0
 20
0.0
 30
0.0
  9
$PUCSBASE
  2

  9
$PUCSNAME
  2

  9
$PUCSORG
 10
0.0
 20
0.0
 30
0.0
  9
$PUCSXDIR
 10
1.0
 20
0.0
 30
0.0
  9
$PUCSYDIR
 10
0.0
 20
1.0
 30
0.0
  9
$PUCSORTHOREF
  2

  9
$PUCSORTHOVIEW
 70
     0
  9
$PUCSORGTOP
 10
0.0
 20
0.0
 30
0.0
  9
$PUCSORGBOTTOM
 10
0.0
 20
0.0
 30
0.0
  9
$PUCSORGLEFT
 10
0.0
 20
0.0
 30
0.0
  9
$PUCSORGRIGHT
 10
0.0
 20
0.0
 30
0.0
  9
$PUCSORGFRONT
 10
0.0
 20
0.0
 30
0.0
  9
$PUCSORGBACK
 10
0.0
 20
0.0
 30
0.0
  9
$USERI1
 70
     0
  9
$USERI2
 70
     0
  9
$USERI3
 70
     0
  9
$USERI4
 70
     0
  9
$USERI5
 70
     0
  9
$USERR1
 40
0.0
  9
$USERR2
 40
0.0
  9
$USERR3
 40
0.0
  9
$USERR4
 40
0.0
  9
$USERR5
 40
0.0
  9
$WORLDVIEW
 70
     1
  9
$SHADEDGE
 70
     3
  9
$SHADEDIF
 70
    70
  9
$TILEMODE
 70
     1
  9
$MAXACTVP
 70
    64
  9
$PINSBASE
 10
0.0
 20
0.0
 30
0.0
  9
$PLIMCHECK
 70
     0
  9
$PEXTMIN
 10
1.000000000000000E+20
 20
1.000000000000000E+20
 30
1.000000000000000E+20
  9
$PEXTMAX
 10
-1.000000000000000E+20
 20
-1.000000000000000E+20
 30
-1.000000000000000E+20
  9
$PLIMMIN
 10
0.0
 20
0.0
  9
$PLIMMAX
 10
12.0
 20
9.0
  9
$UNITMODE
 70
     0
  9
$VISRETAIN
 70
     1
  9
$PLINEGEN
 70
     0
  9
$PSLTSCALE
 70
     1
  9
$TREEDEPTH
 70
  3020
  9
$CMLSTYLE
  2
Standard
  9
$CMLJUST
 70
     0
  9
$CMLSCALE
 40
1.0
  9
$PROXYGRAPHICS
 70
     1
  9
$MEASUREMENT
 70
     0
  9
$CELWEIGHT
370
    -1
  9
$ENDCAPS
280
     0
  9
$JOINSTYLE
280
     0
  9
$LWDISPLAY
290
     1
  9
$INSUNITS
 70
     1
  9
$HYPERLINKBASE
  1

  9
$STYLESHEET
  1

  9
$XEDIT
290
     1
  9
$CEPSNTYPE
380
     0
  9
$PSTYLEMODE
290
     1
  9
$FINGERPRINTGUID
  2
{C592A918-39B0-4CE8-A434-4FF0809F6244}
  9
$VERSIONGUID
  2
{FAEB1C32-E019-11D5-929B-00C0DF256EC4}
  9
$EXTNAMES
290
     1
  9
$PSVPSCALE
 40
0.0
  9
$OLESTARTUP
290
     0
  9
$SORTENTS
280
   127
  9
$INDEXCTL
280
     0
  9
$HIDETEXT
280
     1
  9
$XCLIPFRAME
280
     2
  9
$HALOGAP
280
     0
  9
$OBSCOLOR
 70
   257
  9
$OBSLTYPE
280
     0
  9
$INTERSECTIONDISPLAY
280
     0
  9
$INTERSECTIONCOLOR
 70
   257
  9
$DIMASSOC
280
     2
  9
$PROJECTNAME
  1

  9
$CAMERADISPLAY
290
     0
  9
$LENSLENGTH
 40
50.0
  9
$CAMERAHEIGHT
 40
0.0
  9
$STEPSPERSEC
 40
2.0
  9
$STEPSIZE
 40
6.0
  9
$3DDWFPREC
 40
2.0
  9
$PSOLWIDTH
 40
0.25
  9
$PSOLHEIGHT
 40
4.0
  9
$LOFTANG1
 40
1.570796326794897
  9
$LOFTANG2
 40
1.570796326794897
  9
$LOFTMAG1
 40
0.0
  9
$LOFTMAG2
 40
0.0
  9
$LOFTPARAM
 70
     7
  9
$LOFTNORMALS
280
     1
  9
$LATITUDE
 40
37.795
  9
$LONGITUDE
 40
-122.394
  9
$NORTHDIRECTION
 40
0.0
  9
$TIMEZONE
 70
 -8000
  9
$LIGHTGLYPHDISPLAY
280
     1
  9
$TILEMODELIGHTSYNCH
280
     1
  9
$CMATERIAL
347
3C
  9
$SOLIDHIST
280
     1
  9
$SHOWHIST
280
     1
  9
$DWFFRAME
280
     2
  9
$DGNFRAME
280
     2
  9
$REALWORLDSCALE
290
     1
  9
$INTERFERECOLOR
 62
   256
  9
$CSHADOW
280
     0
  9
$SHADOWPLANELOCATION
 40
0.0
  0
ENDSEC
  0
SECTION
  2
CLASSES
  0
CLASS
  1
ACDBDICTIONARYWDFLT
  2
AcDbDictionaryWithDefault
  3
ObjectDBX Classes
 90
        0
 91
        4
280
     0
281
     0
  0
CLASS
  1
VISUALSTYLE
  2
AcDbVisualStyle
  3
ObjectDBX Classes
 90
     4095
 91
        4
280
     0
281
     0
  0
CLASS
  1
MATERIAL
  2
AcDbMaterial
  3
ObjectDBX Classes
 90
     1153
 91
        4
280
     0
281
     0
  0
CLASS
  1
SUN
  2
AcDbSun
  3
SCENEOE
 90
     1024
 91
        4
280
     0
281
     0
  0
ENDSEC
  0
SECTION
  2
TABLES
  0
TABLE
  2
VPORT
  5
8
330
0
100
AcDbSymbolTable
 70
     1
  0
VPORT
  5
29
330
8
100
AcDbSymbolTableRecord
100
AcDbViewportTableRecord
  2
*Active
 70
     0
 10
0.0
 20
0.0
 11
1.0
 21
1.0
 12
0.0
 22
0.0
 13
0.0
 23
0.0
 14
0.5
 24
0.5
 15
0.5
 25
0.5
 16
0.0
 26
0.0
 36
1.0
 17
1000.0
 27
-1000.0
 37
0.0
 40
2000.0
 41
1.0
 42
50.0
 43
0.0
 44
0.0
 50
0.0
 51
0.0
 71
     0
 72
   100
 73
     1
 74
     3
 75
     0
 76
     0
 77
     0
 78
     0
281
     0
 65
     1
110
0.0
120
0.0
130
0.0
111
1.0
121
0.0
131
0.0
112
0.0
122
1.0
132
0.0
 79
     0
146
0.0
 60
     3
 61
     5
292
     1
282
     1
141
0.0
142
0.0
 63
   250
361
3F
  0
ENDTAB
  0
TABLE
  2
LTYPE
  5
5
330
0
100
AcDbSymbolTable
 70
     1
  0
LTYPE
  5
14
330
5
100
AcDbSymbolTableRecord
100
AcDbLinetypeTableRecord
  2
ByBlock
 70
     0
  3

 72
    65
 73
     0
 40
0.0
  0
LTYPE
  5
15
330
5
100
AcDbSymbolTableRecord
100
AcDbLinetypeTableRecord
  2
ByLayer
 70
     0
  3

 72
    65
 73
     0
 40
0.0
  0
LTYPE
  5
16
330
5
100
AcDbSymbolTableRecord
100
AcDbLinetypeTableRecord
  2
Continuous
 70
     0
  3
Solid line
 72
    65
 73
     0
 40
0.0
  0
ENDTAB
  0
TABLE
  2
LAYER
  5
2
330
0
100
AcDbSymbolTable
 70
     2
  0
LAYER
  5
10
330
2
100
AcDbSymbolTableRecord
100
AcDbLayerTableRecord
  2
0
 70
     0
 62
     7
  6
Continuous
370
    -3
390
F
347
3E
  0
LAYER
  5
40
330
2
100
AcDbSymbolTableRecord
100
AcDbLayerTableRecord
  2
Layer 1
 70
     0
 62
     7
  6
Continuous
370
    -3
390
F
347
3E
  0
ENDTAB
  0
TABLE
  2
STYLE
  5
3
330
0
100
AcDbSymbolTable
 70
     1
  0
STYLE
  5
11
330
3
100
AcDbSymbolTableRecord
100
AcDbTextStyleTableRecord
  2
Standard
 70
     0
 40
0.0
 41
1.0
 50
0.0
 71
     0
 42
0.2
  3
txt
  4

  0
ENDTAB
  0
TABLE
  2
VIEW
  5
6
330
0
100
AcDbSymbolTable
 70
     0
  0
ENDTAB
  0
TABLE
  2
UCS
  5
7
330
0
100
AcDbSymbolTable
 70
     0
  0
ENDTAB
  0
TABLE
  2
APPID
  5
9
330
0
100
AcDbSymbolTable
 70
     1
  0
APPID
  5
12
330
9
100
AcDbSymbolTableRecord
100
AcDbRegAppTableRecord
  2
ACAD
 70
     0
  0
ENDTAB
  0
TABLE
  2
DIMSTYLE
  5
A
330
0
100
AcDbSymbolTable
 70
     1
100
AcDbDimStyleTable
  0
DIMSTYLE
105
27
330
A
100
AcDbSymbolTableRecord
100
AcDbDimStyleTableRecord
  2
Standard
 70
     0
178
     0
340
11
  0
ENDTAB
  0
TABLE
  2
BLOCK_RECORD
  5
1
330
0
100
AcDbSymbolTable
 70
     1
  0
BLOCK_RECORD
  5
1F
330
1
100
AcDbSymbolTableRecord
100
AcDbBlockTableRecord
  2
*Model_Space
340
22
 70
     0
280
     1
281
     0
  0
BLOCK_RECORD
  5
1B
330
1
100
AcDbSymbolTableRecord
100
AcDbBlockTableRecord
  2
*Paper_Space
340
1E
 70
     0
280
     1
281
     0
  0
BLOCK_RECORD
  5
23
330
1
100
AcDbSymbolTableRecord
100
AcDbBlockTableRecord
  2
*Paper_Space0
340
26
 70
     0
280
     1
281
     0
  0
ENDTAB
  0
ENDSEC
  0
SECTION
  2
BLOCKS
  0
BLOCK
  5
20
330
1F
100
AcDbEntity
  8
0
100
AcDbBlockBegin
  2
*Model_Space
 70
     0
 10
0.0
 20
0.0
 30
0.0
  3
*Model_Space
  1

  0
ENDBLK
  5
21
330
1F
100
AcDbEntity
  8
0
100
AcDbBlockEnd
  0
BLOCK
  5
1C
330
1B
100
AcDbEntity
 67
     1
  8
0
100
AcDbBlockBegin
  2
*Paper_Space
 70
     0
 10
0.0
 20
0.0
 30
0.0
  3
*Paper_Space
  1

  0
ENDBLK
  5
1D
330
1B
100
AcDbEntity
 67
     1
  8
0
100
AcDbBlockEnd
  0
BLOCK
  5
24
330
23
100
AcDbEntity
  8
0
100
AcDbBlockBegin
  2
*Paper_Space0
 70
     0
 10
0.0
 20
0.0
 30
0.0
  3
*Paper_Space0
  1

  0
ENDBLK
  5
25
330
23
100
AcDbEntity
  8
0
100
AcDbBlockEnd
  0
ENDSEC
  0
SECTION
  2
ENTITIES
  0
SPLINE
  5
41
330
1F
100
AcDbEntity
  8
Layer 1
370
     0
100
AcDbSpline
210
0.0
220
0.0
230
1.0
 70
    11
 71
     3
 72
   101
 73
    97
 74
     0
 42
0.0000000001
 43
0.0000000001
 12
1.0
 22
0.0
 32
0.0
 13
1.0
 23
0.0
 33
0.0
 40
0.0
 40
0.0
 40
0.0
 40
0.0
 40
1.0
 40
1.0
 40
1.0
 40
2.0
 40
2.0
 40
2.0
 40
3.0
 40
3.0
 40
3.0
 40
4.0
 40
4.0
 40
4.0
 40
5.0
 40
5.0
 40
5.0
 40
6.0
 40
6.0
 40
6.0
 40
7.0
 40
7.0
 40
7.0
 40
8.0
 40
8.0
 40
8.0
 40
9.0
 40
9.0
 40
9.0
 40
10.0
 40
10.0
 40
10.0
 40
11.0
 40
11.0
 40
11.0
 40
12.0
 40
12.0
 40
12.0
 40
13.0
 40
13.0
 40
13.0
 40
14.0
 40
14.0
 40
14.0
 40
15.0
 40
15.0
 40
15.0
 40
16.0
 40
16.0
 40
16.0
 40
17.0
 40
17.0
 40
17.0
 40
18.0
 40
18.0
 40
18.0
 40
19.0
 40
19.0
 40
19.0
 40
20.0
 40
20.0
 40
20.0
 40
21.0
 40
21.0
 40
21.0
 40
22.0
 40
22.0
 40
22.0
 40
23.0
 40
23.0
 40
23.0
 40
24.0
 40
24.0
 40
24.0
 40
25.0
 40
25.0
 40
25.0
 40
26.0
 40
26.0
 40
26.0
 40
27.0
 40
27.0
 40
27.0
 40
28.0
 40
28.0
 40
28.0
 40
29.0
 40
29.0
 40
29.0
 40
30.0
 40
30.0
 40
30.0
 40
31.0
 40
31.0
 40
31.0
 40
32.0
 40
32.0
 40
32.0
 40
32.0
 10
407.4888888888891
 20
-1822.288888888888
 30
0.0
 10
359.7318871392145
 20
-1764.175646294489
 30
0.0
 10
311.468042034573
 20
-1706.462811279298
 30
0.0
 10
264.833946577708
 20
-1647.462010362413
 30
0.0
 10
258.7321425649852
 20
-1639.742152235243
 30
0.0
 10
255.8202714602148
 20
-1622.582738579644
 30
0.0
 10
260.1922106424972
 20
-1614.585075547961
 30
0.0
 10
298.9450558132594
 20
-1543.694508192275
 30
0.0
 10
362.8463759952119
 20
-1468.768541124133
 30
0.0
 10
467.244688415527
 20
-1477.636470540365
 30
0.0
 10
570.9248804728195
 20
-1486.443452962239
 30
0.0
 10
674.4138690524633
 20
-1487.162769232857
 30
0.0
 10
774.4060946994359
 20
-1450.928363715278
 30
0.0
 10
782.8680179172097
 20
-1447.862021213108
 30
0.0
 10
791.1800894843209
 20
-1444.381947835287
 30
0.0
 10
803.4759329901799
 20
-1439.558772786459
 30
0.0
 10
766.3520556979711
 20
-1427.017440456815
 30
0.0
 10
732.8123577541774
 20
-1418.410024007162
 30
0.0
 10
701.6332219441738
 20
-1404.508298068577
 30
0.0
 10
656.1986195882164
 20
-1384.250509304471
 30
0.0
 10
640.804471842448
 20
-1354.326102023655
 30
0.0
 10
657.9024778578023
 20
-1307.414208306207
 30
0.0
 10
692.7361300998264
 20
-1211.840816921658
 30
0.0
 10
690.1136376274953
 20
-1134.399865044488
 30
0.0
 10
623.7223403930666
 20
-1041.944125027127
 30
0.0
 10
505.9974095662437
 20
-878.0016710069449
 30
0.0
 10
532.404750061035
 20
-730.0458262125649
 30
0.0
 10
681.4991343180336
 20
-591.7803054809574
 30
0.0
 10
747.4534557766383
 20
-530.6162406073672
 30
0.0
 10
824.6651123046877
 20
-481.591151597765
 30
0.0
 10
899.7030517578123
 20
-424.8342276679141
 30
0.0
 10
869.127503797743
 20
-383.6217814975316
 30
0.0
 10
848.1829274495449
 20
-325.8843373616537
 30
0.0
 10
865.5699710422095
 20
-262.8887710147437
 30
0.0
 10
872.4430202907988
 20
-237.9868389977346
 30
0.0
 10
890.8879194471574
 20
-212.6176304499313
 30
0.0
 10
911.0012780083553
 20
-195.7179236306083
 30
0.0
 10
971.2759419759113
 20
-145.0737338105837
 30
0.0
 10
1088.691177029081
 20
-148.0440612660514
 30
0.0
 10
1144.484110853407
 20
-197.6081884596078
 30
0.0
 10
1204.194944254557
 20
-250.6527406056721
 30
0.0
 10
1205.825488959419
 20
-333.6266785515681
 30
0.0
 10
1154.213306342232
 20
-425.7007911682131
 30
0.0
 10
1227.701136949327
 20
-480.8022069295248
 30
0.0
 10
1305.278014797635
 20
-529.3293023003471
 30
0.0
 10
1371.274042426216
 20
-590.3761150783967
 30
0.0
 10
1529.09004787869
 20
-736.3571709526914
 30
0.0
 10
1544.321126980252
 20
-901.5503848605686
 30
0.0
 10
1412.297960408529
 20
-1072.568997531467
 30
0.0
 10
1366.099429999458
 20
-1132.413205634224
 30
0.0
 10
1356.208654106988
 20
-1180.944942898221
 30
0.0
 10
1380.408792114258
 20
-1251.795186021593
 30
0.0
 10
1422.479014078777
 20
-1374.964029947918
 30
0.0
 10
1400.87046983507
 20
-1403.443993462457
 30
0.0
 10
1270.801008775499
 20
-1431.062761773004
 30
0.0
 10
1264.821896023221
 20
-1432.33244357639
 30
0.0
 10
1258.879067993164
 20
-1433.773485649957
 30
0.0
 10
1241.811216566299
 20
-1437.671683756511
 30
0.0
 10
1326.152006022136
 20
-1471.215492078994
 30
0.0
 10
1403.602737765843
 20
-1484.382310655383
 30
0.0
 10
1483.976232231988
 20
-1482.40479329427
 30
0.0
 10
1516.451625569662
 20
-1481.605820719402
 30
0.0
 10
1549.080378553603
 20
-1481.35650499132
 30
0.0
 10
1581.32516547309
 20
-1477.914133707684
 30
0.0
 10
1686.537111409505
 20
-1466.682169596355
 30
0.0
 10
1749.988460286459
 20
-1536.59120686849
 30
0.0
 10
1793.563293457031
 20
-1613.919761149089
 30
0.0
 10
1797.739438205295
 20
-1621.330915662978
 30
0.0
 10
1797.487145996094
 20
-1635.820425754124
 30
0.0
 10
1792.903365071616
 20
-1642.871284315323
 30
0.0
 10
1750.156844075522
 20
-1708.623453097873
 30
0.0
 10
1713.929525417752
 20
-1780.12561645508
 30
0.0
 10
1642.911111111112
 20
-1822.288888888888
 30
0.0
 10
1639.814862060548
 20
-1822.288888888888
 30
0.0
 10
1636.718471272787
 20
-1822.288888888888
 30
0.0
 10
1633.622222222222
 20
-1822.288888888888
 30
0.0
 10
1615.755256483291
 20
-1807.361552598742
 30
0.0
 10
1600.067358398437
 20
-1785.362947591146
 30
0.0
 10
1579.548914930556
 20
-1779.039626057944
 30
0.0
 10
1541.621883816189
 20
-1767.351409912109
 30
0.0
 10
1500.980727132162
 20
-1763.977497694228
 30
0.0
 10
1461.265681287978
 20
-1758.67114054362
 30
0.0
 10
1309.950097995334
 20
-1738.453888617621
 30
0.0
 10
1155.166347249349
 20
-1730.461895073786
 30
0.0
 10
1024.975204806859
 20
-1629.641959635417
 30
0.0
 10
940.3676659478087
 20
-1708.46215616862
 30
0.0
 10
833.7725775824656
 20
-1731.417487250434
 30
0.0
 10
723.9051671346033
 20
-1745.50063680013
 30
0.0
 10
644.1888017442488
 20
-1755.719038221572
 30
0.0
 10
563.8946801079646
 20
-1762.727375623916
 30
0.0
 10
485.0103120591903
 20
-1777.37279663086
 30
0.0
 10
460.3369312710229
 20
-1781.953742811416
 30
0.0
 10
439.4162553575306
 20
-1806.747547064888
 30
0.0
 10
416.7777777777774
 20
-1822.288888888888
 30
0.0
 10
413.681475575765
 20
-1822.288888888888
 30
0.0
 10
410.5851910909014
 20
-1822.288888888888
 30
0.0
 10
407.4888888888891
 20
-1822.288888888888
 30
0.0
  0
SPLINE
  5
42
330
1F
100
AcDbEntity
  8
Layer 1
370
     0
100
AcDbSpline
210
0.0
220
0.0
230
1.0
 70
    11
 71
     3
 72
    26
 73
    22
 74
     0
 42
0.0000000001
 43
0.0000000001
 12
1.0
 22
0.0
 32
0.0
 13
1.0
 23
0.0
 33
0.0
 40
0.0
 40
0.0
 40
0.0
 40
0.0
 40
1.0
 40
1.0
 40
1.0
 40
2.0
 40
2.0
 40
2.0
 40
3.0
 40
3.0
 40
3.0
 40
4.0
 40
4.0
 40
4.0
 40
5.0
 40
5.0
 40
5.0
 40
6.0
 40
6.0
 40
6.0
 40
7.0
 40
7.0
 40
7.0
 40
7.0
 10
1023.879576280382
 20
-1050.91523912218
 30
0.0
 10
1100.679734293621
 20
-1044.498654513889
 30
0.0
 10
1178.287510850694
 20
-1042.607242499458
 30
0.0
 10
1254.309531656902
 20
-1030.641292317709
 30
0.0
 10
1384.88747490777
 20
-1010.088335842556
 30
0.0
 10
1453.9691921658
 20
-871.0906361897787
 30
0.0
 10
1389.625324164497
 20
-753.9957980685767
 30
0.0
 10
1314.709703911676
 20
-617.6621907552089
 30
0.0
 10
1193.631908840604
 20
-535.2483539157447
 30
0.0
 10
1047.305191379124
 20
-488.6233008490672
 30
0.0
 10
1033.357117377387
 20
-484.1789538913308
 30
0.0
 10
1015.521262953016
 20
-483.2281099107531
 30
0.0
 10
1001.897696261936
 20
-487.8112175835504
 30
0.0
 10
855.0382595486117
 20
-537.2166937934026
 30
0.0
 10
732.4899056328668
 20
-620.1969479031031
 30
0.0
 10
660.5865551418729
 20
-760.9778432210287
 30
0.0
 10
600.8970177544488
 20
-877.8451931423615
 30
0.0
 10
672.5039957682293
 20
-1012.429692586264
 30
0.0
 10
801.9693374633789
 20
-1031.73706258138
 30
0.0
 10
875.0474412706162
 20
-1042.635377332899
 30
0.0
 10
949.4316887749565
 20
-1044.775963338216
 30
0.0
 10
1023.879576280382
 20
-1050.91523912218
 30
0.0
  0
SPLINE
  5
43
330
1F
100
AcDbEntity
  8
Layer 1
370
     0
100
AcDbSpline
210
0.0
220
0.0
230
1.0
 70
    11
 71
     3
 72
    50
 73
    46
 74
     0
 42
0.0000000001
 43
0.0000000001
 12
1.0
 22
0.0
 32
0.0
 13
1.0
 23
0.0
 33
0.0
 40
0.0
 40
0.0
 40
0.0
 40
0.0
 40
1.0
 40
1.0
 40
1.0
 40
2.0
 40
2.0
 40
2.0
 40
3.0
 40
3.0
 40
3.0
 40
4.0
 40
4.0
 40
4.0
 40
5.0
 40
5.0
 40
5.0
 40
6.0
 40
6.0
 40
6.0
 40
7.0
 40
7.0
 40
7.0
 40
8.0
 40
8.0
 40
8.0
 40
9.0
 40
9.0
 40
9.0
 40
10.0
 40
10.0
 40
10.0
 40
11.0
 40
11.0
 40
11.0
 40
12.0
 40
12.0
 40
12.0
 40
13.0
 40
13.0
 40
13.0
 40
14.0
 40
14.0
 40
14.0
 40
15.0
 40
15.0
 40
15.0
 40
15.0
 10
1026.490517171223
 20
-1506.575520833334
 30
0.0
 10
1072.723560587565
 20
-1578.749943712022
 30
0.0
 10
1137.455859375001
 20
-1616.456998697917
 30
0.0
 10
1211.745001220703
 20
-1629.48633219401
 30
0.0
 10
1345.278023274739
 20
-1652.906277804905
 30
0.0
 10
1480.08597140842
 20
-1669.470678710937
 30
0.0
 10
1614.792719184028
 20
-1685.205917019315
 30
0.0
 10
1629.845209418403
 20
-1686.964308675131
 30
0.0
 10
1656.88951687283
 20
-1667.784714762371
 30
0.0
 10
1661.682501898871
 20
-1652.929947916668
 30
0.0
 10
1666.588309733073
 20
-1637.725515407987
 30
0.0
 10
1656.385357666017
 20
-1608.55855170356
 30
0.0
 10
1643.043351915148
 20
-1598.695485432943
 30
0.0
 10
1623.30035264757
 20
-1584.10009765625
 30
0.0
 10
1595.43637898763
 20
-1577.144911702475
 30
0.0
 10
1570.161235215928
 20
-1574.064112006294
 30
0.0
 10
1514.99215766059
 20
-1567.339815945095
 30
0.0
 10
1459.317503526476
 20
-1562.464198133681
 30
0.0
 10
1403.774381510417
 20
-1561.587411838107
 30
0.0
 10
1286.854234483508
 20
-1559.74114312066
 30
0.0
 10
1183.217839219835
 20
-1523.808070882162
 30
0.0
 10
1089.442100694445
 20
-1453.872670491537
 30
0.0
 10
1027.296293131511
 20
-1407.52588297526
 30
0.0
 10
1017.978418986002
 20
-1406.906774902343
 30
0.0
 10
956.1520870632594
 20
-1458.461695692275
 30
0.0
 10
874.9835886637375
 20
-1526.145742458768
 30
0.0
 10
781.8653689914281
 20
-1555.060980902777
 30
0.0
 10
678.962570020888
 20
-1560.830251736112
 30
0.0
 10
614.1783954196508
 20
-1564.462409125434
 30
0.0
 10
549.2428100585939
 20
-1566.825876871746
 30
0.0
 10
484.7428362528481
 20
-1573.377962239583
 30
0.0
 10
459.4735568576389
 20
-1575.944822862413
 30
0.0
 10
430.8515903896759
 20
-1582.971302625869
 30
0.0
 10
411.9283636305063
 20
-1598.152631971572
 30
0.0
 10
397.9365991380482
 20
-1609.377792697484
 30
0.0
 10
388.5361985100644
 20
-1639.470442030166
 30
0.0
 10
393.281488969591
 20
-1656.697180853949
 30
0.0
 10
396.9968283759226
 20
-1670.184750705295
 30
0.0
 10
426.6352808634438
 20
-1686.7427734375
 30
0.0
 10
442.8776371426056
 20
-1684.947104899089
 30
0.0
 10
568.5639285617408
 20
-1671.051048448351
 30
0.0
 10
694.5862611558705
 20
-1657.37255859375
 30
0.0
 10
818.8812071058492
 20
-1634.719694688585
 30
0.0
 10
899.9562652587892
 20
-1619.944017198352
 30
0.0
 10
975.5897135416672
 20
-1585.755304633247
 30
0.0
 10
1026.490517171223
 20
-1506.575520833334
 30
0.0
  0
SPLINE
  5
44
330
1F
100
AcDbEntity
  8
Layer 1
370
     0
100
AcDbSpline
210
0.0
220
0.0
230
1.0
 70
    11
 71
     3
 72
    29
 73
    25
 74
     0
 42
0.0000000001
 43
0.0000000001
 12
1.0
 22
0.0
 32
0.0
 13
1.0
 23
0.0
 33
0.0
 40
0.0
 40
0.0
 40
0.0
 40
0.0
 40
1.0
 40
1.0
 40
1.0
 40
2.0
 40
2.0
 40
2.0
 40
3.0
 40
3.0
 40
3.0
 40
4.0
 40
4.0
 40
4.0
 40
5.0
 40
5.0
 40
5.0
 40
6.0
 40
6.0
 40
6.0
 40
7.0
 40
7.0
 40
7.0
 40
8.0
 40
8.0
 40
8.0
 40
8.0
 10
1037.594492594402
 20
-1368.742050509984
 30
0.0
 10
1114.299048868816
 20
-1362.058574761286
 30
0.0
 10
1194.082774861654
 20
-1355.83886311849
 30
0.0
 10
1273.625122409398
 20
-1347.355466715495
 30
0.0
 10
1285.031565009223
 20
-1346.138936360678
 30
0.0
 10
1295.272715250652
 20
-1333.995743815105
 30
0.0
 10
1306.053175523546
 20
-1326.909309217664
 30
0.0
 10
1298.463999091255
 20
-1316.11850212945
 30
0.0
 10
1293.172736952039
 20
-1300.36072760688
 30
0.0
 10
1282.809480116102
 20
-1295.566183471679
 30
0.0
 10
1260.933336046008
 20
-1285.445297241211
 30
0.0
 10
1236.347176784941
 20
-1275.082465616862
 30
0.0
 10
1212.972090996636
 20
-1275.303575642904
 30
0.0
 10
1074.491873847113
 20
-1276.613439941406
 30
0.0
 10
935.9789862738717
 20
-1279.586306762696
 30
0.0
 10
797.6553532918297
 20
-1285.903746202257
 30
0.0
 10
780.208850945367
 20
-1286.700592719184
 30
0.0
 10
763.807447814941
 20
-1310.381051296659
 30
0.0
 10
746.9218704223631
 20
-1323.459142388238
 30
0.0
 10
762.7037402682836
 20
-1334.682602267796
 30
0.0
 10
777.7544587877064
 20
-1354.253249104819
 30
0.0
 10
794.3917834811746
 20
-1355.71044921875
 30
0.0
 10
874.0441545274525
 20
-1362.687604437935
 30
0.0
 10
954.1263081868492
 20
-1364.758668348524
 30
0.0
 10
1037.594492594402
 20
-1368.742050509984
 30
0.0
  0
SPLINE
  5
45
330
1F
100
AcDbEntity
  8
Layer 1
370
     0
100
AcDbSpline
210
0.0
220
0.0
230
1.0
 70
    11
 71
     3
 72
    20
 73
    16
 74
     0
 42
0.0000000001
 43
0.0000000001
 12
1.0
 22
0.0
 32
0.0
 13
1.0
 23
0.0
 33
0.0
 40
0.0
 40
0.0
 40
0.0
 40
0.0
 40
1.0
 40
1.0
 40
1.0
 40
2.0
 40
2.0
 40
2.0
 40
3.0
 40
3.0
 40
3.0
 40
4.0
 40
4.0
 40
4.0
 40
5.0
 40
5.0
 40
5.0
 40
5.0
 10
776.1170043945312
 20
-1210.392191908095
 30
0.0
 10
862.4905887179902
 20
-1206.438999769423
 30
0.0
 10
945.5626885308166
 20
-1199.638519965278
 30
0.0
 10
1028.631457519532
 20
-1199.679907226562
 30
0.0
 10
1111.332418484159
 20
-1199.72122361925
 30
0.0
 10
1194.029977756076
 20
-1206.631053670248
 30
0.0
 10
1276.425069851346
 20
-1210.514865451389
 30
0.0
 10
1276.425069851346
 20
-1176.983033921984
 30
0.0
 10
1276.425069851346
 20
-1141.478716701931
 30
0.0
 10
1276.425069851346
 20
-1110.386040581598
 30
0.0
 10
1107.951844618055
 20
-1110.386040581598
 30
0.0
 10
940.4179117838539
 20
-1110.386040581598
 30
0.0
 10
776.1170043945312
 20
-1110.386040581598
 30
0.0
 10
776.1170043945312
 20
-1142.585825941298
 30
0.0
 10
776.1170043945312
 20
-1177.089336819119
 30
0.0
 10
776.1170043945312
 20
-1210.392191908095
 30
0.0
  0
SPLINE
  5
46
330
1F
100
AcDbEntity
  8
Layer 1
370
     0
100
AcDbSpline
210
0.0
220
0.0
230
1.0
 70
    11
 71
     3
 72
    17
 73
    13
 74
     0
 42
0.0000000001
 43
0.0000000001
 12
1.0
 22
0.0
 32
0.0
 13
1.0
 23
0.0
 33
0.0
 40
0.0
 40
0.0
 40
0.0
 40
0.0
 40
1.0
 40
1.0
 40
1.0
 40
2.0
 40
2.0
 40
2.0
 40
3.0
 40
3.0
 40
3.0
 40
4.0
 40
4.0
 40
4.0
 40
4.0
 10
1025.981184556749
 20
-389.2449212816027
 30
0.0
 10
1067.785507541234
 20
-390.1203787909617
 30
0.0
 10
1101.530015733508
 20
-358.1744624667699
 30
0.0
 10
1101.476226467557
 20
-317.7737097846139
 30
0.0
 10
1101.424988471137
 20
-279.2938327365455
 30
0.0
 10
1071.08685031467
 20
-250.4969537099205
 30
0.0
 10
1028.78403761122
 20
-248.774563301934
 30
0.0
 10
986.4674055311416
 20
-247.0516059451629
 30
0.0
 10
953.622219848633
 20
-278.0165414174398
 30
0.0
 10
953.7105221218535
 20
-319.5504032558865
 30
0.0
 10
953.791666666667
 20
-357.6907488505049
 30
0.0
 10
985.6360460069445
 20
-388.4000258551705
 30
0.0
 10
1025.981184556749
 20
-389.2449212816027
 30
0.0
  0
HATCH
  5
47
330
1F
100
AcDbEntity
  8
Layer 1
 62
     7
420
 16777215
100
AcDbHatch
 10
0.0
 20
0.0
 30
0.0
210
0.0
220
0.0
230
1.0
  2
SOLID
 70
     1
 71
     0
 91
        6
 92
        1
 93
        1
 72
     4
 94
        3
 73
     0
 74
     1
 95
      101
 96
       97
 40
0.0
 40
0.0
 40
0.0
 40
0.0
 40
1.0
 40
1.0
 40
1.0
 40
2.0
 40
2.0
 40
2.0
 40
3.0
 40
3.0
 40
3.0
 40
4.0
 40
4.0
 40
4.0
 40
5.0
 40
5.0
 40
5.0
 40
6.0
 40
6.0
 40
6.0
 40
7.0
 40
7.0
 40
7.0
 40
8.0
 40
8.0
 40
8.0
 40
9.0
 40
9.0
 40
9.0
 40
10.0
 40
10.0
 40
10.0
 40
11.0
 40
11.0
 40
11.0
 40
12.0
 40
12.0
 40
12.0
 40
13.0
 40
13.0
 40
13.0
 40
14.0
 40
14.0
 40
14.0
 40
15.0
 40
15.0
 40
15.0
 40
16.0
 40
16.0
 40
16.0
 40
17.0
 40
17.0
 40
17.0
 40
18.0
 40
18.0
 40
18.0
 40
19.0
 40
19.0
 40
19.0
 40
20.0
 40
20.0
 40
20.0
 40
21.0
 40
21.0
 40
21.0
 40
22.0
 40
22.0
 40
22.0
 40
23.0
 40
23.0
 40
23.0
 40
24.0
 40
24.0
 40
24.0
 40
25.0
 40
25.0
 40
25.0
 40
26.0
 40
26.0
 40
26.0
 40
27.0
 40
27.0
 40
27.0
 40
28.0
 40
28.0
 40
28.0
 40
29.0
 40
29.0
 40
29.0
 40
30.0
 40
30.0
 40
30.0
 40
31.0
 40
31.0
 40
31.0
 40
32.0
 40
32.0
 40
32.0
 40
32.0
 10
407.4888888888891
 20
-1822.288888888888
 10
359.7318871392145
 20
-1764.175646294489
 10
311.468042034573
 20
-1706.462811279298
 10
264.833946577708
 20
-1647.462010362413
 10
258.7321425649852
 20
-1639.742152235243
 10
255.8202714602148
 20
-1622.582738579644
 10
260.1922106424972
 20
-1614.585075547961
 10
298.9450558132594
 20
-1543.694508192275
 10
362.8463759952119
 20
-1468.768541124133
 10
467.244688415527
 20
-1477.636470540365
 10
570.9248804728195
 20
-1486.443452962239
 10
674.4138690524633
 20
-1487.162769232857
 10
774.4060946994359
 20
-1450.928363715278
 10
782.8680179172097
 20
-1447.862021213108
 10
791.1800894843209
 20
-1444.381947835287
 10
803.4759329901799
 20
-1439.558772786459
 10
766.3520556979711
 20
-1427.017440456815
 10
732.8123577541774
 20
-1418.410024007162
 10
701.6332219441738
 20
-1404.508298068577
 10
656.1986195882164
 20
-1384.250509304471
 10
640.804471842448
 20
-1354.326102023655
 10
657.9024778578023
 20
-1307.414208306207
 10
692.7361300998264
 20
-1211.840816921658
 10
690.1136376274953
 20
-1134.399865044488
 10
623.7223403930666
 20
-1041.944125027127
 10
505.9974095662437
 20
-878.0016710069449
 10
532.404750061035
 20
-730.0458262125649
 10
681.4991343180336
 20
-591.7803054809574
 10
747.4534557766383
 20
-530.6162406073672
 10
824.6651123046877
 20
-481.591151597765
 10
899.7030517578123
 20
-424.8342276679141
 10
869.127503797743
 20
-383.6217814975316
 10
848.1829274495449
 20
-325.8843373616537
 10
865.5699710422095
 20
-262.8887710147437
 10
872.4430202907988
 20
-237.9868389977346
 10
890.8879194471574
 20
-212.6176304499313
 10
911.0012780083553
 20
-195.7179236306083
 10
971.2759419759113
 20
-145.0737338105837
 10
1088.691177029081
 20
-148.0440612660514
 10
1144.484110853407
 20
-197.6081884596078
 10
1204.194944254557
 20
-250.6527406056721
 10
1205.825488959419
 20
-333.6266785515681
 10
1154.213306342232
 20
-425.7007911682131
 10
1227.701136949327
 20
-480.8022069295248
 10
1305.278014797635
 20
-529.3293023003471
 10
1371.274042426216
 20
-590.3761150783967
 10
1529.09004787869
 20
-736.3571709526914
 10
1544.321126980252
 20
-901.5503848605686
 10
1412.297960408529
 20
-1072.568997531467
 10
1366.099429999458
 20
-1132.413205634224
 10
1356.208654106988
 20
-1180.944942898221
 10
1380.408792114258
 20
-1251.795186021593
 10
1422.479014078777
 20
-1374.964029947918
 10
1400.87046983507
 20
-1403.443993462457
 10
1270.801008775499
 20
-1431.062761773004
 10
1264.821896023221
 20
-1432.33244357639
 10
1258.879067993164
 20
-1433.773485649957
 10
1241.811216566299
 20
-1437.671683756511
 10
1326.152006022136
 20
-1471.215492078994
 10
1403.602737765843
 20
-1484.382310655383
 10
1483.976232231988
 20
-1482.40479329427
 10
1516.451625569662
 20
-1481.605820719402
 10
1549.080378553603
 20
-1481.35650499132
 10
1581.32516547309
 20
-1477.914133707684
 10
1686.537111409505
 20
-1466.682169596355
 10
1749.988460286459
 20
-1536.59120686849
 10
1793.563293457031
 20
-1613.919761149089
 10
1797.739438205295
 20
-1621.330915662978
 10
1797.487145996094
 20
-1635.820425754124
 10
1792.903365071616
 20
-1642.871284315323
 10
1750.156844075522
 20
-1708.623453097873
 10
1713.929525417752
 20
-1780.12561645508
 10
1642.911111111112
 20
-1822.288888888888
 10
1639.814862060548
 20
-1822.288888888888
 10
1636.718471272787
 20
-1822.288888888888
 10
1633.622222222222
 20
-1822.288888888888
 10
1615.755256483291
 20
-1807.361552598742
 10
1600.067358398437
 20
-1785.362947591146
 10
1579.548914930556
 20
-1779.039626057944
 10
1541.621883816189
 20
-1767.351409912109
 10
1500.980727132162
 20
-1763.977497694228
 10
1461.265681287978
 20
-1758.67114054362
 10
1309.950097995334
 20
-1738.453888617621
 10
1155.166347249349
 20
-1730.461895073786
 10
1024.975204806859
 20
-1629.641959635417
 10
940.3676659478087
 20
-1708.46215616862
 10
833.7725775824656
 20
-1731.417487250434
 10
723.9051671346033
 20
-1745.50063680013
 10
644.1888017442488
 20
-1755.719038221572
 10
563.8946801079646
 20
-1762.727375623916
 10
485.0103120591903
 20
-1777.37279663086
 10
460.3369312710229
 20
-1781.953742811416
 10
439.4162553575306
 20
-1806.747547064888
 10
416.7777777777774
 20
-1822.288888888888
 10
413.681475575765
 20
-1822.288888888888
 10
410.5851910909014
 20
-1822.288888888888
 10
407.4888888888891
 20
-1822.288888888888
 97
        0
 97
        0
 92
        1
 93
        1
 72
     4
 94
        3
 73
     0
 74
     1
 95
       26
 96
       22
 40
0.0
 40
0.0
 40
0.0
 40
0.0
 40
1.0
 40
1.0
 40
1.0
 40
2.0
 40
2.0
 40
2.0
 40
3.0
 40
3.0
 40
3.0
 40
4.0
 40
4.0
 40
4.0
 40
5.0
 40
5.0
 40
5.0
 40
6.0
 40
6.0
 40
6.0
 40
7.0
 40
7.0
 40
7.0
 40
7.0
 10
1023.879576280382
 20
-1050.91523912218
 10
1100.679734293621
 20
-1044.498654513889
 10
1178.287510850694
 20
-1042.607242499458
 10
1254.309531656902
 20
-1030.641292317709
 10
1384.88747490777
 20
-1010.088335842556
 10
1453.9691921658
 20
-871.0906361897787
 10
1389.625324164497
 20
-753.9957980685767
 10
1314.709703911676
 20
-617.6621907552089
 10
1193.631908840604
 20
-535.2483539157447
 10
1047.305191379124
 20
-488.6233008490672
 10
1033.357117377387
 20
-484.1789538913308
 10
1015.521262953016
 20
-483.2281099107531
 10
1001.897696261936
 20
-487.8112175835504
 10
855.0382595486117
 20
-537.2166937934026
 10
732.4899056328668
 20
-620.1969479031031
 10
660.5865551418729
 20
-760.9778432210287
 10
600.8970177544488
 20
-877.8451931423615
 10
672.5039957682293
 20
-1012.429692586264
 10
801.9693374633789
 20
-1031.73706258138
 10
875.0474412706162
 20
-1042.635377332899
 10
949.4316887749565
 20
-1044.775963338216
 10
1023.879576280382
 20
-1050.91523912218
 97
        0
 97
        0
 92
        1
 93
        1
 72
     4
 94
        3
 73
     0
 74
     1
 95
       50
 96
       46
 40
0.0
 40
0.0
 40
0.0
 40
0.0
 40
1.0
 40
1.0
 40
1.0
 40
2.0
 40
2.0
 40
2.0
 40
3.0
 40
3.0
 40
3.0
 40
4.0
 40
4.0
 40
4.0
 40
5.0
 40
5.0
 40
5.0
 40
6.0
 40
6.0
 40
6.0
 40
7.0
 40
7.0
 40
7.0
 40
8.0
 40
8.0
 40
8.0
 40
9.0
 40
9.0
 40
9.0
 40
10.0
 40
10.0
 40
10.0
 40
11.0
 40
11.0
 40
11.0
 40
12.0
 40
12.0
 40
12.0
 40
13.0
 40
13.0
 40
13.0
 40
14.0
 40
14.0
 40
14.0
 40
15.0
 40
15.0
 40
15.0
 40
15.0
 10
1026.490517171223
 20
-1506.575520833334
 10
1072.723560587565
 20
-1578.749943712022
 10
1137.455859375001
 20
-1616.456998697917
 10
1211.745001220703
 20
-1629.48633219401
 10
1345.278023274739
 20
-1652.906277804905
 10
1480.08597140842
 20
-1669.470678710937
 10
1614.792719184028
 20
-1685.205917019315
 10
1629.845209418403
 20
-1686.964308675131
 10
1656.88951687283
 20
-1667.784714762371
 10
1661.682501898871
 20
-1652.929947916668
 10
1666.588309733073
 20
-1637.725515407987
 10
1656.385357666017
 20
-1608.55855170356
 10
1643.043351915148
 20
-1598.695485432943
 10
1623.30035264757
 20
-1584.10009765625
 10
1595.43637898763
 20
-1577.144911702475
 10
1570.161235215928
 20
-1574.064112006294
 10
1514.99215766059
 20
-1567.339815945095
 10
1459.317503526476
 20
-1562.464198133681
 10
1403.774381510417
 20
-1561.587411838107
 10
1286.854234483508
 20
-1559.74114312066
 10
1183.217839219835
 20
-1523.808070882162
 10
1089.442100694445
 20
-1453.872670491537
 10
1027.296293131511
 20
-1407.52588297526
 10
1017.978418986002
 20
-1406.906774902343
 10
956.1520870632594
 20
-1458.461695692275
 10
874.9835886637375
 20
-1526.145742458768
 10
781.8653689914281
 20
-1555.060980902777
 10
678.962570020888
 20
-1560.830251736112
 10
614.1783954196508
 20
-1564.462409125434
 10
549.2428100585939
 20
-1566.825876871746
 10
484.7428362528481
 20
-1573.377962239583
 10
459.4735568576389
 20
-1575.944822862413
 10
430.8515903896759
 20
-1582.971302625869
 10
411.9283636305063
 20
-1598.152631971572
 10
397.9365991380482
 20
-1609.377792697484
 10
388.5361985100644
 20
-1639.470442030166
 10
393.281488969591
 20
-1656.697180853949
 10
396.9968283759226
 20
-1670.184750705295
 10
426.6352808634438
 20
-1686.7427734375
 10
442.8776371426056
 20
-1684.947104899089
 10
568.5639285617408
 20
-1671.051048448351
 10
694.5862611558705
 20
-1657.37255859375
 10
818.8812071058492
 20
-1634.719694688585
 10
899.9562652587892
 20
-1619.944017198352
 10
975.5897135416672
 20
-1585.755304633247
 10
1026.490517171223
 20
-1506.575520833334
 97
        0
 97
        0
 92
        1
 93
        1
 72
     4
 94
        3
 73
     0
 74
     1
 95
       29
 96
       25
 40
0.0
 40
0.0
 40
0.0
 40
0.0
 40
1.0
 40
1.0
 40
1.0
 40
2.0
 40
2.0
 40
2.0
 40
3.0
 40
3.0
 40
3.0
 40
4.0
 40
4.0
 40
4.0
 40
5.0
 40
5.0
 40
5.0
 40
6.0
 40
6.0
 40
6.0
 40
7.0
 40
7.0
 40
7.0
 40
8.0
 40
8.0
 40
8.0
 40
8.0
 10
1037.594492594402
 20
-1368.742050509984
 10
1114.299048868816
 20
-1362.058574761286
 10
1194.082774861654
 20
-1355.83886311849
 10
1273.625122409398
 20
-1347.355466715495
 10
1285.031565009223
 20
-1346.138936360678
 10
1295.272715250652
 20
-1333.995743815105
 10
1306.053175523546
 20
-1326.909309217664
 10
1298.463999091255
 20
-1316.11850212945
 10
1293.172736952039
 20
-1300.36072760688
 10
1282.809480116102
 20
-1295.566183471679
 10
1260.933336046008
 20
-1285.445297241211
 10
1236.347176784941
 20
-1275.082465616862
 10
1212.972090996636
 20
-1275.303575642904
 10
1074.491873847113
 20
-1276.613439941406
 10
935.9789862738717
 20
-1279.586306762696
 10
797.6553532918297
 20
-1285.903746202257
 10
780.208850945367
 20
-1286.700592719184
 10
763.807447814941
 20
-1310.381051296659
 10
746.9218704223631
 20
-1323.459142388238
 10
762.7037402682836
 20
-1334.682602267796
 10
777.7544587877064
 20
-1354.253249104819
 10
794.3917834811746
 20
-1355.71044921875
 10
874.0441545274525
 20
-1362.687604437935
 10
954.1263081868492
 20
-1364.758668348524
 10
1037.594492594402
 20
-1368.742050509984
 97
        0
 97
        0
 92
        1
 93
        1
 72
     4
 94
        3
 73
     0
 74
     1
 95
       20
 96
       16
 40
0.0
 40
0.0
 40
0.0
 40
0.0
 40
1.0
 40
1.0
 40
1.0
 40
2.0
 40
2.0
 40
2.0
 40
3.0
 40
3.0
 40
3.0
 40
4.0
 40
4.0
 40
4.0
 40
5.0
 40
5.0
 40
5.0
 40
5.0
 10
776.1170043945312
 20
-1210.392191908095
 10
862.4905887179902
 20
-1206.438999769423
 10
945.5626885308166
 20
-1199.638519965278
 10
1028.631457519532
 20
-1199.679907226562
 10
1111.332418484159
 20
-1199.72122361925
 10
1194.029977756076
 20
-1206.631053670248
 10
1276.425069851346
 20
-1210.514865451389
 10
1276.425069851346
 20
-1176.983033921984
 10
1276.425069851346
 20
-1141.478716701931
 10
1276.425069851346
 20
-1110.386040581598
 10
1107.951844618055
 20
-1110.386040581598
 10
940.4179117838539
 20
-1110.386040581598
 10
776.1170043945312
 20
-1110.386040581598
 10
776.1170043945312
 20
-1142.585825941298
 10
776.1170043945312
 20
-1177.089336819119
 10
776.1170043945312
 20
-1210.392191908095
 97
        0
 97
        0
 92
        1
 93
        1
 72
     4
 94
        3
 73
     0
 74
     1
 95
       17
 96
       13
 40
0.0
 40
0.0
 40
0.0
 40
0.0
 40
1.0
 40
1.0
 40
1.0
 40
2.0
 40
2.0
 40
2.0
 40
3.0
 40
3.0
 40
3.0
 40
4.0
 40
4.0
 40
4.0
 40
4.0
 10
1025.981184556749
 20
-389.2449212816027
 10
1067.785507541234
 20
-390.1203787909617
 10
1101.530015733508
 20
-358.1744624667699
 10
1101.476226467557
 20
-317.7737097846139
 10
1101.424988471137
 20
-279.2938327365455
 10
1071.08685031467
 20
-250.4969537099205
 10
1028.78403761122
 20
-248.774563301934
 10
986.4674055311416
 20
-247.0516059451629
 10
953.622219848633
 20
-278.0165414174398
 10
953.7105221218535
 20
-319.5504032558865
 10
953.791666666667
 20
-357.6907488505049
 10
985.6360460069445
 20
-388.4000258551705
 10
1025.981184556749
 20
-389.2449212816027
 97
        0
 97
        0
 75
     2
 76
     1
 98
        0
  0
ENDSEC
  0
SECTION
  2
OBJECTS
  0
DICTIONARY
  5
C
330
0
100
AcDbDictionary
281
     1
  3
ACAD_GROUP
350
D
  3
ACAD_LAYOUT
350
1A
  3
ACAD_MATERIAL
350
3B
  3
ACAD_MLEADERSTYLE
350
49
  3
ACAD_MLINESTYLE
350
17
  3
ACAD_PLOTSETTINGS
350
19
  3
ACAD_PLOTSTYLENAME
350
E
  3
ACAD_TABLESTYLE
350
48
  3
ACAD_VISUALSTYLE
350
2A
  0
SUN
  5
3F
330
29
100
AcDbSun
 90
        1
290
     0
 63
     7
421
 16777215
 40
1.0
291
     1
 91
  2455826
 92
 54000000
292
     0
 70
     2
 71
   256
280
     1
  0
DICTIONARY
  5
D
102
{ACAD_REACTORS
330
C
102
}
330
C
100
AcDbDictionary
281
     1
  0
DICTIONARY
  5
1A
102
{ACAD_REACTORS
330
C
102
}
330
C
100
AcDbDictionary
281
     1
  3
Layout1
350
1E
  3
Layout2
350
26
  3
Model
350
22
  0
DICTIONARY
  5
3B
102
{ACAD_REACTORS
330
C
102
}
330
C
100
AcDbDictionary
281
     1
  3
ByBlock
350
3D
  3
ByLayer
350
3C
  3
Global
350
3E
  0
DICTIONARY
  5
49
102
{ACAD_REACTORS
330
C
102
}
330
C
100
AcDbDictionary
281
     1
  0
DICTIONARY
  5
17
102
{ACAD_REACTORS
330
C
102
}
330
C
100
AcDbDictionary
281
     1
  3
Standard
350
18
  0
DICTIONARY
  5
19
102
{ACAD_REACTORS
330
C
102
}
330
C
100
AcDbDictionary
281
     1
  0
ACDBDICTIONARYWDFLT
  5
E
102
{ACAD_REACTORS
330
C
102
}
330
C
100
AcDbDictionary
281
     1
  3
Normal
350
F
100
AcDbDictionaryWithDefault
340
F
  0
DICTIONARY
  5
48
102
{ACAD_REACTORS
330
C
102
}
330
C
100
AcDbDictionary
281
     1
  0
DICTIONARY
  5
2A
102
{ACAD_REACTORS
330
C
102
}
330
C
100
AcDbDictionary
281
     1
  3
2dWireframe
350
2F
  3
3D Hidden
350
31
  3
3dWireframe
350
30
  3
Basic
350
32
  3
Brighten
350
36
  3
ColorChange
350
3A
  3
Conceptual
350
34
  3
Dim
350
35
  3
Facepattern
350
39
  3
Flat
350
2B
  3
FlatWithEdges
350
2C
  3
Gouraud
350
2D
  3
GouraudWithEdges
350
2E
  3
Linepattern
350
38
  3
Realistic
350
33
  3
Thicken
350
37
  0
LAYOUT
  5
1E
102
{ACAD_REACTORS
330
1A
102
}
330
1A
100
AcDbPlotSettings
  1

  2
none_device
  4

  6

 40
0.0
 41
0.0
 42
0.0
 43
0.0
 44
0.0
 45
0.0
 46
0.0
 47
0.0
 48
0.0
 49
0.0
140
0.0
141
0.0
142
1.0
143
1.0
 70
   688
 72
     0
 73
     0
 74
     5
  7

 75
    16
 76
     0
 77
     2
 78
   300
147
1.0
148
0.0
149
0.0
100
AcDbLayout
  1
Layout1
 70
     1
 71
     1
 10
0.0
 20
0.0
 11
12.0
 21
9.0
 12
0.0
 22
0.0
 32
0.0
 14
1.000000000000000E+20
 24
1.000000000000000E+20
 34
1.000000000000000E+20
 15
-1.000000000000000E+20
 25
-1.000000000000000E+20
 35
-1.000000000000000E+20
146
0.0
 13
0.0
 23
0.0
 33
0.0
 16
1.0
 26
0.0
 36
0.0
 17
0.0
 27
1.0
 37
0.0
 76
     0
330
1B
  0
LAYOUT
  5
26
102
{ACAD_REACTORS
330
1A
102
}
330
1A
100
AcDbPlotSettings
  1

  2
none_device
  4

  6

 40
0.0
 41
0.0
 42
0.0
 43
0.0
 44
0.0
 45
0.0
 46
0.0
 47
0.0
 48
0.0
 49
0.0
140
0.0
141
0.0
142
1.0
143
1.0
 70
   688
 72
     0
 73
     0
 74
     5
  7

 75
    16
 76
     0
 77
     2
 78
   300
147
1.0
148
0.0
149
0.0
100
AcDbLayout
  1
Layout2
 70
     1
 71
     2
 10
0.0
 20
0.0
 11
0.0
 21
0.0
 12
0.0
 22
0.0
 32
0.0
 14
0.0
 24
0.0
 34
0.0
 15
0.0
 25
0.0
 35
0.0
146
0.0
 13
0.0
 23
0.0
 33
0.0
 16
1.0
 26
0.0
 36
0.0
 17
0.0
 27
1.0
 37
0.0
 76
     0
330
23
  0
LAYOUT
  5
22
102
{ACAD_REACTORS
330
1A
102
}
330
1A
100
AcDbPlotSettings
  1

  2
none_device
  4

  6

 40
0.0
 41
0.0
 42
0.0
 43
0.0
 44
0.0
 45
0.0
 46
0.0
 47
0.0
 48
0.0
 49
0.0
140
0.0
141
0.0
142
1.0
143
1.0
 70
  1712
 72
     0
 73
     0
 74
     0
  7

 75
     0
 76
     0
 77
     2
 78
   300
147
1.0
148
0.0
149
0.0
100
AcDbLayout
  1
Model
 70
     1
 71
     0
 10
0.0
 20
0.0
 11
12.0
 21
9.0
 12
0.0
 22
0.0
 32
0.0
 14
1.000000000000000E+20
 24
1.000000000000000E+20
 34
1.000000000000000E+20
 15
-1.000000000000000E+20
 25
-1.000000000000000E+20
 35
-1.000000000000000E+20
146
0.0
 13
0.0
 23
0.0
 33
0.0
 16
1.0
 26
0.0
 36
0.0
 17
0.0
 27
1.0
 37
0.0
 76
     0
330
1F
331
29
  0
MATERIAL
  5
3D
102
{ACAD_REACTORS
330
3B
102
}
330
3B
100
AcDbMaterial
  1
ByBlock
 72
     1
 94
      127
  0
MATERIAL
  5
3C
102
{ACAD_REACTORS
330
3B
102
}
330
3B
100
AcDbMaterial
  1
ByLayer
 72
     1
 94
      127
  0
MATERIAL
  5
3E
102
{ACAD_REACTORS
330
3B
102
}
330
3B
100
AcDbMaterial
  1
Global
 72
     1
 94
      127
  0
MLINESTYLE
  5
18
102
{ACAD_REACTORS
330
17
102
}
330
17
100
AcDbMlineStyle
  2
Standard
 70
     0
  3

 62
   256
 51
90.0
 52
90.0
 71
     2
 49
0.5
 62
   256
  6
BYLAYER
 49
-0.5
 62
   256
  6
BYLAYER
  0
ACDBPLACEHOLDER
  5
F
102
{ACAD_REACTORS
330
E
102
}
330
E
  0
VISUALSTYLE
  5
2F
102
{ACAD_REACTORS
330
2A
102
}
330
2A
100
AcDbVisualStyle
  2
2dWireframe
 70
     4
177
     2
291
     0
 71
     0
176
     1
 72
     2
176
     1
 73
     0
176
     1
 90
        0
176
     1
 40
-0.6
176
     1
 41
-30.0
176
     1
 62
     5
 63
     7
421
 16777215
176
     1
 74
     1
176
     1
 91
        4
176
     1
 64
     7
176
     1
 65
   257
176
     1
 75
     1
176
     1
175
     1
176
     1
 42
1.0
176
     1
 92
        0
176
     1
 66
   257
176
     1
 43
1.0
176
     1
 76
     1
176
     1
 77
     6
176
     1
 78
     2
176
     1
 67
     7
176
     1
 79
     5
176
     1
170
     0
176
     1
171
     0
176
     1
290
     0
176
     1
 93
        1
176
     1
 44
0.0
176
     1
173
     0
176
     1
  0
VISUALSTYLE
  5
31
102
{ACAD_REACTORS
330
2A
102
}
330
2A
100
AcDbVisualStyle
  2
3D Hidden
 70
     6
177
     2
291
     0
 71
     1
176
     1
 72
     2
176
     1
 73
     2
176
     1
 90
        0
176
     1
 40
-0.6
176
     1
 41
-30.0
176
     1
 62
     5
 63
     7
421
 16777215
176
     1
 74
     2
176
     1
 91
        2
176
     1
 64
     7
176
     1
 65
   257
176
     1
 75
     2
176
     1
175
     1
176
     1
 42
40.0
176
     1
 92
        0
176
     1
 66
   257
176
     1
 43
1.0
176
     1
 76
     1
176
     1
 77
     6
176
     1
 78
     2
176
     1
 67
     7
176
     1
 79
     3
176
     1
170
     0
176
     1
171
     0
176
     1
290
     0
176
     1
 93
        1
176
     1
 44
0.0
176
     1
173
     0
176
     1
  0
VISUALSTYLE
  5
30
102
{ACAD_REACTORS
330
2A
102
}
330
2A
100
AcDbVisualStyle
  2
3dWireframe
 70
     5
177
     2
291
     0
 71
     0
176
     1
 72
     2
176
     1
 73
     0
176
     1
 90
        0
176
     1
 40
-0.6
176
     1
 41
-30.0
176
     1
 62
     5
 63
     7
421
 16777215
176
     1
 74
     1
176
     1
 91
        4
176
     1
 64
     7
176
     1
 65
   257
176
     1
 75
     1
176
     1
175
     1
176
     1
 42
1.0
176
     1
 92
        0
176
     1
 66
   257
176
     1
 43
1.0
176
     1
 76
     1
176
     1
 77
     6
176
     1
 78
     2
176
     1
 67
     7
176
     1
 79
     5
176
     1
170
     0
176
     1
171
     0
176
     1
290
     0
176
     1
 93
        1
176
     1
 44
0.0
176
     1
173
     0
176
     1
  0
VISUALSTYLE
  5
32
102
{ACAD_REACTORS
330
2A
102
}
330
2A
100
AcDbVisualStyle
  2
Basic
 70
     7
177
     2
291
     1
 71
     1
176
     1
 72
     0
176
     1
 73
     1
176
     1
 90
        0
176
     1
 40
-0.6
176
     1
 41
-30.0
176
     1
 62
     5
 63
     7
421
 16777215
176
     1
 74
     0
176
     1
 91
        4
176
     1
 64
     7
176
     1
 65
   257
176
     1
 75
     1
176
     1
175
     1
176
     1
 42
1.0
176
     1
 92
        8
176
     1
 66
     7
176
     1
 43
1.0
176
     1
 76
     1
176
     1
 77
     6
176
     1
 78
     2
176
     1
 67
     7
176
     1
 79
     5
176
     1
170
     0
176
     1
171
     0
176
     1
290
     0
176
     1
 93
        1
176
     1
 44
0.0
176
     1
173
     0
176
     1
  0
VISUALSTYLE
  5
36
102
{ACAD_REACTORS
330
2A
102
}
330
2A
100
AcDbVisualStyle
  2
Brighten
 70
    12
177
     2
291
     1
 71
     2
176
     1
 72
     2
176
     1
 73
     0
176
     1
 90
        0
176
     1
 40
-0.6
176
     1
 41
-30.0
176
     1
 62
     5
 63
     7
421
 16777215
176
     1
 74
     1
176
     1
 91
        4
176
     1
 64
     7
176
     1
 65
   257
176
     1
 75
     1
176
     1
175
     1
176
     1
 42
1.0
176
     1
 92
        8
176
     1
 66
     7
176
     1
 43
1.0
176
     1
 76
     1
176
     1
 77
     6
176
     1
 78
     2
176
     1
 67
     7
176
     1
 79
     5
176
     1
170
     0
176
     1
171
     0
176
     1
290
     0
176
     1
 93
        1
176
     1
 44
50.0
176
     1
173
     0
176
     1
  0
VISUALSTYLE
  5
3A
102
{ACAD_REACTORS
330
2A
102
}
330
2A
100
AcDbVisualStyle
  2
ColorChange
 70
    16
177
     2
291
     1
 71
     2
176
     1
 72
     2
176
     1
 73
     3
176
     1
 90
        0
176
     1
 40
-0.6
176
     1
 41
-30.0
176
     1
 62
     5
 63
     8
421
  8421504
176
     1
 74
     1
176
     1
 91
        4
176
     1
 64
     7
176
     1
 65
   257
176
     1
 75
     1
176
     1
175
     1
176
     1
 42
1.0
176
     1
 92
        8
176
     1
 66
     8
424
  8421504
176
     1
 43
1.0
176
     1
 76
     1
176
     1
 77
     6
176
     1
 78
     2
176
     1
 67
     7
176
     1
 79
     5
176
     1
170
     0
176
     1
171
     0
176
     1
290
     0
176
     1
 93
        1
176
     1
 44
0.0
176
     1
173
     0
176
     1
  0
VISUALSTYLE
  5
34
102
{ACAD_REACTORS
330
2A
102
}
330
2A
100
AcDbVisualStyle
  2
Conceptual
 70
     9
177
     2
291
     0
 71
     3
176
     1
 72
     2
176
     1
 73
     0
176
     1
 90
        0
176
     1
 40
-0.6
176
     1
 41
-30.0
176
     1
 62
     5
 63
     7
421
 16777215
176
     1
 74
     2
176
     1
 91
        2
176
     1
 64
     7
176
     1
 65
   257
176
     1
 75
     1
176
     1
175
     1
176
     1
 42
40.0
176
     1
 92
        8
176
     1
 66
     7
176
     1
 43
1.0
176
     1
 76
     1
176
     1
 77
     6
176
     1
 78
     2
176
     1
 67
     7
176
     1
 79
     3
176
     1
170
     0
176
     1
171
     0
176
     1
290
     0
176
     1
 93
        1
176
     1
 44
0.0
176
     1
173
     0
176
     1
  0
VISUALSTYLE
  5
35
102
{ACAD_REACTORS
330
2A
102
}
330
2A
100
AcDbVisualStyle
  2
Dim
 70
    11
177
     2
291
     1
 71
     2
176
     1
 72
     2
176
     1
 73
     0
176
     1
 90
        0
176
     1
 40
-0.6
176
     1
 41
-30.0
176
     1
 62
     5
 63
     7
421
 16777215
176
     1
 74
     1
176
     1
 91
        4
176
     1
 64
     7
176
     1
 65
   257
176
     1
 75
     1
176
     1
175
     1
176
     1
 42
1.0
176
     1
 92
        8
176
     1
 66
     7
176
     1
 43
1.0
176
     1
 76
     1
176
     1
 77
     6
176
     1
 78
     2
176
     1
 67
     7
176
     1
 79
     5
176
     1
170
     0
176
     1
171
     0
176
     1
290
     0
176
     1
 93
        1
176
     1
 44
-50.0
176
     1
173
     0
176
     1
  0
VISUALSTYLE
  5
39
102
{ACAD_REACTORS
330
2A
102
}
330
2A
100
AcDbVisualStyle
  2
Facepattern
 70
    15
177
     2
291
     1
 71
     2
176
     1
 72
     2
176
     1
 73
     0
176
     1
 90
        0
176
     1
 40
-0.6
176
     1
 41
-30.0
176
     1
 62
     5
 63
     7
421
 16777215
176
     1
 74
     1
176
     1
 91
        4
176
     1
 64
     7
176
     1
 65
   257
176
     1
 75
     1
176
     1
175
     1
176
     1
 42
1.0
176
     1
 92
        8
176
     1
 66
     7
176
     1
 43
1.0
176
     1
 76
     1
176
     1
 77
     6
176
     1
 78
     2
176
     1
 67
     7
176
     1
 79
     5
176
     1
170
     0
176
     1
171
     0
176
     1
290
     0
176
     1
 93
        1
176
     1
 44
0.0
176
     1
173
     0
176
     1
  0
VISUALSTYLE
  5
2B
102
{ACAD_REACTORS
330
2A
102
}
330
2A
100
AcDbVisualStyle
  2
Flat
 70
     0
177
     2
291
     1
 71
     2
176
     1
 72
     1
176
     1
 73
     1
176
     1
 90
        2
176
     1
 40
-0.6
176
     1
 41
30.0
176
     1
 62
     5
 63
     7
421
 16777215
176
     1
 74
     0
176
     1
 91
        4
176
     1
 64
     7
176
     1
 65
   257
176
     1
 75
     1
176
     1
175
     1
176
     1
 42
1.0
176
     1
 92
        8
176
     1
 66
     7
176
     1
 43
1.0
176
     1
 76
     1
176
     1
 77
     6
176
     1
 78
     2
176
     1
 67
     7
176
     1
 79
     5
176
     1
170
     0
176
     1
171
     0
176
     1
290
     0
176
     1
 93
       13
176
     1
 44
0.0
176
     1
173
     0
176
     1
  0
VISUALSTYLE
  5
2C
102
{ACAD_REACTORS
330
2A
102
}
330
2A
100
AcDbVisualStyle
  2
FlatWithEdges
 70
     1
177
     2
291
     1
 71
     2
176
     1
 72
     1
176
     1
 73
     1
176
     1
 90
        2
176
     1
 40
-0.6
176
     1
 41
30.0
176
     1
 62
     5
 63
     7
421
 16777215
176
     1
 74
     1
176
     1
 91
        4
176
     1
 64
     7
176
     1
 65
   257
176
     1
 75
     1
176
     1
175
     1
176
     1
 42
1.0
176
     1
 92
        0
176
     1
 66
   257
176
     1
 43
1.0
176
     1
 76
     1
176
     1
 77
     6
176
     1
 78
     2
176
     1
 67
     7
176
     1
 79
     5
176
     1
170
     0
176
     1
171
     0
176
     1
290
     0
176
     1
 93
       13
176
     1
 44
0.0
176
     1
173
     0
176
     1
  0
VISUALSTYLE
  5
2D
102
{ACAD_REACTORS
330
2A
102
}
330
2A
100
AcDbVisualStyle
  2
Gouraud
 70
     2
177
     2
291
     1
 71
     2
176
     1
 72
     2
176
     1
 73
     1
176
     1
 90
        2
176
     1
 40
-0.6
176
     1
 41
30.0
176
     1
 62
     5
 63
     7
421
 16777215
176
     1
 74
     0
176
     1
 91
        4
176
     1
 64
     7
176
     1
 65
   257
176
     1
 75
     1
176
     1
175
     1
176
     1
 42
1.0
176
     1
 92
        0
176
     1
 66
     7
176
     1
 43
1.0
176
     1
 76
     1
176
     1
 77
     6
176
     1
 78
     2
176
     1
 67
     7
176
     1
 79
     5
176
     1
170
     0
176
     1
171
     0
176
     1
290
     0
176
     1
 93
       13
176
     1
 44
0.0
176
     1
173
     0
176
     1
  0
VISUALSTYLE
  5
2E
102
{ACAD_REACTORS
330
2A
102
}
330
2A
100
AcDbVisualStyle
  2
GouraudWithEdges
 70
     3
177
     2
291
     1
 71
     2
176
     1
 72
     2
176
     1
 73
     1
176
     1
 90
        2
176
     1
 40
-0.6
176
     1
 41
30.0
176
     1
 62
     5
 63
     7
421
 16777215
176
     1
 74
     1
176
     1
 91
        4
176
     1
 64
     7
176
     1
 65
   257
176
     1
 75
     1
176
     1
175
     1
176
     1
 42
1.0
176
     1
 92
        0
176
     1
 66
   257
176
     1
 43
1.0
176
     1
 76
     1
176
     1
 77
     6
176
     1
 78
     2
176
     1
 67
     7
176
     1
 79
     5
176
     1
170
     0
176
     1
171
     0
176
     1
290
     0
176
     1
 93
       13
176
     1
 44
0.0
176
     1
173
     0
176
     1
  0
VISUALSTYLE
  5
38
102
{ACAD_REACTORS
330
2A
102
}
330
2A
100
AcDbVisualStyle
  2
Linepattern
 70
    14
177
     2
291
     1
 71
     2
176
     1
 72
     2
176
     1
 73
     0
176
     1
 90
        0
176
     1
 40
-0.6
176
     1
 41
-30.0
176
     1
 62
     5
 63
     7
421
 16777215
176
     1
 74
     1
176
     1
 91
        4
176
     1
 64
     7
176
     1
 65
   257
176
     1
 75
     7
176
     1
175
     7
176
     1
 42
1.0
176
     1
 92
        8
176
     1
 66
     7
176
     1
 43
1.0
176
     1
 76
     1
176
     1
 77
     6
176
     1
 78
     2
176
     1
 67
     7
176
     1
 79
     5
176
     1
170
     0
176
     1
171
     0
176
     1
290
     0
176
     1
 93
        1
176
     1
 44
0.0
176
     1
173
     0
176
     1
  0
VISUALSTYLE
  5
33
102
{ACAD_REACTORS
330
2A
102
}
330
2A
100
AcDbVisualStyle
  2
Realistic
 70
     8
177
     2
291
     0
 71
     2
176
     1
 72
     2
176
     1
 73
     0
176
     1
 90
        0
176
     1
 40
-0.6
176
     1
 41
-30.0
176
     1
 62
     5
 63
     7
421
 16777215
176
     1
 74
     1
176
     1
 91
        0
176
     1
 64
     7
176
     1
 65
   257
176
     1
 75
     1
176
     1
175
     1
176
     1
 42
1.0
176
     1
 92
        8
176
     1
 66
     8
424
  7895160
176
     1
 43
1.0
176
     1
 76
     1
176
     1
 77
     6
176
     1
 78
     2
176
     1
 67
     7
176
     1
 79
     5
176
     1
170
     0
176
     1
171
     0
176
     1
290
     0
176
     1
 93
       13
176
     1
 44
0.0
176
     1
173
     0
176
     1
  0
VISUALSTYLE
  5
37
102
{ACAD_REACTORS
330
2A
102
}
330
2A
100
AcDbVisualStyle
  2
Thicken
 70
    13
177
     2
291
     1
 71
     2
176
     1
 72
     2
176
     1
 73
     0
176
     1
 90
        0
176
     1
 40
-0.6
176
     1
 41
-30.0
176
     1
 62
     5
 63
     7
421
 16777215
176
     1
 74
     1
176
     1
 91
        4
176
     1
 64
     7
176
     1
 65
   257
176
     1
 75
     1
176
     1
175
     1
176
     1
 42
1.0
176
     1
 92
       12
176
     1
 66
     7
176
     1
 43
1.0
176
     1
 76
     1
176
     1
 77
     6
176
     1
 78
     2
176
     1
 67
     7
176
     1
 79
     5
176
     1
170
     0
176
     1
171
     0
176
     1
290
     0
176
     1
 93
        1
176
     1
 44
0.0
176
     1
173
     0
176
     1
  0
ENDSEC
  0
EOF
