<?xml version="1.0" encoding="utf-8"?>
<!-- Generator: Adobe Illustrator 22.0.1, SVG Export Plug-In . SVG Version: 6.00 Build 0)  -->
<svg version="1.1" id="Layer_1" xmlns="http://www.w3.org/2000/svg" xmlns:xlink="http://www.w3.org/1999/xlink" x="0px" y="0px"
	 viewBox="0 0 2000 2000" style="enable-background:new 0 0 2000 2000;" xml:space="preserve">
<path d="M557.5,1780.5c-10.5-21.4-21.2-37.2-26.4-54.7c-15-49.8-7.7-91.6,40.9-123c37.3-24,71.3-53.7,104.5-83.3
	c94.1-83.9,137.7-193.8,159.1-314.8c21.6-122.3,23.2-244.3-8.8-365.1c-7.6-28.6-16.7-57.4-30.2-83.6c-5.9-11.4-23.7-18-37.4-23.6
	c-25.8-10.6-31-21.1-10.8-39.5c17.2-15.7,39-27.7,60.7-36.8c27.1-11.4,56.1-18.2,90.2-28.9c-105.3-63.2-161-150.7-158.5-269.8
	c1.7-80.1,33.4-148,92.1-202.7c116.3-108.5,307.1-100,411,18.9c106,121.3,105.9,326.5-71.6,446.1c25.7,9,47.9,15.8,69.4,24.5
	c30.5,12.5,61.4,24.7,90.2,40.6c8.8,4.8,11,21.5,16.2,32.7c-10.5,3.8-20.9,10.7-31.5,10.9c-21.4,0.5-33.4,8.4-41.5,29
	c-30.2,76.3-43.4,155.9-44.9,237.1c-2.5,140.2,21.7,275.4,80.8,403.9c21.9,47.6,59,80.6,96,114.3c25.4,23.2,52.9,43.9,79.2,66.2
	c13.5,11.4,26.7,23.2,39.1,35.7c58.4,59.2,60.6,94.9,6.8,165.6c17.1,10.5,33,22.4,50.6,30.6c53.3,24.9,56.5,38.2,14.3,77.7
	c-18.2,17.1-37.9,33-58.6,47c-9.1,6.2-22.3,8.8-33.7,8.8c-309.8,0.5-619.5,0.5-929.3-0.3c-11.9,0-25.7-7.5-35.4-15.5
	c-16.3-13.6-30.9-29.6-44.5-46c-26.4-32-20.4-55.6,16.9-75.5C527.8,1799,542.4,1789.5,557.5,1780.5z"/>
</svg>
