<?xml version="1.0" encoding="utf-8"?>
<!-- Generator: Adobe Illustrator 22.0.1, SVG Export Plug-In . SVG Version: 6.00 Build 0)  -->
<svg version="1.1" id="Layer_1" xmlns="http://www.w3.org/2000/svg" xmlns:xlink="http://www.w3.org/1999/xlink" x="0px" y="0px"
	 viewBox="0 0 2000 2000" style="enable-background:new 0 0 2000 2000;" xml:space="preserve">
<path d="M1515.2,1859.9c-4.7-4.4-10.7-7.6-16.4-10.8c-10.3-5.6-21.2-10.2-31.3-16.3c-26.1-15.9-28.3-29.9-9.1-53.1
	c1.4-1.7,2.6-3.6,4.4-5c17.6-13.7,20.8-32.9,20.5-53.4c-0.2-18.1-5.6-34.8-14.4-50.3c-9.4-16.6-19.5-32.8-29.1-49.3
	c-15.9-27.5-31.4-55.4-29-88.6c1-14.1-4.2-23.7-13.6-32.9c-7.8-7.7-15.3-15.9-21.8-24.6c-8.3-11.1-8.5-21.1,1.2-33.4
	c24.6-31.1,47.5-63.5,70.4-95.9c5.3-7.5,9.3-16.7,11-25.7c6.5-33.1,11.1-66.6,17.7-99.7c7-34.7,11.8-69.5,9.8-105
	c-1-18-5.1-34.5-16.3-49.3c-14.8-19.6-24.6-41.5-28.4-66.1c-3.6-23.6-13.1-44.6-26.7-64.5c-22.1-32.4-47.6-61.8-76.6-87.9
	c-42-37.9-85.2-74.4-127.7-111.8c-12.7-11.2-27.7-21.4-35.8-35.5c-14.6-25.1-33.7-46.2-51.3-68.7c-12.1-15.4-22.6-32.4-20.9-53.5
	c16.6-6.9,32.2-13.2,47.6-19.9c16.1-7,31.7-15.5,48.3-21.4c16.5-5.9,33.6-11.3,50.9-13.5c32.2-4,61.1,3.5,83,30.3
	c8.8,10.7,19.2,20.5,30.5,28.5c17,12,33.2,8.9,46.9-6.9c3.8-4.4,7.5-9.2,10.3-14.3c11.7-21.5,27.1-39.9,45.1-56.4
	c4.8-4.4,9-9.7,12.5-15.3c5.1-8.2,7.6-17.2,2.1-29.8c-20,1.1-40.3,2.9-60.6,3.2c-15.3,0.3-30.9,0.5-45.7-2.4
	c-13.7-2.7-15.7-8.4-14.8-24.3c17.4,0,34.8-0.1,52.2,0c17.6,0.1,35.2,0.8,52.8,0.4c28.8-0.7,47.7-45.8,28-65.8
	c-3.6-3.6-5.8-8.4-8.8-12.6c-15.2-21.6-31.7-42.4-45.4-64.9c-10.2-16.8-24-27.5-41.5-34.2c-10.9-4.2-22.2-8.4-33.7-10.2
	c-51.5-7.8-103.2-14.8-154.9-21.8c-57.5-7.9-115-15.6-170.1-35.4c-41.6-15-75.5-39-96.4-79c-2.3-4.4-4.5-8.8-6.7-13.2
	c-47.1-3.9-90.3,5.7-130.5,27.7c-20.6,11.3-40.3,24.2-60.5,36.2c-33.1,19.6-68.1,34.2-105.5,37.7c-7.5,15.1-2.7,27.5,0.3,40.5
	c2.7,11.8,6.9,26,2.8,36.1c-9.5,23.6-23.7,45.4-35.6,68.1c-2.9,5.6-5.2,11.8-6.1,18c-4,26-5.6,52.6-11.6,78.2
	c-10.2,43.6-11.4,87.2-7,131.4c7.6,76,29.6,148.1,57.5,218.8c23.4,59.4,47,118.8,68.3,178.9c40.2,113.3,34.6,223.7-26.1,329.3
	c-15.7,27.4-32.3,54.3-48.3,81.5c-9.2,15.6-18.1,31.4-27.4,47.5c4.2,2.3,6.6,4.4,9.3,5c5,1,10.2,1.2,15.3,1.6
	c8,0.7,16.3,0.5,24.1,2.3c14.2,3.3,17.3,9.5,10.6,22.2c-6.2,11.6-14,22.4-21.2,33.5c-8.8,13.7-17.2,27.8-15.9,44.9
	c2.2,29.3-7.6,54.9-22.8,79.1c-12.5,19.9-25.8,39.3-37.4,59.7c-21.9,38.3-19.1,67.9,12.2,97.3c9.7,9.1,17.4,19.8,19.3,37.2
	c-11,4.8-21.2,8.7-30.9,13.6c-13.7,6.9-29,12.3-40.2,22.2c-23.7,20.8-22,41.4,7.8,53.7c12.8,5.3,26.5,8.8,40,12.2
	c11.2,2.8,19.6,7.3,25,18.7c8.2,17.2,21.7,24.7,42.4,24.6c249-0.7,498-0.5,746.9-0.4c0.3-0.1,0.6-0.2,1-0.2c13.6,0,28.7,1,38.9-8
	c0.7-1.1,1.2-2.2,1.8-3.3c0.2-0.6,0.4-1.1,0.6-1.7c4.7-17,16.7-25.2,33-28.5c5-1,10.2-1.7,15.1-3c9.9-2.6,20.3-4.5,29.5-8.6
	C1528.5,1894.4,1531.7,1875.4,1515.2,1859.9z"/>
</svg>
