  0
SECTION
  2
HEADER
  9
$ACADVER
  1
AC1024
  9
$ACADMAINTVER
 70
     6
  9
$DWGCODEPAGE
  3
ANSI_1252
  9
$INSBASE
 10
0.0
 20
0.0
 30
0.0
  9
$EXTMIN
 10
1.000000000000000E+20
 20
1.000000000000000E+20
 30
1.000000000000000E+20
  9
$EXTMAX
 10
-1.000000000000000E+20
 20
-1.000000000000000E+20
 30
-1.000000000000000E+20
  9
$LIMMIN
 10
0.0
 20
0.0
  9
$LIMMAX
 10
12.0
 20
9.0
  9
$ORTHOMODE
 70
     0
  9
$REGENMODE
 70
     1
  9
$FILLMODE
 70
     1
  9
$QTEXTMODE
 70
     0
  9
$MIRRTEXT
 70
     1
  9
$LTSCALE
 40
1.0
  9
$ATTMODE
 70
     1
  9
$TEXTSIZE
 40
0.2
  9
$TRACEWID
 40
0.05
  9
$TEXTSTYLE
  7
Standard
  9
$CLAYER
  8
0
  9
$CELTYPE
  6
ByLayer
  9
$CECOLOR
 62
   256
  9
$CELTSCALE
 40
1.0
  9
$DISPSILH
 70
     0
  9
$DIMSCALE
 40
1.0
  9
$DIMASZ
 40
0.18
  9
$DIMEXO
 40
0.0625
  9
$DIMDLI
 40
0.38
  9
$DIMRND
 40
0.0
  9
$DIMDLE
 40
0.0
  9
$DIMEXE
 40
0.18
  9
$DIMTP
 40
0.0
  9
$DIMTM
 40
0.0
  9
$DIMTXT
 40
0.18
  9
$DIMCEN
 40
0.09
  9
$DIMTSZ
 40
0.0
  9
$DIMTOL
 70
     0
  9
$DIMLIM
 70
     0
  9
$DIMTIH
 70
     1
  9
$DIMTOH
 70
     1
  9
$DIMSE1
 70
     0
  9
$DIMSE2
 70
     0
  9
$DIMTAD
 70
     0
  9
$DIMZIN
 70
     0
  9
$DIMBLK
  1

  9
$DIMASO
 70
     1
  9
$DIMSHO
 70
     1
  9
$DIMPOST
  1

  9
$DIMAPOST
  1

  9
$DIMALT
 70
     0
  9
$DIMALTD
 70
     2
  9
$DIMALTF
 40
25.4
  9
$DIMLFAC
 40
1.0
  9
$DIMTOFL
 70
     0
  9
$DIMTVP
 40
0.0
  9
$DIMTIX
 70
     0
  9
$DIMSOXD
 70
     0
  9
$DIMSAH
 70
     0
  9
$DIMBLK1
  1

  9
$DIMBLK2
  1

  9
$DIMSTYLE
  2
Standard
  9
$DIMCLRD
 70
     0
  9
$DIMCLRE
 70
     0
  9
$DIMCLRT
 70
     0
  9
$DIMTFAC
 40
1.0
  9
$DIMGAP
 40
0.09
  9
$DIMJUST
 70
     0
  9
$DIMSD1
 70
     0
  9
$DIMSD2
 70
     0
  9
$DIMTOLJ
 70
     1
  9
$DIMTZIN
 70
     0
  9
$DIMALTZ
 70
     0
  9
$DIMALTTZ
 70
     0
  9
$DIMUPT
 70
     0
  9
$DIMDEC
 70
     4
  9
$DIMTDEC
 70
     4
  9
$DIMALTU
 70
     2
  9
$DIMALTTD
 70
     2
  9
$DIMTXSTY
  7
Standard
  9
$DIMAUNIT
 70
     0
  9
$DIMADEC
 70
     0
  9
$DIMALTRND
 40
0.0
  9
$DIMAZIN
 70
     0
  9
$DIMDSEP
 70
    46
  9
$DIMATFIT
 70
     3
  9
$DIMFRAC
 70
     0
  9
$DIMLDRBLK
  1

  9
$DIMLUNIT
 70
     2
  9
$DIMLWD
 70
    -2
  9
$DIMLWE
 70
    -2
  9
$DIMTMOVE
 70
     0
  9
$DIMFXL
 40
1.0
  9
$DIMFXLON
 70
     0
  9
$DIMJOGANG
 40
0.7853981633974483
  9
$DIMTFILL
 70
     0
  9
$DIMTFILLCLR
 70
     0
  9
$DIMARCSYM
 70
     0
  9
$DIMLTYPE
  6

  9
$DIMLTEX1
  6

  9
$DIMLTEX2
  6

  9
$DIMTXTDIRECTION
 70
     0
  9
$LUNITS
 70
     2
  9
$LUPREC
 70
     4
  9
$SKETCHINC
 40
0.1
  9
$FILLETRAD
 40
0.5
  9
$AUNITS
 70
     0
  9
$AUPREC
 70
     0
  9
$MENU
  1
.
  9
$ELEVATION
 40
0.0
  9
$PELEVATION
 40
0.0
  9
$THICKNESS
 40
0.0
  9
$LIMCHECK
 70
     0
  9
$CHAMFERA
 40
0.5
  9
$CHAMFERB
 40
0.5
  9
$CHAMFERC
 40
1.0
  9
$CHAMFERD
 40
0.0
  9
$SKPOLY
 70
     0
  9
$TDCREATE
 40
2458270.901337211
  9
$TDUCREATE
 40
2458271.068003878
  9
$TDUPDATE
 40
2458270.901337234
  9
$TDUUPDATE
 40
2458271.0680039
  9
$TDINDWG
 40
0.0000000116
  9
$TDUSRTIMER
 40
0.0000000116
  9
$USRTIMER
 70
     1
  9
$ANGBASE
 50
0.0
  9
$ANGDIR
 70
     0
  9
$PDMODE
 70
     0
  9
$PDSIZE
 40
0.0
  9
$PLINEWID
 40
0.0
  9
$SPLFRAME
 70
     0
  9
$SPLINETYPE
 70
     6
  9
$SPLINESEGS
 70
     8
  9
$HANDSEED
  5
4C
  9
$SURFTAB1
 70
     6
  9
$SURFTAB2
 70
     6
  9
$SURFTYPE
 70
     6
  9
$SURFU
 70
     6
  9
$SURFV
 70
     6
  9
$UCSBASE
  2

  9
$UCSNAME
  2

  9
$UCSORG
 10
0.0
 20
0.0
 30
0.0
  9
$UCSXDIR
 10
1.0
 20
0.0
 30
0.0
  9
$UCSYDIR
 10
0.0
 20
1.0
 30
0.0
  9
$UCSORTHOREF
  2

  9
$UCSORTHOVIEW
 70
     0
  9
$UCSORGTOP
 10
0.0
 20
0.0
 30
0.0
  9
$UCSORGBOTTOM
 10
0.0
 20
0.0
 30
0.0
  9
$UCSORGLEFT
 10
0.0
 20
0.0
 30
0.0
  9
$UCSORGRIGHT
 10
0.0
 20
0.0
 30
0.0
  9
$UCSORGFRONT
 10
0.0
 20
0.0
 30
0.0
  9
$UCSORGBACK
 10
0.0
 20
0.0
 30
0.0
  9
$PUCSBASE
  2

  9
$PUCSNAME
  2

  9
$PUCSORG
 10
0.0
 20
0.0
 30
0.0
  9
$PUCSXDIR
 10
1.0
 20
0.0
 30
0.0
  9
$PUCSYDIR
 10
0.0
 20
1.0
 30
0.0
  9
$PUCSORTHOREF
  2

  9
$PUCSORTHOVIEW
 70
     0
  9
$PUCSORGTOP
 10
0.0
 20
0.0
 30
0.0
  9
$PUCSORGBOTTOM
 10
0.0
 20
0.0
 30
0.0
  9
$PUCSORGLEFT
 10
0.0
 20
0.0
 30
0.0
  9
$PUCSORGRIGHT
 10
0.0
 20
0.0
 30
0.0
  9
$PUCSORGFRONT
 10
0.0
 20
0.0
 30
0.0
  9
$PUCSORGBACK
 10
0.0
 20
0.0
 30
0.0
  9
$USERI1
 70
     0
  9
$USERI2
 70
     0
  9
$USERI3
 70
     0
  9
$USERI4
 70
     0
  9
$USERI5
 70
     0
  9
$USERR1
 40
0.0
  9
$USERR2
 40
0.0
  9
$USERR3
 40
0.0
  9
$USERR4
 40
0.0
  9
$USERR5
 40
0.0
  9
$WORLDVIEW
 70
     1
  9
$SHADEDGE
 70
     3
  9
$SHADEDIF
 70
    70
  9
$TILEMODE
 70
     1
  9
$MAXACTVP
 70
    64
  9
$PINSBASE
 10
0.0
 20
0.0
 30
0.0
  9
$PLIMCHECK
 70
     0
  9
$PEXTMIN
 10
1.000000000000000E+20
 20
1.000000000000000E+20
 30
1.000000000000000E+20
  9
$PEXTMAX
 10
-1.000000000000000E+20
 20
-1.000000000000000E+20
 30
-1.000000000000000E+20
  9
$PLIMMIN
 10
0.0
 20
0.0
  9
$PLIMMAX
 10
12.0
 20
9.0
  9
$UNITMODE
 70
     0
  9
$VISRETAIN
 70
     1
  9
$PLINEGEN
 70
     0
  9
$PSLTSCALE
 70
     1
  9
$TREEDEPTH
 70
  3020
  9
$CMLSTYLE
  2
Standard
  9
$CMLJUST
 70
     0
  9
$CMLSCALE
 40
1.0
  9
$PROXYGRAPHICS
 70
     1
  9
$MEASUREMENT
 70
     0
  9
$CELWEIGHT
370
    -1
  9
$ENDCAPS
280
     0
  9
$JOINSTYLE
280
     0
  9
$LWDISPLAY
290
     1
  9
$INSUNITS
 70
     1
  9
$HYPERLINKBASE
  1

  9
$STYLESHEET
  1

  9
$XEDIT
290
     1
  9
$CEPSNTYPE
380
     0
  9
$PSTYLEMODE
290
     1
  9
$FINGERPRINTGUID
  2
{63A93653-5C51-496B-A038-B2C6D89A8400}
  9
$VERSIONGUID
  2
{FAEB1C32-E019-11D5-929B-00C0DF256EC4}
  9
$EXTNAMES
290
     1
  9
$PSVPSCALE
 40
0.0
  9
$OLESTARTUP
290
     0
  9
$SORTENTS
280
   127
  9
$INDEXCTL
280
     0
  9
$HIDETEXT
280
     1
  9
$XCLIPFRAME
280
     2
  9
$HALOGAP
280
     0
  9
$OBSCOLOR
 70
   257
  9
$OBSLTYPE
280
     0
  9
$INTERSECTIONDISPLAY
280
     0
  9
$INTERSECTIONCOLOR
 70
   257
  9
$DIMASSOC
280
     2
  9
$PROJECTNAME
  1

  9
$CAMERADISPLAY
290
     0
  9
$LENSLENGTH
 40
50.0
  9
$CAMERAHEIGHT
 40
0.0
  9
$STEPSPERSEC
 40
2.0
  9
$STEPSIZE
 40
6.0
  9
$3DDWFPREC
 40
2.0
  9
$PSOLWIDTH
 40
0.25
  9
$PSOLHEIGHT
 40
4.0
  9
$LOFTANG1
 40
1.570796326794897
  9
$LOFTANG2
 40
1.570796326794897
  9
$LOFTMAG1
 40
0.0
  9
$LOFTMAG2
 40
0.0
  9
$LOFTPARAM
 70
     7
  9
$LOFTNORMALS
280
     1
  9
$LATITUDE
 40
37.795
  9
$LONGITUDE
 40
-122.394
  9
$NORTHDIRECTION
 40
0.0
  9
$TIMEZONE
 70
 -8000
  9
$LIGHTGLYPHDISPLAY
280
     1
  9
$TILEMODELIGHTSYNCH
280
     1
  9
$CMATERIAL
347
3C
  9
$SOLIDHIST
280
     1
  9
$SHOWHIST
280
     1
  9
$DWFFRAME
280
     2
  9
$DGNFRAME
280
     2
  9
$REALWORLDSCALE
290
     1
  9
$INTERFERECOLOR
 62
   256
  9
$CSHADOW
280
     0
  9
$SHADOWPLANELOCATION
 40
0.0
  0
ENDSEC
  0
SECTION
  2
CLASSES
  0
CLASS
  1
ACDBDICTIONARYWDFLT
  2
AcDbDictionaryWithDefault
  3
ObjectDBX Classes
 90
        0
 91
        4
280
     0
281
     0
  0
CLASS
  1
VISUALSTYLE
  2
AcDbVisualStyle
  3
ObjectDBX Classes
 90
     4095
 91
        4
280
     0
281
     0
  0
CLASS
  1
MATERIAL
  2
AcDbMaterial
  3
ObjectDBX Classes
 90
     1153
 91
        4
280
     0
281
     0
  0
CLASS
  1
SUN
  2
AcDbSun
  3
SCENEOE
 90
     1024
 91
        4
280
     0
281
     0
  0
ENDSEC
  0
SECTION
  2
TABLES
  0
TABLE
  2
VPORT
  5
8
330
0
100
AcDbSymbolTable
 70
     1
  0
VPORT
  5
29
330
8
100
AcDbSymbolTableRecord
100
AcDbViewportTableRecord
  2
*Active
 70
     0
 10
0.0
 20
0.0
 11
1.0
 21
1.0
 12
0.0
 22
0.0
 13
0.0
 23
0.0
 14
0.5
 24
0.5
 15
0.5
 25
0.5
 16
0.0
 26
0.0
 36
1.0
 17
1000.0
 27
-1000.0
 37
0.0
 40
2000.0
 41
1.0
 42
50.0
 43
0.0
 44
0.0
 50
0.0
 51
0.0
 71
     0
 72
   100
 73
     1
 74
     3
 75
     0
 76
     0
 77
     0
 78
     0
281
     0
 65
     1
110
0.0
120
0.0
130
0.0
111
1.0
121
0.0
131
0.0
112
0.0
122
1.0
132
0.0
 79
     0
146
0.0
 60
     3
 61
     5
292
     1
282
     1
141
0.0
142
0.0
 63
   250
361
3F
  0
ENDTAB
  0
TABLE
  2
LTYPE
  5
5
330
0
100
AcDbSymbolTable
 70
     1
  0
LTYPE
  5
14
330
5
100
AcDbSymbolTableRecord
100
AcDbLinetypeTableRecord
  2
ByBlock
 70
     0
  3

 72
    65
 73
     0
 40
0.0
  0
LTYPE
  5
15
330
5
100
AcDbSymbolTableRecord
100
AcDbLinetypeTableRecord
  2
ByLayer
 70
     0
  3

 72
    65
 73
     0
 40
0.0
  0
LTYPE
  5
16
330
5
100
AcDbSymbolTableRecord
100
AcDbLinetypeTableRecord
  2
Continuous
 70
     0
  3
Solid line
 72
    65
 73
     0
 40
0.0
  0
ENDTAB
  0
TABLE
  2
LAYER
  5
2
330
0
100
AcDbSymbolTable
 70
     2
  0
LAYER
  5
10
330
2
100
AcDbSymbolTableRecord
100
AcDbLayerTableRecord
  2
0
 70
     0
 62
     7
  6
Continuous
370
    -3
390
F
347
3E
  0
LAYER
  5
40
330
2
100
AcDbSymbolTableRecord
100
AcDbLayerTableRecord
  2
Layer 1
 70
     0
 62
     7
  6
Continuous
370
    -3
390
F
347
3E
  0
ENDTAB
  0
TABLE
  2
STYLE
  5
3
330
0
100
AcDbSymbolTable
 70
     1
  0
STYLE
  5
11
330
3
100
AcDbSymbolTableRecord
100
AcDbTextStyleTableRecord
  2
Standard
 70
     0
 40
0.0
 41
1.0
 50
0.0
 71
     0
 42
0.2
  3
txt
  4

  0
ENDTAB
  0
TABLE
  2
VIEW
  5
6
330
0
100
AcDbSymbolTable
 70
     0
  0
ENDTAB
  0
TABLE
  2
UCS
  5
7
330
0
100
AcDbSymbolTable
 70
     0
  0
ENDTAB
  0
TABLE
  2
APPID
  5
9
330
0
100
AcDbSymbolTable
 70
     1
  0
APPID
  5
12
330
9
100
AcDbSymbolTableRecord
100
AcDbRegAppTableRecord
  2
ACAD
 70
     0
  0
ENDTAB
  0
TABLE
  2
DIMSTYLE
  5
A
330
0
100
AcDbSymbolTable
 70
     1
100
AcDbDimStyleTable
  0
DIMSTYLE
105
27
330
A
100
AcDbSymbolTableRecord
100
AcDbDimStyleTableRecord
  2
Standard
 70
     0
178
     0
340
11
  0
ENDTAB
  0
TABLE
  2
BLOCK_RECORD
  5
1
330
0
100
AcDbSymbolTable
 70
     1
  0
BLOCK_RECORD
  5
1F
330
1
100
AcDbSymbolTableRecord
100
AcDbBlockTableRecord
  2
*Model_Space
340
22
 70
     0
280
     1
281
     0
  0
BLOCK_RECORD
  5
1B
330
1
100
AcDbSymbolTableRecord
100
AcDbBlockTableRecord
  2
*Paper_Space
340
1E
 70
     0
280
     1
281
     0
  0
BLOCK_RECORD
  5
23
330
1
100
AcDbSymbolTableRecord
100
AcDbBlockTableRecord
  2
*Paper_Space0
340
26
 70
     0
280
     1
281
     0
  0
ENDTAB
  0
ENDSEC
  0
SECTION
  2
BLOCKS
  0
BLOCK
  5
20
330
1F
100
AcDbEntity
  8
0
100
AcDbBlockBegin
  2
*Model_Space
 70
     0
 10
0.0
 20
0.0
 30
0.0
  3
*Model_Space
  1

  0
ENDBLK
  5
21
330
1F
100
AcDbEntity
  8
0
100
AcDbBlockEnd
  0
BLOCK
  5
1C
330
1B
100
AcDbEntity
 67
     1
  8
0
100
AcDbBlockBegin
  2
*Paper_Space
 70
     0
 10
0.0
 20
0.0
 30
0.0
  3
*Paper_Space
  1

  0
ENDBLK
  5
1D
330
1B
100
AcDbEntity
 67
     1
  8
0
100
AcDbBlockEnd
  0
BLOCK
  5
24
330
23
100
AcDbEntity
  8
0
100
AcDbBlockBegin
  2
*Paper_Space0
 70
     0
 10
0.0
 20
0.0
 30
0.0
  3
*Paper_Space0
  1

  0
ENDBLK
  5
25
330
23
100
AcDbEntity
  8
0
100
AcDbBlockEnd
  0
ENDSEC
  0
SECTION
  2
ENTITIES
  0
SPLINE
  5
41
330
1F
100
AcDbEntity
  8
Layer 1
370
     0
100
AcDbSpline
210
0.0
220
0.0
230
1.0
 70
    11
 71
     3
 72
   173
 73
   169
 74
     0
 42
0.0000000001
 43
0.0000000001
 12
1.0
 22
0.0
 32
0.0
 13
1.0
 23
0.0
 33
0.0
 40
0.0
 40
0.0
 40
0.0
 40
0.0
 40
1.0
 40
1.0
 40
1.0
 40
2.0
 40
2.0
 40
2.0
 40
3.0
 40
3.0
 40
3.0
 40
4.0
 40
4.0
 40
4.0
 40
5.0
 40
5.0
 40
5.0
 40
6.0
 40
6.0
 40
6.0
 40
7.0
 40
7.0
 40
7.0
 40
8.0
 40
8.0
 40
8.0
 40
9.0
 40
9.0
 40
9.0
 40
10.0
 40
10.0
 40
10.0
 40
11.0
 40
11.0
 40
11.0
 40
12.0
 40
12.0
 40
12.0
 40
13.0
 40
13.0
 40
13.0
 40
14.0
 40
14.0
 40
14.0
 40
15.0
 40
15.0
 40
15.0
 40
16.0
 40
16.0
 40
16.0
 40
17.0
 40
17.0
 40
17.0
 40
18.0
 40
18.0
 40
18.0
 40
19.0
 40
19.0
 40
19.0
 40
20.0
 40
20.0
 40
20.0
 40
21.0
 40
21.0
 40
21.0
 40
22.0
 40
22.0
 40
22.0
 40
23.0
 40
23.0
 40
23.0
 40
24.0
 40
24.0
 40
24.0
 40
25.0
 40
25.0
 40
25.0
 40
26.0
 40
26.0
 40
26.0
 40
27.0
 40
27.0
 40
27.0
 40
28.0
 40
28.0
 40
28.0
 40
29.0
 40
29.0
 40
29.0
 40
30.0
 40
30.0
 40
30.0
 40
31.0
 40
31.0
 40
31.0
 40
32.0
 40
32.0
 40
32.0
 40
33.0
 40
33.0
 40
33.0
 40
34.0
 40
34.0
 40
34.0
 40
35.0
 40
35.0
 40
35.0
 40
36.0
 40
36.0
 40
36.0
 40
37.0
 40
37.0
 40
37.0
 40
38.0
 40
38.0
 40
38.0
 40
39.0
 40
39.0
 40
39.0
 40
40.0
 40
40.0
 40
40.0
 40
41.0
 40
41.0
 40
41.0
 40
42.0
 40
42.0
 40
42.0
 40
43.0
 40
43.0
 40
43.0
 40
44.0
 40
44.0
 40
44.0
 40
45.0
 40
45.0
 40
45.0
 40
46.0
 40
46.0
 40
46.0
 40
47.0
 40
47.0
 40
47.0
 40
48.0
 40
48.0
 40
48.0
 40
49.0
 40
49.0
 40
49.0
 40
50.0
 40
50.0
 40
50.0
 40
51.0
 40
51.0
 40
51.0
 40
52.0
 40
52.0
 40
52.0
 40
53.0
 40
53.0
 40
53.0
 40
54.0
 40
54.0
 40
54.0
 40
55.0
 40
55.0
 40
55.0
 40
56.0
 40
56.0
 40
56.0
 40
56.0
 10
1898.466213344667
 20
-552.0284742881431
 30
0.0
 10
1898.466213344667
 20
-561.849717218608
 30
0.0
 10
1898.466213344667
 20
-571.6709601490729
 30
0.0
 10
1898.466213344667
 20
-581.4922030795387
 30
0.0
 10
1886.829712912726
 20
-639.2305568515612
 30
0.0
 10
1854.15972355466
 20
-681.0238523780399
 30
0.0
 10
1805.075238642094
 20
-713.1434049489408
 30
0.0
 10
1790.878225565044
 20
-722.4334681374776
 30
0.0
 10
1778.693985830872
 20
-742.1088108635286
 30
0.0
 10
1775.047885359403
 20
-759.0582701318808
 30
0.0
 10
1745.538898765197
 20
-896.2341459400814
 30
0.0
 10
1719.075222803163
 20
-1034.065510587665
 30
0.0
 10
1689.516182877371
 20
-1171.229997015027
 30
0.0
 10
1684.931207787991
 20
-1192.50566014427
 30
0.0
 10
1671.730465813873
 20
-1213.199715549315
 30
0.0
 10
1658.378364962802
 20
-1231.0732507335
 30
0.0
 10
1617.33418348202
 20
-1286.016223345661
 30
0.0
 10
1573.714053747884
 20
-1339.027197302739
 30
0.0
 10
1532.19331659512
 20
-1393.624367332166
 30
0.0
 10
1500.059377437894
 20
-1435.87829587649
 30
0.0
 10
1494.237755365755
 20
-1479.714374265759
 30
0.0
 10
1516.88613860674
 20
-1530.975279940641
 30
0.0
 10
1537.743391850396
 20
-1578.182764918758
 30
0.0
 10
1549.868436776254
 20
-1629.442771431994
 30
0.0
 10
1563.681058249964
 20
-1679.513187088571
 30
0.0
 10
1577.503570501769
 20
-1729.619419350685
 30
0.0
 10
1553.960371563491
 20
-1763.07227878121
 30
0.0
 10
1508.199188091752
 20
-1779.019959581554
 30
0.0
 10
1468.326764094998
 20
-1792.915753507448
 30
0.0
 10
1426.948244342457
 20
-1804.826198520641
 30
0.0
 10
1385.261611866146
 20
-1810.687833285994
 30
0.0
 10
1301.328244138675
 20
-1822.489929320935
 30
0.0
 10
1216.731969488244
 20
-1829.578170430677
 30
0.0
 10
1132.409264768381
 20
-1838.611298179085
 30
0.0
 10
1037.47060808393
 20
-1838.611298179085
 30
0.0
 10
942.531876469342
 20
-1838.611298179085
 30
0.0
 10
847.5932197848906
 20
-1838.611298179085
 30
0.0
 10
824.9624451261243
 20
-1835.691870177248
 30
0.0
 10
802.1552099944793
 20
-1833.745335075566
 30
0.0
 10
779.7325912565875
 20
-1829.678576814396
 30
0.0
 10
696.2464440524191
 20
-1814.537144289288
 30
0.0
 10
611.7689711343683
 20
-1803.026526487682
 30
0.0
 10
529.8060412223131
 20
-1781.857863594221
 30
0.0
 10
453.7410122619713
 20
-1762.212230667534
 30
0.0
 10
438.9597689059219
 20
-1730.521578201413
 30
0.0
 10
459.065884990182
 20
-1653.550793743761
 30
0.0
 10
470.1788860192473
 20
-1611.007859660629
 30
0.0
 10
483.0185021975949
 20
-1568.044267787795
 30
0.0
 10
502.1206293748019
 20
-1528.687662854863
 30
0.0
 10
524.3445708541622
 20
-1482.899054952943
 30
0.0
 10
518.6967867001031
 20
-1443.053455945272
 30
0.0
 10
490.7056598932077
 20
-1404.734933131775
 30
0.0
 10
451.1658507750572
 20
-1350.606600970206
 30
0.0
 10
407.7823316813601
 20
-1299.188566797819
 30
0.0
 10
370.0391224605464
 20
-1243.883906413857
 30
0.0
 10
349.3599406877165
 20
-1213.583133060874
 30
0.0
 10
330.2612977618855
 20
-1179.247446754993
 30
0.0
 10
321.9195878536029
 20
-1144.015521079211
 30
0.0
 10
292.2166258669695
 20
-1018.562839871582
 30
0.0
 10
268.3444274292024
 20
-891.7390120850887
 30
0.0
 10
239.8545187984091
 20
-765.9803161975269
 30
0.0
 10
235.3281484425115
 20
-746.0002700689438
 30
0.0
 10
222.611651845692
 20
-722.7626736948432
 30
0.0
 10
206.4051436192576
 20
-711.526187799831
 30
0.0
 10
162.5208945180975
 20
-681.0998690021315
 30
0.0
 10
132.446602187646
 20
-643.4575532109284
 30
0.0
 10
120.8212429304649
 20
-591.3134460100036
 30
0.0
 10
120.8212429304649
 20
-574.9446953042052
 30
0.0
 10
120.8212429304649
 20
-558.5759820634757
 30
0.0
 10
120.8212429304649
 20
-542.2072313576773
 30
0.0
 10
135.8274663647353
 20
-462.3627824794239
 30
0.0
 10
219.3200271203268
 20
-404.4787832534057
 30
0.0
 10
307.3973217839184
 20
-425.4843232383901
 30
0.0
 10
385.7943639362729
 20
-444.1812282341398
 30
0.0
 10
430.6052084791254
 20
-524.0361111339853
 30
0.0
 10
412.5400020042298
 20
-619.7187866148088
 30
0.0
 10
398.5415163254347
 20
-693.8619324885767
 30
0.0
 10
424.4191824177151
 20
-755.2780072499272
 30
0.0
 10
463.8905615881558
 20
-813.0739822973828
 30
0.0
 10
488.4886644616499
 20
-849.0917752511077
 30
0.0
 10
518.2440213466534
 20
-881.5874771102699
 30
0.0
 10
545.6848986917275
 20
-915.6638302116371
 30
0.0
 10
550.4875458293936
 20
-912.972789267692
 30
0.0
 10
555.2901929670588
 20
-910.2817483237468
 30
0.0
 10
560.0928401047258
 20
-907.5907073798026
 30
0.0
 10
560.0928401047258
 20
-811.7788898076815
 30
0.0
 10
566.2857410062152
 20
-715.3743748510688
 30
0.0
 10
557.198701024161
 20
-620.4323463104483
 30
0.0
 10
553.2873853324127
 20
-579.5665360210405
 30
0.0
 10
516.0132013048005
 20
-542.5308546198285
 30
0.0
 10
497.0216710099585
 20
-502.2803331512487
 30
0.0
 10
480.2909328118121
 20
-466.8213878925781
 30
0.0
 10
456.1096288259578
 20
-429.3416704988895
 30
0.0
 10
456.0073866538796
 20
-392.6963376469203
 30
0.0
 10
455.7766767617377
 20
-309.9668911648287
 30
0.0
 10
539.6786862268318
 20
-246.1879881925825
 30
0.0
 10
621.3810091220394
 20
-256.7282419861613
 30
0.0
 10
704.4653809310576
 20
-267.4467920409788
 30
0.0
 10
762.0217294000558
 20
-346.2560436100748
 30
0.0
 10
748.8759112164335
 20
-430.4212077166776
 30
0.0
 10
743.8522951044479
 20
-462.5849128708678
 30
0.0
 10
734.4936333753931
 20
-495.4895272207395
 30
0.0
 10
737.1985363947015
 20
-527.1958400855146
 30
0.0
 10
748.6358350571527
 20
-661.261066181989
 30
0.0
 10
799.1436928541416
 20
-783.617783984766
 30
0.0
 10
857.7879894488178
 20
-902.9637714136443
 30
0.0
 10
858.5826235528029
 20
-904.581063492893
 30
0.0
 10
863.411046657633
 20
-904.216303585471
 30
0.0
 10
869.1726496899528
 20
-905.3122317707512
 30
0.0
 10
871.8562725503243
 20
-892.850450808749
 30
0.0
 10
874.6122779231382
 20
-880.5052611400806
 30
0.0
 10
877.1676203887882
 20
-868.118635105594
 30
0.0
 10
912.4466771208072
 20
-697.110790838191
 30
0.0
 10
940.6331467951322
 20
-527.2320688068039
 30
0.0
 10
869.1439514474423
 20
-356.625025842769
 30
0.0
 10
845.2987091264986
 20
-299.7187525107493
 30
0.0
 10
885.2175898082569
 20
-232.5902569858199
 30
0.0
 10
945.5331281808958
 20
-203.6014002798865
 30
0.0
 10
1009.023081811936
 20
-173.0868866619458
 30
0.0
 10
1076.984191654094
 20
-187.2726587549514
 30
0.0
 10
1118.541944294586
 20
-239.0331295078213
 30
0.0
 10
1159.16441896375
 20
-289.6288101086293
 30
0.0
 10
1156.174107052213
 20
-342.644635792085
 30
0.0
 10
1134.306645700122
 20
-400.5258438704959
 30
0.0
 10
1070.70369742233
 20
-568.8772649172961
 30
0.0
 10
1114.178687480897
 20
-734.1215954338832
 30
0.0
 10
1147.259893431388
 20
-901.7295221952718
 30
0.0
 10
1155.905332650422
 20
-898.0844707457218
 30
0.0
 10
1160.378586905379
 20
-897.6508500423024
 30
0.0
 10
1161.332747271259
 20
-895.5889225294804
 30
0.0
 10
1228.116704659516
 20
-751.2635127593867
 30
0.0
 10
1296.518029057161
 20
-607.35782415228
 30
0.0
 10
1268.957600678337
 20
-440.5399045589111
 30
0.0
 10
1265.793300988445
 20
-421.3871246090221
 30
0.0
 10
1265.368821761753
 20
-401.2237993650833
 30
0.0
 10
1267.297898141489
 20
-381.8906251101171
 30
0.0
 10
1273.431529304529
 20
-320.4204133247094
 30
0.0
 10
1322.038109802648
 20
-272.1818802937778
 30
0.0
 10
1389.708265922432
 20
-258.1294730150703
 30
0.0
 10
1448.568286381829
 20
-245.9066021120898
 30
0.0
 10
1511.278966586991
 20
-276.5338694881011
 30
0.0
 10
1542.188697164214
 20
-332.5995765420903
 30
0.0
 10
1573.163317240171
 20
-388.7826054582511
 30
0.0
 10
1568.150491067929
 20
-459.0774144205061
 30
0.0
 10
1523.552373184313
 20
-500.2471413460071
 30
0.0
 10
1481.179530512407
 20
-539.3626960278762
 30
0.0
 10
1455.774767247922
 20
-586.5349263764856
 30
0.0
 10
1453.141422509547
 20
-641.451111464632
 30
0.0
 10
1449.235314462328
 20
-722.9047786998608
 30
0.0
 10
1453.079979797123
 20
-804.7510423884441
 30
0.0
 10
1454.54306565421
 20
-886.4137272411244
 30
0.0
 10
1454.717802733936
 20
-896.1595155235254
 30
0.0
 10
1460.625744324021
 20
-905.8026495180957
 30
0.0
 10
1465.760107178645
 20
-921.1099024366131
 30
0.0
 10
1552.7628381123
 20
-823.0346702129982
 30
0.0
 10
1634.810139358731
 20
-731.0284793742394
 30
0.0
 10
1600.839662541093
 20
-591.0554615479559
 30
0.0
 10
1598.579619745769
 20
-581.7431441086992
 30
0.0
 10
1599.80203000248
 20
-571.4785020919226
 30
0.0
 10
1600.075974583731
 20
-561.6755795799791
 30
0.0
 10
1601.901572444127
 20
-496.2989225617348
 30
0.0
 10
1642.433081926847
 20
-446.0516343165245
 30
0.0
 10
1708.824180606271
 20
-426.5757930805121
 30
0.0
 10
1768.447139721658
 20
-409.0853382222713
 30
0.0
 10
1833.530707508622
 20
-432.4087670684239
 30
0.0
 10
1867.464468559079
 20
-485.9938932010591
 30
0.0
 10
1880.3717841163
 20
-506.3758271199986
 30
0.0
 10
1888.279760925958
 20
-529.9235593315716
 30
0.0
 10
1898.466213344667
 20
-552.0284742881431
 30
0.0
  0
SPLINE
  5
42
330
1F
100
AcDbEntity
  8
Layer 1
370
     0
100
AcDbSpline
210
0.0
220
0.0
230
1.0
 70
    11
 71
     3
 72
    35
 73
    31
 74
     0
 42
0.0000000001
 43
0.0000000001
 12
1.0
 22
0.0
 32
0.0
 13
1.0
 23
0.0
 33
0.0
 40
0.0
 40
0.0
 40
0.0
 40
0.0
 40
1.0
 40
1.0
 40
1.0
 40
2.0
 40
2.0
 40
2.0
 40
3.0
 40
3.0
 40
3.0
 40
4.0
 40
4.0
 40
4.0
 40
5.0
 40
5.0
 40
5.0
 40
6.0
 40
6.0
 40
6.0
 40
7.0
 40
7.0
 40
7.0
 40
8.0
 40
8.0
 40
8.0
 40
9.0
 40
9.0
 40
9.0
 40
10.0
 40
10.0
 40
10.0
 40
10.0
 10
992.2527430363298
 20
-1174.432586004979
 30
0.0
 10
883.3212578984349
 20
-1185.502015159318
 30
0.0
 10
755.0341943945805
 20
-1196.40322615586
 30
0.0
 10
627.5634947344715
 20
-1213.4200101524
 30
0.0
 10
604.0546137989868
 20
-1216.558309084718
 30
0.0
 10
583.8492902132011
 20
-1244.443409747611
 30
0.0
 10
562.1191383373543
 20
-1260.90631017068
 30
0.0
 10
586.2048314682634
 20
-1269.445648315574
 30
0.0
 10
610.3355201465038
 20
-1285.470956737958
 30
0.0
 10
634.3690619019899
 20
-1285.326641293896
 30
0.0
 10
808.9887635682062
 20
-1284.278068955266
 30
0.0
 10
983.5788303651971
 20
-1278.614549472413
 30
0.0
 10
1158.19969344854
 20
-1277.329122970399
 30
0.0
 10
1233.272347673079
 20
-1276.776438279121
 30
0.0
 10
1308.388910957961
 20
-1283.35507952642
 30
0.0
 10
1383.502701827772
 20
-1286.246558587118
 30
0.0
 10
1398.144799919221
 20
-1286.810258008551
 30
0.0
 10
1413.778373584824
 20
-1288.160199358612
 30
0.0
 10
1427.2617520361
 20
-1283.851117034048
 30
0.0
 10
1437.96042687205
 20
-1280.431905017729
 30
0.0
 10
1451.993792529665
 20
-1269.986494045188
 30
0.0
 10
1453.673876063807
 20
-1260.694857323773
 30
0.0
 10
1455.371942830852
 20
-1251.304612541928
 30
0.0
 10
1446.243354087774
 20
-1233.758072476065
 30
0.0
 10
1437.393355594448
 20
-1229.822142234278
 30
0.0
 10
1410.880675322747
 20
-1218.030386558257
 30
0.0
 10
1382.682966127857
 20
-1205.99435863528
 30
0.0
 10
1354.255146481921
 20
-1203.24989250358
 30
0.0
 10
1240.624642585975
 20
-1192.280270291862
 30
0.0
 10
1126.65800209498
 20
-1184.79332592259
 30
0.0
 10
992.2527430363298
 20
-1174.432586004979
 30
0.0
  0
SPLINE
  5
43
330
1F
100
AcDbEntity
  8
Layer 1
370
     0
100
AcDbSpline
210
0.0
220
0.0
230
1.0
 70
    11
 71
     3
 72
    32
 73
    28
 74
     0
 42
0.0000000001
 43
0.0000000001
 12
1.0
 22
0.0
 32
0.0
 13
1.0
 23
0.0
 33
0.0
 40
0.0
 40
0.0
 40
0.0
 40
0.0
 40
1.0
 40
1.0
 40
1.0
 40
2.0
 40
2.0
 40
2.0
 40
3.0
 40
3.0
 40
3.0
 40
4.0
 40
4.0
 40
4.0
 40
5.0
 40
5.0
 40
5.0
 40
6.0
 40
6.0
 40
6.0
 40
7.0
 40
7.0
 40
7.0
 40
8.0
 40
8.0
 40
8.0
 40
9.0
 40
9.0
 40
9.0
 40
9.0
 10
1369.477728345511
 20
-1600.965422965433
 30
0.0
 10
1378.499616573354
 20
-1595.729754565444
 30
0.0
 10
1399.020283641141
 20
-1583.820958015267
 30
0.0
 10
1419.540950708926
 20
-1571.912311325366
 30
0.0
 10
1402.355873624452
 20
-1555.248747995132
 30
0.0
 10
1387.266592474769
 20
-1535.134651851271
 30
0.0
 10
1367.3192908161
 20
-1523.018598541867
 30
0.0
 10
1351.493296558414
 20
-1513.405811252824
 30
0.0
 10
1329.905849128681
 20
-1512.098430220636
 30
0.0
 10
1310.554242059987
 20
-1509.652410825021
 30
0.0
 10
1115.118910841275
 20
-1484.948244342457
 30
0.0
 10
919.4888361962312
 20
-1485.482646080281
 30
0.0
 10
724.1719320592119
 20
-1509.725242918286
 30
0.0
 10
689.1191268761777
 20
-1514.076136259353
 30
0.0
 10
654.7701404709587
 20
-1527.247655480003
 30
0.0
 10
621.3597664281706
 20
-1539.728918277651
 30
0.0
 10
611.5614146545904
 20
-1543.389255475171
 30
0.0
 10
598.3029015447646
 20
-1561.101690864582
 30
0.0
 10
600.4578548228001
 20
-1568.140328223562
 30
0.0
 10
603.9457403097749
 20
-1579.532556408545
 30
0.0
 10
617.4692063843995
 20
-1590.551632510751
 30
0.0
 10
629.3728702201843
 20
-1595.880813721846
 30
0.0
 10
640.4568358211227
 20
-1600.842987121405
 30
0.0
 10
655.1467768051107
 20
-1599.958961363855
 30
0.0
 10
667.9250252011707
 20
-1598.600028397341
 30
0.0
 10
896.2807248310801
 20
-1574.314271800364
 30
0.0
 10
1124.591578773934
 20
-1578.698583982579
 30
0.0
 10
1369.477728345511
 20
-1600.965422965433
 30
0.0
  0
SPLINE
  5
44
330
1F
100
AcDbEntity
  8
Layer 1
370
     0
100
AcDbSpline
210
0.0
220
0.0
230
1.0
 70
    11
 71
     3
 72
    17
 73
    13
 74
     0
 42
0.0000000001
 43
0.0000000001
 12
1.0
 22
0.0
 32
0.0
 13
1.0
 23
0.0
 33
0.0
 40
0.0
 40
0.0
 40
0.0
 40
0.0
 40
1.0
 40
1.0
 40
1.0
 40
2.0
 40
2.0
 40
2.0
 40
3.0
 40
3.0
 40
3.0
 40
4.0
 40
4.0
 40
4.0
 40
4.0
 10
604.5522248394927
 20
-462.6184066421538
 30
0.0
 10
641.0941166371904
 20
-461.975899449023
 30
0.0
 10
657.9965572445099
 20
-442.4995711671199
 30
0.0
 10
657.6403019076497
 20
-406.8461447375958
 30
0.0
 10
657.2737436769385
 20
-370.1628223061152
 30
0.0
 10
635.751448001417
 20
-351.937433930626
 30
0.0
 10
601.8809654517436
 20
-352.6233444056734
 30
0.0
 10
565.9844843899891
 20
-353.3502978633205
 30
0.0
 10
544.0492112638203
 20
-372.501729070741
 30
0.0
 10
546.0712010135658
 20
-411.9436606972995
 30
0.0
 10
547.9924097289058
 20
-449.4190883406391
 30
0.0
 10
570.1463289951434
 20
-462.9211805936557
 30
0.0
 10
604.5522248394927
 20
-462.6184066421538
 30
0.0
  0
SPLINE
  5
45
330
1F
100
AcDbEntity
  8
Layer 1
370
     0
100
AcDbSpline
210
0.0
220
0.0
230
1.0
 70
    11
 71
     3
 72
    17
 73
    13
 74
     0
 42
0.0000000001
 43
0.0000000001
 12
1.0
 22
0.0
 32
0.0
 13
1.0
 23
0.0
 33
0.0
 40
0.0
 40
0.0
 40
0.0
 40
0.0
 40
1.0
 40
1.0
 40
1.0
 40
2.0
 40
2.0
 40
2.0
 40
3.0
 40
3.0
 40
3.0
 40
4.0
 40
4.0
 40
4.0
 40
4.0
 10
1414.557796870979
 20
-352.3361371901547
 30
0.0
 10
1382.85185865689
 20
-355.1533979500509
 30
0.0
 10
1362.97574062847
 20
-373.119509318627
 30
0.0
 10
1362.375100649446
 20
-407.9024348803478
 30
0.0
 10
1361.775209971793
 20
-442.6462656430349
 30
0.0
 10
1378.457355976027
 20
-462.483850848449
 30
0.0
 10
1415.261240998108
 20
-462.5381939303834
 30
0.0
 10
1451.408588158885
 20
-462.5915441880015
 30
0.0
 10
1469.54992365308
 20
-443.8903681744378
 30
0.0
 10
1469.966685075651
 20
-409.0185192725085
 30
0.0
 10
1470.380599153012
 20
-374.3930593939112
 30
0.0
 10
1452.255148847884
 20
-354.8633059242538
 30
0.0
 10
1414.557796870979
 20
-352.3361371901547
 30
0.0
  0
SPLINE
  5
46
330
1F
100
AcDbEntity
  8
Layer 1
370
     0
100
AcDbSpline
210
0.0
220
0.0
230
1.0
 70
    11
 71
     3
 72
    17
 73
    13
 74
     0
 42
0.0000000001
 43
0.0000000001
 12
1.0
 22
0.0
 32
0.0
 13
1.0
 23
0.0
 33
0.0
 40
0.0
 40
0.0
 40
0.0
 40
0.0
 40
1.0
 40
1.0
 40
1.0
 40
2.0
 40
2.0
 40
2.0
 40
3.0
 40
3.0
 40
3.0
 40
4.0
 40
4.0
 40
4.0
 40
4.0
 10
324.544371823813
 20
-579.1729280108339
 30
0.0
 10
323.4150435299198
 20
-532.0504887383304
 30
0.0
 10
305.9776017436789
 20
-513.8869739235543
 30
0.0
 10
269.7019741881795
 20
-514.419577338088
 30
0.0
 10
232.92387449953
 20
-514.9594864409892
 30
0.0
 10
215.4149680950268
 20
-538.0493580497896
 30
0.0
 10
215.2711865281917
 20
-569.9878794094484
 30
0.0
 10
215.11826348463
 20
-603.9555838120141
 30
0.0
 10
240.0782601878009
 20
-624.4911619770846
 30
0.0
 10
272.2590213144485
 20
-624.6063295978129
 30
0.0
 10
305.8109758512946
 20
-624.7264051425218
 30
0.0
 10
325.4262058748536
 20
-603.5811953819757
 30
0.0
 10
324.544371823813
 20
-579.1729280108339
 30
0.0
  0
SPLINE
  5
47
330
1F
100
AcDbEntity
  8
Layer 1
370
     0
100
AcDbSpline
210
0.0
220
0.0
230
1.0
 70
    11
 71
     3
 72
    17
 73
    13
 74
     0
 42
0.0000000001
 43
0.0000000001
 12
1.0
 22
0.0
 32
0.0
 13
1.0
 23
0.0
 33
0.0
 40
0.0
 40
0.0
 40
0.0
 40
0.0
 40
1.0
 40
1.0
 40
1.0
 40
2.0
 40
2.0
 40
2.0
 40
3.0
 40
3.0
 40
3.0
 40
4.0
 40
4.0
 40
4.0
 40
4.0
 10
1799.935181097049
 20
-568.6365518518505
 30
0.0
 10
1800.029293349253
 20
-536.9008289082631
 30
0.0
 10
1783.176906073517
 20
-516.7656024657381
 30
0.0
 10
1747.314293433734
 20
-514.8908504354022
 30
0.0
 10
1713.164583728143
 20
-513.1056024538357
 30
0.0
 10
1695.8648635339
 20
-530.2193835128573
 30
0.0
 10
1693.868125240358
 20
-564.1892234243305
 30
0.0
 10
1691.795707508341
 20
-599.4466628117952
 30
0.0
 10
1707.199095792763
 20
-622.9351627499882
 30
0.0
 10
1742.549785735853
 20
-624.7250938651232
 30
0.0
 10
1776.022127002027
 20
-626.4199761013415
 30
0.0
 10
1798.560512801743
 20
-609.2271812127447
 30
0.0
 10
1799.935181097049
 20
-568.6365518518505
 30
0.0
  0
SPLINE
  5
48
330
1F
100
AcDbEntity
  8
Layer 1
370
     0
100
AcDbSpline
210
0.0
220
0.0
230
1.0
 70
    11
 71
     3
 72
    17
 73
    13
 74
     0
 42
0.0000000001
 43
0.0000000001
 12
1.0
 22
0.0
 32
0.0
 13
1.0
 23
0.0
 33
0.0
 40
0.0
 40
0.0
 40
0.0
 40
0.0
 40
1.0
 40
1.0
 40
1.0
 40
2.0
 40
2.0
 40
2.0
 40
3.0
 40
3.0
 40
3.0
 40
4.0
 40
4.0
 40
4.0
 40
4.0
 10
1070.522965931636
 20
-345.3906941891983
 30
0.0
 10
1062.470448887505
 20
-298.0905487302853
 30
0.0
 10
1045.643088277564
 20
-277.5473838888338
 30
0.0
 10
1010.199484964465
 20
-277.1865016160073
 30
0.0
 10
977.335501481437
 20
-276.8518729899697
 30
0.0
 10
959.3291151641679
 20
-295.5374354362148
 30
0.0
 10
957.8658045166685
 20
-328.129750340905
 30
0.0
 10
956.2431923976856
 20
-364.2724518331825
 30
0.0
 10
977.1643610482924
 20
-385.9666372432193
 30
0.0
 10
1010.596839481526
 20
-381.4535950854597
 30
0.0
 10
1031.808362413409
 20
-378.5902522912447
 30
0.0
 10
1050.629688901819
 20
-358.0200376702978
 30
0.0
 10
1070.522965931636
 20
-345.3906941891983
 30
0.0
  0
HATCH
  5
49
330
1F
100
AcDbEntity
  8
Layer 1
 62
     7
420
 16777215
100
AcDbHatch
 10
0.0
 20
0.0
 30
0.0
210
0.0
220
0.0
230
1.0
  2
SOLID
 70
     1
 71
     0
 91
        8
 92
        1
 93
        1
 72
     4
 94
        3
 73
     0
 74
     1
 95
      173
 96
      169
 40
0.0
 40
0.0
 40
0.0
 40
0.0
 40
1.0
 40
1.0
 40
1.0
 40
2.0
 40
2.0
 40
2.0
 40
3.0
 40
3.0
 40
3.0
 40
4.0
 40
4.0
 40
4.0
 40
5.0
 40
5.0
 40
5.0
 40
6.0
 40
6.0
 40
6.0
 40
7.0
 40
7.0
 40
7.0
 40
8.0
 40
8.0
 40
8.0
 40
9.0
 40
9.0
 40
9.0
 40
10.0
 40
10.0
 40
10.0
 40
11.0
 40
11.0
 40
11.0
 40
12.0
 40
12.0
 40
12.0
 40
13.0
 40
13.0
 40
13.0
 40
14.0
 40
14.0
 40
14.0
 40
15.0
 40
15.0
 40
15.0
 40
16.0
 40
16.0
 40
16.0
 40
17.0
 40
17.0
 40
17.0
 40
18.0
 40
18.0
 40
18.0
 40
19.0
 40
19.0
 40
19.0
 40
20.0
 40
20.0
 40
20.0
 40
21.0
 40
21.0
 40
21.0
 40
22.0
 40
22.0
 40
22.0
 40
23.0
 40
23.0
 40
23.0
 40
24.0
 40
24.0
 40
24.0
 40
25.0
 40
25.0
 40
25.0
 40
26.0
 40
26.0
 40
26.0
 40
27.0
 40
27.0
 40
27.0
 40
28.0
 40
28.0
 40
28.0
 40
29.0
 40
29.0
 40
29.0
 40
30.0
 40
30.0
 40
30.0
 40
31.0
 40
31.0
 40
31.0
 40
32.0
 40
32.0
 40
32.0
 40
33.0
 40
33.0
 40
33.0
 40
34.0
 40
34.0
 40
34.0
 40
35.0
 40
35.0
 40
35.0
 40
36.0
 40
36.0
 40
36.0
 40
37.0
 40
37.0
 40
37.0
 40
38.0
 40
38.0
 40
38.0
 40
39.0
 40
39.0
 40
39.0
 40
40.0
 40
40.0
 40
40.0
 40
41.0
 40
41.0
 40
41.0
 40
42.0
 40
42.0
 40
42.0
 40
43.0
 40
43.0
 40
43.0
 40
44.0
 40
44.0
 40
44.0
 40
45.0
 40
45.0
 40
45.0
 40
46.0
 40
46.0
 40
46.0
 40
47.0
 40
47.0
 40
47.0
 40
48.0
 40
48.0
 40
48.0
 40
49.0
 40
49.0
 40
49.0
 40
50.0
 40
50.0
 40
50.0
 40
51.0
 40
51.0
 40
51.0
 40
52.0
 40
52.0
 40
52.0
 40
53.0
 40
53.0
 40
53.0
 40
54.0
 40
54.0
 40
54.0
 40
55.0
 40
55.0
 40
55.0
 40
56.0
 40
56.0
 40
56.0
 40
56.0
 10
1898.466213344667
 20
-552.0284742881431
 10
1898.466213344667
 20
-561.849717218608
 10
1898.466213344667
 20
-571.6709601490729
 10
1898.466213344667
 20
-581.4922030795387
 10
1886.829712912726
 20
-639.2305568515612
 10
1854.15972355466
 20
-681.0238523780399
 10
1805.075238642094
 20
-713.1434049489408
 10
1790.878225565044
 20
-722.4334681374776
 10
1778.693985830872
 20
-742.1088108635286
 10
1775.047885359403
 20
-759.0582701318808
 10
1745.538898765197
 20
-896.2341459400814
 10
1719.075222803163
 20
-1034.065510587665
 10
1689.516182877371
 20
-1171.229997015027
 10
1684.931207787991
 20
-1192.50566014427
 10
1671.730465813873
 20
-1213.199715549315
 10
1658.378364962802
 20
-1231.0732507335
 10
1617.33418348202
 20
-1286.016223345661
 10
1573.714053747884
 20
-1339.027197302739
 10
1532.19331659512
 20
-1393.624367332166
 10
1500.059377437894
 20
-1435.87829587649
 10
1494.237755365755
 20
-1479.714374265759
 10
1516.88613860674
 20
-1530.975279940641
 10
1537.743391850396
 20
-1578.182764918758
 10
1549.868436776254
 20
-1629.442771431994
 10
1563.681058249964
 20
-1679.513187088571
 10
1577.503570501769
 20
-1729.619419350685
 10
1553.960371563491
 20
-1763.07227878121
 10
1508.199188091752
 20
-1779.019959581554
 10
1468.326764094998
 20
-1792.915753507448
 10
1426.948244342457
 20
-1804.826198520641
 10
1385.261611866146
 20
-1810.687833285994
 10
1301.328244138675
 20
-1822.489929320935
 10
1216.731969488244
 20
-1829.578170430677
 10
1132.409264768381
 20
-1838.611298179085
 10
1037.47060808393
 20
-1838.611298179085
 10
942.531876469342
 20
-1838.611298179085
 10
847.5932197848906
 20
-1838.611298179085
 10
824.9624451261243
 20
-1835.691870177248
 10
802.1552099944793
 20
-1833.745335075566
 10
779.7325912565875
 20
-1829.678576814396
 10
696.2464440524191
 20
-1814.537144289288
 10
611.7689711343683
 20
-1803.026526487682
 10
529.8060412223131
 20
-1781.857863594221
 10
453.7410122619713
 20
-1762.212230667534
 10
438.9597689059219
 20
-1730.521578201413
 10
459.065884990182
 20
-1653.550793743761
 10
470.1788860192473
 20
-1611.007859660629
 10
483.0185021975949
 20
-1568.044267787795
 10
502.1206293748019
 20
-1528.687662854863
 10
524.3445708541622
 20
-1482.899054952943
 10
518.6967867001031
 20
-1443.053455945272
 10
490.7056598932077
 20
-1404.734933131775
 10
451.1658507750572
 20
-1350.606600970206
 10
407.7823316813601
 20
-1299.188566797819
 10
370.0391224605464
 20
-1243.883906413857
 10
349.3599406877165
 20
-1213.583133060874
 10
330.2612977618855
 20
-1179.247446754993
 10
321.9195878536029
 20
-1144.015521079211
 10
292.2166258669695
 20
-1018.562839871582
 10
268.3444274292024
 20
-891.7390120850887
 10
239.8545187984091
 20
-765.9803161975269
 10
235.3281484425115
 20
-746.0002700689438
 10
222.611651845692
 20
-722.7626736948432
 10
206.4051436192576
 20
-711.526187799831
 10
162.5208945180975
 20
-681.0998690021315
 10
132.446602187646
 20
-643.4575532109284
 10
120.8212429304649
 20
-591.3134460100036
 10
120.8212429304649
 20
-574.9446953042052
 10
120.8212429304649
 20
-558.5759820634757
 10
120.8212429304649
 20
-542.2072313576773
 10
135.8274663647353
 20
-462.3627824794239
 10
219.3200271203268
 20
-404.4787832534057
 10
307.3973217839184
 20
-425.4843232383901
 10
385.7943639362729
 20
-444.1812282341398
 10
430.6052084791254
 20
-524.0361111339853
 10
412.5400020042298
 20
-619.7187866148088
 10
398.5415163254347
 20
-693.8619324885767
 10
424.4191824177151
 20
-755.2780072499272
 10
463.8905615881558
 20
-813.0739822973828
 10
488.4886644616499
 20
-849.0917752511077
 10
518.2440213466534
 20
-881.5874771102699
 10
545.6848986917275
 20
-915.6638302116371
 10
550.4875458293936
 20
-912.972789267692
 10
555.2901929670588
 20
-910.2817483237468
 10
560.0928401047258
 20
-907.5907073798026
 10
560.0928401047258
 20
-811.7788898076815
 10
566.2857410062152
 20
-715.3743748510688
 10
557.198701024161
 20
-620.4323463104483
 10
553.2873853324127
 20
-579.5665360210405
 10
516.0132013048005
 20
-542.5308546198285
 10
497.0216710099585
 20
-502.2803331512487
 10
480.2909328118121
 20
-466.8213878925781
 10
456.1096288259578
 20
-429.3416704988895
 10
456.0073866538796
 20
-392.6963376469203
 10
455.7766767617377
 20
-309.9668911648287
 10
539.6786862268318
 20
-246.1879881925825
 10
621.3810091220394
 20
-256.7282419861613
 10
704.4653809310576
 20
-267.4467920409788
 10
762.0217294000558
 20
-346.2560436100748
 10
748.8759112164335
 20
-430.4212077166776
 10
743.8522951044479
 20
-462.5849128708678
 10
734.4936333753931
 20
-495.4895272207395
 10
737.1985363947015
 20
-527.1958400855146
 10
748.6358350571527
 20
-661.261066181989
 10
799.1436928541416
 20
-783.617783984766
 10
857.7879894488178
 20
-902.9637714136443
 10
858.5826235528029
 20
-904.581063492893
 10
863.411046657633
 20
-904.216303585471
 10
869.1726496899528
 20
-905.3122317707512
 10
871.8562725503243
 20
-892.850450808749
 10
874.6122779231382
 20
-880.5052611400806
 10
877.1676203887882
 20
-868.118635105594
 10
912.4466771208072
 20
-697.110790838191
 10
940.6331467951322
 20
-527.2320688068039
 10
869.1439514474423
 20
-356.625025842769
 10
845.2987091264986
 20
-299.7187525107493
 10
885.2175898082569
 20
-232.5902569858199
 10
945.5331281808958
 20
-203.6014002798865
 10
1009.023081811936
 20
-173.0868866619458
 10
1076.984191654094
 20
-187.2726587549514
 10
1118.541944294586
 20
-239.0331295078213
 10
1159.16441896375
 20
-289.6288101086293
 10
1156.174107052213
 20
-342.644635792085
 10
1134.306645700122
 20
-400.5258438704959
 10
1070.70369742233
 20
-568.8772649172961
 10
1114.178687480897
 20
-734.1215954338832
 10
1147.259893431388
 20
-901.7295221952718
 10
1155.905332650422
 20
-898.0844707457218
 10
1160.378586905379
 20
-897.6508500423024
 10
1161.332747271259
 20
-895.5889225294804
 10
1228.116704659516
 20
-751.2635127593867
 10
1296.518029057161
 20
-607.35782415228
 10
1268.957600678337
 20
-440.5399045589111
 10
1265.793300988445
 20
-421.3871246090221
 10
1265.368821761753
 20
-401.2237993650833
 10
1267.297898141489
 20
-381.8906251101171
 10
1273.431529304529
 20
-320.4204133247094
 10
1322.038109802648
 20
-272.1818802937778
 10
1389.708265922432
 20
-258.1294730150703
 10
1448.568286381829
 20
-245.9066021120898
 10
1511.278966586991
 20
-276.5338694881011
 10
1542.188697164214
 20
-332.5995765420903
 10
1573.163317240171
 20
-388.7826054582511
 10
1568.150491067929
 20
-459.0774144205061
 10
1523.552373184313
 20
-500.2471413460071
 10
1481.179530512407
 20
-539.3626960278762
 10
1455.774767247922
 20
-586.5349263764856
 10
1453.141422509547
 20
-641.451111464632
 10
1449.235314462328
 20
-722.9047786998608
 10
1453.079979797123
 20
-804.7510423884441
 10
1454.54306565421
 20
-886.4137272411244
 10
1454.717802733936
 20
-896.1595155235254
 10
1460.625744324021
 20
-905.8026495180957
 10
1465.760107178645
 20
-921.1099024366131
 10
1552.7628381123
 20
-823.0346702129982
 10
1634.810139358731
 20
-731.0284793742394
 10
1600.839662541093
 20
-591.0554615479559
 10
1598.579619745769
 20
-581.7431441086992
 10
1599.80203000248
 20
-571.4785020919226
 10
1600.075974583731
 20
-561.6755795799791
 10
1601.901572444127
 20
-496.2989225617348
 10
1642.433081926847
 20
-446.0516343165245
 10
1708.824180606271
 20
-426.5757930805121
 10
1768.447139721658
 20
-409.0853382222713
 10
1833.530707508622
 20
-432.4087670684239
 10
1867.464468559079
 20
-485.9938932010591
 10
1880.3717841163
 20
-506.3758271199986
 10
1888.279760925958
 20
-529.9235593315716
 10
1898.466213344667
 20
-552.0284742881431
 97
        0
 97
        0
 92
        1
 93
        1
 72
     4
 94
        3
 73
     0
 74
     1
 95
       35
 96
       31
 40
0.0
 40
0.0
 40
0.0
 40
0.0
 40
1.0
 40
1.0
 40
1.0
 40
2.0
 40
2.0
 40
2.0
 40
3.0
 40
3.0
 40
3.0
 40
4.0
 40
4.0
 40
4.0
 40
5.0
 40
5.0
 40
5.0
 40
6.0
 40
6.0
 40
6.0
 40
7.0
 40
7.0
 40
7.0
 40
8.0
 40
8.0
 40
8.0
 40
9.0
 40
9.0
 40
9.0
 40
10.0
 40
10.0
 40
10.0
 40
10.0
 10
992.2527430363298
 20
-1174.432586004979
 10
883.3212578984349
 20
-1185.502015159318
 10
755.0341943945805
 20
-1196.40322615586
 10
627.5634947344715
 20
-1213.4200101524
 10
604.0546137989868
 20
-1216.558309084718
 10
583.8492902132011
 20
-1244.443409747611
 10
562.1191383373543
 20
-1260.90631017068
 10
586.2048314682634
 20
-1269.445648315574
 10
610.3355201465038
 20
-1285.470956737958
 10
634.3690619019899
 20
-1285.326641293896
 10
808.9887635682062
 20
-1284.278068955266
 10
983.5788303651971
 20
-1278.614549472413
 10
1158.19969344854
 20
-1277.329122970399
 10
1233.272347673079
 20
-1276.776438279121
 10
1308.388910957961
 20
-1283.35507952642
 10
1383.502701827772
 20
-1286.246558587118
 10
1398.144799919221
 20
-1286.810258008551
 10
1413.778373584824
 20
-1288.160199358612
 10
1427.2617520361
 20
-1283.851117034048
 10
1437.96042687205
 20
-1280.431905017729
 10
1451.993792529665
 20
-1269.986494045188
 10
1453.673876063807
 20
-1260.694857323773
 10
1455.371942830852
 20
-1251.304612541928
 10
1446.243354087774
 20
-1233.758072476065
 10
1437.393355594448
 20
-1229.822142234278
 10
1410.880675322747
 20
-1218.030386558257
 10
1382.682966127857
 20
-1205.99435863528
 10
1354.255146481921
 20
-1203.24989250358
 10
1240.624642585975
 20
-1192.280270291862
 10
1126.65800209498
 20
-1184.79332592259
 10
992.2527430363298
 20
-1174.432586004979
 97
        0
 97
        0
 92
        1
 93
        1
 72
     4
 94
        3
 73
     0
 74
     1
 95
       32
 96
       28
 40
0.0
 40
0.0
 40
0.0
 40
0.0
 40
1.0
 40
1.0
 40
1.0
 40
2.0
 40
2.0
 40
2.0
 40
3.0
 40
3.0
 40
3.0
 40
4.0
 40
4.0
 40
4.0
 40
5.0
 40
5.0
 40
5.0
 40
6.0
 40
6.0
 40
6.0
 40
7.0
 40
7.0
 40
7.0
 40
8.0
 40
8.0
 40
8.0
 40
9.0
 40
9.0
 40
9.0
 40
9.0
 10
1369.477728345511
 20
-1600.965422965433
 10
1378.499616573354
 20
-1595.729754565444
 10
1399.020283641141
 20
-1583.820958015267
 10
1419.540950708926
 20
-1571.912311325366
 10
1402.355873624452
 20
-1555.248747995132
 10
1387.266592474769
 20
-1535.134651851271
 10
1367.3192908161
 20
-1523.018598541867
 10
1351.493296558414
 20
-1513.405811252824
 10
1329.905849128681
 20
-1512.098430220636
 10
1310.554242059987
 20
-1509.652410825021
 10
1115.118910841275
 20
-1484.948244342457
 10
919.4888361962312
 20
-1485.482646080281
 10
724.1719320592119
 20
-1509.725242918286
 10
689.1191268761777
 20
-1514.076136259353
 10
654.7701404709587
 20
-1527.247655480003
 10
621.3597664281706
 20
-1539.728918277651
 10
611.5614146545904
 20
-1543.389255475171
 10
598.3029015447646
 20
-1561.101690864582
 10
600.4578548228001
 20
-1568.140328223562
 10
603.9457403097749
 20
-1579.532556408545
 10
617.4692063843995
 20
-1590.551632510751
 10
629.3728702201843
 20
-1595.880813721846
 10
640.4568358211227
 20
-1600.842987121405
 10
655.1467768051107
 20
-1599.958961363855
 10
667.9250252011707
 20
-1598.600028397341
 10
896.2807248310801
 20
-1574.314271800364
 10
1124.591578773934
 20
-1578.698583982579
 10
1369.477728345511
 20
-1600.965422965433
 97
        0
 97
        0
 92
        1
 93
        1
 72
     4
 94
        3
 73
     0
 74
     1
 95
       17
 96
       13
 40
0.0
 40
0.0
 40
0.0
 40
0.0
 40
1.0
 40
1.0
 40
1.0
 40
2.0
 40
2.0
 40
2.0
 40
3.0
 40
3.0
 40
3.0
 40
4.0
 40
4.0
 40
4.0
 40
4.0
 10
604.5522248394927
 20
-462.6184066421538
 10
641.0941166371904
 20
-461.975899449023
 10
657.9965572445099
 20
-442.4995711671199
 10
657.6403019076497
 20
-406.8461447375958
 10
657.2737436769385
 20
-370.1628223061152
 10
635.751448001417
 20
-351.937433930626
 10
601.8809654517436
 20
-352.6233444056734
 10
565.9844843899891
 20
-353.3502978633205
 10
544.0492112638203
 20
-372.501729070741
 10
546.0712010135658
 20
-411.9436606972995
 10
547.9924097289058
 20
-449.4190883406391
 10
570.1463289951434
 20
-462.9211805936557
 10
604.5522248394927
 20
-462.6184066421538
 97
        0
 97
        0
 92
        1
 93
        1
 72
     4
 94
        3
 73
     0
 74
     1
 95
       17
 96
       13
 40
0.0
 40
0.0
 40
0.0
 40
0.0
 40
1.0
 40
1.0
 40
1.0
 40
2.0
 40
2.0
 40
2.0
 40
3.0
 40
3.0
 40
3.0
 40
4.0
 40
4.0
 40
4.0
 40
4.0
 10
1414.557796870979
 20
-352.3361371901547
 10
1382.85185865689
 20
-355.1533979500509
 10
1362.97574062847
 20
-373.119509318627
 10
1362.375100649446
 20
-407.9024348803478
 10
1361.775209971793
 20
-442.6462656430349
 10
1378.457355976027
 20
-462.483850848449
 10
1415.261240998108
 20
-462.5381939303834
 10
1451.408588158885
 20
-462.5915441880015
 10
1469.54992365308
 20
-443.8903681744378
 10
1469.966685075651
 20
-409.0185192725085
 10
1470.380599153012
 20
-374.3930593939112
 10
1452.255148847884
 20
-354.8633059242538
 10
1414.557796870979
 20
-352.3361371901547
 97
        0
 97
        0
 92
        1
 93
        1
 72
     4
 94
        3
 73
     0
 74
     1
 95
       17
 96
       13
 40
0.0
 40
0.0
 40
0.0
 40
0.0
 40
1.0
 40
1.0
 40
1.0
 40
2.0
 40
2.0
 40
2.0
 40
3.0
 40
3.0
 40
3.0
 40
4.0
 40
4.0
 40
4.0
 40
4.0
 10
324.544371823813
 20
-579.1729280108339
 10
323.4150435299198
 20
-532.0504887383304
 10
305.9776017436789
 20
-513.8869739235543
 10
269.7019741881795
 20
-514.419577338088
 10
232.92387449953
 20
-514.9594864409892
 10
215.4149680950268
 20
-538.0493580497896
 10
215.2711865281917
 20
-569.9878794094484
 10
215.11826348463
 20
-603.9555838120141
 10
240.0782601878009
 20
-624.4911619770846
 10
272.2590213144485
 20
-624.6063295978129
 10
305.8109758512946
 20
-624.7264051425218
 10
325.4262058748536
 20
-603.5811953819757
 10
324.544371823813
 20
-579.1729280108339
 97
        0
 97
        0
 92
        1
 93
        1
 72
     4
 94
        3
 73
     0
 74
     1
 95
       17
 96
       13
 40
0.0
 40
0.0
 40
0.0
 40
0.0
 40
1.0
 40
1.0
 40
1.0
 40
2.0
 40
2.0
 40
2.0
 40
3.0
 40
3.0
 40
3.0
 40
4.0
 40
4.0
 40
4.0
 40
4.0
 10
1799.935181097049
 20
-568.6365518518505
 10
1800.029293349253
 20
-536.9008289082631
 10
1783.176906073517
 20
-516.7656024657381
 10
1747.314293433734
 20
-514.8908504354022
 10
1713.164583728143
 20
-513.1056024538357
 10
1695.8648635339
 20
-530.2193835128573
 10
1693.868125240358
 20
-564.1892234243305
 10
1691.795707508341
 20
-599.4466628117952
 10
1707.199095792763
 20
-622.9351627499882
 10
1742.549785735853
 20
-624.7250938651232
 10
1776.022127002027
 20
-626.4199761013415
 10
1798.560512801743
 20
-609.2271812127447
 10
1799.935181097049
 20
-568.6365518518505
 97
        0
 97
        0
 92
        1
 93
        1
 72
     4
 94
        3
 73
     0
 74
     1
 95
       17
 96
       13
 40
0.0
 40
0.0
 40
0.0
 40
0.0
 40
1.0
 40
1.0
 40
1.0
 40
2.0
 40
2.0
 40
2.0
 40
3.0
 40
3.0
 40
3.0
 40
4.0
 40
4.0
 40
4.0
 40
4.0
 10
1070.522965931636
 20
-345.3906941891983
 10
1062.470448887505
 20
-298.0905487302853
 10
1045.643088277564
 20
-277.5473838888338
 10
1010.199484964465
 20
-277.1865016160073
 10
977.335501481437
 20
-276.8518729899697
 10
959.3291151641679
 20
-295.5374354362148
 10
957.8658045166685
 20
-328.129750340905
 10
956.2431923976856
 20
-364.2724518331825
 10
977.1643610482924
 20
-385.9666372432193
 10
1010.596839481526
 20
-381.4535950854597
 10
1031.808362413409
 20
-378.5902522912447
 10
1050.629688901819
 20
-358.0200376702978
 10
1070.522965931636
 20
-345.3906941891983
 97
        0
 97
        0
 75
     2
 76
     1
 98
        0
  0
ENDSEC
  0
SECTION
  2
OBJECTS
  0
DICTIONARY
  5
C
330
0
100
AcDbDictionary
281
     1
  3
ACAD_GROUP
350
D
  3
ACAD_LAYOUT
350
1A
  3
ACAD_MATERIAL
350
3B
  3
ACAD_MLEADERSTYLE
350
4B
  3
ACAD_MLINESTYLE
350
17
  3
ACAD_PLOTSETTINGS
350
19
  3
ACAD_PLOTSTYLENAME
350
E
  3
ACAD_TABLESTYLE
350
4A
  3
ACAD_VISUALSTYLE
350
2A
  0
SUN
  5
3F
330
29
100
AcDbSun
 90
        1
290
     0
 63
     7
421
 16777215
 40
1.0
291
     1
 91
  2455826
 92
 54000000
292
     0
 70
     2
 71
   256
280
     1
  0
DICTIONARY
  5
D
102
{ACAD_REACTORS
330
C
102
}
330
C
100
AcDbDictionary
281
     1
  0
DICTIONARY
  5
1A
102
{ACAD_REACTORS
330
C
102
}
330
C
100
AcDbDictionary
281
     1
  3
Layout1
350
1E
  3
Layout2
350
26
  3
Model
350
22
  0
DICTIONARY
  5
3B
102
{ACAD_REACTORS
330
C
102
}
330
C
100
AcDbDictionary
281
     1
  3
ByBlock
350
3D
  3
ByLayer
350
3C
  3
Global
350
3E
  0
DICTIONARY
  5
4B
102
{ACAD_REACTORS
330
C
102
}
330
C
100
AcDbDictionary
281
     1
  0
DICTIONARY
  5
17
102
{ACAD_REACTORS
330
C
102
}
330
C
100
AcDbDictionary
281
     1
  3
Standard
350
18
  0
DICTIONARY
  5
19
102
{ACAD_REACTORS
330
C
102
}
330
C
100
AcDbDictionary
281
     1
  0
ACDBDICTIONARYWDFLT
  5
E
102
{ACAD_REACTORS
330
C
102
}
330
C
100
AcDbDictionary
281
     1
  3
Normal
350
F
100
AcDbDictionaryWithDefault
340
F
  0
DICTIONARY
  5
4A
102
{ACAD_REACTORS
330
C
102
}
330
C
100
AcDbDictionary
281
     1
  0
DICTIONARY
  5
2A
102
{ACAD_REACTORS
330
C
102
}
330
C
100
AcDbDictionary
281
     1
  3
2dWireframe
350
2F
  3
3D Hidden
350
31
  3
3dWireframe
350
30
  3
Basic
350
32
  3
Brighten
350
36
  3
ColorChange
350
3A
  3
Conceptual
350
34
  3
Dim
350
35
  3
Facepattern
350
39
  3
Flat
350
2B
  3
FlatWithEdges
350
2C
  3
Gouraud
350
2D
  3
GouraudWithEdges
350
2E
  3
Linepattern
350
38
  3
Realistic
350
33
  3
Thicken
350
37
  0
LAYOUT
  5
1E
102
{ACAD_REACTORS
330
1A
102
}
330
1A
100
AcDbPlotSettings
  1

  2
none_device
  4

  6

 40
0.0
 41
0.0
 42
0.0
 43
0.0
 44
0.0
 45
0.0
 46
0.0
 47
0.0
 48
0.0
 49
0.0
140
0.0
141
0.0
142
1.0
143
1.0
 70
   688
 72
     0
 73
     0
 74
     5
  7

 75
    16
 76
     0
 77
     2
 78
   300
147
1.0
148
0.0
149
0.0
100
AcDbLayout
  1
Layout1
 70
     1
 71
     1
 10
0.0
 20
0.0
 11
12.0
 21
9.0
 12
0.0
 22
0.0
 32
0.0
 14
1.000000000000000E+20
 24
1.000000000000000E+20
 34
1.000000000000000E+20
 15
-1.000000000000000E+20
 25
-1.000000000000000E+20
 35
-1.000000000000000E+20
146
0.0
 13
0.0
 23
0.0
 33
0.0
 16
1.0
 26
0.0
 36
0.0
 17
0.0
 27
1.0
 37
0.0
 76
     0
330
1B
  0
LAYOUT
  5
26
102
{ACAD_REACTORS
330
1A
102
}
330
1A
100
AcDbPlotSettings
  1

  2
none_device
  4

  6

 40
0.0
 41
0.0
 42
0.0
 43
0.0
 44
0.0
 45
0.0
 46
0.0
 47
0.0
 48
0.0
 49
0.0
140
0.0
141
0.0
142
1.0
143
1.0
 70
   688
 72
     0
 73
     0
 74
     5
  7

 75
    16
 76
     0
 77
     2
 78
   300
147
1.0
148
0.0
149
0.0
100
AcDbLayout
  1
Layout2
 70
     1
 71
     2
 10
0.0
 20
0.0
 11
0.0
 21
0.0
 12
0.0
 22
0.0
 32
0.0
 14
0.0
 24
0.0
 34
0.0
 15
0.0
 25
0.0
 35
0.0
146
0.0
 13
0.0
 23
0.0
 33
0.0
 16
1.0
 26
0.0
 36
0.0
 17
0.0
 27
1.0
 37
0.0
 76
     0
330
23
  0
LAYOUT
  5
22
102
{ACAD_REACTORS
330
1A
102
}
330
1A
100
AcDbPlotSettings
  1

  2
none_device
  4

  6

 40
0.0
 41
0.0
 42
0.0
 43
0.0
 44
0.0
 45
0.0
 46
0.0
 47
0.0
 48
0.0
 49
0.0
140
0.0
141
0.0
142
1.0
143
1.0
 70
  1712
 72
     0
 73
     0
 74
     0
  7

 75
     0
 76
     0
 77
     2
 78
   300
147
1.0
148
0.0
149
0.0
100
AcDbLayout
  1
Model
 70
     1
 71
     0
 10
0.0
 20
0.0
 11
12.0
 21
9.0
 12
0.0
 22
0.0
 32
0.0
 14
1.000000000000000E+20
 24
1.000000000000000E+20
 34
1.000000000000000E+20
 15
-1.000000000000000E+20
 25
-1.000000000000000E+20
 35
-1.000000000000000E+20
146
0.0
 13
0.0
 23
0.0
 33
0.0
 16
1.0
 26
0.0
 36
0.0
 17
0.0
 27
1.0
 37
0.0
 76
     0
330
1F
331
29
  0
MATERIAL
  5
3D
102
{ACAD_REACTORS
330
3B
102
}
330
3B
100
AcDbMaterial
  1
ByBlock
 72
     1
 94
      127
  0
MATERIAL
  5
3C
102
{ACAD_REACTORS
330
3B
102
}
330
3B
100
AcDbMaterial
  1
ByLayer
 72
     1
 94
      127
  0
MATERIAL
  5
3E
102
{ACAD_REACTORS
330
3B
102
}
330
3B
100
AcDbMaterial
  1
Global
 72
     1
 94
      127
  0
MLINESTYLE
  5
18
102
{ACAD_REACTORS
330
17
102
}
330
17
100
AcDbMlineStyle
  2
Standard
 70
     0
  3

 62
   256
 51
90.0
 52
90.0
 71
     2
 49
0.5
 62
   256
  6
BYLAYER
 49
-0.5
 62
   256
  6
BYLAYER
  0
ACDBPLACEHOLDER
  5
F
102
{ACAD_REACTORS
330
E
102
}
330
E
  0
VISUALSTYLE
  5
2F
102
{ACAD_REACTORS
330
2A
102
}
330
2A
100
AcDbVisualStyle
  2
2dWireframe
 70
     4
177
     2
291
     0
 71
     0
176
     1
 72
     2
176
     1
 73
     0
176
     1
 90
        0
176
     1
 40
-0.6
176
     1
 41
-30.0
176
     1
 62
     5
 63
     7
421
 16777215
176
     1
 74
     1
176
     1
 91
        4
176
     1
 64
     7
176
     1
 65
   257
176
     1
 75
     1
176
     1
175
     1
176
     1
 42
1.0
176
     1
 92
        0
176
     1
 66
   257
176
     1
 43
1.0
176
     1
 76
     1
176
     1
 77
     6
176
     1
 78
     2
176
     1
 67
     7
176
     1
 79
     5
176
     1
170
     0
176
     1
171
     0
176
     1
290
     0
176
     1
 93
        1
176
     1
 44
0.0
176
     1
173
     0
176
     1
  0
VISUALSTYLE
  5
31
102
{ACAD_REACTORS
330
2A
102
}
330
2A
100
AcDbVisualStyle
  2
3D Hidden
 70
     6
177
     2
291
     0
 71
     1
176
     1
 72
     2
176
     1
 73
     2
176
     1
 90
        0
176
     1
 40
-0.6
176
     1
 41
-30.0
176
     1
 62
     5
 63
     7
421
 16777215
176
     1
 74
     2
176
     1
 91
        2
176
     1
 64
     7
176
     1
 65
   257
176
     1
 75
     2
176
     1
175
     1
176
     1
 42
40.0
176
     1
 92
        0
176
     1
 66
   257
176
     1
 43
1.0
176
     1
 76
     1
176
     1
 77
     6
176
     1
 78
     2
176
     1
 67
     7
176
     1
 79
     3
176
     1
170
     0
176
     1
171
     0
176
     1
290
     0
176
     1
 93
        1
176
     1
 44
0.0
176
     1
173
     0
176
     1
  0
VISUALSTYLE
  5
30
102
{ACAD_REACTORS
330
2A
102
}
330
2A
100
AcDbVisualStyle
  2
3dWireframe
 70
     5
177
     2
291
     0
 71
     0
176
     1
 72
     2
176
     1
 73
     0
176
     1
 90
        0
176
     1
 40
-0.6
176
     1
 41
-30.0
176
     1
 62
     5
 63
     7
421
 16777215
176
     1
 74
     1
176
     1
 91
        4
176
     1
 64
     7
176
     1
 65
   257
176
     1
 75
     1
176
     1
175
     1
176
     1
 42
1.0
176
     1
 92
        0
176
     1
 66
   257
176
     1
 43
1.0
176
     1
 76
     1
176
     1
 77
     6
176
     1
 78
     2
176
     1
 67
     7
176
     1
 79
     5
176
     1
170
     0
176
     1
171
     0
176
     1
290
     0
176
     1
 93
        1
176
     1
 44
0.0
176
     1
173
     0
176
     1
  0
VISUALSTYLE
  5
32
102
{ACAD_REACTORS
330
2A
102
}
330
2A
100
AcDbVisualStyle
  2
Basic
 70
     7
177
     2
291
     1
 71
     1
176
     1
 72
     0
176
     1
 73
     1
176
     1
 90
        0
176
     1
 40
-0.6
176
     1
 41
-30.0
176
     1
 62
     5
 63
     7
421
 16777215
176
     1
 74
     0
176
     1
 91
        4
176
     1
 64
     7
176
     1
 65
   257
176
     1
 75
     1
176
     1
175
     1
176
     1
 42
1.0
176
     1
 92
        8
176
     1
 66
     7
176
     1
 43
1.0
176
     1
 76
     1
176
     1
 77
     6
176
     1
 78
     2
176
     1
 67
     7
176
     1
 79
     5
176
     1
170
     0
176
     1
171
     0
176
     1
290
     0
176
     1
 93
        1
176
     1
 44
0.0
176
     1
173
     0
176
     1
  0
VISUALSTYLE
  5
36
102
{ACAD_REACTORS
330
2A
102
}
330
2A
100
AcDbVisualStyle
  2
Brighten
 70
    12
177
     2
291
     1
 71
     2
176
     1
 72
     2
176
     1
 73
     0
176
     1
 90
        0
176
     1
 40
-0.6
176
     1
 41
-30.0
176
     1
 62
     5
 63
     7
421
 16777215
176
     1
 74
     1
176
     1
 91
        4
176
     1
 64
     7
176
     1
 65
   257
176
     1
 75
     1
176
     1
175
     1
176
     1
 42
1.0
176
     1
 92
        8
176
     1
 66
     7
176
     1
 43
1.0
176
     1
 76
     1
176
     1
 77
     6
176
     1
 78
     2
176
     1
 67
     7
176
     1
 79
     5
176
     1
170
     0
176
     1
171
     0
176
     1
290
     0
176
     1
 93
        1
176
     1
 44
50.0
176
     1
173
     0
176
     1
  0
VISUALSTYLE
  5
3A
102
{ACAD_REACTORS
330
2A
102
}
330
2A
100
AcDbVisualStyle
  2
ColorChange
 70
    16
177
     2
291
     1
 71
     2
176
     1
 72
     2
176
     1
 73
     3
176
     1
 90
        0
176
     1
 40
-0.6
176
     1
 41
-30.0
176
     1
 62
     5
 63
     8
421
  8421504
176
     1
 74
     1
176
     1
 91
        4
176
     1
 64
     7
176
     1
 65
   257
176
     1
 75
     1
176
     1
175
     1
176
     1
 42
1.0
176
     1
 92
        8
176
     1
 66
     8
424
  8421504
176
     1
 43
1.0
176
     1
 76
     1
176
     1
 77
     6
176
     1
 78
     2
176
     1
 67
     7
176
     1
 79
     5
176
     1
170
     0
176
     1
171
     0
176
     1
290
     0
176
     1
 93
        1
176
     1
 44
0.0
176
     1
173
     0
176
     1
  0
VISUALSTYLE
  5
34
102
{ACAD_REACTORS
330
2A
102
}
330
2A
100
AcDbVisualStyle
  2
Conceptual
 70
     9
177
     2
291
     0
 71
     3
176
     1
 72
     2
176
     1
 73
     0
176
     1
 90
        0
176
     1
 40
-0.6
176
     1
 41
-30.0
176
     1
 62
     5
 63
     7
421
 16777215
176
     1
 74
     2
176
     1
 91
        2
176
     1
 64
     7
176
     1
 65
   257
176
     1
 75
     1
176
     1
175
     1
176
     1
 42
40.0
176
     1
 92
        8
176
     1
 66
     7
176
     1
 43
1.0
176
     1
 76
     1
176
     1
 77
     6
176
     1
 78
     2
176
     1
 67
     7
176
     1
 79
     3
176
     1
170
     0
176
     1
171
     0
176
     1
290
     0
176
     1
 93
        1
176
     1
 44
0.0
176
     1
173
     0
176
     1
  0
VISUALSTYLE
  5
35
102
{ACAD_REACTORS
330
2A
102
}
330
2A
100
AcDbVisualStyle
  2
Dim
 70
    11
177
     2
291
     1
 71
     2
176
     1
 72
     2
176
     1
 73
     0
176
     1
 90
        0
176
     1
 40
-0.6
176
     1
 41
-30.0
176
     1
 62
     5
 63
     7
421
 16777215
176
     1
 74
     1
176
     1
 91
        4
176
     1
 64
     7
176
     1
 65
   257
176
     1
 75
     1
176
     1
175
     1
176
     1
 42
1.0
176
     1
 92
        8
176
     1
 66
     7
176
     1
 43
1.0
176
     1
 76
     1
176
     1
 77
     6
176
     1
 78
     2
176
     1
 67
     7
176
     1
 79
     5
176
     1
170
     0
176
     1
171
     0
176
     1
290
     0
176
     1
 93
        1
176
     1
 44
-50.0
176
     1
173
     0
176
     1
  0
VISUALSTYLE
  5
39
102
{ACAD_REACTORS
330
2A
102
}
330
2A
100
AcDbVisualStyle
  2
Facepattern
 70
    15
177
     2
291
     1
 71
     2
176
     1
 72
     2
176
     1
 73
     0
176
     1
 90
        0
176
     1
 40
-0.6
176
     1
 41
-30.0
176
     1
 62
     5
 63
     7
421
 16777215
176
     1
 74
     1
176
     1
 91
        4
176
     1
 64
     7
176
     1
 65
   257
176
     1
 75
     1
176
     1
175
     1
176
     1
 42
1.0
176
     1
 92
        8
176
     1
 66
     7
176
     1
 43
1.0
176
     1
 76
     1
176
     1
 77
     6
176
     1
 78
     2
176
     1
 67
     7
176
     1
 79
     5
176
     1
170
     0
176
     1
171
     0
176
     1
290
     0
176
     1
 93
        1
176
     1
 44
0.0
176
     1
173
     0
176
     1
  0
VISUALSTYLE
  5
2B
102
{ACAD_REACTORS
330
2A
102
}
330
2A
100
AcDbVisualStyle
  2
Flat
 70
     0
177
     2
291
     1
 71
     2
176
     1
 72
     1
176
     1
 73
     1
176
     1
 90
        2
176
     1
 40
-0.6
176
     1
 41
30.0
176
     1
 62
     5
 63
     7
421
 16777215
176
     1
 74
     0
176
     1
 91
        4
176
     1
 64
     7
176
     1
 65
   257
176
     1
 75
     1
176
     1
175
     1
176
     1
 42
1.0
176
     1
 92
        8
176
     1
 66
     7
176
     1
 43
1.0
176
     1
 76
     1
176
     1
 77
     6
176
     1
 78
     2
176
     1
 67
     7
176
     1
 79
     5
176
     1
170
     0
176
     1
171
     0
176
     1
290
     0
176
     1
 93
       13
176
     1
 44
0.0
176
     1
173
     0
176
     1
  0
VISUALSTYLE
  5
2C
102
{ACAD_REACTORS
330
2A
102
}
330
2A
100
AcDbVisualStyle
  2
FlatWithEdges
 70
     1
177
     2
291
     1
 71
     2
176
     1
 72
     1
176
     1
 73
     1
176
     1
 90
        2
176
     1
 40
-0.6
176
     1
 41
30.0
176
     1
 62
     5
 63
     7
421
 16777215
176
     1
 74
     1
176
     1
 91
        4
176
     1
 64
     7
176
     1
 65
   257
176
     1
 75
     1
176
     1
175
     1
176
     1
 42
1.0
176
     1
 92
        0
176
     1
 66
   257
176
     1
 43
1.0
176
     1
 76
     1
176
     1
 77
     6
176
     1
 78
     2
176
     1
 67
     7
176
     1
 79
     5
176
     1
170
     0
176
     1
171
     0
176
     1
290
     0
176
     1
 93
       13
176
     1
 44
0.0
176
     1
173
     0
176
     1
  0
VISUALSTYLE
  5
2D
102
{ACAD_REACTORS
330
2A
102
}
330
2A
100
AcDbVisualStyle
  2
Gouraud
 70
     2
177
     2
291
     1
 71
     2
176
     1
 72
     2
176
     1
 73
     1
176
     1
 90
        2
176
     1
 40
-0.6
176
     1
 41
30.0
176
     1
 62
     5
 63
     7
421
 16777215
176
     1
 74
     0
176
     1
 91
        4
176
     1
 64
     7
176
     1
 65
   257
176
     1
 75
     1
176
     1
175
     1
176
     1
 42
1.0
176
     1
 92
        0
176
     1
 66
     7
176
     1
 43
1.0
176
     1
 76
     1
176
     1
 77
     6
176
     1
 78
     2
176
     1
 67
     7
176
     1
 79
     5
176
     1
170
     0
176
     1
171
     0
176
     1
290
     0
176
     1
 93
       13
176
     1
 44
0.0
176
     1
173
     0
176
     1
  0
VISUALSTYLE
  5
2E
102
{ACAD_REACTORS
330
2A
102
}
330
2A
100
AcDbVisualStyle
  2
GouraudWithEdges
 70
     3
177
     2
291
     1
 71
     2
176
     1
 72
     2
176
     1
 73
     1
176
     1
 90
        2
176
     1
 40
-0.6
176
     1
 41
30.0
176
     1
 62
     5
 63
     7
421
 16777215
176
     1
 74
     1
176
     1
 91
        4
176
     1
 64
     7
176
     1
 65
   257
176
     1
 75
     1
176
     1
175
     1
176
     1
 42
1.0
176
     1
 92
        0
176
     1
 66
   257
176
     1
 43
1.0
176
     1
 76
     1
176
     1
 77
     6
176
     1
 78
     2
176
     1
 67
     7
176
     1
 79
     5
176
     1
170
     0
176
     1
171
     0
176
     1
290
     0
176
     1
 93
       13
176
     1
 44
0.0
176
     1
173
     0
176
     1
  0
VISUALSTYLE
  5
38
102
{ACAD_REACTORS
330
2A
102
}
330
2A
100
AcDbVisualStyle
  2
Linepattern
 70
    14
177
     2
291
     1
 71
     2
176
     1
 72
     2
176
     1
 73
     0
176
     1
 90
        0
176
     1
 40
-0.6
176
     1
 41
-30.0
176
     1
 62
     5
 63
     7
421
 16777215
176
     1
 74
     1
176
     1
 91
        4
176
     1
 64
     7
176
     1
 65
   257
176
     1
 75
     7
176
     1
175
     7
176
     1
 42
1.0
176
     1
 92
        8
176
     1
 66
     7
176
     1
 43
1.0
176
     1
 76
     1
176
     1
 77
     6
176
     1
 78
     2
176
     1
 67
     7
176
     1
 79
     5
176
     1
170
     0
176
     1
171
     0
176
     1
290
     0
176
     1
 93
        1
176
     1
 44
0.0
176
     1
173
     0
176
     1
  0
VISUALSTYLE
  5
33
102
{ACAD_REACTORS
330
2A
102
}
330
2A
100
AcDbVisualStyle
  2
Realistic
 70
     8
177
     2
291
     0
 71
     2
176
     1
 72
     2
176
     1
 73
     0
176
     1
 90
        0
176
     1
 40
-0.6
176
     1
 41
-30.0
176
     1
 62
     5
 63
     7
421
 16777215
176
     1
 74
     1
176
     1
 91
        0
176
     1
 64
     7
176
     1
 65
   257
176
     1
 75
     1
176
     1
175
     1
176
     1
 42
1.0
176
     1
 92
        8
176
     1
 66
     8
424
  7895160
176
     1
 43
1.0
176
     1
 76
     1
176
     1
 77
     6
176
     1
 78
     2
176
     1
 67
     7
176
     1
 79
     5
176
     1
170
     0
176
     1
171
     0
176
     1
290
     0
176
     1
 93
       13
176
     1
 44
0.0
176
     1
173
     0
176
     1
  0
VISUALSTYLE
  5
37
102
{ACAD_REACTORS
330
2A
102
}
330
2A
100
AcDbVisualStyle
  2
Thicken
 70
    13
177
     2
291
     1
 71
     2
176
     1
 72
     2
176
     1
 73
     0
176
     1
 90
        0
176
     1
 40
-0.6
176
     1
 41
-30.0
176
     1
 62
     5
 63
     7
421
 16777215
176
     1
 74
     1
176
     1
 91
        4
176
     1
 64
     7
176
     1
 65
   257
176
     1
 75
     1
176
     1
175
     1
176
     1
 42
1.0
176
     1
 92
       12
176
     1
 66
     7
176
     1
 43
1.0
176
     1
 76
     1
176
     1
 77
     6
176
     1
 78
     2
176
     1
 67
     7
176
     1
 79
     5
176
     1
170
     0
176
     1
171
     0
176
     1
290
     0
176
     1
 93
        1
176
     1
 44
0.0
176
     1
173
     0
176
     1
  0
ENDSEC
  0
EOF
