<?xml version="1.0" encoding="utf-8"?>
<!-- Generator: Adobe Illustrator 22.1.0, SVG Export Plug-In . SVG Version: 6.00 Build 0)  -->
<svg version="1.1" id="Layer_1" xmlns="http://www.w3.org/2000/svg" xmlns:xlink="http://www.w3.org/1999/xlink" x="0px" y="0px"
	 viewBox="0 0 2000 2000" style="enable-background:new 0 0 2000 2000;" xml:space="preserve">
<path d="M1898.5,552c0,9.8,0,19.6,0,29.5c-11.6,57.7-44.3,99.5-93.4,131.7c-14.2,9.3-26.4,29-30,45.9c-29.5,137.2-56,275-85.5,412.2
	c-4.6,21.3-17.8,42-31.1,59.8c-41,54.9-84.7,108-126.2,162.6c-32.1,42.3-38,86.1-15.3,137.4c20.9,47.2,33,98.5,46.8,148.5
	c13.8,50.1-9.7,83.6-55.5,99.5c-39.9,13.9-81.3,25.8-122.9,31.7c-83.9,11.8-168.5,18.9-252.9,27.9c-94.9,0-189.9,0-284.8,0
	c-22.6-2.9-45.4-4.9-67.9-8.9c-83.5-15.1-168-26.7-249.9-47.8c-76.1-19.6-90.8-51.3-70.7-128.3c11.1-42.5,24-85.5,43.1-124.9
	c22.2-45.8,16.6-85.6-11.4-124c-39.5-54.1-82.9-105.5-120.7-160.9c-20.7-30.3-39.8-64.6-48.1-99.9c-29.7-125.5-53.6-252.3-82.1-378
	c-4.5-20-17.2-43.2-33.4-54.5c-43.9-30.4-74-68.1-85.6-120.2c0-16.4,0-32.7,0-49.1c15-79.8,98.5-137.7,186.6-116.7
	c78.4,18.7,123.2,98.6,105.1,194.2c-14,74.1,11.9,135.6,51.4,193.4c24.6,36,54.4,68.5,81.8,102.6c4.8-2.7,9.6-5.4,14.4-8.1
	c0-95.8,6.2-192.2-2.9-287.2c-3.9-40.9-41.2-77.9-60.2-118.2c-16.7-35.5-40.9-72.9-41-109.6c-0.2-82.7,83.7-146.5,165.4-136
	c83.1,10.7,140.6,89.5,127.5,173.7c-5,32.2-14.4,65.1-11.7,96.8c11.4,134.1,61.9,256.4,120.6,375.8c0.8,1.6,5.6,1.3,11.4,2.3
	c2.7-12.5,5.4-24.8,8-37.2c35.3-171,63.5-340.9-8-511.5c-23.8-56.9,16.1-124,76.4-153c63.5-30.5,131.5-16.3,173,35.4
	c40.6,50.6,37.6,103.6,15.8,161.5c-63.6,168.4-20.1,333.6,13,501.2c8.6-3.6,13.1-4.1,14.1-6.1c66.8-144.3,135.2-288.2,107.6-455
	c-3.2-19.2-3.6-39.3-1.7-58.6c6.1-61.5,54.7-109.7,122.4-123.8c58.9-12.2,121.6,18.4,152.5,74.5c31,56.2,26,126.5-18.6,167.6
	c-42.4,39.1-67.8,86.3-70.4,141.2c-3.9,81.5-0.1,163.3,1.4,245c0.2,9.7,6.1,19.4,11.2,34.7c87-98.1,169.1-190.1,135.1-330.1
	c-2.3-9.3-1-19.6-0.8-29.4c1.8-65.4,42.4-115.6,108.7-135.1c59.6-17.5,124.7,5.8,158.6,59.4C1880.4,506.4,1888.3,529.9,1898.5,552z
	 M992.3,1174.4c-108.9,11.1-237.2,22-364.7,39c-23.5,3.1-43.7,31-65.4,47.5c24.1,8.5,48.2,24.6,72.2,24.4c174.6-1,349.2-6.7,523.8-8
	c75.1-0.6,150.2,6,225.3,8.9c14.6,0.6,30.3,1.9,43.8-2.4c10.7-3.4,24.7-13.9,26.4-23.2c1.7-9.4-7.4-26.9-16.3-30.9
	c-26.5-11.8-54.7-23.8-83.1-26.6C1240.6,1192.3,1126.7,1184.8,992.3,1174.4z M1369.5,1601c9-5.2,29.5-17.1,50.1-29.1
	c-17.2-16.7-32.3-36.8-52.2-48.9c-15.8-9.6-37.4-10.9-56.8-13.4c-195.4-24.7-391.1-24.2-586.4,0.1c-35.1,4.4-69.4,17.5-102.8,30
	c-9.8,3.7-23.1,21.4-20.9,28.4c3.5,11.4,17,22.4,28.9,27.7c11.1,5,25.8,4.1,38.6,2.7C896.3,1574.3,1124.6,1578.7,1369.5,1601z
	 M604.6,462.6c36.5-0.6,53.4-20.1,53.1-55.8c-0.4-36.7-21.9-54.9-55.8-54.2c-35.9,0.7-57.8,19.9-55.8,59.3
	C548,449.4,570.1,462.9,604.6,462.6z M1414.6,352.3c-31.7,2.8-51.6,20.8-52.2,55.6c-0.6,34.7,16.1,54.6,52.9,54.6
	c36.1,0.1,54.3-18.6,54.7-53.5C1470.4,374.4,1452.3,354.9,1414.6,352.3z M324.5,579.2c-1.1-47.1-18.6-65.3-54.8-64.8
	c-36.8,0.5-54.3,23.6-54.4,55.6c-0.2,34,24.8,54.5,57,54.6C305.8,624.7,325.4,603.6,324.5,579.2z M1799.9,568.6
	c0.1-31.7-16.8-51.9-52.6-53.7c-34.1-1.8-51.4,15.3-53.4,49.3c-2.1,35.3,13.3,58.7,48.7,60.5C1776,626.4,1798.6,609.2,1799.9,568.6z
	 M1070.5,345.4c-8.1-47.3-24.9-67.8-60.3-68.2c-32.9-0.3-50.9,18.4-52.3,50.9c-1.6,36.1,19.3,57.8,52.7,53.3
	C1031.8,378.6,1050.6,358,1070.5,345.4z"/>
</svg>
