<?xml version="1.0" encoding="utf-8"?>
<!-- Generator: Adobe Illustrator 22.0.1, SVG Export Plug-In . SVG Version: 6.00 Build 0)  -->
<svg version="1.1" id="Layer_1" xmlns="http://www.w3.org/2000/svg" xmlns:xlink="http://www.w3.org/1999/xlink" x="0px" y="0px"
	 viewBox="0 0 2000 2000" style="enable-background:new 0 0 2000 2000;" xml:space="preserve">
<style type="text/css">
	.st0{fill:#FFFFFF;}
</style>
<path class="st0" d="M599.6,1843.9c23.1,21.8,46.2,43.5,69.6,65h706.7c26.9-13.3,51.2-32.5,73.1-57.5c13.5-15.4,13.4-24.6-3.1-37.2
	c-6.4-4.9-13.2-9.1-19.9-13.7c-28.4-19.5-29.4-26.4-8.4-53.8c14.8-19.4,14.6-40.8-3.6-56.6c-15.4-13.4-33.1-24.3-50.1-35.8
	c-24.2-16.3-50.3-31-59-61.7c-4.5-15.9-13.6-25.5-28.3-32.7c-8.2-4-15.9-12.4-19.9-20.7c-8.5-17.6-15.1-36.2-21.2-54.8
	c-32.1-96.7-51.8-196-62-297.4c-14-138.6-10.7-276.1,19.7-412.5c2.1-9.4,6.2-12.8,16.4-15.3c14.5-3.6,30.4-9.5,41-19.5
	c22.5-21.4,17.3-51.7-9.1-70.4c-9.2-6.5-20.6-11.5-17.1-26.8c6.7-29,6.7-29.5-19.7-45.7c-11.7-7.2-18-16.3-15.6-29.7
	c5.1-28.5,7.7-58,17.1-85.1c14.5-41.6,34.1-81.5,51-122.3c7.5-18.2,5.3-23.5-10.5-35.6c-17.5-13.5-38.2-17.5-59.3-19.8
	c-32.2-3.5-64.5-6.2-96.8-9.3c11.4-30,21.6-58.7,33.2-86.9c9.3-22.5,8.4-45.3,3.3-68c-10.8-48.1-46.4-74.9-86.9-96.1
	c-7.4-3.8-20.3-1.8-28.7,1.9c-64.9,29.2-93.1,94.7-71.4,162c8.9,27.4,16.9,55.1,25.7,83.9c-27.9,2.2-54.1,3-79.9,6.8
	c-21.7,3.1-43,9.1-64.2,15c-8.8,2.4-14.3,8.7-10.3,19.6c11.8,32.4,19.8,66.8,35.6,97.1c23.6,45.2,30.1,92.9,32.5,142.2
	c0.2,4-0.5,8-0.8,12.3c-2.2,0.6-4.1,1.1-6,1.5c-23.9,4.7-28.7,10.2-28.2,33.9c0.2,9.9,1.3,19.8,2,29.8c-23.9,6.5-30,11.9-35.6,31.4
	c-10.1,35.2,0.6,56.9,33.8,70c7.4,2.9,14.9,6.5,21.2,11.3c4.4,3.3,8.6,8.8,9.8,14c4.6,20.6,8.9,41.3,11.7,62.2
	c15.1,111.2,16.1,222.5,3.8,334.1c-13.9,126.5-40.6,249.8-90.1,367.5c-2.3,5.6-8.4,9.8-13.3,14c-8.5,7.2-23.4,12.7-25.1,21
	c-5.9,28.5-24.4,45.4-46,60.7c-24.5,17.4-50.8,32.7-73.7,52c-23.3,19.6-21.6,43.1,0.5,63.1c1.9,1.7,3.8,3.3,5.6,5.1
	c16,15.9,15.4,22.7-3.4,35c-14.3,9.3-29,18.1-43,27.8C593.2,1825.8,589.6,1834.5,599.6,1843.9z"/>
</svg>
