  0
SECTION
  2
HEADER
  9
$ACADVER
  1
AC1024
  9
$ACADMAINTVER
 70
     6
  9
$DWGCODEPAGE
  3
ANSI_1252
  9
$INSBASE
 10
0.0
 20
0.0
 30
0.0
  9
$EXTMIN
 10
1.000000000000000E+20
 20
1.000000000000000E+20
 30
1.000000000000000E+20
  9
$EXTMAX
 10
-1.000000000000000E+20
 20
-1.000000000000000E+20
 30
-1.000000000000000E+20
  9
$LIMMIN
 10
0.0
 20
0.0
  9
$LIMMAX
 10
12.0
 20
9.0
  9
$ORTHOMODE
 70
     0
  9
$REGENMODE
 70
     1
  9
$FILLMODE
 70
     1
  9
$QTEXTMODE
 70
     0
  9
$MIRRTEXT
 70
     1
  9
$LTSCALE
 40
1.0
  9
$ATTMODE
 70
     1
  9
$TEXTSIZE
 40
0.2
  9
$TRACEWID
 40
0.05
  9
$TEXTSTYLE
  7
Standard
  9
$CLAYER
  8
0
  9
$CELTYPE
  6
ByLayer
  9
$CECOLOR
 62
   256
  9
$CELTSCALE
 40
1.0
  9
$DISPSILH
 70
     0
  9
$DIMSCALE
 40
1.0
  9
$DIMASZ
 40
0.18
  9
$DIMEXO
 40
0.0625
  9
$DIMDLI
 40
0.38
  9
$DIMRND
 40
0.0
  9
$DIMDLE
 40
0.0
  9
$DIMEXE
 40
0.18
  9
$DIMTP
 40
0.0
  9
$DIMTM
 40
0.0
  9
$DIMTXT
 40
0.18
  9
$DIMCEN
 40
0.09
  9
$DIMTSZ
 40
0.0
  9
$DIMTOL
 70
     0
  9
$DIMLIM
 70
     0
  9
$DIMTIH
 70
     1
  9
$DIMTOH
 70
     1
  9
$DIMSE1
 70
     0
  9
$DIMSE2
 70
     0
  9
$DIMTAD
 70
     0
  9
$DIMZIN
 70
     0
  9
$DIMBLK
  1

  9
$DIMASO
 70
     1
  9
$DIMSHO
 70
     1
  9
$DIMPOST
  1

  9
$DIMAPOST
  1

  9
$DIMALT
 70
     0
  9
$DIMALTD
 70
     2
  9
$DIMALTF
 40
25.4
  9
$DIMLFAC
 40
1.0
  9
$DIMTOFL
 70
     0
  9
$DIMTVP
 40
0.0
  9
$DIMTIX
 70
     0
  9
$DIMSOXD
 70
     0
  9
$DIMSAH
 70
     0
  9
$DIMBLK1
  1

  9
$DIMBLK2
  1

  9
$DIMSTYLE
  2
Standard
  9
$DIMCLRD
 70
     0
  9
$DIMCLRE
 70
     0
  9
$DIMCLRT
 70
     0
  9
$DIMTFAC
 40
1.0
  9
$DIMGAP
 40
0.09
  9
$DIMJUST
 70
     0
  9
$DIMSD1
 70
     0
  9
$DIMSD2
 70
     0
  9
$DIMTOLJ
 70
     1
  9
$DIMTZIN
 70
     0
  9
$DIMALTZ
 70
     0
  9
$DIMALTTZ
 70
     0
  9
$DIMUPT
 70
     0
  9
$DIMDEC
 70
     4
  9
$DIMTDEC
 70
     4
  9
$DIMALTU
 70
     2
  9
$DIMALTTD
 70
     2
  9
$DIMTXSTY
  7
Standard
  9
$DIMAUNIT
 70
     0
  9
$DIMADEC
 70
     0
  9
$DIMALTRND
 40
0.0
  9
$DIMAZIN
 70
     0
  9
$DIMDSEP
 70
    46
  9
$DIMATFIT
 70
     3
  9
$DIMFRAC
 70
     0
  9
$DIMLDRBLK
  1

  9
$DIMLUNIT
 70
     2
  9
$DIMLWD
 70
    -2
  9
$DIMLWE
 70
    -2
  9
$DIMTMOVE
 70
     0
  9
$DIMFXL
 40
1.0
  9
$DIMFXLON
 70
     0
  9
$DIMJOGANG
 40
0.7853981633974483
  9
$DIMTFILL
 70
     0
  9
$DIMTFILLCLR
 70
     0
  9
$DIMARCSYM
 70
     0
  9
$DIMLTYPE
  6

  9
$DIMLTEX1
  6

  9
$DIMLTEX2
  6

  9
$DIMTXTDIRECTION
 70
     0
  9
$LUNITS
 70
     2
  9
$LUPREC
 70
     4
  9
$SKETCHINC
 40
0.1
  9
$FILLETRAD
 40
0.5
  9
$AUNITS
 70
     0
  9
$AUPREC
 70
     0
  9
$MENU
  1
.
  9
$ELEVATION
 40
0.0
  9
$PELEVATION
 40
0.0
  9
$THICKNESS
 40
0.0
  9
$LIMCHECK
 70
     0
  9
$CHAMFERA
 40
0.5
  9
$CHAMFERB
 40
0.5
  9
$CHAMFERC
 40
1.0
  9
$CHAMFERD
 40
0.0
  9
$SKPOLY
 70
     0
  9
$TDCREATE
 40
2458270.899016817
  9
$TDUCREATE
 40
2458271.065683484
  9
$TDUPDATE
 40
2458270.899016863
  9
$TDUUPDATE
 40
2458271.06568353
  9
$TDINDWG
 40
0.0000000116
  9
$TDUSRTIMER
 40
0.0000000116
  9
$USRTIMER
 70
     1
  9
$ANGBASE
 50
0.0
  9
$ANGDIR
 70
     0
  9
$PDMODE
 70
     0
  9
$PDSIZE
 40
0.0
  9
$PLINEWID
 40
0.0
  9
$SPLFRAME
 70
     0
  9
$SPLINETYPE
 70
     6
  9
$SPLINESEGS
 70
     8
  9
$HANDSEED
  5
4B
  9
$SURFTAB1
 70
     6
  9
$SURFTAB2
 70
     6
  9
$SURFTYPE
 70
     6
  9
$SURFU
 70
     6
  9
$SURFV
 70
     6
  9
$UCSBASE
  2

  9
$UCSNAME
  2

  9
$UCSORG
 10
0.0
 20
0.0
 30
0.0
  9
$UCSXDIR
 10
1.0
 20
0.0
 30
0.0
  9
$UCSYDIR
 10
0.0
 20
1.0
 30
0.0
  9
$UCSORTHOREF
  2

  9
$UCSORTHOVIEW
 70
     0
  9
$UCSORGTOP
 10
0.0
 20
0.0
 30
0.0
  9
$UCSORGBOTTOM
 10
0.0
 20
0.0
 30
0.0
  9
$UCSORGLEFT
 10
0.0
 20
0.0
 30
0.0
  9
$UCSORGRIGHT
 10
0.0
 20
0.0
 30
0.0
  9
$UCSORGFRONT
 10
0.0
 20
0.0
 30
0.0
  9
$UCSORGBACK
 10
0.0
 20
0.0
 30
0.0
  9
$PUCSBASE
  2

  9
$PUCSNAME
  2

  9
$PUCSORG
 10
0.0
 20
0.0
 30
0.0
  9
$PUCSXDIR
 10
1.0
 20
0.0
 30
0.0
  9
$PUCSYDIR
 10
0.0
 20
1.0
 30
0.0
  9
$PUCSORTHOREF
  2

  9
$PUCSORTHOVIEW
 70
     0
  9
$PUCSORGTOP
 10
0.0
 20
0.0
 30
0.0
  9
$PUCSORGBOTTOM
 10
0.0
 20
0.0
 30
0.0
  9
$PUCSORGLEFT
 10
0.0
 20
0.0
 30
0.0
  9
$PUCSORGRIGHT
 10
0.0
 20
0.0
 30
0.0
  9
$PUCSORGFRONT
 10
0.0
 20
0.0
 30
0.0
  9
$PUCSORGBACK
 10
0.0
 20
0.0
 30
0.0
  9
$USERI1
 70
     0
  9
$USERI2
 70
     0
  9
$USERI3
 70
     0
  9
$USERI4
 70
     0
  9
$USERI5
 70
     0
  9
$USERR1
 40
0.0
  9
$USERR2
 40
0.0
  9
$USERR3
 40
0.0
  9
$USERR4
 40
0.0
  9
$USERR5
 40
0.0
  9
$WORLDVIEW
 70
     1
  9
$SHADEDGE
 70
     3
  9
$SHADEDIF
 70
    70
  9
$TILEMODE
 70
     1
  9
$MAXACTVP
 70
    64
  9
$PINSBASE
 10
0.0
 20
0.0
 30
0.0
  9
$PLIMCHECK
 70
     0
  9
$PEXTMIN
 10
1.000000000000000E+20
 20
1.000000000000000E+20
 30
1.000000000000000E+20
  9
$PEXTMAX
 10
-1.000000000000000E+20
 20
-1.000000000000000E+20
 30
-1.000000000000000E+20
  9
$PLIMMIN
 10
0.0
 20
0.0
  9
$PLIMMAX
 10
12.0
 20
9.0
  9
$UNITMODE
 70
     0
  9
$VISRETAIN
 70
     1
  9
$PLINEGEN
 70
     0
  9
$PSLTSCALE
 70
     1
  9
$TREEDEPTH
 70
  3020
  9
$CMLSTYLE
  2
Standard
  9
$CMLJUST
 70
     0
  9
$CMLSCALE
 40
1.0
  9
$PROXYGRAPHICS
 70
     1
  9
$MEASUREMENT
 70
     0
  9
$CELWEIGHT
370
    -1
  9
$ENDCAPS
280
     0
  9
$JOINSTYLE
280
     0
  9
$LWDISPLAY
290
     1
  9
$INSUNITS
 70
     1
  9
$HYPERLINKBASE
  1

  9
$STYLESHEET
  1

  9
$XEDIT
290
     1
  9
$CEPSNTYPE
380
     0
  9
$PSTYLEMODE
290
     1
  9
$FINGERPRINTGUID
  2
{29E859DE-FF3C-486A-9C36-565B70EB4132}
  9
$VERSIONGUID
  2
{FAEB1C32-E019-11D5-929B-00C0DF256EC4}
  9
$EXTNAMES
290
     1
  9
$PSVPSCALE
 40
0.0
  9
$OLESTARTUP
290
     0
  9
$SORTENTS
280
   127
  9
$INDEXCTL
280
     0
  9
$HIDETEXT
280
     1
  9
$XCLIPFRAME
280
     2
  9
$HALOGAP
280
     0
  9
$OBSCOLOR
 70
   257
  9
$OBSLTYPE
280
     0
  9
$INTERSECTIONDISPLAY
280
     0
  9
$INTERSECTIONCOLOR
 70
   257
  9
$DIMASSOC
280
     2
  9
$PROJECTNAME
  1

  9
$CAMERADISPLAY
290
     0
  9
$LENSLENGTH
 40
50.0
  9
$CAMERAHEIGHT
 40
0.0
  9
$STEPSPERSEC
 40
2.0
  9
$STEPSIZE
 40
6.0
  9
$3DDWFPREC
 40
2.0
  9
$PSOLWIDTH
 40
0.25
  9
$PSOLHEIGHT
 40
4.0
  9
$LOFTANG1
 40
1.570796326794897
  9
$LOFTANG2
 40
1.570796326794897
  9
$LOFTMAG1
 40
0.0
  9
$LOFTMAG2
 40
0.0
  9
$LOFTPARAM
 70
     7
  9
$LOFTNORMALS
280
     1
  9
$LATITUDE
 40
37.795
  9
$LONGITUDE
 40
-122.394
  9
$NORTHDIRECTION
 40
0.0
  9
$TIMEZONE
 70
 -8000
  9
$LIGHTGLYPHDISPLAY
280
     1
  9
$TILEMODELIGHTSYNCH
280
     1
  9
$CMATERIAL
347
3C
  9
$SOLIDHIST
280
     1
  9
$SHOWHIST
280
     1
  9
$DWFFRAME
280
     2
  9
$DGNFRAME
280
     2
  9
$REALWORLDSCALE
290
     1
  9
$INTERFERECOLOR
 62
   256
  9
$CSHADOW
280
     0
  9
$SHADOWPLANELOCATION
 40
0.0
  0
ENDSEC
  0
SECTION
  2
CLASSES
  0
CLASS
  1
ACDBDICTIONARYWDFLT
  2
AcDbDictionaryWithDefault
  3
ObjectDBX Classes
 90
        0
 91
        4
280
     0
281
     0
  0
CLASS
  1
VISUALSTYLE
  2
AcDbVisualStyle
  3
ObjectDBX Classes
 90
     4095
 91
        4
280
     0
281
     0
  0
CLASS
  1
MATERIAL
  2
AcDbMaterial
  3
ObjectDBX Classes
 90
     1153
 91
        4
280
     0
281
     0
  0
CLASS
  1
SUN
  2
AcDbSun
  3
SCENEOE
 90
     1024
 91
        4
280
     0
281
     0
  0
ENDSEC
  0
SECTION
  2
TABLES
  0
TABLE
  2
VPORT
  5
8
330
0
100
AcDbSymbolTable
 70
     1
  0
VPORT
  5
29
330
8
100
AcDbSymbolTableRecord
100
AcDbViewportTableRecord
  2
*Active
 70
     0
 10
0.0
 20
0.0
 11
1.0
 21
1.0
 12
0.0
 22
0.0
 13
0.0
 23
0.0
 14
0.5
 24
0.5
 15
0.5
 25
0.5
 16
0.0
 26
0.0
 36
1.0
 17
1000.0
 27
-1000.0
 37
0.0
 40
2000.0
 41
1.0
 42
50.0
 43
0.0
 44
0.0
 50
0.0
 51
0.0
 71
     0
 72
   100
 73
     1
 74
     3
 75
     0
 76
     0
 77
     0
 78
     0
281
     0
 65
     1
110
0.0
120
0.0
130
0.0
111
1.0
121
0.0
131
0.0
112
0.0
122
1.0
132
0.0
 79
     0
146
0.0
 60
     3
 61
     5
292
     1
282
     1
141
0.0
142
0.0
 63
   250
361
3F
  0
ENDTAB
  0
TABLE
  2
LTYPE
  5
5
330
0
100
AcDbSymbolTable
 70
     1
  0
LTYPE
  5
14
330
5
100
AcDbSymbolTableRecord
100
AcDbLinetypeTableRecord
  2
ByBlock
 70
     0
  3

 72
    65
 73
     0
 40
0.0
  0
LTYPE
  5
15
330
5
100
AcDbSymbolTableRecord
100
AcDbLinetypeTableRecord
  2
ByLayer
 70
     0
  3

 72
    65
 73
     0
 40
0.0
  0
LTYPE
  5
16
330
5
100
AcDbSymbolTableRecord
100
AcDbLinetypeTableRecord
  2
Continuous
 70
     0
  3
Solid line
 72
    65
 73
     0
 40
0.0
  0
ENDTAB
  0
TABLE
  2
LAYER
  5
2
330
0
100
AcDbSymbolTable
 70
     2
  0
LAYER
  5
10
330
2
100
AcDbSymbolTableRecord
100
AcDbLayerTableRecord
  2
0
 70
     0
 62
     7
  6
Continuous
370
    -3
390
F
347
3E
  0
LAYER
  5
40
330
2
100
AcDbSymbolTableRecord
100
AcDbLayerTableRecord
  2
Layer 1
 70
     0
 62
     7
  6
Continuous
370
    -3
390
F
347
3E
  0
ENDTAB
  0
TABLE
  2
STYLE
  5
3
330
0
100
AcDbSymbolTable
 70
     1
  0
STYLE
  5
11
330
3
100
AcDbSymbolTableRecord
100
AcDbTextStyleTableRecord
  2
Standard
 70
     0
 40
0.0
 41
1.0
 50
0.0
 71
     0
 42
0.2
  3
txt
  4

  0
ENDTAB
  0
TABLE
  2
VIEW
  5
6
330
0
100
AcDbSymbolTable
 70
     0
  0
ENDTAB
  0
TABLE
  2
UCS
  5
7
330
0
100
AcDbSymbolTable
 70
     0
  0
ENDTAB
  0
TABLE
  2
APPID
  5
9
330
0
100
AcDbSymbolTable
 70
     1
  0
APPID
  5
12
330
9
100
AcDbSymbolTableRecord
100
AcDbRegAppTableRecord
  2
ACAD
 70
     0
  0
ENDTAB
  0
TABLE
  2
DIMSTYLE
  5
A
330
0
100
AcDbSymbolTable
 70
     1
100
AcDbDimStyleTable
  0
DIMSTYLE
105
27
330
A
100
AcDbSymbolTableRecord
100
AcDbDimStyleTableRecord
  2
Standard
 70
     0
178
     0
340
11
  0
ENDTAB
  0
TABLE
  2
BLOCK_RECORD
  5
1
330
0
100
AcDbSymbolTable
 70
     1
  0
BLOCK_RECORD
  5
1F
330
1
100
AcDbSymbolTableRecord
100
AcDbBlockTableRecord
  2
*Model_Space
340
22
 70
     0
280
     1
281
     0
  0
BLOCK_RECORD
  5
1B
330
1
100
AcDbSymbolTableRecord
100
AcDbBlockTableRecord
  2
*Paper_Space
340
1E
 70
     0
280
     1
281
     0
  0
BLOCK_RECORD
  5
23
330
1
100
AcDbSymbolTableRecord
100
AcDbBlockTableRecord
  2
*Paper_Space0
340
26
 70
     0
280
     1
281
     0
  0
ENDTAB
  0
ENDSEC
  0
SECTION
  2
BLOCKS
  0
BLOCK
  5
20
330
1F
100
AcDbEntity
  8
0
100
AcDbBlockBegin
  2
*Model_Space
 70
     0
 10
0.0
 20
0.0
 30
0.0
  3
*Model_Space
  1

  0
ENDBLK
  5
21
330
1F
100
AcDbEntity
  8
0
100
AcDbBlockEnd
  0
BLOCK
  5
1C
330
1B
100
AcDbEntity
 67
     1
  8
0
100
AcDbBlockBegin
  2
*Paper_Space
 70
     0
 10
0.0
 20
0.0
 30
0.0
  3
*Paper_Space
  1

  0
ENDBLK
  5
1D
330
1B
100
AcDbEntity
 67
     1
  8
0
100
AcDbBlockEnd
  0
BLOCK
  5
24
330
23
100
AcDbEntity
  8
0
100
AcDbBlockBegin
  2
*Paper_Space0
 70
     0
 10
0.0
 20
0.0
 30
0.0
  3
*Paper_Space0
  1

  0
ENDBLK
  5
25
330
23
100
AcDbEntity
  8
0
100
AcDbBlockEnd
  0
ENDSEC
  0
SECTION
  2
ENTITIES
  0
SPLINE
  5
41
330
1F
100
AcDbEntity
  8
Layer 1
370
     0
100
AcDbSpline
210
0.0
220
0.0
230
1.0
 70
    11
 71
     3
 72
    71
 73
    67
 74
     0
 42
0.0000000001
 43
0.0000000001
 12
1.0
 22
0.0
 32
0.0
 13
1.0
 23
0.0
 33
0.0
 40
0.0
 40
0.0
 40
0.0
 40
0.0
 40
1.0
 40
1.0
 40
1.0
 40
2.0
 40
2.0
 40
2.0
 40
3.0
 40
3.0
 40
3.0
 40
4.0
 40
4.0
 40
4.0
 40
5.0
 40
5.0
 40
5.0
 40
6.0
 40
6.0
 40
6.0
 40
7.0
 40
7.0
 40
7.0
 40
8.0
 40
8.0
 40
8.0
 40
9.0
 40
9.0
 40
9.0
 40
10.0
 40
10.0
 40
10.0
 40
11.0
 40
11.0
 40
11.0
 40
12.0
 40
12.0
 40
12.0
 40
13.0
 40
13.0
 40
13.0
 40
14.0
 40
14.0
 40
14.0
 40
15.0
 40
15.0
 40
15.0
 40
16.0
 40
16.0
 40
16.0
 40
17.0
 40
17.0
 40
17.0
 40
18.0
 40
18.0
 40
18.0
 40
19.0
 40
19.0
 40
19.0
 40
20.0
 40
20.0
 40
20.0
 40
21.0
 40
21.0
 40
21.0
 40
22.0
 40
22.0
 40
22.0
 40
22.0
 10
1809.059443017102
 20
-1811.522199470774
 30
0.0
 10
1430.786633253458
 20
-1811.522199470774
 30
0.0
 10
1057.371751755938
 20
-1811.522199470774
 30
0.0
 10
678.6852314033249
 20
-1811.522199470774
 30
0.0
 10
680.6604703822759
 20
-1703.577307969472
 30
0.0
 10
716.4348521116681
 20
-1608.941901066411
 30
0.0
 10
772.3202341633487
 20
-1521.976806125695
 30
0.0
 10
817.5885116321606
 20
-1451.533004868657
 30
0.0
 10
871.465202528434
 20
-1386.551271782211
 30
0.0
 10
915.5637342145401
 20
-1315.450431365594
 30
0.0
 10
944.9874043107366
 20
-1268.010203315607
 30
0.0
 10
963.9495064387584
 20
-1214.081533499218
 30
0.0
 10
980.655347296858
 20
-1158.730666008663
 30
0.0
 10
857.9802940766249
 20
-1200.63743990385
 30
0.0
 10
766.4544590450723
 20
-1276.341315806658
 30
0.0
 10
697.1364275636533
 20
-1379.719344988656
 30
0.0
 10
683.531195314471
 20
-1400.009530533638
 30
0.0
 10
671.8425006771822
 20
-1421.592506649127
 30
0.0
 10
658.0853331241678
 20
-1441.771771819545
 30
0.0
 10
594.049904488691
 20
-1535.699721210951
 30
0.0
 10
527.8757373611052
 20
-1536.140041485738
 30
0.0
 10
459.0638701214102
 20
-1443.486555994006
 30
0.0
 10
340.2677488166119
 20
-1458.4761721533
 30
0.0
 10
262.006867174121
 20
-1415.036600325901
 30
0.0
 10
213.1243116227924
 20
-1304.103901274808
 30
0.0
 10
207.0325067305985
 20
-1290.279349194099
 30
0.0
 10
207.2386442638217
 20
-1269.556606199965
 30
0.0
 10
212.8708768735751
 20
-1255.334629458297
 30
0.0
 10
262.2879294796567
 20
-1130.551608946547
 30
0.0
 10
312.4336973351228
 20
-1006.025802059508
 30
0.0
 10
364.695340360543
 20
-882.4096862963388
 30
0.0
 10
412.2398063527162
 20
-769.9513119056292
 30
0.0
 10
463.6777895693167
 20
-659.1420978025553
 30
0.0
 10
511.5212443922073
 20
-546.8059278937799
 30
0.0
 10
543.8373073076218
 20
-470.9280486544676
 30
0.0
 10
548.3154573360116
 20
-391.3147897521567
 30
0.0
 10
535.1043685534478
 20
-310.3129454103955
 30
0.0
 10
532.0965137065214
 20
-291.8706524908102
 30
0.0
 10
530.9569789204961
 20
-273.123658661334
 30
0.0
 10
528.4863196105598
 20
-250.1323549203189
 30
0.0
 10
641.5195032294887
 20
-241.7337678688045
 30
0.0
 10
736.9699267952992
 20
-279.1631670178022
 30
0.0
 10
825.6175541709763
 20
-336.3130493424378
 30
0.0
 10
853.1668620069358
 20
-301.2239870665389
 30
0.0
 10
876.6972669786055
 20
-268.9453277658886
 30
0.0
 10
902.7024127458553
 20
-238.8015405499909
 30
0.0
 10
927.1336256079321
 20
-210.4820773806232
 30
0.0
 10
954.5597686123947
 20
-209.5485600841257
 30
0.0
 10
985.4747815513174
 20
-232.542642336507
 30
0.0
 10
1037.024025266288
 20
-270.8841384851021
 30
0.0
 10
1068.392483257365
 20
-321.9505014334372
 30
0.0
 10
1084.217923653277
 20
-382.6857888309305
 30
0.0
 10
1092.859389111545
 20
-415.8498204034859
 30
0.0
 10
1106.326691154693
 20
-429.6851364022168
 30
0.0
 10
1144.867759946917
 20
-428.1457760813228
 30
0.0
 10
1258.006622032379
 20
-423.6269112329046
 30
0.0
 10
1350.655065688903
 20
-476.1776995060181
 30
0.0
 10
1432.506859408781
 20
-548.2031964938651
 30
0.0
 10
1627.807067890033
 20
-720.057510765022
 30
0.0
 10
1736.652927340001
 20
-940.3025990810384
 30
0.0
 10
1786.549969660386
 20
-1192.329455831452
 30
0.0
 10
1824.827902672258
 20
-1385.668390416986
 30
0.0
 10
1829.373077097254
 20
-1580.800937870306
 30
0.0
 10
1814.992962794158
 20
-1776.763467433739
 30
0.0
 10
1814.242449610412
 20
-1786.991190283241
 30
0.0
 10
1811.580520679112
 20
-1797.078542038236
 30
0.0
 10
1809.059443017102
 20
-1811.522199470774
 30
0.0
  0
SPLINE
  5
42
330
1F
100
AcDbEntity
  8
Layer 1
370
     0
100
AcDbSpline
210
0.0
220
0.0
230
1.0
 70
    11
 71
     3
 72
    92
 73
    88
 74
     0
 42
0.0000000001
 43
0.0000000001
 12
1.0
 22
0.0
 32
0.0
 13
1.0
 23
0.0
 33
0.0
 40
0.0
 40
0.0
 40
0.0
 40
0.0
 40
1.0
 40
1.0
 40
1.0
 40
2.0
 40
2.0
 40
2.0
 40
3.0
 40
3.0
 40
3.0
 40
4.0
 40
4.0
 40
4.0
 40
5.0
 40
5.0
 40
5.0
 40
6.0
 40
6.0
 40
6.0
 40
7.0
 40
7.0
 40
7.0
 40
8.0
 40
8.0
 40
8.0
 40
9.0
 40
9.0
 40
9.0
 40
10.0
 40
10.0
 40
10.0
 40
11.0
 40
11.0
 40
11.0
 40
12.0
 40
12.0
 40
12.0
 40
13.0
 40
13.0
 40
13.0
 40
14.0
 40
14.0
 40
14.0
 40
15.0
 40
15.0
 40
15.0
 40
16.0
 40
16.0
 40
16.0
 40
17.0
 40
17.0
 40
17.0
 40
18.0
 40
18.0
 40
18.0
 40
19.0
 40
19.0
 40
19.0
 40
20.0
 40
20.0
 40
20.0
 40
21.0
 40
21.0
 40
21.0
 40
22.0
 40
22.0
 40
22.0
 40
23.0
 40
23.0
 40
23.0
 40
24.0
 40
24.0
 40
24.0
 40
25.0
 40
25.0
 40
25.0
 40
26.0
 40
26.0
 40
26.0
 40
27.0
 40
27.0
 40
27.0
 40
28.0
 40
28.0
 40
28.0
 40
29.0
 40
29.0
 40
29.0
 40
29.0
 10
1702.585807046828
 20
-1711.399355162825
 30
0.0
 10
1702.585807046828
 20
-1583.714638445461
 30
0.0
 10
1711.588123853517
 20
-1461.080640169061
 30
0.0
 10
1700.63053533588
 20
-1340.256900819542
 30
0.0
 10
1680.501288371886
 20
-1118.301229858404
 30
0.0
 10
1601.751503770707
 20
-916.576362827579
 30
0.0
 10
1459.972136657949
 20
-741.6063144418822
 30
0.0
 10
1357.601754255276
 20
-615.2709688901332
 30
0.0
 10
1246.505475661896
 20
-507.6454936550526
 30
0.0
 10
1063.62370744237
 20
-539.0662706900494
 30
0.0
 10
1032.377694020619
 20
-544.4346647636485
 30
0.0
 10
1014.765763349513
 20
-528.6228293198819
 30
0.0
 10
1006.944116301813
 20
-498.5093681425387
 30
0.0
 10
997.7394058246509
 20
-463.0717890079222
 30
0.0
 10
987.865571789237
 20
-427.7200211082454
 30
0.0
 10
976.1007294344881
 20
-393.0716492418624
 30
0.0
 10
969.9987483381965
 20
-375.1007879214612
 30
0.0
 10
959.1907342650502
 20
-358.7278882525998
 30
0.0
 10
947.0689619892619
 20
-334.8603505659939
 30
0.0
 10
907.844924599247
 20
-408.27808432236
 30
0.0
 10
851.3241112531596
 20
-444.2010001175468
 30
0.0
 10
786.1555501620796
 20
-469.0648104433403
 30
0.0
 10
758.413892311497
 20
-479.6491230900783
 30
0.0
 10
731.0774219475106
 20
-491.6876250558116
 30
0.0
 10
702.6687212960624
 20
-500.0473479609354
 30
0.0
 10
649.2543186708381
 20
-515.7654092712983
 30
0.0
 10
612.7487107780989
 20
-544.4585134444715
 30
0.0
 10
593.4134328155915
 20
-600.554092006827
 30
0.0
 10
571.9106058740754
 20
-662.938159553587
 30
0.0
 10
540.5928063224637
 20
-722.0149832770512
 30
0.0
 10
512.4686292364358
 20
-782.0258669945533
 30
0.0
 10
444.3211238217427
 20
-927.4378363597516
 30
0.0
 10
375.8284127535962
 20
-1072.689987551787
 30
0.0
 10
306.8567073334543
 20
-1217.712615198183
 30
0.0
 10
285.6781484241819
 20
-1262.243304187788
 30
0.0
 10
294.4909362430908
 20
-1300.05722830231
 30
0.0
 10
331.6727502721124
 20
-1329.696576904606
 30
0.0
 10
370.5320248899634
 20
-1360.673052215581
 30
0.0
 10
411.121539308062
 20
-1388.128165765205
 30
0.0
 10
464.4959673827116
 20
-1356.657430545632
 30
0.0
 10
486.8378597406254
 20
-1343.484075497996
 30
0.0
 10
512.4133691219795
 20
-1335.794956690035
 30
0.0
 10
546.8301166780548
 20
-1321.256624796379
 30
0.0
 10
541.948779891326
 20
-1349.31923947394
 30
0.0
 10
537.4572649981801
 20
-1362.490833880713
 30
0.0
 10
538.0180691286014
 20
-1375.443788703564
 30
0.0
 10
538.5887168420477
 20
-1388.624666489448
 30
0.0
 10
544.1349756576892
 20
-1401.590025827494
 30
0.0
 10
547.5025614452143
 20
-1414.649819539267
 30
0.0
 10
560.2663274040906
 20
-1408.592974872454
 30
0.0
 10
574.1612250903127
 20
-1404.098378857791
 30
0.0
 10
585.4124004723735
 20
-1395.952373745075
 30
0.0
 10
593.4578889974609
 20
-1390.127293439544
 30
0.0
 10
598.2267448415851
 20
-1379.583055379793
 30
0.0
 10
604.0002463726505
 20
-1370.842513858242
 30
0.0
 10
692.2449670919441
 20
-1237.247405782473
 30
0.0
 10
801.0584547587159
 20
-1127.050014380373
 30
0.0
 10
948.6711451774236
 20
-1058.069705828726
 30
0.0
 10
966.0998091401925
 20
-1049.925221269485
 30
0.0
 10
976.039827266347
 20
-1022.110616866654
 30
0.0
 10
985.6935011643673
 20
-1001.641886332021
 30
0.0
 10
1017.444738485563
 20
-934.3205016219035
 30
0.0
 10
1045.282951481826
 20
-865.0495272690878
 30
0.0
 10
1079.541341396365
 20
-799.0808749480548
 30
0.0
 10
1089.270322705976
 20
-780.3465357248042
 30
0.0
 10
1115.766607245741
 20
-770.3196859922982
 30
0.0
 10
1134.573372831894
 20
-756.2995827317563
 30
0.0
 10
1139.845771963726
 20
-760.0454662181037
 30
0.0
 10
1145.118171095557
 20
-763.7913096898865
 30
0.0
 10
1150.390570227388
 20
-767.5371531616693
 30
0.0
 10
1146.512038457606
 20
-790.3955135118313
 30
0.0
 10
1143.800971640314
 20
-813.526413065154
 30
0.0
 10
1138.539856615853
 20
-836.0620159329046
 30
0.0
 10
1121.571680268702
 20
-908.744872196854
 30
0.0
 10
1092.091829723051
 20
-980.735956658682
 30
0.0
 10
1089.10434228978
 20
-1053.878740334338
 30
0.0
 10
1085.523919030282
 20
-1141.536407368478
 30
0.0
 10
1075.137578444568
 20
-1225.99442974498
 30
0.0
 10
1033.678647562414
 20
-1301.439331382207
 30
0.0
 10
979.1684860854275
 20
-1400.633837778936
 30
0.0
 10
913.4757742055926
 20
-1493.619284103059
 30
0.0
 10
855.8145457530472
 20
-1591.179435601254
 30
0.0
 10
834.6962187679501
 20
-1626.910361512904
 30
0.0
 10
822.7872839641368
 20
-1668.084548749528
 30
0.0
 10
804.752039208427
 20
-1711.399355162825
 30
0.0
 10
1110.616252537584
 20
-1711.399355162825
 30
0.0
 10
1403.799289970309
 20
-1711.399355162825
 30
0.0
 10
1702.585807046828
 20
-1711.399355162825
 30
0.0
  0
SPLINE
  5
43
330
1F
100
AcDbEntity
  8
Layer 1
370
     0
100
AcDbSpline
210
0.0
220
0.0
230
1.0
 70
    11
 71
     3
 72
    17
 73
    13
 74
     0
 42
0.0000000001
 43
0.0000000001
 12
1.0
 22
0.0
 32
0.0
 13
1.0
 23
0.0
 33
0.0
 40
0.0
 40
0.0
 40
0.0
 40
0.0
 40
1.0
 40
1.0
 40
1.0
 40
2.0
 40
2.0
 40
2.0
 40
3.0
 40
3.0
 40
3.0
 40
4.0
 40
4.0
 40
4.0
 40
4.0
 10
622.6173829346099
 20
-432.3629711231597
 30
0.0
 10
661.7499470287185
 20
-416.3822341999412
 30
0.0
 10
694.2952333805306
 20
-403.0915964618816
 30
0.0
 10
726.8405197323427
 20
-389.8009387165393
 30
0.0
 10
725.9321891036898
 20
-385.4856879828303
 30
0.0
 10
725.0238984896023
 20
-381.1704572564031
 30
0.0
 10
724.1155678609493
 20
-376.8552265299768
 30
0.0
 10
691.4895721312514
 20
-363.7462749249298
 30
0.0
 10
658.8635363869889
 20
-350.6373333235242
 30
0.0
 10
622.6173829346099
 20
-336.0738222647551
 30
0.0
 10
622.6173829346099
 20
-368.2873278497182
 30
0.0
 10
622.6173829346099
 20
-393.6440575961742
 30
0.0
 10
622.6173829346099
 20
-432.3629711231597
 30
0.0
  0
HATCH
  5
44
330
1F
100
AcDbEntity
  8
Layer 1
 62
     7
420
 16777215
100
AcDbHatch
 10
0.0
 20
0.0
 30
0.0
210
0.0
220
0.0
230
1.0
  2
SOLID
 70
     1
 71
     0
 91
        3
 92
        1
 93
        1
 72
     4
 94
        3
 73
     0
 74
     1
 95
       71
 96
       67
 40
0.0
 40
0.0
 40
0.0
 40
0.0
 40
1.0
 40
1.0
 40
1.0
 40
2.0
 40
2.0
 40
2.0
 40
3.0
 40
3.0
 40
3.0
 40
4.0
 40
4.0
 40
4.0
 40
5.0
 40
5.0
 40
5.0
 40
6.0
 40
6.0
 40
6.0
 40
7.0
 40
7.0
 40
7.0
 40
8.0
 40
8.0
 40
8.0
 40
9.0
 40
9.0
 40
9.0
 40
10.0
 40
10.0
 40
10.0
 40
11.0
 40
11.0
 40
11.0
 40
12.0
 40
12.0
 40
12.0
 40
13.0
 40
13.0
 40
13.0
 40
14.0
 40
14.0
 40
14.0
 40
15.0
 40
15.0
 40
15.0
 40
16.0
 40
16.0
 40
16.0
 40
17.0
 40
17.0
 40
17.0
 40
18.0
 40
18.0
 40
18.0
 40
19.0
 40
19.0
 40
19.0
 40
20.0
 40
20.0
 40
20.0
 40
21.0
 40
21.0
 40
21.0
 40
22.0
 40
22.0
 40
22.0
 40
22.0
 10
1809.059443017102
 20
-1811.522199470774
 10
1430.786633253458
 20
-1811.522199470774
 10
1057.371751755938
 20
-1811.522199470774
 10
678.6852314033249
 20
-1811.522199470774
 10
680.6604703822759
 20
-1703.577307969472
 10
716.4348521116681
 20
-1608.941901066411
 10
772.3202341633487
 20
-1521.976806125695
 10
817.5885116321606
 20
-1451.533004868657
 10
871.465202528434
 20
-1386.551271782211
 10
915.5637342145401
 20
-1315.450431365594
 10
944.9874043107366
 20
-1268.010203315607
 10
963.9495064387584
 20
-1214.081533499218
 10
980.655347296858
 20
-1158.730666008663
 10
857.9802940766249
 20
-1200.63743990385
 10
766.4544590450723
 20
-1276.341315806658
 10
697.1364275636533
 20
-1379.719344988656
 10
683.531195314471
 20
-1400.009530533638
 10
671.8425006771822
 20
-1421.592506649127
 10
658.0853331241678
 20
-1441.771771819545
 10
594.049904488691
 20
-1535.699721210951
 10
527.8757373611052
 20
-1536.140041485738
 10
459.0638701214102
 20
-1443.486555994006
 10
340.2677488166119
 20
-1458.4761721533
 10
262.006867174121
 20
-1415.036600325901
 10
213.1243116227924
 20
-1304.103901274808
 10
207.0325067305985
 20
-1290.279349194099
 10
207.2386442638217
 20
-1269.556606199965
 10
212.8708768735751
 20
-1255.334629458297
 10
262.2879294796567
 20
-1130.551608946547
 10
312.4336973351228
 20
-1006.025802059508
 10
364.695340360543
 20
-882.4096862963388
 10
412.2398063527162
 20
-769.9513119056292
 10
463.6777895693167
 20
-659.1420978025553
 10
511.5212443922073
 20
-546.8059278937799
 10
543.8373073076218
 20
-470.9280486544676
 10
548.3154573360116
 20
-391.3147897521567
 10
535.1043685534478
 20
-310.3129454103955
 10
532.0965137065214
 20
-291.8706524908102
 10
530.9569789204961
 20
-273.123658661334
 10
528.4863196105598
 20
-250.1323549203189
 10
641.5195032294887
 20
-241.7337678688045
 10
736.9699267952992
 20
-279.1631670178022
 10
825.6175541709763
 20
-336.3130493424378
 10
853.1668620069358
 20
-301.2239870665389
 10
876.6972669786055
 20
-268.9453277658886
 10
902.7024127458553
 20
-238.8015405499909
 10
927.1336256079321
 20
-210.4820773806232
 10
954.5597686123947
 20
-209.5485600841257
 10
985.4747815513174
 20
-232.542642336507
 10
1037.024025266288
 20
-270.8841384851021
 10
1068.392483257365
 20
-321.9505014334372
 10
1084.217923653277
 20
-382.6857888309305
 10
1092.859389111545
 20
-415.8498204034859
 10
1106.326691154693
 20
-429.6851364022168
 10
1144.867759946917
 20
-428.1457760813228
 10
1258.006622032379
 20
-423.6269112329046
 10
1350.655065688903
 20
-476.1776995060181
 10
1432.506859408781
 20
-548.2031964938651
 10
1627.807067890033
 20
-720.057510765022
 10
1736.652927340001
 20
-940.3025990810384
 10
1786.549969660386
 20
-1192.329455831452
 10
1824.827902672258
 20
-1385.668390416986
 10
1829.373077097254
 20
-1580.800937870306
 10
1814.992962794158
 20
-1776.763467433739
 10
1814.242449610412
 20
-1786.991190283241
 10
1811.580520679112
 20
-1797.078542038236
 10
1809.059443017102
 20
-1811.522199470774
 97
        0
 97
        0
 92
        1
 93
        1
 72
     4
 94
        3
 73
     0
 74
     1
 95
       92
 96
       88
 40
0.0
 40
0.0
 40
0.0
 40
0.0
 40
1.0
 40
1.0
 40
1.0
 40
2.0
 40
2.0
 40
2.0
 40
3.0
 40
3.0
 40
3.0
 40
4.0
 40
4.0
 40
4.0
 40
5.0
 40
5.0
 40
5.0
 40
6.0
 40
6.0
 40
6.0
 40
7.0
 40
7.0
 40
7.0
 40
8.0
 40
8.0
 40
8.0
 40
9.0
 40
9.0
 40
9.0
 40
10.0
 40
10.0
 40
10.0
 40
11.0
 40
11.0
 40
11.0
 40
12.0
 40
12.0
 40
12.0
 40
13.0
 40
13.0
 40
13.0
 40
14.0
 40
14.0
 40
14.0
 40
15.0
 40
15.0
 40
15.0
 40
16.0
 40
16.0
 40
16.0
 40
17.0
 40
17.0
 40
17.0
 40
18.0
 40
18.0
 40
18.0
 40
19.0
 40
19.0
 40
19.0
 40
20.0
 40
20.0
 40
20.0
 40
21.0
 40
21.0
 40
21.0
 40
22.0
 40
22.0
 40
22.0
 40
23.0
 40
23.0
 40
23.0
 40
24.0
 40
24.0
 40
24.0
 40
25.0
 40
25.0
 40
25.0
 40
26.0
 40
26.0
 40
26.0
 40
27.0
 40
27.0
 40
27.0
 40
28.0
 40
28.0
 40
28.0
 40
29.0
 40
29.0
 40
29.0
 40
29.0
 10
1702.585807046828
 20
-1711.399355162825
 10
1702.585807046828
 20
-1583.714638445461
 10
1711.588123853517
 20
-1461.080640169061
 10
1700.63053533588
 20
-1340.256900819542
 10
1680.501288371886
 20
-1118.301229858404
 10
1601.751503770707
 20
-916.576362827579
 10
1459.972136657949
 20
-741.6063144418822
 10
1357.601754255276
 20
-615.2709688901332
 10
1246.505475661896
 20
-507.6454936550526
 10
1063.62370744237
 20
-539.0662706900494
 10
1032.377694020619
 20
-544.4346647636485
 10
1014.765763349513
 20
-528.6228293198819
 10
1006.944116301813
 20
-498.5093681425387
 10
997.7394058246509
 20
-463.0717890079222
 10
987.865571789237
 20
-427.7200211082454
 10
976.1007294344881
 20
-393.0716492418624
 10
969.9987483381965
 20
-375.1007879214612
 10
959.1907342650502
 20
-358.7278882525998
 10
947.0689619892619
 20
-334.8603505659939
 10
907.844924599247
 20
-408.27808432236
 10
851.3241112531596
 20
-444.2010001175468
 10
786.1555501620796
 20
-469.0648104433403
 10
758.413892311497
 20
-479.6491230900783
 10
731.0774219475106
 20
-491.6876250558116
 10
702.6687212960624
 20
-500.0473479609354
 10
649.2543186708381
 20
-515.7654092712983
 10
612.7487107780989
 20
-544.4585134444715
 10
593.4134328155915
 20
-600.554092006827
 10
571.9106058740754
 20
-662.938159553587
 10
540.5928063224637
 20
-722.0149832770512
 10
512.4686292364358
 20
-782.0258669945533
 10
444.3211238217427
 20
-927.4378363597516
 10
375.8284127535962
 20
-1072.689987551787
 10
306.8567073334543
 20
-1217.712615198183
 10
285.6781484241819
 20
-1262.243304187788
 10
294.4909362430908
 20
-1300.05722830231
 10
331.6727502721124
 20
-1329.696576904606
 10
370.5320248899634
 20
-1360.673052215581
 10
411.121539308062
 20
-1388.128165765205
 10
464.4959673827116
 20
-1356.657430545632
 10
486.8378597406254
 20
-1343.484075497996
 10
512.4133691219795
 20
-1335.794956690035
 10
546.8301166780548
 20
-1321.256624796379
 10
541.948779891326
 20
-1349.31923947394
 10
537.4572649981801
 20
-1362.490833880713
 10
538.0180691286014
 20
-1375.443788703564
 10
538.5887168420477
 20
-1388.624666489448
 10
544.1349756576892
 20
-1401.590025827494
 10
547.5025614452143
 20
-1414.649819539267
 10
560.2663274040906
 20
-1408.592974872454
 10
574.1612250903127
 20
-1404.098378857791
 10
585.4124004723735
 20
-1395.952373745075
 10
593.4578889974609
 20
-1390.127293439544
 10
598.2267448415851
 20
-1379.583055379793
 10
604.0002463726505
 20
-1370.842513858242
 10
692.2449670919441
 20
-1237.247405782473
 10
801.0584547587159
 20
-1127.050014380373
 10
948.6711451774236
 20
-1058.069705828726
 10
966.0998091401925
 20
-1049.925221269485
 10
976.039827266347
 20
-1022.110616866654
 10
985.6935011643673
 20
-1001.641886332021
 10
1017.444738485563
 20
-934.3205016219035
 10
1045.282951481826
 20
-865.0495272690878
 10
1079.541341396365
 20
-799.0808749480548
 10
1089.270322705976
 20
-780.3465357248042
 10
1115.766607245741
 20
-770.3196859922982
 10
1134.573372831894
 20
-756.2995827317563
 10
1139.845771963726
 20
-760.0454662181037
 10
1145.118171095557
 20
-763.7913096898865
 10
1150.390570227388
 20
-767.5371531616693
 10
1146.512038457606
 20
-790.3955135118313
 10
1143.800971640314
 20
-813.526413065154
 10
1138.539856615853
 20
-836.0620159329046
 10
1121.571680268702
 20
-908.744872196854
 10
1092.091829723051
 20
-980.735956658682
 10
1089.10434228978
 20
-1053.878740334338
 10
1085.523919030282
 20
-1141.536407368478
 10
1075.137578444568
 20
-1225.99442974498
 10
1033.678647562414
 20
-1301.439331382207
 10
979.1684860854275
 20
-1400.633837778936
 10
913.4757742055926
 20
-1493.619284103059
 10
855.8145457530472
 20
-1591.179435601254
 10
834.6962187679501
 20
-1626.910361512904
 10
822.7872839641368
 20
-1668.084548749528
 10
804.752039208427
 20
-1711.399355162825
 10
1110.616252537584
 20
-1711.399355162825
 10
1403.799289970309
 20
-1711.399355162825
 10
1702.585807046828
 20
-1711.399355162825
 97
        0
 97
        0
 92
        1
 93
        1
 72
     4
 94
        3
 73
     0
 74
     1
 95
       17
 96
       13
 40
0.0
 40
0.0
 40
0.0
 40
0.0
 40
1.0
 40
1.0
 40
1.0
 40
2.0
 40
2.0
 40
2.0
 40
3.0
 40
3.0
 40
3.0
 40
4.0
 40
4.0
 40
4.0
 40
4.0
 10
622.6173829346099
 20
-432.3629711231597
 10
661.7499470287185
 20
-416.3822341999412
 10
694.2952333805306
 20
-403.0915964618816
 10
726.8405197323427
 20
-389.8009387165393
 10
725.9321891036898
 20
-385.4856879828303
 10
725.0238984896023
 20
-381.1704572564031
 10
724.1155678609493
 20
-376.8552265299768
 10
691.4895721312514
 20
-363.7462749249298
 10
658.8635363869889
 20
-350.6373333235242
 10
622.6173829346099
 20
-336.0738222647551
 10
622.6173829346099
 20
-368.2873278497182
 10
622.6173829346099
 20
-393.6440575961742
 10
622.6173829346099
 20
-432.3629711231597
 97
        0
 97
        0
 75
     2
 76
     1
 98
        0
  0
SPLINE
  5
45
330
1F
100
AcDbEntity
  8
Layer 1
370
     0
100
AcDbSpline
210
0.0
220
0.0
230
1.0
 70
    11
 71
     3
 72
    17
 73
    13
 74
     0
 42
0.0000000001
 43
0.0000000001
 12
1.0
 22
0.0
 32
0.0
 13
1.0
 23
0.0
 33
0.0
 40
0.0
 40
0.0
 40
0.0
 40
0.0
 40
1.0
 40
1.0
 40
1.0
 40
2.0
 40
2.0
 40
2.0
 40
3.0
 40
3.0
 40
3.0
 40
4.0
 40
4.0
 40
4.0
 40
4.0
 10
714.608827446119
 20
-659.4678163627859
 30
0.0
 10
767.9021860117973
 20
-660.0105339097645
 30
0.0
 10
789.029076113834
 20
-692.6355292753333
 30
0.0
 10
761.4027002254161
 20
-737.89084202504
 30
0.0
 10
726.1406649880637
 20
-795.654227662385
 30
0.0
 10
671.5571968277418
 20
-828.4329589872177
 30
0.0
 10
605.3142046481171
 20
-840.0410242757525
 30
0.0
 10
568.0135473606324
 20
-846.5773634766265
 30
0.0
 10
555.7970606091612
 20
-824.9997092983003
 30
0.0
 10
557.1201822200446
 20
-790.9968924113036
 30
0.0
 10
559.6969601567289
 20
-724.7773487668501
 30
0.0
 10
638.5067265910511
 20
-658.6928542797405
 30
0.0
 10
714.608827446119
 20
-659.4678163627859
 30
0.0
  0
HATCH
  5
46
330
1F
100
AcDbEntity
  8
Layer 1
 62
     7
420
 16777215
100
AcDbHatch
 10
0.0
 20
0.0
 30
0.0
210
0.0
220
0.0
230
1.0
  2
SOLID
 70
     1
 71
     0
 91
        1
 92
        1
 93
        1
 72
     4
 94
        3
 73
     0
 74
     1
 95
       17
 96
       13
 40
0.0
 40
0.0
 40
0.0
 40
0.0
 40
1.0
 40
1.0
 40
1.0
 40
2.0
 40
2.0
 40
2.0
 40
3.0
 40
3.0
 40
3.0
 40
4.0
 40
4.0
 40
4.0
 40
4.0
 10
714.608827446119
 20
-659.4678163627859
 10
767.9021860117973
 20
-660.0105339097645
 10
789.029076113834
 20
-692.6355292753333
 10
761.4027002254161
 20
-737.89084202504
 10
726.1406649880637
 20
-795.654227662385
 10
671.5571968277418
 20
-828.4329589872177
 10
605.3142046481171
 20
-840.0410242757525
 10
568.0135473606324
 20
-846.5773634766265
 10
555.7970606091612
 20
-824.9997092983003
 10
557.1201822200446
 20
-790.9968924113036
 10
559.6969601567289
 20
-724.7773487668501
 10
638.5067265910511
 20
-658.6928542797405
 10
714.608827446119
 20
-659.4678163627859
 97
        0
 97
        0
 75
     2
 76
     1
 98
        0
  0
SPLINE
  5
47
330
1F
100
AcDbEntity
  8
Layer 1
370
     0
100
AcDbSpline
210
0.0
220
0.0
230
1.0
 70
    11
 71
     3
 72
    17
 73
    13
 74
     0
 42
0.0000000001
 43
0.0000000001
 12
1.0
 22
0.0
 32
0.0
 13
1.0
 23
0.0
 33
0.0
 40
0.0
 40
0.0
 40
0.0
 40
0.0
 40
1.0
 40
1.0
 40
1.0
 40
2.0
 40
2.0
 40
2.0
 40
3.0
 40
3.0
 40
3.0
 40
4.0
 40
4.0
 40
4.0
 40
4.0
 10
434.8119225111568
 20
-1210.485024384534
 30
0.0
 10
433.2815054455714
 20
-1266.455237314311
 30
0.0
 10
414.6468224967984
 20
-1293.112860580715
 30
0.0
 10
374.5967244240555
 20
-1288.099115597941
 30
0.0
 10
361.6265233236281
 20
-1286.475484602865
 30
0.0
 10
343.7728946754423
 20
-1259.121127728262
 30
0.0
 10
342.4676795824598
 20
-1242.418007860591
 30
0.0
 10
339.6768937477709
 20
-1206.703808037169
 30
0.0
 10
355.9066613171308
 20
-1173.676506233693
 30
0.0
 10
397.3009286620199
 20
-1176.738020612471
 30
0.0
 10
413.4646121770529
 20
-1177.933575789692
 30
0.0
 10
427.8075929637007
 20
-1203.745051061669
 30
0.0
 10
434.8119225111568
 20
-1210.485024384534
 30
0.0
  0
HATCH
  5
48
330
1F
100
AcDbEntity
  8
Layer 1
 62
     7
420
 16777215
100
AcDbHatch
 10
0.0
 20
0.0
 30
0.0
210
0.0
220
0.0
230
1.0
  2
SOLID
 70
     1
 71
     0
 91
        1
 92
        1
 93
        1
 72
     4
 94
        3
 73
     0
 74
     1
 95
       17
 96
       13
 40
0.0
 40
0.0
 40
0.0
 40
0.0
 40
1.0
 40
1.0
 40
1.0
 40
2.0
 40
2.0
 40
2.0
 40
3.0
 40
3.0
 40
3.0
 40
4.0
 40
4.0
 40
4.0
 40
4.0
 10
434.8119225111568
 20
-1210.485024384534
 10
433.2815054455714
 20
-1266.455237314311
 10
414.6468224967984
 20
-1293.112860580715
 10
374.5967244240555
 20
-1288.099115597941
 10
361.6265233236281
 20
-1286.475484602865
 10
343.7728946754423
 20
-1259.121127728262
 10
342.4676795824598
 20
-1242.418007860591
 10
339.6768937477709
 20
-1206.703808037169
 10
355.9066613171308
 20
-1173.676506233693
 10
397.3009286620199
 20
-1176.738020612471
 10
413.4646121770529
 20
-1177.933575789692
 10
427.8075929637007
 20
-1203.745051061669
 10
434.8119225111568
 20
-1210.485024384534
 97
        0
 97
        0
 75
     2
 76
     1
 98
        0
  0
ENDSEC
  0
SECTION
  2
OBJECTS
  0
DICTIONARY
  5
C
330
0
100
AcDbDictionary
281
     1
  3
ACAD_GROUP
350
D
  3
ACAD_LAYOUT
350
1A
  3
ACAD_MATERIAL
350
3B
  3
ACAD_MLEADERSTYLE
350
4A
  3
ACAD_MLINESTYLE
350
17
  3
ACAD_PLOTSETTINGS
350
19
  3
ACAD_PLOTSTYLENAME
350
E
  3
ACAD_TABLESTYLE
350
49
  3
ACAD_VISUALSTYLE
350
2A
  0
SUN
  5
3F
330
29
100
AcDbSun
 90
        1
290
     0
 63
     7
421
 16777215
 40
1.0
291
     1
 91
  2455826
 92
 54000000
292
     0
 70
     2
 71
   256
280
     1
  0
DICTIONARY
  5
D
102
{ACAD_REACTORS
330
C
102
}
330
C
100
AcDbDictionary
281
     1
  0
DICTIONARY
  5
1A
102
{ACAD_REACTORS
330
C
102
}
330
C
100
AcDbDictionary
281
     1
  3
Layout1
350
1E
  3
Layout2
350
26
  3
Model
350
22
  0
DICTIONARY
  5
3B
102
{ACAD_REACTORS
330
C
102
}
330
C
100
AcDbDictionary
281
     1
  3
ByBlock
350
3D
  3
ByLayer
350
3C
  3
Global
350
3E
  0
DICTIONARY
  5
4A
102
{ACAD_REACTORS
330
C
102
}
330
C
100
AcDbDictionary
281
     1
  0
DICTIONARY
  5
17
102
{ACAD_REACTORS
330
C
102
}
330
C
100
AcDbDictionary
281
     1
  3
Standard
350
18
  0
DICTIONARY
  5
19
102
{ACAD_REACTORS
330
C
102
}
330
C
100
AcDbDictionary
281
     1
  0
ACDBDICTIONARYWDFLT
  5
E
102
{ACAD_REACTORS
330
C
102
}
330
C
100
AcDbDictionary
281
     1
  3
Normal
350
F
100
AcDbDictionaryWithDefault
340
F
  0
DICTIONARY
  5
49
102
{ACAD_REACTORS
330
C
102
}
330
C
100
AcDbDictionary
281
     1
  0
DICTIONARY
  5
2A
102
{ACAD_REACTORS
330
C
102
}
330
C
100
AcDbDictionary
281
     1
  3
2dWireframe
350
2F
  3
3D Hidden
350
31
  3
3dWireframe
350
30
  3
Basic
350
32
  3
Brighten
350
36
  3
ColorChange
350
3A
  3
Conceptual
350
34
  3
Dim
350
35
  3
Facepattern
350
39
  3
Flat
350
2B
  3
FlatWithEdges
350
2C
  3
Gouraud
350
2D
  3
GouraudWithEdges
350
2E
  3
Linepattern
350
38
  3
Realistic
350
33
  3
Thicken
350
37
  0
LAYOUT
  5
1E
102
{ACAD_REACTORS
330
1A
102
}
330
1A
100
AcDbPlotSettings
  1

  2
none_device
  4

  6

 40
0.0
 41
0.0
 42
0.0
 43
0.0
 44
0.0
 45
0.0
 46
0.0
 47
0.0
 48
0.0
 49
0.0
140
0.0
141
0.0
142
1.0
143
1.0
 70
   688
 72
     0
 73
     0
 74
     5
  7

 75
    16
 76
     0
 77
     2
 78
   300
147
1.0
148
0.0
149
0.0
100
AcDbLayout
  1
Layout1
 70
     1
 71
     1
 10
0.0
 20
0.0
 11
12.0
 21
9.0
 12
0.0
 22
0.0
 32
0.0
 14
1.000000000000000E+20
 24
1.000000000000000E+20
 34
1.000000000000000E+20
 15
-1.000000000000000E+20
 25
-1.000000000000000E+20
 35
-1.000000000000000E+20
146
0.0
 13
0.0
 23
0.0
 33
0.0
 16
1.0
 26
0.0
 36
0.0
 17
0.0
 27
1.0
 37
0.0
 76
     0
330
1B
  0
LAYOUT
  5
26
102
{ACAD_REACTORS
330
1A
102
}
330
1A
100
AcDbPlotSettings
  1

  2
none_device
  4

  6

 40
0.0
 41
0.0
 42
0.0
 43
0.0
 44
0.0
 45
0.0
 46
0.0
 47
0.0
 48
0.0
 49
0.0
140
0.0
141
0.0
142
1.0
143
1.0
 70
   688
 72
     0
 73
     0
 74
     5
  7

 75
    16
 76
     0
 77
     2
 78
   300
147
1.0
148
0.0
149
0.0
100
AcDbLayout
  1
Layout2
 70
     1
 71
     2
 10
0.0
 20
0.0
 11
0.0
 21
0.0
 12
0.0
 22
0.0
 32
0.0
 14
0.0
 24
0.0
 34
0.0
 15
0.0
 25
0.0
 35
0.0
146
0.0
 13
0.0
 23
0.0
 33
0.0
 16
1.0
 26
0.0
 36
0.0
 17
0.0
 27
1.0
 37
0.0
 76
     0
330
23
  0
LAYOUT
  5
22
102
{ACAD_REACTORS
330
1A
102
}
330
1A
100
AcDbPlotSettings
  1

  2
none_device
  4

  6

 40
0.0
 41
0.0
 42
0.0
 43
0.0
 44
0.0
 45
0.0
 46
0.0
 47
0.0
 48
0.0
 49
0.0
140
0.0
141
0.0
142
1.0
143
1.0
 70
  1712
 72
     0
 73
     0
 74
     0
  7

 75
     0
 76
     0
 77
     2
 78
   300
147
1.0
148
0.0
149
0.0
100
AcDbLayout
  1
Model
 70
     1
 71
     0
 10
0.0
 20
0.0
 11
12.0
 21
9.0
 12
0.0
 22
0.0
 32
0.0
 14
1.000000000000000E+20
 24
1.000000000000000E+20
 34
1.000000000000000E+20
 15
-1.000000000000000E+20
 25
-1.000000000000000E+20
 35
-1.000000000000000E+20
146
0.0
 13
0.0
 23
0.0
 33
0.0
 16
1.0
 26
0.0
 36
0.0
 17
0.0
 27
1.0
 37
0.0
 76
     0
330
1F
331
29
  0
MATERIAL
  5
3D
102
{ACAD_REACTORS
330
3B
102
}
330
3B
100
AcDbMaterial
  1
ByBlock
 72
     1
 94
      127
  0
MATERIAL
  5
3C
102
{ACAD_REACTORS
330
3B
102
}
330
3B
100
AcDbMaterial
  1
ByLayer
 72
     1
 94
      127
  0
MATERIAL
  5
3E
102
{ACAD_REACTORS
330
3B
102
}
330
3B
100
AcDbMaterial
  1
Global
 72
     1
 94
      127
  0
MLINESTYLE
  5
18
102
{ACAD_REACTORS
330
17
102
}
330
17
100
AcDbMlineStyle
  2
Standard
 70
     0
  3

 62
   256
 51
90.0
 52
90.0
 71
     2
 49
0.5
 62
   256
  6
BYLAYER
 49
-0.5
 62
   256
  6
BYLAYER
  0
ACDBPLACEHOLDER
  5
F
102
{ACAD_REACTORS
330
E
102
}
330
E
  0
VISUALSTYLE
  5
2F
102
{ACAD_REACTORS
330
2A
102
}
330
2A
100
AcDbVisualStyle
  2
2dWireframe
 70
     4
177
     2
291
     0
 71
     0
176
     1
 72
     2
176
     1
 73
     0
176
     1
 90
        0
176
     1
 40
-0.6
176
     1
 41
-30.0
176
     1
 62
     5
 63
     7
421
 16777215
176
     1
 74
     1
176
     1
 91
        4
176
     1
 64
     7
176
     1
 65
   257
176
     1
 75
     1
176
     1
175
     1
176
     1
 42
1.0
176
     1
 92
        0
176
     1
 66
   257
176
     1
 43
1.0
176
     1
 76
     1
176
     1
 77
     6
176
     1
 78
     2
176
     1
 67
     7
176
     1
 79
     5
176
     1
170
     0
176
     1
171
     0
176
     1
290
     0
176
     1
 93
        1
176
     1
 44
0.0
176
     1
173
     0
176
     1
  0
VISUALSTYLE
  5
31
102
{ACAD_REACTORS
330
2A
102
}
330
2A
100
AcDbVisualStyle
  2
3D Hidden
 70
     6
177
     2
291
     0
 71
     1
176
     1
 72
     2
176
     1
 73
     2
176
     1
 90
        0
176
     1
 40
-0.6
176
     1
 41
-30.0
176
     1
 62
     5
 63
     7
421
 16777215
176
     1
 74
     2
176
     1
 91
        2
176
     1
 64
     7
176
     1
 65
   257
176
     1
 75
     2
176
     1
175
     1
176
     1
 42
40.0
176
     1
 92
        0
176
     1
 66
   257
176
     1
 43
1.0
176
     1
 76
     1
176
     1
 77
     6
176
     1
 78
     2
176
     1
 67
     7
176
     1
 79
     3
176
     1
170
     0
176
     1
171
     0
176
     1
290
     0
176
     1
 93
        1
176
     1
 44
0.0
176
     1
173
     0
176
     1
  0
VISUALSTYLE
  5
30
102
{ACAD_REACTORS
330
2A
102
}
330
2A
100
AcDbVisualStyle
  2
3dWireframe
 70
     5
177
     2
291
     0
 71
     0
176
     1
 72
     2
176
     1
 73
     0
176
     1
 90
        0
176
     1
 40
-0.6
176
     1
 41
-30.0
176
     1
 62
     5
 63
     7
421
 16777215
176
     1
 74
     1
176
     1
 91
        4
176
     1
 64
     7
176
     1
 65
   257
176
     1
 75
     1
176
     1
175
     1
176
     1
 42
1.0
176
     1
 92
        0
176
     1
 66
   257
176
     1
 43
1.0
176
     1
 76
     1
176
     1
 77
     6
176
     1
 78
     2
176
     1
 67
     7
176
     1
 79
     5
176
     1
170
     0
176
     1
171
     0
176
     1
290
     0
176
     1
 93
        1
176
     1
 44
0.0
176
     1
173
     0
176
     1
  0
VISUALSTYLE
  5
32
102
{ACAD_REACTORS
330
2A
102
}
330
2A
100
AcDbVisualStyle
  2
Basic
 70
     7
177
     2
291
     1
 71
     1
176
     1
 72
     0
176
     1
 73
     1
176
     1
 90
        0
176
     1
 40
-0.6
176
     1
 41
-30.0
176
     1
 62
     5
 63
     7
421
 16777215
176
     1
 74
     0
176
     1
 91
        4
176
     1
 64
     7
176
     1
 65
   257
176
     1
 75
     1
176
     1
175
     1
176
     1
 42
1.0
176
     1
 92
        8
176
     1
 66
     7
176
     1
 43
1.0
176
     1
 76
     1
176
     1
 77
     6
176
     1
 78
     2
176
     1
 67
     7
176
     1
 79
     5
176
     1
170
     0
176
     1
171
     0
176
     1
290
     0
176
     1
 93
        1
176
     1
 44
0.0
176
     1
173
     0
176
     1
  0
VISUALSTYLE
  5
36
102
{ACAD_REACTORS
330
2A
102
}
330
2A
100
AcDbVisualStyle
  2
Brighten
 70
    12
177
     2
291
     1
 71
     2
176
     1
 72
     2
176
     1
 73
     0
176
     1
 90
        0
176
     1
 40
-0.6
176
     1
 41
-30.0
176
     1
 62
     5
 63
     7
421
 16777215
176
     1
 74
     1
176
     1
 91
        4
176
     1
 64
     7
176
     1
 65
   257
176
     1
 75
     1
176
     1
175
     1
176
     1
 42
1.0
176
     1
 92
        8
176
     1
 66
     7
176
     1
 43
1.0
176
     1
 76
     1
176
     1
 77
     6
176
     1
 78
     2
176
     1
 67
     7
176
     1
 79
     5
176
     1
170
     0
176
     1
171
     0
176
     1
290
     0
176
     1
 93
        1
176
     1
 44
50.0
176
     1
173
     0
176
     1
  0
VISUALSTYLE
  5
3A
102
{ACAD_REACTORS
330
2A
102
}
330
2A
100
AcDbVisualStyle
  2
ColorChange
 70
    16
177
     2
291
     1
 71
     2
176
     1
 72
     2
176
     1
 73
     3
176
     1
 90
        0
176
     1
 40
-0.6
176
     1
 41
-30.0
176
     1
 62
     5
 63
     8
421
  8421504
176
     1
 74
     1
176
     1
 91
        4
176
     1
 64
     7
176
     1
 65
   257
176
     1
 75
     1
176
     1
175
     1
176
     1
 42
1.0
176
     1
 92
        8
176
     1
 66
     8
424
  8421504
176
     1
 43
1.0
176
     1
 76
     1
176
     1
 77
     6
176
     1
 78
     2
176
     1
 67
     7
176
     1
 79
     5
176
     1
170
     0
176
     1
171
     0
176
     1
290
     0
176
     1
 93
        1
176
     1
 44
0.0
176
     1
173
     0
176
     1
  0
VISUALSTYLE
  5
34
102
{ACAD_REACTORS
330
2A
102
}
330
2A
100
AcDbVisualStyle
  2
Conceptual
 70
     9
177
     2
291
     0
 71
     3
176
     1
 72
     2
176
     1
 73
     0
176
     1
 90
        0
176
     1
 40
-0.6
176
     1
 41
-30.0
176
     1
 62
     5
 63
     7
421
 16777215
176
     1
 74
     2
176
     1
 91
        2
176
     1
 64
     7
176
     1
 65
   257
176
     1
 75
     1
176
     1
175
     1
176
     1
 42
40.0
176
     1
 92
        8
176
     1
 66
     7
176
     1
 43
1.0
176
     1
 76
     1
176
     1
 77
     6
176
     1
 78
     2
176
     1
 67
     7
176
     1
 79
     3
176
     1
170
     0
176
     1
171
     0
176
     1
290
     0
176
     1
 93
        1
176
     1
 44
0.0
176
     1
173
     0
176
     1
  0
VISUALSTYLE
  5
35
102
{ACAD_REACTORS
330
2A
102
}
330
2A
100
AcDbVisualStyle
  2
Dim
 70
    11
177
     2
291
     1
 71
     2
176
     1
 72
     2
176
     1
 73
     0
176
     1
 90
        0
176
     1
 40
-0.6
176
     1
 41
-30.0
176
     1
 62
     5
 63
     7
421
 16777215
176
     1
 74
     1
176
     1
 91
        4
176
     1
 64
     7
176
     1
 65
   257
176
     1
 75
     1
176
     1
175
     1
176
     1
 42
1.0
176
     1
 92
        8
176
     1
 66
     7
176
     1
 43
1.0
176
     1
 76
     1
176
     1
 77
     6
176
     1
 78
     2
176
     1
 67
     7
176
     1
 79
     5
176
     1
170
     0
176
     1
171
     0
176
     1
290
     0
176
     1
 93
        1
176
     1
 44
-50.0
176
     1
173
     0
176
     1
  0
VISUALSTYLE
  5
39
102
{ACAD_REACTORS
330
2A
102
}
330
2A
100
AcDbVisualStyle
  2
Facepattern
 70
    15
177
     2
291
     1
 71
     2
176
     1
 72
     2
176
     1
 73
     0
176
     1
 90
        0
176
     1
 40
-0.6
176
     1
 41
-30.0
176
     1
 62
     5
 63
     7
421
 16777215
176
     1
 74
     1
176
     1
 91
        4
176
     1
 64
     7
176
     1
 65
   257
176
     1
 75
     1
176
     1
175
     1
176
     1
 42
1.0
176
     1
 92
        8
176
     1
 66
     7
176
     1
 43
1.0
176
     1
 76
     1
176
     1
 77
     6
176
     1
 78
     2
176
     1
 67
     7
176
     1
 79
     5
176
     1
170
     0
176
     1
171
     0
176
     1
290
     0
176
     1
 93
        1
176
     1
 44
0.0
176
     1
173
     0
176
     1
  0
VISUALSTYLE
  5
2B
102
{ACAD_REACTORS
330
2A
102
}
330
2A
100
AcDbVisualStyle
  2
Flat
 70
     0
177
     2
291
     1
 71
     2
176
     1
 72
     1
176
     1
 73
     1
176
     1
 90
        2
176
     1
 40
-0.6
176
     1
 41
30.0
176
     1
 62
     5
 63
     7
421
 16777215
176
     1
 74
     0
176
     1
 91
        4
176
     1
 64
     7
176
     1
 65
   257
176
     1
 75
     1
176
     1
175
     1
176
     1
 42
1.0
176
     1
 92
        8
176
     1
 66
     7
176
     1
 43
1.0
176
     1
 76
     1
176
     1
 77
     6
176
     1
 78
     2
176
     1
 67
     7
176
     1
 79
     5
176
     1
170
     0
176
     1
171
     0
176
     1
290
     0
176
     1
 93
       13
176
     1
 44
0.0
176
     1
173
     0
176
     1
  0
VISUALSTYLE
  5
2C
102
{ACAD_REACTORS
330
2A
102
}
330
2A
100
AcDbVisualStyle
  2
FlatWithEdges
 70
     1
177
     2
291
     1
 71
     2
176
     1
 72
     1
176
     1
 73
     1
176
     1
 90
        2
176
     1
 40
-0.6
176
     1
 41
30.0
176
     1
 62
     5
 63
     7
421
 16777215
176
     1
 74
     1
176
     1
 91
        4
176
     1
 64
     7
176
     1
 65
   257
176
     1
 75
     1
176
     1
175
     1
176
     1
 42
1.0
176
     1
 92
        0
176
     1
 66
   257
176
     1
 43
1.0
176
     1
 76
     1
176
     1
 77
     6
176
     1
 78
     2
176
     1
 67
     7
176
     1
 79
     5
176
     1
170
     0
176
     1
171
     0
176
     1
290
     0
176
     1
 93
       13
176
     1
 44
0.0
176
     1
173
     0
176
     1
  0
VISUALSTYLE
  5
2D
102
{ACAD_REACTORS
330
2A
102
}
330
2A
100
AcDbVisualStyle
  2
Gouraud
 70
     2
177
     2
291
     1
 71
     2
176
     1
 72
     2
176
     1
 73
     1
176
     1
 90
        2
176
     1
 40
-0.6
176
     1
 41
30.0
176
     1
 62
     5
 63
     7
421
 16777215
176
     1
 74
     0
176
     1
 91
        4
176
     1
 64
     7
176
     1
 65
   257
176
     1
 75
     1
176
     1
175
     1
176
     1
 42
1.0
176
     1
 92
        0
176
     1
 66
     7
176
     1
 43
1.0
176
     1
 76
     1
176
     1
 77
     6
176
     1
 78
     2
176
     1
 67
     7
176
     1
 79
     5
176
     1
170
     0
176
     1
171
     0
176
     1
290
     0
176
     1
 93
       13
176
     1
 44
0.0
176
     1
173
     0
176
     1
  0
VISUALSTYLE
  5
2E
102
{ACAD_REACTORS
330
2A
102
}
330
2A
100
AcDbVisualStyle
  2
GouraudWithEdges
 70
     3
177
     2
291
     1
 71
     2
176
     1
 72
     2
176
     1
 73
     1
176
     1
 90
        2
176
     1
 40
-0.6
176
     1
 41
30.0
176
     1
 62
     5
 63
     7
421
 16777215
176
     1
 74
     1
176
     1
 91
        4
176
     1
 64
     7
176
     1
 65
   257
176
     1
 75
     1
176
     1
175
     1
176
     1
 42
1.0
176
     1
 92
        0
176
     1
 66
   257
176
     1
 43
1.0
176
     1
 76
     1
176
     1
 77
     6
176
     1
 78
     2
176
     1
 67
     7
176
     1
 79
     5
176
     1
170
     0
176
     1
171
     0
176
     1
290
     0
176
     1
 93
       13
176
     1
 44
0.0
176
     1
173
     0
176
     1
  0
VISUALSTYLE
  5
38
102
{ACAD_REACTORS
330
2A
102
}
330
2A
100
AcDbVisualStyle
  2
Linepattern
 70
    14
177
     2
291
     1
 71
     2
176
     1
 72
     2
176
     1
 73
     0
176
     1
 90
        0
176
     1
 40
-0.6
176
     1
 41
-30.0
176
     1
 62
     5
 63
     7
421
 16777215
176
     1
 74
     1
176
     1
 91
        4
176
     1
 64
     7
176
     1
 65
   257
176
     1
 75
     7
176
     1
175
     7
176
     1
 42
1.0
176
     1
 92
        8
176
     1
 66
     7
176
     1
 43
1.0
176
     1
 76
     1
176
     1
 77
     6
176
     1
 78
     2
176
     1
 67
     7
176
     1
 79
     5
176
     1
170
     0
176
     1
171
     0
176
     1
290
     0
176
     1
 93
        1
176
     1
 44
0.0
176
     1
173
     0
176
     1
  0
VISUALSTYLE
  5
33
102
{ACAD_REACTORS
330
2A
102
}
330
2A
100
AcDbVisualStyle
  2
Realistic
 70
     8
177
     2
291
     0
 71
     2
176
     1
 72
     2
176
     1
 73
     0
176
     1
 90
        0
176
     1
 40
-0.6
176
     1
 41
-30.0
176
     1
 62
     5
 63
     7
421
 16777215
176
     1
 74
     1
176
     1
 91
        0
176
     1
 64
     7
176
     1
 65
   257
176
     1
 75
     1
176
     1
175
     1
176
     1
 42
1.0
176
     1
 92
        8
176
     1
 66
     8
424
  7895160
176
     1
 43
1.0
176
     1
 76
     1
176
     1
 77
     6
176
     1
 78
     2
176
     1
 67
     7
176
     1
 79
     5
176
     1
170
     0
176
     1
171
     0
176
     1
290
     0
176
     1
 93
       13
176
     1
 44
0.0
176
     1
173
     0
176
     1
  0
VISUALSTYLE
  5
37
102
{ACAD_REACTORS
330
2A
102
}
330
2A
100
AcDbVisualStyle
  2
Thicken
 70
    13
177
     2
291
     1
 71
     2
176
     1
 72
     2
176
     1
 73
     0
176
     1
 90
        0
176
     1
 40
-0.6
176
     1
 41
-30.0
176
     1
 62
     5
 63
     7
421
 16777215
176
     1
 74
     1
176
     1
 91
        4
176
     1
 64
     7
176
     1
 65
   257
176
     1
 75
     1
176
     1
175
     1
176
     1
 42
1.0
176
     1
 92
       12
176
     1
 66
     7
176
     1
 43
1.0
176
     1
 76
     1
176
     1
 77
     6
176
     1
 78
     2
176
     1
 67
     7
176
     1
 79
     5
176
     1
170
     0
176
     1
171
     0
176
     1
290
     0
176
     1
 93
        1
176
     1
 44
0.0
176
     1
173
     0
176
     1
  0
ENDSEC
  0
EOF
