<?xml version="1.0" encoding="utf-8"?>
<!-- Generator: Adobe Illustrator 22.1.0, SVG Export Plug-In . SVG Version: 6.00 Build 0)  -->
<svg version="1.1" id="Layer_1" xmlns="http://www.w3.org/2000/svg" xmlns:xlink="http://www.w3.org/1999/xlink" x="0px" y="0px"
	 viewBox="0 0 2000 2000" style="enable-background:new 0 0 2000 2000;" xml:space="preserve">
<path d="M1809.1,1811.5c-378.3,0-751.7,0-1130.4,0c2-107.9,37.7-202.6,93.6-289.5c45.3-70.4,99.1-135.4,143.2-206.5
	c29.4-47.4,48.4-101.4,65.1-156.7c-122.7,41.9-214.2,117.6-283.5,221c-13.6,20.3-25.3,41.9-39.1,62.1c-64,93.9-130.2,94.4-199,1.7
	c-118.8,15-197.1-28.4-245.9-139.4c-6.1-13.8-5.9-34.5-0.3-48.8c49.4-124.8,99.6-249.3,151.8-372.9c47.5-112.5,99-223.3,146.8-335.6
	c32.3-75.9,36.8-155.5,23.6-236.5c-3-18.4-4.1-37.2-6.6-60.2c113-8.4,208.5,29,297.1,86.2c27.5-35.1,51.1-67.4,77.1-97.5
	c24.4-28.3,51.9-29.3,82.8-6.3c51.5,38.3,82.9,89.4,98.7,150.1c8.6,33.2,22.1,47,60.6,45.5c113.1-4.5,205.8,48,287.6,120.1
	c195.3,171.9,304.1,392.1,354,644.1c38.3,193.3,42.8,388.5,28.4,584.4C1814.2,1787,1811.6,1797.1,1809.1,1811.5z M1702.6,1711.4
	c0-127.7,9-250.3-2-371.1c-20.1-222-98.9-423.7-240.7-598.7c-102.4-126.3-213.5-234-396.3-202.5c-31.2,5.4-48.9-10.4-56.7-40.6
	c-9.2-35.4-19.1-70.8-30.8-105.4c-6.1-18-16.9-34.3-29-58.2c-39.2,73.4-95.7,109.3-160.9,134.2c-27.7,10.6-55.1,22.6-83.5,31
	c-53.4,15.7-89.9,44.4-109.3,100.5C571.9,662.9,540.6,722,512.5,782c-68.1,145.4-136.6,290.7-205.6,435.7
	c-21.2,44.5-12.4,82.3,24.8,112c38.9,31,79.4,58.4,132.8,27c22.3-13.2,47.9-20.9,82.3-35.4c-4.9,28.1-9.4,41.2-8.8,54.2
	c0.6,13.2,6.1,26.1,9.5,39.2c12.8-6.1,26.7-10.6,37.9-18.7c8-5.8,12.8-16.4,18.6-25.1c88.2-133.6,197.1-243.8,344.7-312.8
	c17.4-8.1,27.4-36,37-56.4c31.8-67.3,59.6-136.6,93.8-202.6c9.7-18.7,36.2-28.8,55-42.8c5.3,3.7,10.5,7.5,15.8,11.2
	c-3.9,22.9-6.6,46-11.9,68.5c-17,72.7-46.4,144.7-49.4,217.8c-3.6,87.7-14,172.1-55.4,247.6c-54.5,99.2-120.2,192.2-177.9,289.7
	c-21.1,35.7-33,76.9-51.1,120.2C1110.6,1711.4,1403.8,1711.4,1702.6,1711.4z M622.6,432.4c39.1-16,71.7-29.3,104.2-42.6
	c-0.9-4.3-1.8-8.6-2.7-12.9c-32.6-13.1-65.3-26.2-101.5-40.8C622.6,368.3,622.6,393.6,622.6,432.4z"/>
<path d="M714.6,659.5c53.3,0.5,74.4,33.2,46.8,78.4c-35.3,57.8-89.8,90.5-156.1,102.2c-37.3,6.5-49.5-15-48.2-49
	C559.7,724.8,638.5,658.7,714.6,659.5z"/>
<path d="M434.8,1210.5c-1.5,56-20.2,82.6-60.2,77.6c-13-1.6-30.8-29-32.1-45.7c-2.8-35.7,13.4-68.7,54.8-65.7
	C413.5,1177.9,427.8,1203.7,434.8,1210.5z"/>
</svg>
