<?xml version="1.0" encoding="utf-8"?>
<!-- Generator: Adobe Illustrator 22.1.0, SVG Export Plug-In . SVG Version: 6.00 Build 0)  -->
<svg version="1.1" id="Layer_1" xmlns="http://www.w3.org/2000/svg" xmlns:xlink="http://www.w3.org/1999/xlink" x="0px" y="0px"
	 viewBox="0 0 2000 2000" style="enable-background:new 0 0 2000 2000;" xml:space="preserve">
<path d="M780.3,532.5c4.5-37.9,13.5-64.4,9.7-88.9c-15.6-98.5,109.2-215.4,186.6-246.2c13.2-5.2,29.9-5.2,44.3-3.2
	c93.7,12.8,201.9,131.1,207.5,225.7c2,33,3.7,66,6.3,111.9c28.2-17.5,46.4-28.3,64-39.9c133.9-87.9,272.9-100.9,414.4-21.8
	c159.4,89.2,216.6,265,138.3,430.5c-30.3,64-68.1,125.8-110.5,182.6c-92.4,123.6-132.1,263.2-142.9,414.1
	c-11,154.2-39.1,194.8-191.3,225c-118.9,23.6-241.6,39.7-362.5,38.4c-147.3-1.6-295.9-15.8-441-41.3
	c-139.6-24.6-171.7-75.5-182.4-215.5c-11.8-153.9-48.1-299.3-144.5-425.3c-37.5-49-71.9-101.2-101.1-155.6
	C70.4,727.8,162.9,508.9,374.5,440.8c124.2-40,236.4-13.8,343.6,51.9C735.3,503.2,752.1,514.4,780.3,532.5z M1421.3,1130.2
	c0.3-1,0.6-2.1,0.9-3.1c44.9,0,90.1,2.5,134.7-1.1c20.2-1.6,46.4-9.7,58-24.3c47.8-59.9,97.5-120,133.7-186.9
	c25.5-47.2,45.7-106.7,41.8-158.7c-15.2-201.5-220.3-302.3-405.4-201.9c-174.2,94.5-288.1,235.2-318.4,436.5
	c-11,73.1-12.1,83.1,61,98C1224.3,1108.4,1323.3,1116.9,1421.3,1130.2z M537.2,1134.1c111.6-13,223.8-22.1,334.6-40.1
	c91.3-14.8,95.5-24.6,78.9-115.1c-40.3-220-169.9-369.4-375.4-448.2c-104.7-40.1-205.6-11.6-283.2,70.9
	c-73.7,78.2-84.4,191.9-30.9,292.7c26.3,49.5,62.3,93.7,90.6,142.3C393.7,1108.8,448.8,1150,537.2,1134.1z M513.4,1482.6
	c22-4.2,39.9-8.5,57.9-10.8c124.1-16.3,247.9-39.3,372.5-46.4c174.4-10,348.4,2.2,517.9,50.6c35.3,10.1,51.4,0.5,54.6-38.5
	c4.3-52.1,11.1-104.5,23-155.4c9.9-42.1-5.9-53.4-43.7-56c-89.7-6.2-179.2-19.8-268.9-20.6c-109-1-215.2-55.3-326.5-13.6
	c-27.2,10.2-59,8.8-88.8,11.3c-97.1,8.4-194.2,15.9-291.3,24.3c-24.8,2.1-50.7,3.7-43.7,41.5C489,1336.8,500.1,1405,513.4,1482.6z
	 M1002.8,1523.3c-92.5,9.1-210.3,17.9-327.1,34.3c-25.7,3.6-47.8,33.6-71.5,51.4c23.5,12.6,45.7,32.8,70.6,36.7
	c222.2,35.1,445,34,667.2-0.2c26-4,49.3-26.1,73.8-39.8c-24.5-17.5-47.5-38-74-51.6c-17.5-9-39.9-10.2-60.4-11.7
	C1197.1,1535.9,1112.9,1530.7,1002.8,1523.3z M1008.4,787.9c99-114.2,152.2-236.6,117.6-384.6c-14.7-62.9-57.4-93-117.9-91.5
	c-61.3,1.5-103.1,38.7-117.6,101.3C856.5,559.9,923,673.8,1008.4,787.9z"/>
</svg>
