  0
SECTION
  2
HEADER
  9
$ACADVER
  1
AC1024
  9
$ACADMAINTVER
 70
     6
  9
$DWGCODEPAGE
  3
ANSI_1252
  9
$INSBASE
 10
0.0
 20
0.0
 30
0.0
  9
$EXTMIN
 10
1.000000000000000E+20
 20
1.000000000000000E+20
 30
1.000000000000000E+20
  9
$EXTMAX
 10
-1.000000000000000E+20
 20
-1.000000000000000E+20
 30
-1.000000000000000E+20
  9
$LIMMIN
 10
0.0
 20
0.0
  9
$LIMMAX
 10
12.0
 20
9.0
  9
$ORTHOMODE
 70
     0
  9
$REGENMODE
 70
     1
  9
$FILLMODE
 70
     1
  9
$QTEXTMODE
 70
     0
  9
$MIRRTEXT
 70
     1
  9
$LTSCALE
 40
1.0
  9
$ATTMODE
 70
     1
  9
$TEXTSIZE
 40
0.2
  9
$TRACEWID
 40
0.05
  9
$TEXTSTYLE
  7
Standard
  9
$CLAYER
  8
0
  9
$CELTYPE
  6
ByLayer
  9
$CECOLOR
 62
   256
  9
$CELTSCALE
 40
1.0
  9
$DISPSILH
 70
     0
  9
$DIMSCALE
 40
1.0
  9
$DIMASZ
 40
0.18
  9
$DIMEXO
 40
0.0625
  9
$DIMDLI
 40
0.38
  9
$DIMRND
 40
0.0
  9
$DIMDLE
 40
0.0
  9
$DIMEXE
 40
0.18
  9
$DIMTP
 40
0.0
  9
$DIMTM
 40
0.0
  9
$DIMTXT
 40
0.18
  9
$DIMCEN
 40
0.09
  9
$DIMTSZ
 40
0.0
  9
$DIMTOL
 70
     0
  9
$DIMLIM
 70
     0
  9
$DIMTIH
 70
     1
  9
$DIMTOH
 70
     1
  9
$DIMSE1
 70
     0
  9
$DIMSE2
 70
     0
  9
$DIMTAD
 70
     0
  9
$DIMZIN
 70
     0
  9
$DIMBLK
  1

  9
$DIMASO
 70
     1
  9
$DIMSHO
 70
     1
  9
$DIMPOST
  1

  9
$DIMAPOST
  1

  9
$DIMALT
 70
     0
  9
$DIMALTD
 70
     2
  9
$DIMALTF
 40
25.4
  9
$DIMLFAC
 40
1.0
  9
$DIMTOFL
 70
     0
  9
$DIMTVP
 40
0.0
  9
$DIMTIX
 70
     0
  9
$DIMSOXD
 70
     0
  9
$DIMSAH
 70
     0
  9
$DIMBLK1
  1

  9
$DIMBLK2
  1

  9
$DIMSTYLE
  2
Standard
  9
$DIMCLRD
 70
     0
  9
$DIMCLRE
 70
     0
  9
$DIMCLRT
 70
     0
  9
$DIMTFAC
 40
1.0
  9
$DIMGAP
 40
0.09
  9
$DIMJUST
 70
     0
  9
$DIMSD1
 70
     0
  9
$DIMSD2
 70
     0
  9
$DIMTOLJ
 70
     1
  9
$DIMTZIN
 70
     0
  9
$DIMALTZ
 70
     0
  9
$DIMALTTZ
 70
     0
  9
$DIMUPT
 70
     0
  9
$DIMDEC
 70
     4
  9
$DIMTDEC
 70
     4
  9
$DIMALTU
 70
     2
  9
$DIMALTTD
 70
     2
  9
$DIMTXSTY
  7
Standard
  9
$DIMAUNIT
 70
     0
  9
$DIMADEC
 70
     0
  9
$DIMALTRND
 40
0.0
  9
$DIMAZIN
 70
     0
  9
$DIMDSEP
 70
    46
  9
$DIMATFIT
 70
     3
  9
$DIMFRAC
 70
     0
  9
$DIMLDRBLK
  1

  9
$DIMLUNIT
 70
     2
  9
$DIMLWD
 70
    -2
  9
$DIMLWE
 70
    -2
  9
$DIMTMOVE
 70
     0
  9
$DIMFXL
 40
1.0
  9
$DIMFXLON
 70
     0
  9
$DIMJOGANG
 40
0.7853981633974483
  9
$DIMTFILL
 70
     0
  9
$DIMTFILLCLR
 70
     0
  9
$DIMARCSYM
 70
     0
  9
$DIMLTYPE
  6

  9
$DIMLTEX1
  6

  9
$DIMLTEX2
  6

  9
$DIMTXTDIRECTION
 70
     0
  9
$LUNITS
 70
     2
  9
$LUPREC
 70
     4
  9
$SKETCHINC
 40
0.1
  9
$FILLETRAD
 40
0.5
  9
$AUNITS
 70
     0
  9
$AUPREC
 70
     0
  9
$MENU
  1
.
  9
$ELEVATION
 40
0.0
  9
$PELEVATION
 40
0.0
  9
$THICKNESS
 40
0.0
  9
$LIMCHECK
 70
     0
  9
$CHAMFERA
 40
0.5
  9
$CHAMFERB
 40
0.5
  9
$CHAMFERC
 40
1.0
  9
$CHAMFERD
 40
0.0
  9
$SKPOLY
 70
     0
  9
$TDCREATE
 40
2458270.895383519
  9
$TDUCREATE
 40
2458271.062050185
  9
$TDUPDATE
 40
2458270.895383576
  9
$TDUUPDATE
 40
2458271.062050243
  9
$TDINDWG
 40
0.0000000116
  9
$TDUSRTIMER
 40
0.0000000116
  9
$USRTIMER
 70
     1
  9
$ANGBASE
 50
0.0
  9
$ANGDIR
 70
     0
  9
$PDMODE
 70
     0
  9
$PDSIZE
 40
0.0
  9
$PLINEWID
 40
0.0
  9
$SPLFRAME
 70
     0
  9
$SPLINETYPE
 70
     6
  9
$SPLINESEGS
 70
     8
  9
$HANDSEED
  5
4A
  9
$SURFTAB1
 70
     6
  9
$SURFTAB2
 70
     6
  9
$SURFTYPE
 70
     6
  9
$SURFU
 70
     6
  9
$SURFV
 70
     6
  9
$UCSBASE
  2

  9
$UCSNAME
  2

  9
$UCSORG
 10
0.0
 20
0.0
 30
0.0
  9
$UCSXDIR
 10
1.0
 20
0.0
 30
0.0
  9
$UCSYDIR
 10
0.0
 20
1.0
 30
0.0
  9
$UCSORTHOREF
  2

  9
$UCSORTHOVIEW
 70
     0
  9
$UCSORGTOP
 10
0.0
 20
0.0
 30
0.0
  9
$UCSORGBOTTOM
 10
0.0
 20
0.0
 30
0.0
  9
$UCSORGLEFT
 10
0.0
 20
0.0
 30
0.0
  9
$UCSORGRIGHT
 10
0.0
 20
0.0
 30
0.0
  9
$UCSORGFRONT
 10
0.0
 20
0.0
 30
0.0
  9
$UCSORGBACK
 10
0.0
 20
0.0
 30
0.0
  9
$PUCSBASE
  2

  9
$PUCSNAME
  2

  9
$PUCSORG
 10
0.0
 20
0.0
 30
0.0
  9
$PUCSXDIR
 10
1.0
 20
0.0
 30
0.0
  9
$PUCSYDIR
 10
0.0
 20
1.0
 30
0.0
  9
$PUCSORTHOREF
  2

  9
$PUCSORTHOVIEW
 70
     0
  9
$PUCSORGTOP
 10
0.0
 20
0.0
 30
0.0
  9
$PUCSORGBOTTOM
 10
0.0
 20
0.0
 30
0.0
  9
$PUCSORGLEFT
 10
0.0
 20
0.0
 30
0.0
  9
$PUCSORGRIGHT
 10
0.0
 20
0.0
 30
0.0
  9
$PUCSORGFRONT
 10
0.0
 20
0.0
 30
0.0
  9
$PUCSORGBACK
 10
0.0
 20
0.0
 30
0.0
  9
$USERI1
 70
     0
  9
$USERI2
 70
     0
  9
$USERI3
 70
     0
  9
$USERI4
 70
     0
  9
$USERI5
 70
     0
  9
$USERR1
 40
0.0
  9
$USERR2
 40
0.0
  9
$USERR3
 40
0.0
  9
$USERR4
 40
0.0
  9
$USERR5
 40
0.0
  9
$WORLDVIEW
 70
     1
  9
$SHADEDGE
 70
     3
  9
$SHADEDIF
 70
    70
  9
$TILEMODE
 70
     1
  9
$MAXACTVP
 70
    64
  9
$PINSBASE
 10
0.0
 20
0.0
 30
0.0
  9
$PLIMCHECK
 70
     0
  9
$PEXTMIN
 10
1.000000000000000E+20
 20
1.000000000000000E+20
 30
1.000000000000000E+20
  9
$PEXTMAX
 10
-1.000000000000000E+20
 20
-1.000000000000000E+20
 30
-1.000000000000000E+20
  9
$PLIMMIN
 10
0.0
 20
0.0
  9
$PLIMMAX
 10
12.0
 20
9.0
  9
$UNITMODE
 70
     0
  9
$VISRETAIN
 70
     1
  9
$PLINEGEN
 70
     0
  9
$PSLTSCALE
 70
     1
  9
$TREEDEPTH
 70
  3020
  9
$CMLSTYLE
  2
Standard
  9
$CMLJUST
 70
     0
  9
$CMLSCALE
 40
1.0
  9
$PROXYGRAPHICS
 70
     1
  9
$MEASUREMENT
 70
     0
  9
$CELWEIGHT
370
    -1
  9
$ENDCAPS
280
     0
  9
$JOINSTYLE
280
     0
  9
$LWDISPLAY
290
     1
  9
$INSUNITS
 70
     1
  9
$HYPERLINKBASE
  1

  9
$STYLESHEET
  1

  9
$XEDIT
290
     1
  9
$CEPSNTYPE
380
     0
  9
$PSTYLEMODE
290
     1
  9
$FINGERPRINTGUID
  2
{DEFA3451-2558-441D-A028-3A0BB2DA7CE6}
  9
$VERSIONGUID
  2
{FAEB1C32-E019-11D5-929B-00C0DF256EC4}
  9
$EXTNAMES
290
     1
  9
$PSVPSCALE
 40
0.0
  9
$OLESTARTUP
290
     0
  9
$SORTENTS
280
   127
  9
$INDEXCTL
280
     0
  9
$HIDETEXT
280
     1
  9
$XCLIPFRAME
280
     2
  9
$HALOGAP
280
     0
  9
$OBSCOLOR
 70
   257
  9
$OBSLTYPE
280
     0
  9
$INTERSECTIONDISPLAY
280
     0
  9
$INTERSECTIONCOLOR
 70
   257
  9
$DIMASSOC
280
     2
  9
$PROJECTNAME
  1

  9
$CAMERADISPLAY
290
     0
  9
$LENSLENGTH
 40
50.0
  9
$CAMERAHEIGHT
 40
0.0
  9
$STEPSPERSEC
 40
2.0
  9
$STEPSIZE
 40
6.0
  9
$3DDWFPREC
 40
2.0
  9
$PSOLWIDTH
 40
0.25
  9
$PSOLHEIGHT
 40
4.0
  9
$LOFTANG1
 40
1.570796326794897
  9
$LOFTANG2
 40
1.570796326794897
  9
$LOFTMAG1
 40
0.0
  9
$LOFTMAG2
 40
0.0
  9
$LOFTPARAM
 70
     7
  9
$LOFTNORMALS
280
     1
  9
$LATITUDE
 40
37.795
  9
$LONGITUDE
 40
-122.394
  9
$NORTHDIRECTION
 40
0.0
  9
$TIMEZONE
 70
 -8000
  9
$LIGHTGLYPHDISPLAY
280
     1
  9
$TILEMODELIGHTSYNCH
280
     1
  9
$CMATERIAL
347
3C
  9
$SOLIDHIST
280
     1
  9
$SHOWHIST
280
     1
  9
$DWFFRAME
280
     2
  9
$DGNFRAME
280
     2
  9
$REALWORLDSCALE
290
     1
  9
$INTERFERECOLOR
 62
   256
  9
$CSHADOW
280
     0
  9
$SHADOWPLANELOCATION
 40
0.0
  0
ENDSEC
  0
SECTION
  2
CLASSES
  0
CLASS
  1
ACDBDICTIONARYWDFLT
  2
AcDbDictionaryWithDefault
  3
ObjectDBX Classes
 90
        0
 91
        4
280
     0
281
     0
  0
CLASS
  1
VISUALSTYLE
  2
AcDbVisualStyle
  3
ObjectDBX Classes
 90
     4095
 91
        4
280
     0
281
     0
  0
CLASS
  1
MATERIAL
  2
AcDbMaterial
  3
ObjectDBX Classes
 90
     1153
 91
        4
280
     0
281
     0
  0
CLASS
  1
SUN
  2
AcDbSun
  3
SCENEOE
 90
     1024
 91
        4
280
     0
281
     0
  0
ENDSEC
  0
SECTION
  2
TABLES
  0
TABLE
  2
VPORT
  5
8
330
0
100
AcDbSymbolTable
 70
     1
  0
VPORT
  5
29
330
8
100
AcDbSymbolTableRecord
100
AcDbViewportTableRecord
  2
*Active
 70
     0
 10
0.0
 20
0.0
 11
1.0
 21
1.0
 12
0.0
 22
0.0
 13
0.0
 23
0.0
 14
0.5
 24
0.5
 15
0.5
 25
0.5
 16
0.0
 26
0.0
 36
1.0
 17
1000.0
 27
-1000.0
 37
0.0
 40
2000.0
 41
1.0
 42
50.0
 43
0.0
 44
0.0
 50
0.0
 51
0.0
 71
     0
 72
   100
 73
     1
 74
     3
 75
     0
 76
     0
 77
     0
 78
     0
281
     0
 65
     1
110
0.0
120
0.0
130
0.0
111
1.0
121
0.0
131
0.0
112
0.0
122
1.0
132
0.0
 79
     0
146
0.0
 60
     3
 61
     5
292
     1
282
     1
141
0.0
142
0.0
 63
   250
361
3F
  0
ENDTAB
  0
TABLE
  2
LTYPE
  5
5
330
0
100
AcDbSymbolTable
 70
     1
  0
LTYPE
  5
14
330
5
100
AcDbSymbolTableRecord
100
AcDbLinetypeTableRecord
  2
ByBlock
 70
     0
  3

 72
    65
 73
     0
 40
0.0
  0
LTYPE
  5
15
330
5
100
AcDbSymbolTableRecord
100
AcDbLinetypeTableRecord
  2
ByLayer
 70
     0
  3

 72
    65
 73
     0
 40
0.0
  0
LTYPE
  5
16
330
5
100
AcDbSymbolTableRecord
100
AcDbLinetypeTableRecord
  2
Continuous
 70
     0
  3
Solid line
 72
    65
 73
     0
 40
0.0
  0
ENDTAB
  0
TABLE
  2
LAYER
  5
2
330
0
100
AcDbSymbolTable
 70
     2
  0
LAYER
  5
10
330
2
100
AcDbSymbolTableRecord
100
AcDbLayerTableRecord
  2
0
 70
     0
 62
     7
  6
Continuous
370
    -3
390
F
347
3E
  0
LAYER
  5
40
330
2
100
AcDbSymbolTableRecord
100
AcDbLayerTableRecord
  2
Layer 1
 70
     0
 62
     7
  6
Continuous
370
    -3
390
F
347
3E
  0
ENDTAB
  0
TABLE
  2
STYLE
  5
3
330
0
100
AcDbSymbolTable
 70
     1
  0
STYLE
  5
11
330
3
100
AcDbSymbolTableRecord
100
AcDbTextStyleTableRecord
  2
Standard
 70
     0
 40
0.0
 41
1.0
 50
0.0
 71
     0
 42
0.2
  3
txt
  4

  0
ENDTAB
  0
TABLE
  2
VIEW
  5
6
330
0
100
AcDbSymbolTable
 70
     0
  0
ENDTAB
  0
TABLE
  2
UCS
  5
7
330
0
100
AcDbSymbolTable
 70
     0
  0
ENDTAB
  0
TABLE
  2
APPID
  5
9
330
0
100
AcDbSymbolTable
 70
     1
  0
APPID
  5
12
330
9
100
AcDbSymbolTableRecord
100
AcDbRegAppTableRecord
  2
ACAD
 70
     0
  0
ENDTAB
  0
TABLE
  2
DIMSTYLE
  5
A
330
0
100
AcDbSymbolTable
 70
     1
100
AcDbDimStyleTable
  0
DIMSTYLE
105
27
330
A
100
AcDbSymbolTableRecord
100
AcDbDimStyleTableRecord
  2
Standard
 70
     0
178
     0
340
11
  0
ENDTAB
  0
TABLE
  2
BLOCK_RECORD
  5
1
330
0
100
AcDbSymbolTable
 70
     1
  0
BLOCK_RECORD
  5
1F
330
1
100
AcDbSymbolTableRecord
100
AcDbBlockTableRecord
  2
*Model_Space
340
22
 70
     0
280
     1
281
     0
  0
BLOCK_RECORD
  5
1B
330
1
100
AcDbSymbolTableRecord
100
AcDbBlockTableRecord
  2
*Paper_Space
340
1E
 70
     0
280
     1
281
     0
  0
BLOCK_RECORD
  5
23
330
1
100
AcDbSymbolTableRecord
100
AcDbBlockTableRecord
  2
*Paper_Space0
340
26
 70
     0
280
     1
281
     0
  0
ENDTAB
  0
ENDSEC
  0
SECTION
  2
BLOCKS
  0
BLOCK
  5
20
330
1F
100
AcDbEntity
  8
0
100
AcDbBlockBegin
  2
*Model_Space
 70
     0
 10
0.0
 20
0.0
 30
0.0
  3
*Model_Space
  1

  0
ENDBLK
  5
21
330
1F
100
AcDbEntity
  8
0
100
AcDbBlockEnd
  0
BLOCK
  5
1C
330
1B
100
AcDbEntity
 67
     1
  8
0
100
AcDbBlockBegin
  2
*Paper_Space
 70
     0
 10
0.0
 20
0.0
 30
0.0
  3
*Paper_Space
  1

  0
ENDBLK
  5
1D
330
1B
100
AcDbEntity
 67
     1
  8
0
100
AcDbBlockEnd
  0
BLOCK
  5
24
330
23
100
AcDbEntity
  8
0
100
AcDbBlockBegin
  2
*Paper_Space0
 70
     0
 10
0.0
 20
0.0
 30
0.0
  3
*Paper_Space0
  1

  0
ENDBLK
  5
25
330
23
100
AcDbEntity
  8
0
100
AcDbBlockEnd
  0
ENDSEC
  0
SECTION
  2
ENTITIES
  0
SPLINE
  5
41
330
1F
100
AcDbEntity
  8
Layer 1
370
     0
100
AcDbSpline
210
0.0
220
0.0
230
1.0
 70
    11
 71
     3
 72
    62
 73
    58
 74
     0
 42
0.0000000001
 43
0.0000000001
 12
1.0
 22
0.0
 32
0.0
 13
1.0
 23
0.0
 33
0.0
 40
0.0
 40
0.0
 40
0.0
 40
0.0
 40
1.0
 40
1.0
 40
1.0
 40
2.0
 40
2.0
 40
2.0
 40
3.0
 40
3.0
 40
3.0
 40
4.0
 40
4.0
 40
4.0
 40
5.0
 40
5.0
 40
5.0
 40
6.0
 40
6.0
 40
6.0
 40
7.0
 40
7.0
 40
7.0
 40
8.0
 40
8.0
 40
8.0
 40
9.0
 40
9.0
 40
9.0
 40
10.0
 40
10.0
 40
10.0
 40
11.0
 40
11.0
 40
11.0
 40
12.0
 40
12.0
 40
12.0
 40
13.0
 40
13.0
 40
13.0
 40
14.0
 40
14.0
 40
14.0
 40
15.0
 40
15.0
 40
15.0
 40
16.0
 40
16.0
 40
16.0
 40
17.0
 40
17.0
 40
17.0
 40
18.0
 40
18.0
 40
18.0
 40
19.0
 40
19.0
 40
19.0
 40
19.0
 10
780.2851703095366
 20
-532.4957001214962
 30
0.0
 10
784.8292555542494
 20
-494.6444487485123
 30
0.0
 10
793.8035219592766
 20
-468.1226348931868
 30
0.0
 10
789.9372304907429
 20
-443.6275615433633
 30
0.0
 10
774.3826606560242
 20
-345.08047712184
 30
0.0
 10
899.0929759803876
 20
-228.2441093743837
 30
0.0
 10
976.529184856241
 20
-197.4749277277851
 30
0.0
 10
989.7250375077765
 20
-192.2315708022998
 30
0.0
 10
1006.401627047828
 20
-192.2981885731697
 30
0.0
 10
1020.873549306008
 20
-194.2761141938245
 30
0.0
 10
1114.55746660715
 20
-207.080099185192
 30
0.0
 10
1222.750701092293
 20
-325.3883306756898
 30
0.0
 10
1228.382290955631
 20
-419.9393589378133
 30
0.0
 10
1230.348060538976
 20
-452.9427665134644
 30
0.0
 10
1232.076909626772
 20
-485.9602724059778
 30
0.0
 10
1234.632831315321
 20
-531.8893005657646
 30
0.0
 10
1262.822673775643
 20
-514.3599132949585
 30
0.0
 10
1280.994200695077
 20
-503.5798803081607
 30
0.0
 10
1298.642972341135
 20
-492.002819609289
 30
0.0
 10
1432.586696608198
 20
-404.1394654949054
 30
0.0
 10
1571.510479375844
 20
-391.1174347744281
 30
0.0
 10
1713.026805069736
 20
-470.2466236971613
 30
0.0
 10
1872.469312583538
 20
-559.3995009949531
 30
0.0
 10
1929.634892703856
 20
-735.2212868971892
 30
0.0
 10
1851.35175323216
 20
-900.7736524807806
 30
0.0
 10
1821.069084406046
 20
-964.815084892798
 30
0.0
 10
1783.257570514583
 20
-1026.560382894042
 30
0.0
 10
1740.822840276755
 20
-1083.332241726403
 30
0.0
 10
1648.451699785308
 20
-1206.911983793436
 30
0.0
 10
1608.703042770954
 20
-1346.490736537708
 30
0.0
 10
1597.919205817565
 20
-1497.463250370314
 30
0.0
 10
1586.906872972604
 20
-1651.633675100742
 30
0.0
 10
1558.795860735221
 20
-1692.224276720828
 30
0.0
 10
1406.63410229615
 20
-1722.429920596283
 30
0.0
 10
1287.754773456831
 20
-1746.028439853873
 30
0.0
 10
1164.987146020221
 20
-1762.090549095601
 30
0.0
 10
1044.169900369894
 20
-1760.791096914647
 30
0.0
 10
896.8884806292126
 20
-1759.207443297453
 30
0.0
 10
748.2431346975427
 20
-1745.009406633906
 30
0.0
 10
603.149017238693
 20
-1719.454144154377
 30
0.0
 10
463.5082619881041
 20
-1694.859286528354
 30
0.0
 10
431.4811628551015
 20
-1643.987229441085
 30
0.0
 10
420.7751675231621
 20
-1503.910651373984
 30
0.0
 10
409.0119918486516
 20
-1350.001561297571
 30
0.0
 10
372.7235689876206
 20
-1204.570975471677
 30
0.0
 10
276.2493347344443
 20
-1078.614807360038
 30
0.0
 10
238.7294475360441
 20
-1029.629087875748
 30
0.0
 10
204.319034385031
 20
-977.3759115281464
 30
0.0
 10
175.1551669365817
 20
-923.0351527009025
 30
0.0
 10
70.37198164719848
 20
-727.7937949756151
 30
0.0
 10
162.9427041231302
 20
-508.8939571634046
 30
0.0
 10
374.4698260581272
 20
-440.7924459000205
 30
0.0
 10
498.6723225881051
 20
-400.8052350485314
 30
0.0
 10
610.8974607822292
 20
-426.9933744105811
 30
0.0
 10
718.0911331984371
 20
-492.6760357307558
 30
0.0
 10
735.2979569970285
 20
-503.2195135747288
 30
0.0
 10
752.1021191116051
 20
-514.4202179856802
 30
0.0
 10
780.2851703095366
 20
-532.4957001214962
 30
0.0
  0
SPLINE
  5
42
330
1F
100
AcDbEntity
  8
Layer 1
370
     0
100
AcDbSpline
210
0.0
220
0.0
230
1.0
 70
    11
 71
     3
 72
    32
 73
    28
 74
     0
 42
0.0000000001
 43
0.0000000001
 12
1.0
 22
0.0
 32
0.0
 13
1.0
 23
0.0
 33
0.0
 40
0.0
 40
0.0
 40
0.0
 40
0.0
 40
1.0
 40
1.0
 40
1.0
 40
2.0
 40
2.0
 40
2.0
 40
3.0
 40
3.0
 40
3.0
 40
4.0
 40
4.0
 40
4.0
 40
5.0
 40
5.0
 40
5.0
 40
6.0
 40
6.0
 40
6.0
 40
7.0
 40
7.0
 40
7.0
 40
8.0
 40
8.0
 40
8.0
 40
9.0
 40
9.0
 40
9.0
 40
9.0
 10
1421.264200792288
 20
-1130.207511948825
 30
0.0
 10
1421.580897129588
 20
-1129.176443580318
 30
0.0
 10
1421.897507501542
 20
-1128.145375211812
 30
0.0
 10
1422.214117873496
 20
-1127.114306843305
 30
0.0
 10
1467.149923908668
 20
-1127.114306843305
 30
0.0
 10
1512.28173093435
 20
-1129.57033679897
 30
0.0
 10
1556.933163602587
 20
-1126.007073177609
 30
0.0
 10
1577.174048348159
 20
-1124.391784312822
 30
0.0
 10
1603.346370086414
 20
-1116.32195932059
 30
0.0
 10
1614.977997289112
 20
-1101.732608398794
 30
0.0
 10
1662.765789666921
 20
-1041.793270401351
 30
0.0
 10
1712.498633979516
 20
-981.7370195323747
 30
0.0
 10
1748.695546728968
 20
-914.7919356043449
 30
0.0
 10
1774.216251139118
 20
-867.5921032153974
 30
0.0
 10
1794.383721478594
 20
-808.0759296371616
 30
0.0
 10
1790.470063104021
 20
-756.0500456662758
 30
0.0
 10
1775.308698765179
 20
-554.5012815044456
 30
0.0
 10
1570.198992046349
 20
-453.7699895535716
 30
0.0
 10
1385.092991681504
 20
-554.1388516026927
 30
0.0
 10
1210.865734012823
 20
-648.609007964893
 30
0.0
 10
1097.038502634634
 20
-789.3388796843592
 30
0.0
 10
1066.688608907389
 20
-990.6225696995916
 30
0.0
 10
1055.666733908944
 20
-1063.720881214829
 30
0.0
 10
1054.620879500801
 20
-1073.736359899276
 30
0.0
 10
1127.638985347554
 20
-1088.659514262368
 30
0.0
 10
1224.306759833191
 20
-1108.416156209891
 30
0.0
 10
1323.281156501902
 20
-1116.886579717819
 30
0.0
 10
1421.264200792288
 20
-1130.207511948825
 30
0.0
  0
SPLINE
  5
43
330
1F
100
AcDbEntity
  8
Layer 1
370
     0
100
AcDbSpline
210
0.0
220
0.0
230
1.0
 70
    11
 71
     3
 72
    26
 73
    22
 74
     0
 42
0.0000000001
 43
0.0000000001
 12
1.0
 22
0.0
 32
0.0
 13
1.0
 23
0.0
 33
0.0
 40
0.0
 40
0.0
 40
0.0
 40
0.0
 40
1.0
 40
1.0
 40
1.0
 40
2.0
 40
2.0
 40
2.0
 40
3.0
 40
3.0
 40
3.0
 40
4.0
 40
4.0
 40
4.0
 40
5.0
 40
5.0
 40
5.0
 40
6.0
 40
6.0
 40
6.0
 40
7.0
 40
7.0
 40
7.0
 40
7.0
 10
537.2037962583117
 20
-1134.142059902651
 30
0.0
 10
648.793736505555
 20
-1121.170404875349
 30
0.0
 10
761.0004351328089
 20
-1112.002888370906
 30
0.0
 10
871.7816993634988
 20
-1094.043266031125
 30
0.0
 10
963.0985608428246
 20
-1079.239087707887
 30
0.0
 10
967.256360802071
 20
-1069.403190632729
 30
0.0
 10
950.6681436384442
 20
-978.9007648481875
 30
0.0
 10
910.3527170931948
 20
-758.9460892491034
 30
0.0
 10
780.7714762759069
 20
-609.4820953206608
 30
0.0
 10
575.2651684300054
 20
-530.6955427785979
 30
0.0
 10
470.5729586552006
 20
-490.5588381891712
 30
0.0
 10
369.691743139655
 20
-519.144916423842
 30
0.0
 10
292.0168729699826
 20
-601.6373705888027
 30
0.0
 10
218.3639775117454
 20
-679.858400097497
 30
0.0
 10
207.5990959173059
 20
-793.516795534737
 30
0.0
 10
261.1585479452569
 20
-894.3444761306155
 30
0.0
 10
287.4491472549225
 20
-943.8374771258732
 30
0.0
 10
323.4881846451317
 20
-988.0568479615176
 30
0.0
 10
351.7279729718957
 20
-1036.632168880587
 30
0.0
 10
393.7042070330162
 20
-1108.835581136516
 30
0.0
 10
448.8170851131235
 20
-1150.044617460873
 30
0.0
 10
537.2037962583117
 20
-1134.142059902651
 30
0.0
  0
SPLINE
  5
44
330
1F
100
AcDbEntity
  8
Layer 1
370
     0
100
AcDbSpline
210
0.0
220
0.0
230
1.0
 70
    11
 71
     3
 72
    41
 73
    37
 74
     0
 42
0.0000000001
 43
0.0000000001
 12
1.0
 22
0.0
 32
0.0
 13
1.0
 23
0.0
 33
0.0
 40
0.0
 40
0.0
 40
0.0
 40
0.0
 40
1.0
 40
1.0
 40
1.0
 40
2.0
 40
2.0
 40
2.0
 40
3.0
 40
3.0
 40
3.0
 40
4.0
 40
4.0
 40
4.0
 40
5.0
 40
5.0
 40
5.0
 40
6.0
 40
6.0
 40
6.0
 40
7.0
 40
7.0
 40
7.0
 40
8.0
 40
8.0
 40
8.0
 40
9.0
 40
9.0
 40
9.0
 40
10.0
 40
10.0
 40
10.0
 40
11.0
 40
11.0
 40
11.0
 40
12.0
 40
12.0
 40
12.0
 40
12.0
 10
513.4461551439517
 20
-1482.593996279613
 30
0.0
 10
535.487455128462
 20
-1478.41255585002
 30
0.0
 10
553.2998188293186
 20
-1474.121595568711
 30
0.0
 10
571.3642759094182
 20
-1471.753250266696
 30
0.0
 10
695.4838373711518
 20
-1455.481127682944
 30
0.0
 10
819.2475022974822
 20
-1432.461327139445
 30
0.0
 10
943.9099779063981
 20
-1425.336089376922
 30
0.0
 10
1118.268934486248
 20
-1415.370556558917
 30
0.0
 10
1292.324347426846
 20
-1427.487802005213
 30
0.0
 10
1461.812593427137
 20
-1475.957901339903
 30
0.0
 10
1497.135324565837
 20
-1486.059517301759
 30
0.0
 10
1513.227865540302
 20
-1476.418761563646
 30
0.0
 10
1516.410646537101
 20
-1437.477920912379
 30
0.0
 10
1520.670229466858
 20
-1385.362804911601
 30
0.0
 10
1527.507225421841
 20
-1332.954976905257
 30
0.0
 10
1539.431908491495
 20
-1282.126074422038
 30
0.0
 10
1549.306661903367
 20
-1240.035463467113
 30
0.0
 10
1533.51964177113
 20
-1228.695946512553
 30
0.0
 10
1495.717326171763
 20
-1226.085007002108
 30
0.0
 10
1406.012057047315
 20
-1219.889140602927
 30
0.0
 10
1316.502874878724
 20
-1206.289594683216
 30
0.0
 10
1226.823481323638
 20
-1205.454527305221
 30
0.0
 10
1117.86867983194
 20
-1204.439964283283
 30
0.0
 10
1011.576912850798
 20
-1150.195314713666
 30
0.0
 10
900.3151453146429
 20
-1191.8290198508
 30
0.0
 10
873.1028148118239
 20
-1202.011701134608
 30
0.0
 10
841.3259822944465
 20
-1200.598602765296
 30
0.0
 10
811.5314247069846
 20
-1203.167247325158
 30
0.0
 10
714.471304378937
 20
-1211.535200139801
 30
0.0
 10
617.3368240259806
 20
-1219.041178422925
 30
0.0
 10
520.2782510741736
 20
-1227.426238341563
 30
0.0
 10
495.5212198215713
 20
-1229.5649702025
 30
0.0
 10
469.6106625640659
 20
-1231.084665601738
 30
0.0
 10
476.5518915019429
 20
-1268.893600532801
 30
0.0
 10
489.0226264539333
 20
-1336.82152626983
 30
0.0
 10
500.1334755862299
 20
-1404.999009408375
 30
0.0
 10
513.4461551439517
 20
-1482.593996279613
 30
0.0
  0
SPLINE
  5
45
330
1F
100
AcDbEntity
  8
Layer 1
370
     0
100
AcDbSpline
210
0.0
220
0.0
230
1.0
 70
    11
 71
     3
 72
    29
 73
    25
 74
     0
 42
0.0000000001
 43
0.0000000001
 12
1.0
 22
0.0
 32
0.0
 13
1.0
 23
0.0
 33
0.0
 40
0.0
 40
0.0
 40
0.0
 40
0.0
 40
1.0
 40
1.0
 40
1.0
 40
2.0
 40
2.0
 40
2.0
 40
3.0
 40
3.0
 40
3.0
 40
4.0
 40
4.0
 40
4.0
 40
5.0
 40
5.0
 40
5.0
 40
6.0
 40
6.0
 40
6.0
 40
7.0
 40
7.0
 40
7.0
 40
8.0
 40
8.0
 40
8.0
 40
8.0
 10
1002.772256074843
 20
-1523.306238865302
 30
0.0
 10
910.2561780088336
 20
-1532.395956730967
 30
0.0
 10
792.4353834662979
 20
-1541.255459398129
 30
0.0
 10
675.6544257576343
 20
-1557.561624259182
 30
0.0
 10
649.9291238223013
 20
-1561.153686271693
 30
0.0
 10
627.8922510531474
 20
-1591.161953711089
 30
0.0
 10
604.1569179462604
 20
-1609.005866694191
 30
0.0
 10
627.6153996540497
 20
-1621.634863849484
 30
0.0
 10
649.8844648246823
 20
-1641.792362208742
 30
0.0
 10
674.7184350625948
 20
-1645.715820632842
 30
0.0
 10
896.9145281292676
 20
-1680.821489271086
 30
0.0
 10
1119.711776865523
 20
-1679.676946644915
 30
0.0
 10
1341.868841664786
 20
-1645.533746028497
 30
0.0
 10
1367.890895976981
 20
-1641.534466168596
 30
0.0
 10
1391.127157263512
 20
-1619.409736815098
 30
0.0
 10
1415.654875953749
 20
-1605.687776241663
 30
0.0
 10
1391.150969664552
 20
-1588.142248977012
 30
0.0
 10
1368.126612957676
 20
-1567.725737028099
 30
0.0
 10
1341.620315847431
 20
-1554.065757469645
 30
0.0
 10
1324.097311503619
 20
-1545.035355693213
 30
0.0
 10
1301.712365045614
 20
-1543.905427175983
 30
0.0
 10
1281.267226636246
 20
-1542.347047370724
 30
0.0
 10
1197.133371632433
 20
-1535.934548297821
 30
0.0
 10
1112.908823187838
 20
-1530.711293831382
 30
0.0
 10
1002.772256074843
 20
-1523.306238865302
 30
0.0
  0
SPLINE
  5
46
330
1F
100
AcDbEntity
  8
Layer 1
370
     0
100
AcDbSpline
210
0.0
220
0.0
230
1.0
 70
    11
 71
     3
 72
    17
 73
    13
 74
     0
 42
0.0000000001
 43
0.0000000001
 12
1.0
 22
0.0
 32
0.0
 13
1.0
 23
0.0
 33
0.0
 40
0.0
 40
0.0
 40
0.0
 40
0.0
 40
1.0
 40
1.0
 40
1.0
 40
2.0
 40
2.0
 40
2.0
 40
3.0
 40
3.0
 40
3.0
 40
4.0
 40
4.0
 40
4.0
 40
4.0
 10
1008.394475715388
 20
-787.9373006715086
 30
0.0
 10
1107.394919884153
 20
-673.7229673370584
 30
0.0
 10
1160.596379971375
 20
-551.304144294746
 30
0.0
 10
1126.0346140818
 20
-403.3171854622342
 30
0.0
 10
1111.334883654821
 20
-340.375980540156
 30
0.0
 10
1068.680425990788
 20
-310.3465763711347
 30
0.0
 10
1008.102537397941
 20
-311.7938674571024
 30
0.0
 10
946.789988952064
 20
-313.258695473799
 30
0.0
 10
905.0419499037989
 20
-350.4946391319972
 30
0.0
 10
890.5476766554712
 20
-413.0804633107537
 30
0.0
 10
856.5366907423031
 20
-559.9387186322265
 30
0.0
 10
923.0394829614816
 20
-673.8201941441939
 30
0.0
 10
1008.394475715388
 20
-787.9373006715086
 30
0.0
  0
HATCH
  5
47
330
1F
100
AcDbEntity
  8
Layer 1
 62
     7
420
 16777215
100
AcDbHatch
 10
0.0
 20
0.0
 30
0.0
210
0.0
220
0.0
230
1.0
  2
SOLID
 70
     1
 71
     0
 91
        6
 92
        1
 93
        1
 72
     4
 94
        3
 73
     0
 74
     1
 95
       62
 96
       58
 40
0.0
 40
0.0
 40
0.0
 40
0.0
 40
1.0
 40
1.0
 40
1.0
 40
2.0
 40
2.0
 40
2.0
 40
3.0
 40
3.0
 40
3.0
 40
4.0
 40
4.0
 40
4.0
 40
5.0
 40
5.0
 40
5.0
 40
6.0
 40
6.0
 40
6.0
 40
7.0
 40
7.0
 40
7.0
 40
8.0
 40
8.0
 40
8.0
 40
9.0
 40
9.0
 40
9.0
 40
10.0
 40
10.0
 40
10.0
 40
11.0
 40
11.0
 40
11.0
 40
12.0
 40
12.0
 40
12.0
 40
13.0
 40
13.0
 40
13.0
 40
14.0
 40
14.0
 40
14.0
 40
15.0
 40
15.0
 40
15.0
 40
16.0
 40
16.0
 40
16.0
 40
17.0
 40
17.0
 40
17.0
 40
18.0
 40
18.0
 40
18.0
 40
19.0
 40
19.0
 40
19.0
 40
19.0
 10
780.2851703095366
 20
-532.4957001214962
 10
784.8292555542494
 20
-494.6444487485123
 10
793.8035219592766
 20
-468.1226348931868
 10
789.9372304907429
 20
-443.6275615433633
 10
774.3826606560242
 20
-345.08047712184
 10
899.0929759803876
 20
-228.2441093743837
 10
976.529184856241
 20
-197.4749277277851
 10
989.7250375077765
 20
-192.2315708022998
 10
1006.401627047828
 20
-192.2981885731697
 10
1020.873549306008
 20
-194.2761141938245
 10
1114.55746660715
 20
-207.080099185192
 10
1222.750701092293
 20
-325.3883306756898
 10
1228.382290955631
 20
-419.9393589378133
 10
1230.348060538976
 20
-452.9427665134644
 10
1232.076909626772
 20
-485.9602724059778
 10
1234.632831315321
 20
-531.8893005657646
 10
1262.822673775643
 20
-514.3599132949585
 10
1280.994200695077
 20
-503.5798803081607
 10
1298.642972341135
 20
-492.002819609289
 10
1432.586696608198
 20
-404.1394654949054
 10
1571.510479375844
 20
-391.1174347744281
 10
1713.026805069736
 20
-470.2466236971613
 10
1872.469312583538
 20
-559.3995009949531
 10
1929.634892703856
 20
-735.2212868971892
 10
1851.35175323216
 20
-900.7736524807806
 10
1821.069084406046
 20
-964.815084892798
 10
1783.257570514583
 20
-1026.560382894042
 10
1740.822840276755
 20
-1083.332241726403
 10
1648.451699785308
 20
-1206.911983793436
 10
1608.703042770954
 20
-1346.490736537708
 10
1597.919205817565
 20
-1497.463250370314
 10
1586.906872972604
 20
-1651.633675100742
 10
1558.795860735221
 20
-1692.224276720828
 10
1406.63410229615
 20
-1722.429920596283
 10
1287.754773456831
 20
-1746.028439853873
 10
1164.987146020221
 20
-1762.090549095601
 10
1044.169900369894
 20
-1760.791096914647
 10
896.8884806292126
 20
-1759.207443297453
 10
748.2431346975427
 20
-1745.009406633906
 10
603.149017238693
 20
-1719.454144154377
 10
463.5082619881041
 20
-1694.859286528354
 10
431.4811628551015
 20
-1643.987229441085
 10
420.7751675231621
 20
-1503.910651373984
 10
409.0119918486516
 20
-1350.001561297571
 10
372.7235689876206
 20
-1204.570975471677
 10
276.2493347344443
 20
-1078.614807360038
 10
238.7294475360441
 20
-1029.629087875748
 10
204.319034385031
 20
-977.3759115281464
 10
175.1551669365817
 20
-923.0351527009025
 10
70.37198164719848
 20
-727.7937949756151
 10
162.9427041231302
 20
-508.8939571634046
 10
374.4698260581272
 20
-440.7924459000205
 10
498.6723225881051
 20
-400.8052350485314
 10
610.8974607822292
 20
-426.9933744105811
 10
718.0911331984371
 20
-492.6760357307558
 10
735.2979569970285
 20
-503.2195135747288
 10
752.1021191116051
 20
-514.4202179856802
 10
780.2851703095366
 20
-532.4957001214962
 97
        0
 97
        0
 92
        1
 93
        1
 72
     4
 94
        3
 73
     0
 74
     1
 95
       32
 96
       28
 40
0.0
 40
0.0
 40
0.0
 40
0.0
 40
1.0
 40
1.0
 40
1.0
 40
2.0
 40
2.0
 40
2.0
 40
3.0
 40
3.0
 40
3.0
 40
4.0
 40
4.0
 40
4.0
 40
5.0
 40
5.0
 40
5.0
 40
6.0
 40
6.0
 40
6.0
 40
7.0
 40
7.0
 40
7.0
 40
8.0
 40
8.0
 40
8.0
 40
9.0
 40
9.0
 40
9.0
 40
9.0
 10
1421.264200792288
 20
-1130.207511948825
 10
1421.580897129588
 20
-1129.176443580318
 10
1421.897507501542
 20
-1128.145375211812
 10
1422.214117873496
 20
-1127.114306843305
 10
1467.149923908668
 20
-1127.114306843305
 10
1512.28173093435
 20
-1129.57033679897
 10
1556.933163602587
 20
-1126.007073177609
 10
1577.174048348159
 20
-1124.391784312822
 10
1603.346370086414
 20
-1116.32195932059
 10
1614.977997289112
 20
-1101.732608398794
 10
1662.765789666921
 20
-1041.793270401351
 10
1712.498633979516
 20
-981.7370195323747
 10
1748.695546728968
 20
-914.7919356043449
 10
1774.216251139118
 20
-867.5921032153974
 10
1794.383721478594
 20
-808.0759296371616
 10
1790.470063104021
 20
-756.0500456662758
 10
1775.308698765179
 20
-554.5012815044456
 10
1570.198992046349
 20
-453.7699895535716
 10
1385.092991681504
 20
-554.1388516026927
 10
1210.865734012823
 20
-648.609007964893
 10
1097.038502634634
 20
-789.3388796843592
 10
1066.688608907389
 20
-990.6225696995916
 10
1055.666733908944
 20
-1063.720881214829
 10
1054.620879500801
 20
-1073.736359899276
 10
1127.638985347554
 20
-1088.659514262368
 10
1224.306759833191
 20
-1108.416156209891
 10
1323.281156501902
 20
-1116.886579717819
 10
1421.264200792288
 20
-1130.207511948825
 97
        0
 97
        0
 92
        1
 93
        1
 72
     4
 94
        3
 73
     0
 74
     1
 95
       26
 96
       22
 40
0.0
 40
0.0
 40
0.0
 40
0.0
 40
1.0
 40
1.0
 40
1.0
 40
2.0
 40
2.0
 40
2.0
 40
3.0
 40
3.0
 40
3.0
 40
4.0
 40
4.0
 40
4.0
 40
5.0
 40
5.0
 40
5.0
 40
6.0
 40
6.0
 40
6.0
 40
7.0
 40
7.0
 40
7.0
 40
7.0
 10
537.2037962583117
 20
-1134.142059902651
 10
648.793736505555
 20
-1121.170404875349
 10
761.0004351328089
 20
-1112.002888370906
 10
871.7816993634988
 20
-1094.043266031125
 10
963.0985608428246
 20
-1079.239087707887
 10
967.256360802071
 20
-1069.403190632729
 10
950.6681436384442
 20
-978.9007648481875
 10
910.3527170931948
 20
-758.9460892491034
 10
780.7714762759069
 20
-609.4820953206608
 10
575.2651684300054
 20
-530.6955427785979
 10
470.5729586552006
 20
-490.5588381891712
 10
369.691743139655
 20
-519.144916423842
 10
292.0168729699826
 20
-601.6373705888027
 10
218.3639775117454
 20
-679.858400097497
 10
207.5990959173059
 20
-793.516795534737
 10
261.1585479452569
 20
-894.3444761306155
 10
287.4491472549225
 20
-943.8374771258732
 10
323.4881846451317
 20
-988.0568479615176
 10
351.7279729718957
 20
-1036.632168880587
 10
393.7042070330162
 20
-1108.835581136516
 10
448.8170851131235
 20
-1150.044617460873
 10
537.2037962583117
 20
-1134.142059902651
 97
        0
 97
        0
 92
        1
 93
        1
 72
     4
 94
        3
 73
     0
 74
     1
 95
       41
 96
       37
 40
0.0
 40
0.0
 40
0.0
 40
0.0
 40
1.0
 40
1.0
 40
1.0
 40
2.0
 40
2.0
 40
2.0
 40
3.0
 40
3.0
 40
3.0
 40
4.0
 40
4.0
 40
4.0
 40
5.0
 40
5.0
 40
5.0
 40
6.0
 40
6.0
 40
6.0
 40
7.0
 40
7.0
 40
7.0
 40
8.0
 40
8.0
 40
8.0
 40
9.0
 40
9.0
 40
9.0
 40
10.0
 40
10.0
 40
10.0
 40
11.0
 40
11.0
 40
11.0
 40
12.0
 40
12.0
 40
12.0
 40
12.0
 10
513.4461551439517
 20
-1482.593996279613
 10
535.487455128462
 20
-1478.41255585002
 10
553.2998188293186
 20
-1474.121595568711
 10
571.3642759094182
 20
-1471.753250266696
 10
695.4838373711518
 20
-1455.481127682944
 10
819.2475022974822
 20
-1432.461327139445
 10
943.9099779063981
 20
-1425.336089376922
 10
1118.268934486248
 20
-1415.370556558917
 10
1292.324347426846
 20
-1427.487802005213
 10
1461.812593427137
 20
-1475.957901339903
 10
1497.135324565837
 20
-1486.059517301759
 10
1513.227865540302
 20
-1476.418761563646
 10
1516.410646537101
 20
-1437.477920912379
 10
1520.670229466858
 20
-1385.362804911601
 10
1527.507225421841
 20
-1332.954976905257
 10
1539.431908491495
 20
-1282.126074422038
 10
1549.306661903367
 20
-1240.035463467113
 10
1533.51964177113
 20
-1228.695946512553
 10
1495.717326171763
 20
-1226.085007002108
 10
1406.012057047315
 20
-1219.889140602927
 10
1316.502874878724
 20
-1206.289594683216
 10
1226.823481323638
 20
-1205.454527305221
 10
1117.86867983194
 20
-1204.439964283283
 10
1011.576912850798
 20
-1150.195314713666
 10
900.3151453146429
 20
-1191.8290198508
 10
873.1028148118239
 20
-1202.011701134608
 10
841.3259822944465
 20
-1200.598602765296
 10
811.5314247069846
 20
-1203.167247325158
 10
714.471304378937
 20
-1211.535200139801
 10
617.3368240259806
 20
-1219.041178422925
 10
520.2782510741736
 20
-1227.426238341563
 10
495.5212198215713
 20
-1229.5649702025
 10
469.6106625640659
 20
-1231.084665601738
 10
476.5518915019429
 20
-1268.893600532801
 10
489.0226264539333
 20
-1336.82152626983
 10
500.1334755862299
 20
-1404.999009408375
 10
513.4461551439517
 20
-1482.593996279613
 97
        0
 97
        0
 92
        1
 93
        1
 72
     4
 94
        3
 73
     0
 74
     1
 95
       29
 96
       25
 40
0.0
 40
0.0
 40
0.0
 40
0.0
 40
1.0
 40
1.0
 40
1.0
 40
2.0
 40
2.0
 40
2.0
 40
3.0
 40
3.0
 40
3.0
 40
4.0
 40
4.0
 40
4.0
 40
5.0
 40
5.0
 40
5.0
 40
6.0
 40
6.0
 40
6.0
 40
7.0
 40
7.0
 40
7.0
 40
8.0
 40
8.0
 40
8.0
 40
8.0
 10
1002.772256074843
 20
-1523.306238865302
 10
910.2561780088336
 20
-1532.395956730967
 10
792.4353834662979
 20
-1541.255459398129
 10
675.6544257576343
 20
-1557.561624259182
 10
649.9291238223013
 20
-1561.153686271693
 10
627.8922510531474
 20
-1591.161953711089
 10
604.1569179462604
 20
-1609.005866694191
 10
627.6153996540497
 20
-1621.634863849484
 10
649.8844648246823
 20
-1641.792362208742
 10
674.7184350625948
 20
-1645.715820632842
 10
896.9145281292676
 20
-1680.821489271086
 10
1119.711776865523
 20
-1679.676946644915
 10
1341.868841664786
 20
-1645.533746028497
 10
1367.890895976981
 20
-1641.534466168596
 10
1391.127157263512
 20
-1619.409736815098
 10
1415.654875953749
 20
-1605.687776241663
 10
1391.150969664552
 20
-1588.142248977012
 10
1368.126612957676
 20
-1567.725737028099
 10
1341.620315847431
 20
-1554.065757469645
 10
1324.097311503619
 20
-1545.035355693213
 10
1301.712365045614
 20
-1543.905427175983
 10
1281.267226636246
 20
-1542.347047370724
 10
1197.133371632433
 20
-1535.934548297821
 10
1112.908823187838
 20
-1530.711293831382
 10
1002.772256074843
 20
-1523.306238865302
 97
        0
 97
        0
 92
        1
 93
        1
 72
     4
 94
        3
 73
     0
 74
     1
 95
       17
 96
       13
 40
0.0
 40
0.0
 40
0.0
 40
0.0
 40
1.0
 40
1.0
 40
1.0
 40
2.0
 40
2.0
 40
2.0
 40
3.0
 40
3.0
 40
3.0
 40
4.0
 40
4.0
 40
4.0
 40
4.0
 10
1008.394475715388
 20
-787.9373006715086
 10
1107.394919884153
 20
-673.7229673370584
 10
1160.596379971375
 20
-551.304144294746
 10
1126.0346140818
 20
-403.3171854622342
 10
1111.334883654821
 20
-340.375980540156
 10
1068.680425990788
 20
-310.3465763711347
 10
1008.102537397941
 20
-311.7938674571024
 10
946.789988952064
 20
-313.258695473799
 10
905.0419499037989
 20
-350.4946391319972
 10
890.5476766554712
 20
-413.0804633107537
 10
856.5366907423031
 20
-559.9387186322265
 10
923.0394829614816
 20
-673.8201941441939
 10
1008.394475715388
 20
-787.9373006715086
 97
        0
 97
        0
 75
     2
 76
     1
 98
        0
  0
ENDSEC
  0
SECTION
  2
OBJECTS
  0
DICTIONARY
  5
C
330
0
100
AcDbDictionary
281
     1
  3
ACAD_GROUP
350
D
  3
ACAD_LAYOUT
350
1A
  3
ACAD_MATERIAL
350
3B
  3
ACAD_MLEADERSTYLE
350
49
  3
ACAD_MLINESTYLE
350
17
  3
ACAD_PLOTSETTINGS
350
19
  3
ACAD_PLOTSTYLENAME
350
E
  3
ACAD_TABLESTYLE
350
48
  3
ACAD_VISUALSTYLE
350
2A
  0
SUN
  5
3F
330
29
100
AcDbSun
 90
        1
290
     0
 63
     7
421
 16777215
 40
1.0
291
     1
 91
  2455826
 92
 54000000
292
     0
 70
     2
 71
   256
280
     1
  0
DICTIONARY
  5
D
102
{ACAD_REACTORS
330
C
102
}
330
C
100
AcDbDictionary
281
     1
  0
DICTIONARY
  5
1A
102
{ACAD_REACTORS
330
C
102
}
330
C
100
AcDbDictionary
281
     1
  3
Layout1
350
1E
  3
Layout2
350
26
  3
Model
350
22
  0
DICTIONARY
  5
3B
102
{ACAD_REACTORS
330
C
102
}
330
C
100
AcDbDictionary
281
     1
  3
ByBlock
350
3D
  3
ByLayer
350
3C
  3
Global
350
3E
  0
DICTIONARY
  5
49
102
{ACAD_REACTORS
330
C
102
}
330
C
100
AcDbDictionary
281
     1
  0
DICTIONARY
  5
17
102
{ACAD_REACTORS
330
C
102
}
330
C
100
AcDbDictionary
281
     1
  3
Standard
350
18
  0
DICTIONARY
  5
19
102
{ACAD_REACTORS
330
C
102
}
330
C
100
AcDbDictionary
281
     1
  0
ACDBDICTIONARYWDFLT
  5
E
102
{ACAD_REACTORS
330
C
102
}
330
C
100
AcDbDictionary
281
     1
  3
Normal
350
F
100
AcDbDictionaryWithDefault
340
F
  0
DICTIONARY
  5
48
102
{ACAD_REACTORS
330
C
102
}
330
C
100
AcDbDictionary
281
     1
  0
DICTIONARY
  5
2A
102
{ACAD_REACTORS
330
C
102
}
330
C
100
AcDbDictionary
281
     1
  3
2dWireframe
350
2F
  3
3D Hidden
350
31
  3
3dWireframe
350
30
  3
Basic
350
32
  3
Brighten
350
36
  3
ColorChange
350
3A
  3
Conceptual
350
34
  3
Dim
350
35
  3
Facepattern
350
39
  3
Flat
350
2B
  3
FlatWithEdges
350
2C
  3
Gouraud
350
2D
  3
GouraudWithEdges
350
2E
  3
Linepattern
350
38
  3
Realistic
350
33
  3
Thicken
350
37
  0
LAYOUT
  5
1E
102
{ACAD_REACTORS
330
1A
102
}
330
1A
100
AcDbPlotSettings
  1

  2
none_device
  4

  6

 40
0.0
 41
0.0
 42
0.0
 43
0.0
 44
0.0
 45
0.0
 46
0.0
 47
0.0
 48
0.0
 49
0.0
140
0.0
141
0.0
142
1.0
143
1.0
 70
   688
 72
     0
 73
     0
 74
     5
  7

 75
    16
 76
     0
 77
     2
 78
   300
147
1.0
148
0.0
149
0.0
100
AcDbLayout
  1
Layout1
 70
     1
 71
     1
 10
0.0
 20
0.0
 11
12.0
 21
9.0
 12
0.0
 22
0.0
 32
0.0
 14
1.000000000000000E+20
 24
1.000000000000000E+20
 34
1.000000000000000E+20
 15
-1.000000000000000E+20
 25
-1.000000000000000E+20
 35
-1.000000000000000E+20
146
0.0
 13
0.0
 23
0.0
 33
0.0
 16
1.0
 26
0.0
 36
0.0
 17
0.0
 27
1.0
 37
0.0
 76
     0
330
1B
  0
LAYOUT
  5
26
102
{ACAD_REACTORS
330
1A
102
}
330
1A
100
AcDbPlotSettings
  1

  2
none_device
  4

  6

 40
0.0
 41
0.0
 42
0.0
 43
0.0
 44
0.0
 45
0.0
 46
0.0
 47
0.0
 48
0.0
 49
0.0
140
0.0
141
0.0
142
1.0
143
1.0
 70
   688
 72
     0
 73
     0
 74
     5
  7

 75
    16
 76
     0
 77
     2
 78
   300
147
1.0
148
0.0
149
0.0
100
AcDbLayout
  1
Layout2
 70
     1
 71
     2
 10
0.0
 20
0.0
 11
0.0
 21
0.0
 12
0.0
 22
0.0
 32
0.0
 14
0.0
 24
0.0
 34
0.0
 15
0.0
 25
0.0
 35
0.0
146
0.0
 13
0.0
 23
0.0
 33
0.0
 16
1.0
 26
0.0
 36
0.0
 17
0.0
 27
1.0
 37
0.0
 76
     0
330
23
  0
LAYOUT
  5
22
102
{ACAD_REACTORS
330
1A
102
}
330
1A
100
AcDbPlotSettings
  1

  2
none_device
  4

  6

 40
0.0
 41
0.0
 42
0.0
 43
0.0
 44
0.0
 45
0.0
 46
0.0
 47
0.0
 48
0.0
 49
0.0
140
0.0
141
0.0
142
1.0
143
1.0
 70
  1712
 72
     0
 73
     0
 74
     0
  7

 75
     0
 76
     0
 77
     2
 78
   300
147
1.0
148
0.0
149
0.0
100
AcDbLayout
  1
Model
 70
     1
 71
     0
 10
0.0
 20
0.0
 11
12.0
 21
9.0
 12
0.0
 22
0.0
 32
0.0
 14
1.000000000000000E+20
 24
1.000000000000000E+20
 34
1.000000000000000E+20
 15
-1.000000000000000E+20
 25
-1.000000000000000E+20
 35
-1.000000000000000E+20
146
0.0
 13
0.0
 23
0.0
 33
0.0
 16
1.0
 26
0.0
 36
0.0
 17
0.0
 27
1.0
 37
0.0
 76
     0
330
1F
331
29
  0
MATERIAL
  5
3D
102
{ACAD_REACTORS
330
3B
102
}
330
3B
100
AcDbMaterial
  1
ByBlock
 72
     1
 94
      127
  0
MATERIAL
  5
3C
102
{ACAD_REACTORS
330
3B
102
}
330
3B
100
AcDbMaterial
  1
ByLayer
 72
     1
 94
      127
  0
MATERIAL
  5
3E
102
{ACAD_REACTORS
330
3B
102
}
330
3B
100
AcDbMaterial
  1
Global
 72
     1
 94
      127
  0
MLINESTYLE
  5
18
102
{ACAD_REACTORS
330
17
102
}
330
17
100
AcDbMlineStyle
  2
Standard
 70
     0
  3

 62
   256
 51
90.0
 52
90.0
 71
     2
 49
0.5
 62
   256
  6
BYLAYER
 49
-0.5
 62
   256
  6
BYLAYER
  0
ACDBPLACEHOLDER
  5
F
102
{ACAD_REACTORS
330
E
102
}
330
E
  0
VISUALSTYLE
  5
2F
102
{ACAD_REACTORS
330
2A
102
}
330
2A
100
AcDbVisualStyle
  2
2dWireframe
 70
     4
177
     2
291
     0
 71
     0
176
     1
 72
     2
176
     1
 73
     0
176
     1
 90
        0
176
     1
 40
-0.6
176
     1
 41
-30.0
176
     1
 62
     5
 63
     7
421
 16777215
176
     1
 74
     1
176
     1
 91
        4
176
     1
 64
     7
176
     1
 65
   257
176
     1
 75
     1
176
     1
175
     1
176
     1
 42
1.0
176
     1
 92
        0
176
     1
 66
   257
176
     1
 43
1.0
176
     1
 76
     1
176
     1
 77
     6
176
     1
 78
     2
176
     1
 67
     7
176
     1
 79
     5
176
     1
170
     0
176
     1
171
     0
176
     1
290
     0
176
     1
 93
        1
176
     1
 44
0.0
176
     1
173
     0
176
     1
  0
VISUALSTYLE
  5
31
102
{ACAD_REACTORS
330
2A
102
}
330
2A
100
AcDbVisualStyle
  2
3D Hidden
 70
     6
177
     2
291
     0
 71
     1
176
     1
 72
     2
176
     1
 73
     2
176
     1
 90
        0
176
     1
 40
-0.6
176
     1
 41
-30.0
176
     1
 62
     5
 63
     7
421
 16777215
176
     1
 74
     2
176
     1
 91
        2
176
     1
 64
     7
176
     1
 65
   257
176
     1
 75
     2
176
     1
175
     1
176
     1
 42
40.0
176
     1
 92
        0
176
     1
 66
   257
176
     1
 43
1.0
176
     1
 76
     1
176
     1
 77
     6
176
     1
 78
     2
176
     1
 67
     7
176
     1
 79
     3
176
     1
170
     0
176
     1
171
     0
176
     1
290
     0
176
     1
 93
        1
176
     1
 44
0.0
176
     1
173
     0
176
     1
  0
VISUALSTYLE
  5
30
102
{ACAD_REACTORS
330
2A
102
}
330
2A
100
AcDbVisualStyle
  2
3dWireframe
 70
     5
177
     2
291
     0
 71
     0
176
     1
 72
     2
176
     1
 73
     0
176
     1
 90
        0
176
     1
 40
-0.6
176
     1
 41
-30.0
176
     1
 62
     5
 63
     7
421
 16777215
176
     1
 74
     1
176
     1
 91
        4
176
     1
 64
     7
176
     1
 65
   257
176
     1
 75
     1
176
     1
175
     1
176
     1
 42
1.0
176
     1
 92
        0
176
     1
 66
   257
176
     1
 43
1.0
176
     1
 76
     1
176
     1
 77
     6
176
     1
 78
     2
176
     1
 67
     7
176
     1
 79
     5
176
     1
170
     0
176
     1
171
     0
176
     1
290
     0
176
     1
 93
        1
176
     1
 44
0.0
176
     1
173
     0
176
     1
  0
VISUALSTYLE
  5
32
102
{ACAD_REACTORS
330
2A
102
}
330
2A
100
AcDbVisualStyle
  2
Basic
 70
     7
177
     2
291
     1
 71
     1
176
     1
 72
     0
176
     1
 73
     1
176
     1
 90
        0
176
     1
 40
-0.6
176
     1
 41
-30.0
176
     1
 62
     5
 63
     7
421
 16777215
176
     1
 74
     0
176
     1
 91
        4
176
     1
 64
     7
176
     1
 65
   257
176
     1
 75
     1
176
     1
175
     1
176
     1
 42
1.0
176
     1
 92
        8
176
     1
 66
     7
176
     1
 43
1.0
176
     1
 76
     1
176
     1
 77
     6
176
     1
 78
     2
176
     1
 67
     7
176
     1
 79
     5
176
     1
170
     0
176
     1
171
     0
176
     1
290
     0
176
     1
 93
        1
176
     1
 44
0.0
176
     1
173
     0
176
     1
  0
VISUALSTYLE
  5
36
102
{ACAD_REACTORS
330
2A
102
}
330
2A
100
AcDbVisualStyle
  2
Brighten
 70
    12
177
     2
291
     1
 71
     2
176
     1
 72
     2
176
     1
 73
     0
176
     1
 90
        0
176
     1
 40
-0.6
176
     1
 41
-30.0
176
     1
 62
     5
 63
     7
421
 16777215
176
     1
 74
     1
176
     1
 91
        4
176
     1
 64
     7
176
     1
 65
   257
176
     1
 75
     1
176
     1
175
     1
176
     1
 42
1.0
176
     1
 92
        8
176
     1
 66
     7
176
     1
 43
1.0
176
     1
 76
     1
176
     1
 77
     6
176
     1
 78
     2
176
     1
 67
     7
176
     1
 79
     5
176
     1
170
     0
176
     1
171
     0
176
     1
290
     0
176
     1
 93
        1
176
     1
 44
50.0
176
     1
173
     0
176
     1
  0
VISUALSTYLE
  5
3A
102
{ACAD_REACTORS
330
2A
102
}
330
2A
100
AcDbVisualStyle
  2
ColorChange
 70
    16
177
     2
291
     1
 71
     2
176
     1
 72
     2
176
     1
 73
     3
176
     1
 90
        0
176
     1
 40
-0.6
176
     1
 41
-30.0
176
     1
 62
     5
 63
     8
421
  8421504
176
     1
 74
     1
176
     1
 91
        4
176
     1
 64
     7
176
     1
 65
   257
176
     1
 75
     1
176
     1
175
     1
176
     1
 42
1.0
176
     1
 92
        8
176
     1
 66
     8
424
  8421504
176
     1
 43
1.0
176
     1
 76
     1
176
     1
 77
     6
176
     1
 78
     2
176
     1
 67
     7
176
     1
 79
     5
176
     1
170
     0
176
     1
171
     0
176
     1
290
     0
176
     1
 93
        1
176
     1
 44
0.0
176
     1
173
     0
176
     1
  0
VISUALSTYLE
  5
34
102
{ACAD_REACTORS
330
2A
102
}
330
2A
100
AcDbVisualStyle
  2
Conceptual
 70
     9
177
     2
291
     0
 71
     3
176
     1
 72
     2
176
     1
 73
     0
176
     1
 90
        0
176
     1
 40
-0.6
176
     1
 41
-30.0
176
     1
 62
     5
 63
     7
421
 16777215
176
     1
 74
     2
176
     1
 91
        2
176
     1
 64
     7
176
     1
 65
   257
176
     1
 75
     1
176
     1
175
     1
176
     1
 42
40.0
176
     1
 92
        8
176
     1
 66
     7
176
     1
 43
1.0
176
     1
 76
     1
176
     1
 77
     6
176
     1
 78
     2
176
     1
 67
     7
176
     1
 79
     3
176
     1
170
     0
176
     1
171
     0
176
     1
290
     0
176
     1
 93
        1
176
     1
 44
0.0
176
     1
173
     0
176
     1
  0
VISUALSTYLE
  5
35
102
{ACAD_REACTORS
330
2A
102
}
330
2A
100
AcDbVisualStyle
  2
Dim
 70
    11
177
     2
291
     1
 71
     2
176
     1
 72
     2
176
     1
 73
     0
176
     1
 90
        0
176
     1
 40
-0.6
176
     1
 41
-30.0
176
     1
 62
     5
 63
     7
421
 16777215
176
     1
 74
     1
176
     1
 91
        4
176
     1
 64
     7
176
     1
 65
   257
176
     1
 75
     1
176
     1
175
     1
176
     1
 42
1.0
176
     1
 92
        8
176
     1
 66
     7
176
     1
 43
1.0
176
     1
 76
     1
176
     1
 77
     6
176
     1
 78
     2
176
     1
 67
     7
176
     1
 79
     5
176
     1
170
     0
176
     1
171
     0
176
     1
290
     0
176
     1
 93
        1
176
     1
 44
-50.0
176
     1
173
     0
176
     1
  0
VISUALSTYLE
  5
39
102
{ACAD_REACTORS
330
2A
102
}
330
2A
100
AcDbVisualStyle
  2
Facepattern
 70
    15
177
     2
291
     1
 71
     2
176
     1
 72
     2
176
     1
 73
     0
176
     1
 90
        0
176
     1
 40
-0.6
176
     1
 41
-30.0
176
     1
 62
     5
 63
     7
421
 16777215
176
     1
 74
     1
176
     1
 91
        4
176
     1
 64
     7
176
     1
 65
   257
176
     1
 75
     1
176
     1
175
     1
176
     1
 42
1.0
176
     1
 92
        8
176
     1
 66
     7
176
     1
 43
1.0
176
     1
 76
     1
176
     1
 77
     6
176
     1
 78
     2
176
     1
 67
     7
176
     1
 79
     5
176
     1
170
     0
176
     1
171
     0
176
     1
290
     0
176
     1
 93
        1
176
     1
 44
0.0
176
     1
173
     0
176
     1
  0
VISUALSTYLE
  5
2B
102
{ACAD_REACTORS
330
2A
102
}
330
2A
100
AcDbVisualStyle
  2
Flat
 70
     0
177
     2
291
     1
 71
     2
176
     1
 72
     1
176
     1
 73
     1
176
     1
 90
        2
176
     1
 40
-0.6
176
     1
 41
30.0
176
     1
 62
     5
 63
     7
421
 16777215
176
     1
 74
     0
176
     1
 91
        4
176
     1
 64
     7
176
     1
 65
   257
176
     1
 75
     1
176
     1
175
     1
176
     1
 42
1.0
176
     1
 92
        8
176
     1
 66
     7
176
     1
 43
1.0
176
     1
 76
     1
176
     1
 77
     6
176
     1
 78
     2
176
     1
 67
     7
176
     1
 79
     5
176
     1
170
     0
176
     1
171
     0
176
     1
290
     0
176
     1
 93
       13
176
     1
 44
0.0
176
     1
173
     0
176
     1
  0
VISUALSTYLE
  5
2C
102
{ACAD_REACTORS
330
2A
102
}
330
2A
100
AcDbVisualStyle
  2
FlatWithEdges
 70
     1
177
     2
291
     1
 71
     2
176
     1
 72
     1
176
     1
 73
     1
176
     1
 90
        2
176
     1
 40
-0.6
176
     1
 41
30.0
176
     1
 62
     5
 63
     7
421
 16777215
176
     1
 74
     1
176
     1
 91
        4
176
     1
 64
     7
176
     1
 65
   257
176
     1
 75
     1
176
     1
175
     1
176
     1
 42
1.0
176
     1
 92
        0
176
     1
 66
   257
176
     1
 43
1.0
176
     1
 76
     1
176
     1
 77
     6
176
     1
 78
     2
176
     1
 67
     7
176
     1
 79
     5
176
     1
170
     0
176
     1
171
     0
176
     1
290
     0
176
     1
 93
       13
176
     1
 44
0.0
176
     1
173
     0
176
     1
  0
VISUALSTYLE
  5
2D
102
{ACAD_REACTORS
330
2A
102
}
330
2A
100
AcDbVisualStyle
  2
Gouraud
 70
     2
177
     2
291
     1
 71
     2
176
     1
 72
     2
176
     1
 73
     1
176
     1
 90
        2
176
     1
 40
-0.6
176
     1
 41
30.0
176
     1
 62
     5
 63
     7
421
 16777215
176
     1
 74
     0
176
     1
 91
        4
176
     1
 64
     7
176
     1
 65
   257
176
     1
 75
     1
176
     1
175
     1
176
     1
 42
1.0
176
     1
 92
        0
176
     1
 66
     7
176
     1
 43
1.0
176
     1
 76
     1
176
     1
 77
     6
176
     1
 78
     2
176
     1
 67
     7
176
     1
 79
     5
176
     1
170
     0
176
     1
171
     0
176
     1
290
     0
176
     1
 93
       13
176
     1
 44
0.0
176
     1
173
     0
176
     1
  0
VISUALSTYLE
  5
2E
102
{ACAD_REACTORS
330
2A
102
}
330
2A
100
AcDbVisualStyle
  2
GouraudWithEdges
 70
     3
177
     2
291
     1
 71
     2
176
     1
 72
     2
176
     1
 73
     1
176
     1
 90
        2
176
     1
 40
-0.6
176
     1
 41
30.0
176
     1
 62
     5
 63
     7
421
 16777215
176
     1
 74
     1
176
     1
 91
        4
176
     1
 64
     7
176
     1
 65
   257
176
     1
 75
     1
176
     1
175
     1
176
     1
 42
1.0
176
     1
 92
        0
176
     1
 66
   257
176
     1
 43
1.0
176
     1
 76
     1
176
     1
 77
     6
176
     1
 78
     2
176
     1
 67
     7
176
     1
 79
     5
176
     1
170
     0
176
     1
171
     0
176
     1
290
     0
176
     1
 93
       13
176
     1
 44
0.0
176
     1
173
     0
176
     1
  0
VISUALSTYLE
  5
38
102
{ACAD_REACTORS
330
2A
102
}
330
2A
100
AcDbVisualStyle
  2
Linepattern
 70
    14
177
     2
291
     1
 71
     2
176
     1
 72
     2
176
     1
 73
     0
176
     1
 90
        0
176
     1
 40
-0.6
176
     1
 41
-30.0
176
     1
 62
     5
 63
     7
421
 16777215
176
     1
 74
     1
176
     1
 91
        4
176
     1
 64
     7
176
     1
 65
   257
176
     1
 75
     7
176
     1
175
     7
176
     1
 42
1.0
176
     1
 92
        8
176
     1
 66
     7
176
     1
 43
1.0
176
     1
 76
     1
176
     1
 77
     6
176
     1
 78
     2
176
     1
 67
     7
176
     1
 79
     5
176
     1
170
     0
176
     1
171
     0
176
     1
290
     0
176
     1
 93
        1
176
     1
 44
0.0
176
     1
173
     0
176
     1
  0
VISUALSTYLE
  5
33
102
{ACAD_REACTORS
330
2A
102
}
330
2A
100
AcDbVisualStyle
  2
Realistic
 70
     8
177
     2
291
     0
 71
     2
176
     1
 72
     2
176
     1
 73
     0
176
     1
 90
        0
176
     1
 40
-0.6
176
     1
 41
-30.0
176
     1
 62
     5
 63
     7
421
 16777215
176
     1
 74
     1
176
     1
 91
        0
176
     1
 64
     7
176
     1
 65
   257
176
     1
 75
     1
176
     1
175
     1
176
     1
 42
1.0
176
     1
 92
        8
176
     1
 66
     8
424
  7895160
176
     1
 43
1.0
176
     1
 76
     1
176
     1
 77
     6
176
     1
 78
     2
176
     1
 67
     7
176
     1
 79
     5
176
     1
170
     0
176
     1
171
     0
176
     1
290
     0
176
     1
 93
       13
176
     1
 44
0.0
176
     1
173
     0
176
     1
  0
VISUALSTYLE
  5
37
102
{ACAD_REACTORS
330
2A
102
}
330
2A
100
AcDbVisualStyle
  2
Thicken
 70
    13
177
     2
291
     1
 71
     2
176
     1
 72
     2
176
     1
 73
     0
176
     1
 90
        0
176
     1
 40
-0.6
176
     1
 41
-30.0
176
     1
 62
     5
 63
     7
421
 16777215
176
     1
 74
     1
176
     1
 91
        4
176
     1
 64
     7
176
     1
 65
   257
176
     1
 75
     1
176
     1
175
     1
176
     1
 42
1.0
176
     1
 92
       12
176
     1
 66
     7
176
     1
 43
1.0
176
     1
 76
     1
176
     1
 77
     6
176
     1
 78
     2
176
     1
 67
     7
176
     1
 79
     5
176
     1
170
     0
176
     1
171
     0
176
     1
290
     0
176
     1
 93
        1
176
     1
 44
0.0
176
     1
173
     0
176
     1
  0
ENDSEC
  0
EOF
