  0
SECTION
  2
HEADER
  9
$ACADVER
  1
AC1024
  9
$ACADMAINTVER
 70
     6
  9
$DWGCODEPAGE
  3
ANSI_1252
  9
$INSBASE
 10
0.0
 20
0.0
 30
0.0
  9
$EXTMIN
 10
1.000000000000000E+20
 20
1.000000000000000E+20
 30
1.000000000000000E+20
  9
$EXTMAX
 10
-1.000000000000000E+20
 20
-1.000000000000000E+20
 30
-1.000000000000000E+20
  9
$LIMMIN
 10
0.0
 20
0.0
  9
$LIMMAX
 10
12.0
 20
9.0
  9
$ORTHOMODE
 70
     0
  9
$REGENMODE
 70
     1
  9
$FILLMODE
 70
     1
  9
$QTEXTMODE
 70
     0
  9
$MIRRTEXT
 70
     1
  9
$LTSCALE
 40
1.0
  9
$ATTMODE
 70
     1
  9
$TEXTSIZE
 40
0.2
  9
$TRACEWID
 40
0.05
  9
$TEXTSTYLE
  7
Standard
  9
$CLAYER
  8
0
  9
$CELTYPE
  6
ByLayer
  9
$CECOLOR
 62
   256
  9
$CELTSCALE
 40
1.0
  9
$DISPSILH
 70
     0
  9
$DIMSCALE
 40
1.0
  9
$DIMASZ
 40
0.18
  9
$DIMEXO
 40
0.0625
  9
$DIMDLI
 40
0.38
  9
$DIMRND
 40
0.0
  9
$DIMDLE
 40
0.0
  9
$DIMEXE
 40
0.18
  9
$DIMTP
 40
0.0
  9
$DIMTM
 40
0.0
  9
$DIMTXT
 40
0.18
  9
$DIMCEN
 40
0.09
  9
$DIMTSZ
 40
0.0
  9
$DIMTOL
 70
     0
  9
$DIMLIM
 70
     0
  9
$DIMTIH
 70
     1
  9
$DIMTOH
 70
     1
  9
$DIMSE1
 70
     0
  9
$DIMSE2
 70
     0
  9
$DIMTAD
 70
     0
  9
$DIMZIN
 70
     0
  9
$DIMBLK
  1

  9
$DIMASO
 70
     1
  9
$DIMSHO
 70
     1
  9
$DIMPOST
  1

  9
$DIMAPOST
  1

  9
$DIMALT
 70
     0
  9
$DIMALTD
 70
     2
  9
$DIMALTF
 40
25.4
  9
$DIMLFAC
 40
1.0
  9
$DIMTOFL
 70
     0
  9
$DIMTVP
 40
0.0
  9
$DIMTIX
 70
     0
  9
$DIMSOXD
 70
     0
  9
$DIMSAH
 70
     0
  9
$DIMBLK1
  1

  9
$DIMBLK2
  1

  9
$DIMSTYLE
  2
Standard
  9
$DIMCLRD
 70
     0
  9
$DIMCLRE
 70
     0
  9
$DIMCLRT
 70
     0
  9
$DIMTFAC
 40
1.0
  9
$DIMGAP
 40
0.09
  9
$DIMJUST
 70
     0
  9
$DIMSD1
 70
     0
  9
$DIMSD2
 70
     0
  9
$DIMTOLJ
 70
     1
  9
$DIMTZIN
 70
     0
  9
$DIMALTZ
 70
     0
  9
$DIMALTTZ
 70
     0
  9
$DIMUPT
 70
     0
  9
$DIMDEC
 70
     4
  9
$DIMTDEC
 70
     4
  9
$DIMALTU
 70
     2
  9
$DIMALTTD
 70
     2
  9
$DIMTXSTY
  7
Standard
  9
$DIMAUNIT
 70
     0
  9
$DIMADEC
 70
     0
  9
$DIMALTRND
 40
0.0
  9
$DIMAZIN
 70
     0
  9
$DIMDSEP
 70
    46
  9
$DIMATFIT
 70
     3
  9
$DIMFRAC
 70
     0
  9
$DIMLDRBLK
  1

  9
$DIMLUNIT
 70
     2
  9
$DIMLWD
 70
    -2
  9
$DIMLWE
 70
    -2
  9
$DIMTMOVE
 70
     0
  9
$DIMFXL
 40
1.0
  9
$DIMFXLON
 70
     0
  9
$DIMJOGANG
 40
0.7853981633974483
  9
$DIMTFILL
 70
     0
  9
$DIMTFILLCLR
 70
     0
  9
$DIMARCSYM
 70
     0
  9
$DIMLTYPE
  6

  9
$DIMLTEX1
  6

  9
$DIMLTEX2
  6

  9
$DIMTXTDIRECTION
 70
     0
  9
$LUNITS
 70
     2
  9
$LUPREC
 70
     4
  9
$SKETCHINC
 40
0.1
  9
$FILLETRAD
 40
0.5
  9
$AUNITS
 70
     0
  9
$AUPREC
 70
     0
  9
$MENU
  1
.
  9
$ELEVATION
 40
0.0
  9
$PELEVATION
 40
0.0
  9
$THICKNESS
 40
0.0
  9
$LIMCHECK
 70
     0
  9
$CHAMFERA
 40
0.5
  9
$CHAMFERB
 40
0.5
  9
$CHAMFERC
 40
1.0
  9
$CHAMFERD
 40
0.0
  9
$SKPOLY
 70
     0
  9
$TDCREATE
 40
2458270.897313241
  9
$TDUCREATE
 40
2458271.063979907
  9
$TDUPDATE
 40
2458270.897313264
  9
$TDUUPDATE
 40
2458271.063979931
  9
$TDINDWG
 40
0.0000000116
  9
$TDUSRTIMER
 40
0.0000000116
  9
$USRTIMER
 70
     1
  9
$ANGBASE
 50
0.0
  9
$ANGDIR
 70
     0
  9
$PDMODE
 70
     0
  9
$PDSIZE
 40
0.0
  9
$PLINEWID
 40
0.0
  9
$SPLFRAME
 70
     0
  9
$SPLINETYPE
 70
     6
  9
$SPLINESEGS
 70
     8
  9
$HANDSEED
  5
49
  9
$SURFTAB1
 70
     6
  9
$SURFTAB2
 70
     6
  9
$SURFTYPE
 70
     6
  9
$SURFU
 70
     6
  9
$SURFV
 70
     6
  9
$UCSBASE
  2

  9
$UCSNAME
  2

  9
$UCSORG
 10
0.0
 20
0.0
 30
0.0
  9
$UCSXDIR
 10
1.0
 20
0.0
 30
0.0
  9
$UCSYDIR
 10
0.0
 20
1.0
 30
0.0
  9
$UCSORTHOREF
  2

  9
$UCSORTHOVIEW
 70
     0
  9
$UCSORGTOP
 10
0.0
 20
0.0
 30
0.0
  9
$UCSORGBOTTOM
 10
0.0
 20
0.0
 30
0.0
  9
$UCSORGLEFT
 10
0.0
 20
0.0
 30
0.0
  9
$UCSORGRIGHT
 10
0.0
 20
0.0
 30
0.0
  9
$UCSORGFRONT
 10
0.0
 20
0.0
 30
0.0
  9
$UCSORGBACK
 10
0.0
 20
0.0
 30
0.0
  9
$PUCSBASE
  2

  9
$PUCSNAME
  2

  9
$PUCSORG
 10
0.0
 20
0.0
 30
0.0
  9
$PUCSXDIR
 10
1.0
 20
0.0
 30
0.0
  9
$PUCSYDIR
 10
0.0
 20
1.0
 30
0.0
  9
$PUCSORTHOREF
  2

  9
$PUCSORTHOVIEW
 70
     0
  9
$PUCSORGTOP
 10
0.0
 20
0.0
 30
0.0
  9
$PUCSORGBOTTOM
 10
0.0
 20
0.0
 30
0.0
  9
$PUCSORGLEFT
 10
0.0
 20
0.0
 30
0.0
  9
$PUCSORGRIGHT
 10
0.0
 20
0.0
 30
0.0
  9
$PUCSORGFRONT
 10
0.0
 20
0.0
 30
0.0
  9
$PUCSORGBACK
 10
0.0
 20
0.0
 30
0.0
  9
$USERI1
 70
     0
  9
$USERI2
 70
     0
  9
$USERI3
 70
     0
  9
$USERI4
 70
     0
  9
$USERI5
 70
     0
  9
$USERR1
 40
0.0
  9
$USERR2
 40
0.0
  9
$USERR3
 40
0.0
  9
$USERR4
 40
0.0
  9
$USERR5
 40
0.0
  9
$WORLDVIEW
 70
     1
  9
$SHADEDGE
 70
     3
  9
$SHADEDIF
 70
    70
  9
$TILEMODE
 70
     1
  9
$MAXACTVP
 70
    64
  9
$PINSBASE
 10
0.0
 20
0.0
 30
0.0
  9
$PLIMCHECK
 70
     0
  9
$PEXTMIN
 10
1.000000000000000E+20
 20
1.000000000000000E+20
 30
1.000000000000000E+20
  9
$PEXTMAX
 10
-1.000000000000000E+20
 20
-1.000000000000000E+20
 30
-1.000000000000000E+20
  9
$PLIMMIN
 10
0.0
 20
0.0
  9
$PLIMMAX
 10
12.0
 20
9.0
  9
$UNITMODE
 70
     0
  9
$VISRETAIN
 70
     1
  9
$PLINEGEN
 70
     0
  9
$PSLTSCALE
 70
     1
  9
$TREEDEPTH
 70
  3020
  9
$CMLSTYLE
  2
Standard
  9
$CMLJUST
 70
     0
  9
$CMLSCALE
 40
1.0
  9
$PROXYGRAPHICS
 70
     1
  9
$MEASUREMENT
 70
     0
  9
$CELWEIGHT
370
    -1
  9
$ENDCAPS
280
     0
  9
$JOINSTYLE
280
     0
  9
$LWDISPLAY
290
     1
  9
$INSUNITS
 70
     1
  9
$HYPERLINKBASE
  1

  9
$STYLESHEET
  1

  9
$XEDIT
290
     1
  9
$CEPSNTYPE
380
     0
  9
$PSTYLEMODE
290
     1
  9
$FINGERPRINTGUID
  2
{AF27494B-DA75-40EE-8F03-1209750FC3C3}
  9
$VERSIONGUID
  2
{FAEB1C32-E019-11D5-929B-00C0DF256EC4}
  9
$EXTNAMES
290
     1
  9
$PSVPSCALE
 40
0.0
  9
$OLESTARTUP
290
     0
  9
$SORTENTS
280
   127
  9
$INDEXCTL
280
     0
  9
$HIDETEXT
280
     1
  9
$XCLIPFRAME
280
     2
  9
$HALOGAP
280
     0
  9
$OBSCOLOR
 70
   257
  9
$OBSLTYPE
280
     0
  9
$INTERSECTIONDISPLAY
280
     0
  9
$INTERSECTIONCOLOR
 70
   257
  9
$DIMASSOC
280
     2
  9
$PROJECTNAME
  1

  9
$CAMERADISPLAY
290
     0
  9
$LENSLENGTH
 40
50.0
  9
$CAMERAHEIGHT
 40
0.0
  9
$STEPSPERSEC
 40
2.0
  9
$STEPSIZE
 40
6.0
  9
$3DDWFPREC
 40
2.0
  9
$PSOLWIDTH
 40
0.25
  9
$PSOLHEIGHT
 40
4.0
  9
$LOFTANG1
 40
1.570796326794897
  9
$LOFTANG2
 40
1.570796326794897
  9
$LOFTMAG1
 40
0.0
  9
$LOFTMAG2
 40
0.0
  9
$LOFTPARAM
 70
     7
  9
$LOFTNORMALS
280
     1
  9
$LATITUDE
 40
37.795
  9
$LONGITUDE
 40
-122.394
  9
$NORTHDIRECTION
 40
0.0
  9
$TIMEZONE
 70
 -8000
  9
$LIGHTGLYPHDISPLAY
280
     1
  9
$TILEMODELIGHTSYNCH
280
     1
  9
$CMATERIAL
347
3C
  9
$SOLIDHIST
280
     1
  9
$SHOWHIST
280
     1
  9
$DWFFRAME
280
     2
  9
$DGNFRAME
280
     2
  9
$REALWORLDSCALE
290
     1
  9
$INTERFERECOLOR
 62
   256
  9
$CSHADOW
280
     0
  9
$SHADOWPLANELOCATION
 40
0.0
  0
ENDSEC
  0
SECTION
  2
CLASSES
  0
CLASS
  1
ACDBDICTIONARYWDFLT
  2
AcDbDictionaryWithDefault
  3
ObjectDBX Classes
 90
        0
 91
        4
280
     0
281
     0
  0
CLASS
  1
VISUALSTYLE
  2
AcDbVisualStyle
  3
ObjectDBX Classes
 90
     4095
 91
        4
280
     0
281
     0
  0
CLASS
  1
MATERIAL
  2
AcDbMaterial
  3
ObjectDBX Classes
 90
     1153
 91
        4
280
     0
281
     0
  0
CLASS
  1
SUN
  2
AcDbSun
  3
SCENEOE
 90
     1024
 91
        4
280
     0
281
     0
  0
ENDSEC
  0
SECTION
  2
TABLES
  0
TABLE
  2
VPORT
  5
8
330
0
100
AcDbSymbolTable
 70
     1
  0
VPORT
  5
29
330
8
100
AcDbSymbolTableRecord
100
AcDbViewportTableRecord
  2
*Active
 70
     0
 10
0.0
 20
0.0
 11
1.0
 21
1.0
 12
0.0
 22
0.0
 13
0.0
 23
0.0
 14
0.5
 24
0.5
 15
0.5
 25
0.5
 16
0.0
 26
0.0
 36
1.0
 17
1000.0
 27
-1000.0
 37
0.0
 40
2000.0
 41
1.0
 42
50.0
 43
0.0
 44
0.0
 50
0.0
 51
0.0
 71
     0
 72
   100
 73
     1
 74
     3
 75
     0
 76
     0
 77
     0
 78
     0
281
     0
 65
     1
110
0.0
120
0.0
130
0.0
111
1.0
121
0.0
131
0.0
112
0.0
122
1.0
132
0.0
 79
     0
146
0.0
 60
     3
 61
     5
292
     1
282
     1
141
0.0
142
0.0
 63
   250
361
3F
  0
ENDTAB
  0
TABLE
  2
LTYPE
  5
5
330
0
100
AcDbSymbolTable
 70
     1
  0
LTYPE
  5
14
330
5
100
AcDbSymbolTableRecord
100
AcDbLinetypeTableRecord
  2
ByBlock
 70
     0
  3

 72
    65
 73
     0
 40
0.0
  0
LTYPE
  5
15
330
5
100
AcDbSymbolTableRecord
100
AcDbLinetypeTableRecord
  2
ByLayer
 70
     0
  3

 72
    65
 73
     0
 40
0.0
  0
LTYPE
  5
16
330
5
100
AcDbSymbolTableRecord
100
AcDbLinetypeTableRecord
  2
Continuous
 70
     0
  3
Solid line
 72
    65
 73
     0
 40
0.0
  0
ENDTAB
  0
TABLE
  2
LAYER
  5
2
330
0
100
AcDbSymbolTable
 70
     2
  0
LAYER
  5
10
330
2
100
AcDbSymbolTableRecord
100
AcDbLayerTableRecord
  2
0
 70
     0
 62
     7
  6
Continuous
370
    -3
390
F
347
3E
  0
LAYER
  5
40
330
2
100
AcDbSymbolTableRecord
100
AcDbLayerTableRecord
  2
Layer 1
 70
     0
 62
     7
  6
Continuous
370
    -3
390
F
347
3E
  0
ENDTAB
  0
TABLE
  2
STYLE
  5
3
330
0
100
AcDbSymbolTable
 70
     1
  0
STYLE
  5
11
330
3
100
AcDbSymbolTableRecord
100
AcDbTextStyleTableRecord
  2
Standard
 70
     0
 40
0.0
 41
1.0
 50
0.0
 71
     0
 42
0.2
  3
txt
  4

  0
ENDTAB
  0
TABLE
  2
VIEW
  5
6
330
0
100
AcDbSymbolTable
 70
     0
  0
ENDTAB
  0
TABLE
  2
UCS
  5
7
330
0
100
AcDbSymbolTable
 70
     0
  0
ENDTAB
  0
TABLE
  2
APPID
  5
9
330
0
100
AcDbSymbolTable
 70
     1
  0
APPID
  5
12
330
9
100
AcDbSymbolTableRecord
100
AcDbRegAppTableRecord
  2
ACAD
 70
     0
  0
ENDTAB
  0
TABLE
  2
DIMSTYLE
  5
A
330
0
100
AcDbSymbolTable
 70
     1
100
AcDbDimStyleTable
  0
DIMSTYLE
105
27
330
A
100
AcDbSymbolTableRecord
100
AcDbDimStyleTableRecord
  2
Standard
 70
     0
178
     0
340
11
  0
ENDTAB
  0
TABLE
  2
BLOCK_RECORD
  5
1
330
0
100
AcDbSymbolTable
 70
     1
  0
BLOCK_RECORD
  5
1F
330
1
100
AcDbSymbolTableRecord
100
AcDbBlockTableRecord
  2
*Model_Space
340
22
 70
     0
280
     1
281
     0
  0
BLOCK_RECORD
  5
1B
330
1
100
AcDbSymbolTableRecord
100
AcDbBlockTableRecord
  2
*Paper_Space
340
1E
 70
     0
280
     1
281
     0
  0
BLOCK_RECORD
  5
23
330
1
100
AcDbSymbolTableRecord
100
AcDbBlockTableRecord
  2
*Paper_Space0
340
26
 70
     0
280
     1
281
     0
  0
ENDTAB
  0
ENDSEC
  0
SECTION
  2
BLOCKS
  0
BLOCK
  5
20
330
1F
100
AcDbEntity
  8
0
100
AcDbBlockBegin
  2
*Model_Space
 70
     0
 10
0.0
 20
0.0
 30
0.0
  3
*Model_Space
  1

  0
ENDBLK
  5
21
330
1F
100
AcDbEntity
  8
0
100
AcDbBlockEnd
  0
BLOCK
  5
1C
330
1B
100
AcDbEntity
 67
     1
  8
0
100
AcDbBlockBegin
  2
*Paper_Space
 70
     0
 10
0.0
 20
0.0
 30
0.0
  3
*Paper_Space
  1

  0
ENDBLK
  5
1D
330
1B
100
AcDbEntity
 67
     1
  8
0
100
AcDbBlockEnd
  0
BLOCK
  5
24
330
23
100
AcDbEntity
  8
0
100
AcDbBlockBegin
  2
*Paper_Space0
 70
     0
 10
0.0
 20
0.0
 30
0.0
  3
*Paper_Space0
  1

  0
ENDBLK
  5
25
330
23
100
AcDbEntity
  8
0
100
AcDbBlockEnd
  0
ENDSEC
  0
SECTION
  2
ENTITIES
  0
SPLINE
  5
41
330
1F
100
AcDbEntity
  8
Layer 1
370
     0
100
AcDbSpline
210
0.0
220
0.0
230
1.0
 70
    11
 71
     3
 72
   101
 73
    97
 74
     0
 42
0.0000000001
 43
0.0000000001
 12
1.0
 22
0.0
 32
0.0
 13
1.0
 23
0.0
 33
0.0
 40
0.0
 40
0.0
 40
0.0
 40
0.0
 40
1.0
 40
1.0
 40
1.0
 40
2.0
 40
2.0
 40
2.0
 40
3.0
 40
3.0
 40
3.0
 40
4.0
 40
4.0
 40
4.0
 40
5.0
 40
5.0
 40
5.0
 40
6.0
 40
6.0
 40
6.0
 40
7.0
 40
7.0
 40
7.0
 40
8.0
 40
8.0
 40
8.0
 40
9.0
 40
9.0
 40
9.0
 40
10.0
 40
10.0
 40
10.0
 40
11.0
 40
11.0
 40
11.0
 40
12.0
 40
12.0
 40
12.0
 40
13.0
 40
13.0
 40
13.0
 40
14.0
 40
14.0
 40
14.0
 40
15.0
 40
15.0
 40
15.0
 40
16.0
 40
16.0
 40
16.0
 40
17.0
 40
17.0
 40
17.0
 40
18.0
 40
18.0
 40
18.0
 40
19.0
 40
19.0
 40
19.0
 40
20.0
 40
20.0
 40
20.0
 40
21.0
 40
21.0
 40
21.0
 40
22.0
 40
22.0
 40
22.0
 40
23.0
 40
23.0
 40
23.0
 40
24.0
 40
24.0
 40
24.0
 40
25.0
 40
25.0
 40
25.0
 40
26.0
 40
26.0
 40
26.0
 40
27.0
 40
27.0
 40
27.0
 40
28.0
 40
28.0
 40
28.0
 40
29.0
 40
29.0
 40
29.0
 40
30.0
 40
30.0
 40
30.0
 40
31.0
 40
31.0
 40
31.0
 40
32.0
 40
32.0
 40
32.0
 40
32.0
 10
708.4657729508035
 20
-239.0168661142325
 30
0.0
 10
736.9865201479424
 20
-239.0168661142325
 30
0.0
 10
761.6330459396559
 20
-239.0168661142325
 30
0.0
 10
788.5622247472984
 20
-239.0168661142325
 30
0.0
 10
789.9323383678093
 20
-222.4592535340944
 30
0.0
 10
791.0825716489317
 20
-209.1354518741755
 30
0.0
 10
792.1295223483794
 20
-195.8035419018233
 30
0.0
 10
796.0116608855005
 20
-146.3686398345153
 30
0.0
 10
829.158127227387
 20
-113.1179434417127
 30
0.0
 10
878.7294479964612
 20
-112.375209089998
 30
0.0
 10
951.3872597434301
 20
-111.2865641209983
 30
0.0
 10
1024.073276272067
 20
-112.0731407140756
 30
0.0
 10
1096.747327135754
 20
-112.0753786532914
 30
0.0
 10
1209.802168412642
 20
-112.078862078778
 30
0.0
 10
1223.467857459922
 20
-124.0404447580313
 30
0.0
 10
1237.219285444779
 20
-237.8378320173779
 30
0.0
 10
1249.632898107751
 20
-239.326713859261
 30
0.0
 10
1262.787302388773
 20
-241.8518740170957
 30
0.0
 10
1275.99937577681
 20
-242.202004668
 30
0.0
 10
1287.439001306311
 20
-242.505138595383
 30
0.0
 10
1298.943943172306
 20
-240.3405677993578
 30
0.0
 10
1313.752218271231
 20
-238.9549460472999
 30
0.0
 10
1315.19394594663
 20
-224.3973763701206
 30
0.0
 10
1316.907195252257
 20
-211.3647092348565
 30
0.0
 10
1317.706195781757
 20
-198.2762060784671
 30
0.0
 10
1320.854965011795
 20
-146.7006645450347
 30
0.0
 10
1354.804615367542
 20
-113.3817925391259
 30
0.0
 10
1408.151868151379
 20
-112.3199353651571
 30
0.0
 10
1461.163362577363
 20
-111.2647610825379
 30
0.0
 10
1514.212013541877
 20
-112.0749822344096
 30
0.0
 10
1567.244380405971
 20
-112.0741444129444
 30
0.0
 10
1683.28173114727
 20
-112.0723113270551
 30
0.0
 10
1724.436511151202
 20
-163.3877121070764
 30
0.0
 10
1736.763935039569
 20
-276.3144285524049
 30
0.0
 10
1752.579305277242
 20
-421.1917083542066
 30
0.0
 10
1715.0126953125
 20
-532.2296828232802
 30
0.0
 10
1585.91873486011
 20
-605.9497847123575
 30
0.0
 10
1480.957631296926
 20
-665.888634421608
 30
0.0
 10
1455.936346277014
 20
-756.8490553026077
 30
0.0
 10
1464.656796938412
 20
-872.6936958610231
 30
0.0
 10
1474.213404667842
 20
-999.6449026132559
 30
0.0
 10
1468.408797623275
 20
-1127.901266519126
 30
0.0
 10
1465.972570245916
 20
-1255.525339498148
 30
0.0
 10
1465.125257219586
 20
-1299.920025714031
 30
0.0
 10
1476.600329906909
 20
-1332.742564411907
 30
0.0
 10
1509.630423409599
 20
-1364.033677930955
 30
0.0
 10
1588.016954694474
 20
-1438.293314351664
 30
0.0
 10
1661.432336980646
 20
-1517.782036323051
 30
0.0
 10
1739.270247025923
 20
-1592.648322959998
 30
0.0
 10
1768.516311447342
 20
-1620.777801910004
 30
0.0
 10
1782.66710474584
 20
-1649.615594244622
 30
0.0
 10
1779.13030609527
 20
-1690.471772429231
 30
0.0
 10
1775.754908970424
 20
-1729.462566425274
 30
0.0
 10
1779.003272118505
 20
-1768.986507267145
 30
0.0
 10
1778.262300565644
 20
-1808.255660416244
 30
0.0
 10
1777.298569716415
 20
-1859.340232948203
 30
0.0
 10
1737.459383085175
 20
-1901.446778136415
 30
0.0
 10
1687.039849615716
 20
-1901.50093851461
 30
0.0
 10
1237.246995405716
 20
-1901.983703613281
 30
0.0
 10
787.4532865053643
 20
-1901.978665438564
 30
0.0
 10
337.6605110168457
 20
-1901.50381747159
 30
0.0
 10
286.8129295002327
 20
-1901.450016963017
 30
0.0
 10
251.7830067671739
 20
-1859.300647289721
 30
0.0
 10
245.1035102807082
 20
-1808.729608709162
 30
0.0
 10
229.3394833168422
 20
-1689.378848385501
 30
0.0
 10
259.3818000446663
 20
-1594.254870922534
 30
0.0
 10
358.7581375419322
 20
-1516.417950518718
 30
0.0
 10
430.7270126342773
 20
-1460.048062807553
 30
0.0
 10
514.2888514531123
 20
-1396.542680220169
 30
0.0
 10
546.4864090758483
 20
-1317.421025263799
 30
0.0
 10
579.5500829126922
 20
-1236.171101359578
 30
0.0
 10
557.0840296559518
 20
-1132.088619479884
 30
0.0
 10
557.831118992397
 20
-1037.989640669388
 30
0.0
 10
558.5796028236291
 20
-943.7158551897319
 30
0.0
 10
560.3920411939744
 20
-849.3288907137785
 30
0.0
 10
556.3894812844019
 20
-755.2191158146052
 30
0.0
 10
555.3039345679344
 20
-729.694912997159
 30
0.0
 10
540.7837575937247
 20
-698.8300650460378
 30
0.0
 10
522.2388662363028
 20
-681.0393704501066
 30
0.0
 10
459.9468515569515
 20
-621.2807704380575
 30
0.0
 10
390.8202379895492
 20
-568.5992314722625
 30
0.0
 10
329.1775068307852
 20
-508.2377148913101
 30
0.0
 10
308.5548013711905
 20
-488.043631021078
 30
0.0
 10
295.2321692875457
 20
-453.8493143056894
 30
0.0
 10
291.5127199346371
 20
-424.4192215560315
 30
0.0
 10
285.4043941745513
 20
-376.087179307814
 30
0.0
 10
289.8585454767399
 20
-326.420223186542
 30
0.0
 10
289.8589390841398
 20
-277.3161481386651
 30
0.0
 10
289.8598724959729
 20
-161.9528613152443
 30
0.0
 10
340.0477623877587
 20
-112.0692636811891
 30
0.0
 10
456.1088420322958
 20
-112.0729945170415
 30
0.0
 10
495.3920975722276
 20
-112.0742568722017
 30
0.0
 10
534.6753531121585
 20
-112.0707481433819
 30
0.0
 10
573.9586086520903
 20
-112.0741191096122
 30
0.0
 10
681.2184693968138
 20
-112.0833154653574
 30
0.0
 10
697.9978853696348
 20
-127.3366171477674
 30
0.0
 10
708.4657729508035
 20
-239.0168661142325
 30
0.0
  0
SPLINE
  5
42
330
1F
100
AcDbEntity
  8
Layer 1
370
     0
100
AcDbSpline
210
0.0
220
0.0
230
1.0
 70
    11
 71
     3
 72
    17
 73
    13
 74
     0
 42
0.0000000001
 43
0.0000000001
 12
1.0
 22
0.0
 32
0.0
 13
1.0
 23
0.0
 33
0.0
 40
0.0
 40
0.0
 40
0.0
 40
0.0
 40
1.0
 40
1.0
 40
1.0
 40
2.0
 40
2.0
 40
2.0
 40
3.0
 40
3.0
 40
3.0
 40
4.0
 40
4.0
 40
4.0
 40
4.0
 10
667.7028909658457
 20
-723.18568123161
 30
0.0
 10
667.7028909658457
 20
-901.6681486848111
 30
0.0
 10
667.7028909658457
 20
-1076.973057338169
 30
0.0
 10
667.7028909658457
 20
-1254.134173504717
 30
0.0
 10
899.6455202969637
 20
-1254.134173504717
 30
0.0
 10
1126.790682705965
 20
-1254.134173504717
 30
0.0
 10
1355.95044024579
 20
-1254.134173504717
 30
0.0
 10
1355.95044024579
 20
-1075.113790933188
 30
0.0
 10
1355.95044024579
 20
-899.6419927423649
 30
0.0
 10
1355.95044024579
 20
-723.18568123161
 30
0.0
 10
1124.137543913606
 20
-723.18568123161
 30
0.0
 10
896.9271551355141
 20
-723.18568123161
 30
0.0
 10
667.7028909658457
 20
-723.18568123161
 30
0.0
  0
SPLINE
  5
43
330
1F
100
AcDbEntity
  8
Layer 1
370
     0
100
AcDbSpline
210
0.0
220
0.0
230
1.0
 70
    11
 71
     3
 72
    68
 73
    64
 74
     0
 42
0.0000000001
 43
0.0000000001
 12
1.0
 22
0.0
 32
0.0
 13
1.0
 23
0.0
 33
0.0
 40
0.0
 40
0.0
 40
0.0
 40
0.0
 40
1.0
 40
1.0
 40
1.0
 40
2.0
 40
2.0
 40
2.0
 40
3.0
 40
3.0
 40
3.0
 40
4.0
 40
4.0
 40
4.0
 40
5.0
 40
5.0
 40
5.0
 40
6.0
 40
6.0
 40
6.0
 40
7.0
 40
7.0
 40
7.0
 40
8.0
 40
8.0
 40
8.0
 40
9.0
 40
9.0
 40
9.0
 40
10.0
 40
10.0
 40
10.0
 40
11.0
 40
11.0
 40
11.0
 40
12.0
 40
12.0
 40
12.0
 40
13.0
 40
13.0
 40
13.0
 40
14.0
 40
14.0
 40
14.0
 40
15.0
 40
15.0
 40
15.0
 40
16.0
 40
16.0
 40
16.0
 40
17.0
 40
17.0
 40
17.0
 40
18.0
 40
18.0
 40
18.0
 40
19.0
 40
19.0
 40
19.0
 40
20.0
 40
20.0
 40
20.0
 40
21.0
 40
21.0
 40
21.0
 40
21.0
 10
602.4520057579139
 20
-235.0448164010977
 30
0.0
 10
553.84061471518
 20
-235.0448164010977
 30
0.0
 10
510.921281492555
 20
-234.9766435994734
 30
0.0
 10
468.0022631558504
 20
-235.0628211281519
 30
0.0
 10
419.1731284996131
 20
-235.1608743543748
 30
0.0
 10
400.1363515977737
 20
-262.4220553806845
 30
0.0
 10
395.2219720320263
 20
-308.4876949756181
 30
0.0
 10
385.4889157282842
 20
-399.7218191964284
 30
0.0
 10
398.460348798083
 20
-477.8958924528843
 30
0.0
 10
490.2138436057348
 20
-525.6649411684502
 30
0.0
 10
520.8969349056097
 20
-541.6393287955943
 30
0.0
 10
543.8974395355617
 20
-571.8051749885853
 30
0.0
 10
573.5152717689416
 20
-590.5865906554382
 30
0.0
 10
593.6945560009444
 20
-603.382834694602
 30
0.0
 10
619.2202657724356
 20
-614.5492292131694
 30
0.0
 10
642.4362198470471
 20
-614.7091012929941
 30
0.0
 10
889.6623770973893
 20
-616.4114195588345
 30
0.0
 10
1136.908057274755
 20
-616.310791015625
 30
0.0
 10
1384.136778596159
 20
-614.8026224111582
 30
0.0
 10
1405.626393107625
 20
-614.6714949174357
 30
0.0
 10
1430.410973883294
 20
-605.5990017977629
 30
0.0
 10
1447.844947715857
 20
-592.7703694925676
 30
0.0
 10
1499.931487244445
 20
-554.4429051783172
 30
0.0
 10
1549.61031906326
 20
-512.7644249061486
 30
0.0
 10
1599.289420784293
 20
-471.2694331577841
 30
0.0
 10
1638.264200582133
 20
-438.7153347064923
 30
0.0
 10
1643.155638459441
 20
-288.7425709513873
 30
0.0
 10
1606.389018665661
 20
-254.3889894361619
 30
0.0
 10
1597.062727494673
 20
-245.6748364931573
 30
0.0
 10
1583.489165070769
 20
-236.9223236975731
 30
0.0
 10
1571.522690413834
 20
-236.4216438392541
 30
0.0
 10
1523.078481302633
 20
-234.3947119279337
 30
0.0
 10
1474.499860887403
 20
-235.580122464663
 30
0.0
 10
1423.344933844231
 20
-235.580122464663
 30
0.0
 10
1421.411804199219
 20
-252.2567281846877
 30
0.0
 10
1419.523118452591
 20
-263.5103910867274
 30
0.0
 10
1418.891457297585
 20
-274.8341498436866
 30
0.0
 10
1415.299598594764
 20
-339.2332236550074
 30
0.0
 10
1391.877124340503
 20
-363.0179741599341
 30
0.0
 10
1329.502991911653
 20
-363.7814825479081
 30
0.0
 10
1286.341488924892
 20
-364.3098386293877
 30
0.0
 10
1243.055561016132
 20
-365.7565145120989
 30
0.0
 10
1200.030988420758
 20
-363.2542735508505
 30
0.0
 10
1157.771588610363
 20
-360.7964989798411
 30
0.0
 10
1131.887696105165
 20
-337.7091308197414
 30
0.0
 10
1128.862991927506
 20
-293.2429205163735
 30
0.0
 10
1127.726073822418
 20
-276.5278312385853
 30
0.0
 10
1126.112148532618
 20
-259.8452089483089
 30
0.0
 10
1124.783959723138
 20
-243.9646460793238
 30
0.0
 10
1045.71133700284
 20
-243.9646460793238
 30
0.0
 10
972.1104869099399
 20
-243.9646460793238
 30
0.0
 10
906.6546109682549
 20
-243.9646460793238
 30
0.0
 10
894.3394226470546
 20
-280.2735342050528
 30
0.0
 10
890.7601143973216
 20
-315.4571100210214
 30
0.0
 10
872.4202587573554
 20
-339.2751259741844
 30
0.0
 10
843.0013669497002
 20
-377.4814941604418
 30
0.0
 10
663.6926838267937
 20
-376.1477273718101
 30
0.0
 10
630.1387551047583
 20
-340.6349383267489
 30
0.0
 10
617.9774110472044
 20
-327.7636389794288
 30
0.0
 10
611.670201091023
 20
-307.9909624372212
 30
0.0
 10
606.5637411142325
 20
-290.2526513632238
 30
0.0
 10
602.3946965205205
 20
-275.7706880445603
 30
0.0
 10
603.987254551479
 20
-259.630074389569
 30
0.0
 10
602.4520057579139
 20
-235.0448164010977
 30
0.0
  0
SPLINE
  5
44
330
1F
100
AcDbEntity
  8
Layer 1
370
     0
100
AcDbSpline
210
0.0
220
0.0
230
1.0
 70
    11
 71
     3
 72
    23
 73
    19
 74
     0
 42
0.0000000001
 43
0.0000000001
 12
1.0
 22
0.0
 32
0.0
 13
1.0
 23
0.0
 33
0.0
 40
0.0
 40
0.0
 40
0.0
 40
0.0
 40
1.0
 40
1.0
 40
1.0
 40
2.0
 40
2.0
 40
2.0
 40
3.0
 40
3.0
 40
3.0
 40
4.0
 40
4.0
 40
4.0
 40
5.0
 40
5.0
 40
5.0
 40
6.0
 40
6.0
 40
6.0
 40
6.0
 10
1553.792184012276
 20
-1550.616630653281
 30
0.0
 10
1502.559165261007
 20
-1495.753337116985
 30
0.0
 10
1454.000427642426
 20
-1439.874671440619
 30
0.0
 10
1400.727937772675
 20
-1388.924780114905
 30
0.0
 10
1383.353432395241
 20
-1372.307890260374
 30
0.0
 10
1353.775658149223
 20
-1360.416988224179
 30
0.0
 10
1329.63578380238
 20
-1360.166249064656
 30
0.0
 10
1117.915937943892
 20
-1357.967265735973
 30
0.0
 10
906.1629390964263
 20
-1358.681337034548
 30
0.0
 10
694.422040865019
 20
-1359.295454545454
 30
0.0
 10
677.5771736045936
 20
-1359.344216879312
 30
0.0
 10
654.5919859254518
 20
-1359.169320242745
 30
0.0
 10
644.9233237922963
 20
-1369.19186916599
 30
0.0
 10
586.9630372679076
 20
-1429.273812033913
 30
0.0
 10
532.0671080552138
 20
-1492.311993883801
 30
0.0
 10
479.5173263549805
 20
-1550.616630653281
 30
0.0
 10
830.8823525565012
 20
-1550.616630653281
 30
0.0
 10
1193.458329634232
 20
-1550.616630653281
 30
0.0
 10
1553.792184012276
 20
-1550.616630653281
 30
0.0
  0
SPLINE
  5
45
330
1F
100
AcDbEntity
  8
Layer 1
370
     0
100
AcDbSpline
210
0.0
220
0.0
230
1.0
 70
    11
 71
     3
 72
    17
 73
    13
 74
     0
 42
0.0000000001
 43
0.0000000001
 12
1.0
 22
0.0
 32
0.0
 13
1.0
 23
0.0
 33
0.0
 40
0.0
 40
0.0
 40
0.0
 40
0.0
 40
1.0
 40
1.0
 40
1.0
 40
2.0
 40
2.0
 40
2.0
 40
3.0
 40
3.0
 40
3.0
 40
4.0
 40
4.0
 40
4.0
 40
4.0
 10
1667.56334577288
 20
-1666.528386896307
 30
0.0
 10
1227.479054240437
 20
-1666.528386896307
 30
0.0
 10
791.7229146585832
 20
-1666.528386896307
 30
0.0
 10
356.490452853116
 20
-1666.528386896307
 30
0.0
 10
356.490452853116
 20
-1706.581695952973
 30
0.0
 10
356.490452853116
 20
-1740.933410644531
 30
0.0
 10
356.490452853116
 20
-1777.72504137708
 30
0.0
 10
794.9967385824621
 20
-1777.72504137708
 30
0.0
 10
1229.377096597251
 20
-1777.72504137708
 30
0.0
 10
1667.56334577288
 20
-1777.72504137708
 30
0.0
 10
1667.56334577288
 20
-1740.241741229962
 30
0.0
 10
1667.56334577288
 20
-1705.904061453683
 30
0.0
 10
1667.56334577288
 20
-1666.528386896307
 30
0.0
  0
HATCH
  5
46
330
1F
100
AcDbEntity
  8
Layer 1
 62
     7
420
 16777215
100
AcDbHatch
 10
0.0
 20
0.0
 30
0.0
210
0.0
220
0.0
230
1.0
  2
SOLID
 70
     1
 71
     0
 91
        5
 92
        1
 93
        1
 72
     4
 94
        3
 73
     0
 74
     1
 95
      101
 96
       97
 40
0.0
 40
0.0
 40
0.0
 40
0.0
 40
1.0
 40
1.0
 40
1.0
 40
2.0
 40
2.0
 40
2.0
 40
3.0
 40
3.0
 40
3.0
 40
4.0
 40
4.0
 40
4.0
 40
5.0
 40
5.0
 40
5.0
 40
6.0
 40
6.0
 40
6.0
 40
7.0
 40
7.0
 40
7.0
 40
8.0
 40
8.0
 40
8.0
 40
9.0
 40
9.0
 40
9.0
 40
10.0
 40
10.0
 40
10.0
 40
11.0
 40
11.0
 40
11.0
 40
12.0
 40
12.0
 40
12.0
 40
13.0
 40
13.0
 40
13.0
 40
14.0
 40
14.0
 40
14.0
 40
15.0
 40
15.0
 40
15.0
 40
16.0
 40
16.0
 40
16.0
 40
17.0
 40
17.0
 40
17.0
 40
18.0
 40
18.0
 40
18.0
 40
19.0
 40
19.0
 40
19.0
 40
20.0
 40
20.0
 40
20.0
 40
21.0
 40
21.0
 40
21.0
 40
22.0
 40
22.0
 40
22.0
 40
23.0
 40
23.0
 40
23.0
 40
24.0
 40
24.0
 40
24.0
 40
25.0
 40
25.0
 40
25.0
 40
26.0
 40
26.0
 40
26.0
 40
27.0
 40
27.0
 40
27.0
 40
28.0
 40
28.0
 40
28.0
 40
29.0
 40
29.0
 40
29.0
 40
30.0
 40
30.0
 40
30.0
 40
31.0
 40
31.0
 40
31.0
 40
32.0
 40
32.0
 40
32.0
 40
32.0
 10
708.4657729508035
 20
-239.0168661142325
 10
736.9865201479424
 20
-239.0168661142325
 10
761.6330459396559
 20
-239.0168661142325
 10
788.5622247472984
 20
-239.0168661142325
 10
789.9323383678093
 20
-222.4592535340944
 10
791.0825716489317
 20
-209.1354518741755
 10
792.1295223483794
 20
-195.8035419018233
 10
796.0116608855005
 20
-146.3686398345153
 10
829.158127227387
 20
-113.1179434417127
 10
878.7294479964612
 20
-112.375209089998
 10
951.3872597434301
 20
-111.2865641209983
 10
1024.073276272067
 20
-112.0731407140756
 10
1096.747327135754
 20
-112.0753786532914
 10
1209.802168412642
 20
-112.078862078778
 10
1223.467857459922
 20
-124.0404447580313
 10
1237.219285444779
 20
-237.8378320173779
 10
1249.632898107751
 20
-239.326713859261
 10
1262.787302388773
 20
-241.8518740170957
 10
1275.99937577681
 20
-242.202004668
 10
1287.439001306311
 20
-242.505138595383
 10
1298.943943172306
 20
-240.3405677993578
 10
1313.752218271231
 20
-238.9549460472999
 10
1315.19394594663
 20
-224.3973763701206
 10
1316.907195252257
 20
-211.3647092348565
 10
1317.706195781757
 20
-198.2762060784671
 10
1320.854965011795
 20
-146.7006645450347
 10
1354.804615367542
 20
-113.3817925391259
 10
1408.151868151379
 20
-112.3199353651571
 10
1461.163362577363
 20
-111.2647610825379
 10
1514.212013541877
 20
-112.0749822344096
 10
1567.244380405971
 20
-112.0741444129444
 10
1683.28173114727
 20
-112.0723113270551
 10
1724.436511151202
 20
-163.3877121070764
 10
1736.763935039569
 20
-276.3144285524049
 10
1752.579305277242
 20
-421.1917083542066
 10
1715.0126953125
 20
-532.2296828232802
 10
1585.91873486011
 20
-605.9497847123575
 10
1480.957631296926
 20
-665.888634421608
 10
1455.936346277014
 20
-756.8490553026077
 10
1464.656796938412
 20
-872.6936958610231
 10
1474.213404667842
 20
-999.6449026132559
 10
1468.408797623275
 20
-1127.901266519126
 10
1465.972570245916
 20
-1255.525339498148
 10
1465.125257219586
 20
-1299.920025714031
 10
1476.600329906909
 20
-1332.742564411907
 10
1509.630423409599
 20
-1364.033677930955
 10
1588.016954694474
 20
-1438.293314351664
 10
1661.432336980646
 20
-1517.782036323051
 10
1739.270247025923
 20
-1592.648322959998
 10
1768.516311447342
 20
-1620.777801910004
 10
1782.66710474584
 20
-1649.615594244622
 10
1779.13030609527
 20
-1690.471772429231
 10
1775.754908970424
 20
-1729.462566425274
 10
1779.003272118505
 20
-1768.986507267145
 10
1778.262300565644
 20
-1808.255660416244
 10
1777.298569716415
 20
-1859.340232948203
 10
1737.459383085175
 20
-1901.446778136415
 10
1687.039849615716
 20
-1901.50093851461
 10
1237.246995405716
 20
-1901.983703613281
 10
787.4532865053643
 20
-1901.978665438564
 10
337.6605110168457
 20
-1901.50381747159
 10
286.8129295002327
 20
-1901.450016963017
 10
251.7830067671739
 20
-1859.300647289721
 10
245.1035102807082
 20
-1808.729608709162
 10
229.3394833168422
 20
-1689.378848385501
 10
259.3818000446663
 20
-1594.254870922534
 10
358.7581375419322
 20
-1516.417950518718
 10
430.7270126342773
 20
-1460.048062807553
 10
514.2888514531123
 20
-1396.542680220169
 10
546.4864090758483
 20
-1317.421025263799
 10
579.5500829126922
 20
-1236.171101359578
 10
557.0840296559518
 20
-1132.088619479884
 10
557.831118992397
 20
-1037.989640669388
 10
558.5796028236291
 20
-943.7158551897319
 10
560.3920411939744
 20
-849.3288907137785
 10
556.3894812844019
 20
-755.2191158146052
 10
555.3039345679344
 20
-729.694912997159
 10
540.7837575937247
 20
-698.8300650460378
 10
522.2388662363028
 20
-681.0393704501066
 10
459.9468515569515
 20
-621.2807704380575
 10
390.8202379895492
 20
-568.5992314722625
 10
329.1775068307852
 20
-508.2377148913101
 10
308.5548013711905
 20
-488.043631021078
 10
295.2321692875457
 20
-453.8493143056894
 10
291.5127199346371
 20
-424.4192215560315
 10
285.4043941745513
 20
-376.087179307814
 10
289.8585454767399
 20
-326.420223186542
 10
289.8589390841398
 20
-277.3161481386651
 10
289.8598724959729
 20
-161.9528613152443
 10
340.0477623877587
 20
-112.0692636811891
 10
456.1088420322958
 20
-112.0729945170415
 10
495.3920975722276
 20
-112.0742568722017
 10
534.6753531121585
 20
-112.0707481433819
 10
573.9586086520903
 20
-112.0741191096122
 10
681.2184693968138
 20
-112.0833154653574
 10
697.9978853696348
 20
-127.3366171477674
 10
708.4657729508035
 20
-239.0168661142325
 97
        0
 97
        0
 92
        1
 93
        1
 72
     4
 94
        3
 73
     0
 74
     1
 95
       17
 96
       13
 40
0.0
 40
0.0
 40
0.0
 40
0.0
 40
1.0
 40
1.0
 40
1.0
 40
2.0
 40
2.0
 40
2.0
 40
3.0
 40
3.0
 40
3.0
 40
4.0
 40
4.0
 40
4.0
 40
4.0
 10
667.7028909658457
 20
-723.18568123161
 10
667.7028909658457
 20
-901.6681486848111
 10
667.7028909658457
 20
-1076.973057338169
 10
667.7028909658457
 20
-1254.134173504717
 10
899.6455202969637
 20
-1254.134173504717
 10
1126.790682705965
 20
-1254.134173504717
 10
1355.95044024579
 20
-1254.134173504717
 10
1355.95044024579
 20
-1075.113790933188
 10
1355.95044024579
 20
-899.6419927423649
 10
1355.95044024579
 20
-723.18568123161
 10
1124.137543913606
 20
-723.18568123161
 10
896.9271551355141
 20
-723.18568123161
 10
667.7028909658457
 20
-723.18568123161
 97
        0
 97
        0
 92
        1
 93
        1
 72
     4
 94
        3
 73
     0
 74
     1
 95
       68
 96
       64
 40
0.0
 40
0.0
 40
0.0
 40
0.0
 40
1.0
 40
1.0
 40
1.0
 40
2.0
 40
2.0
 40
2.0
 40
3.0
 40
3.0
 40
3.0
 40
4.0
 40
4.0
 40
4.0
 40
5.0
 40
5.0
 40
5.0
 40
6.0
 40
6.0
 40
6.0
 40
7.0
 40
7.0
 40
7.0
 40
8.0
 40
8.0
 40
8.0
 40
9.0
 40
9.0
 40
9.0
 40
10.0
 40
10.0
 40
10.0
 40
11.0
 40
11.0
 40
11.0
 40
12.0
 40
12.0
 40
12.0
 40
13.0
 40
13.0
 40
13.0
 40
14.0
 40
14.0
 40
14.0
 40
15.0
 40
15.0
 40
15.0
 40
16.0
 40
16.0
 40
16.0
 40
17.0
 40
17.0
 40
17.0
 40
18.0
 40
18.0
 40
18.0
 40
19.0
 40
19.0
 40
19.0
 40
20.0
 40
20.0
 40
20.0
 40
21.0
 40
21.0
 40
21.0
 40
21.0
 10
602.4520057579139
 20
-235.0448164010977
 10
553.84061471518
 20
-235.0448164010977
 10
510.921281492555
 20
-234.9766435994734
 10
468.0022631558504
 20
-235.0628211281519
 10
419.1731284996131
 20
-235.1608743543748
 10
400.1363515977737
 20
-262.4220553806845
 10
395.2219720320263
 20
-308.4876949756181
 10
385.4889157282842
 20
-399.7218191964284
 10
398.460348798083
 20
-477.8958924528843
 10
490.2138436057348
 20
-525.6649411684502
 10
520.8969349056097
 20
-541.6393287955943
 10
543.8974395355617
 20
-571.8051749885853
 10
573.5152717689416
 20
-590.5865906554382
 10
593.6945560009444
 20
-603.382834694602
 10
619.2202657724356
 20
-614.5492292131694
 10
642.4362198470471
 20
-614.7091012929941
 10
889.6623770973893
 20
-616.4114195588345
 10
1136.908057274755
 20
-616.310791015625
 10
1384.136778596159
 20
-614.8026224111582
 10
1405.626393107625
 20
-614.6714949174357
 10
1430.410973883294
 20
-605.5990017977629
 10
1447.844947715857
 20
-592.7703694925676
 10
1499.931487244445
 20
-554.4429051783172
 10
1549.61031906326
 20
-512.7644249061486
 10
1599.289420784293
 20
-471.2694331577841
 10
1638.264200582133
 20
-438.7153347064923
 10
1643.155638459441
 20
-288.7425709513873
 10
1606.389018665661
 20
-254.3889894361619
 10
1597.062727494673
 20
-245.6748364931573
 10
1583.489165070769
 20
-236.9223236975731
 10
1571.522690413834
 20
-236.4216438392541
 10
1523.078481302633
 20
-234.3947119279337
 10
1474.499860887403
 20
-235.580122464663
 10
1423.344933844231
 20
-235.580122464663
 10
1421.411804199219
 20
-252.2567281846877
 10
1419.523118452591
 20
-263.5103910867274
 10
1418.891457297585
 20
-274.8341498436866
 10
1415.299598594764
 20
-339.2332236550074
 10
1391.877124340503
 20
-363.0179741599341
 10
1329.502991911653
 20
-363.7814825479081
 10
1286.341488924892
 20
-364.3098386293877
 10
1243.055561016132
 20
-365.7565145120989
 10
1200.030988420758
 20
-363.2542735508505
 10
1157.771588610363
 20
-360.7964989798411
 10
1131.887696105165
 20
-337.7091308197414
 10
1128.862991927506
 20
-293.2429205163735
 10
1127.726073822418
 20
-276.5278312385853
 10
1126.112148532618
 20
-259.8452089483089
 10
1124.783959723138
 20
-243.9646460793238
 10
1045.71133700284
 20
-243.9646460793238
 10
972.1104869099399
 20
-243.9646460793238
 10
906.6546109682549
 20
-243.9646460793238
 10
894.3394226470546
 20
-280.2735342050528
 10
890.7601143973216
 20
-315.4571100210214
 10
872.4202587573554
 20
-339.2751259741844
 10
843.0013669497002
 20
-377.4814941604418
 10
663.6926838267937
 20
-376.1477273718101
 10
630.1387551047583
 20
-340.6349383267489
 10
617.9774110472044
 20
-327.7636389794288
 10
611.670201091023
 20
-307.9909624372212
 10
606.5637411142325
 20
-290.2526513632238
 10
602.3946965205205
 20
-275.7706880445603
 10
603.987254551479
 20
-259.630074389569
 10
602.4520057579139
 20
-235.0448164010977
 97
        0
 97
        0
 92
        1
 93
        1
 72
     4
 94
        3
 73
     0
 74
     1
 95
       23
 96
       19
 40
0.0
 40
0.0
 40
0.0
 40
0.0
 40
1.0
 40
1.0
 40
1.0
 40
2.0
 40
2.0
 40
2.0
 40
3.0
 40
3.0
 40
3.0
 40
4.0
 40
4.0
 40
4.0
 40
5.0
 40
5.0
 40
5.0
 40
6.0
 40
6.0
 40
6.0
 40
6.0
 10
1553.792184012276
 20
-1550.616630653281
 10
1502.559165261007
 20
-1495.753337116985
 10
1454.000427642426
 20
-1439.874671440619
 10
1400.727937772675
 20
-1388.924780114905
 10
1383.353432395241
 20
-1372.307890260374
 10
1353.775658149223
 20
-1360.416988224179
 10
1329.63578380238
 20
-1360.166249064656
 10
1117.915937943892
 20
-1357.967265735973
 10
906.1629390964263
 20
-1358.681337034548
 10
694.422040865019
 20
-1359.295454545454
 10
677.5771736045936
 20
-1359.344216879312
 10
654.5919859254518
 20
-1359.169320242745
 10
644.9233237922963
 20
-1369.19186916599
 10
586.9630372679076
 20
-1429.273812033913
 10
532.0671080552138
 20
-1492.311993883801
 10
479.5173263549805
 20
-1550.616630653281
 10
830.8823525565012
 20
-1550.616630653281
 10
1193.458329634232
 20
-1550.616630653281
 10
1553.792184012276
 20
-1550.616630653281
 97
        0
 97
        0
 92
        1
 93
        1
 72
     4
 94
        3
 73
     0
 74
     1
 95
       17
 96
       13
 40
0.0
 40
0.0
 40
0.0
 40
0.0
 40
1.0
 40
1.0
 40
1.0
 40
2.0
 40
2.0
 40
2.0
 40
3.0
 40
3.0
 40
3.0
 40
4.0
 40
4.0
 40
4.0
 40
4.0
 10
1667.56334577288
 20
-1666.528386896307
 10
1227.479054240437
 20
-1666.528386896307
 10
791.7229146585832
 20
-1666.528386896307
 10
356.490452853116
 20
-1666.528386896307
 10
356.490452853116
 20
-1706.581695952973
 10
356.490452853116
 20
-1740.933410644531
 10
356.490452853116
 20
-1777.72504137708
 10
794.9967385824621
 20
-1777.72504137708
 10
1229.377096597251
 20
-1777.72504137708
 10
1667.56334577288
 20
-1777.72504137708
 10
1667.56334577288
 20
-1740.241741229962
 10
1667.56334577288
 20
-1705.904061453683
 10
1667.56334577288
 20
-1666.528386896307
 97
        0
 97
        0
 75
     2
 76
     1
 98
        0
  0
ENDSEC
  0
SECTION
  2
OBJECTS
  0
DICTIONARY
  5
C
330
0
100
AcDbDictionary
281
     1
  3
ACAD_GROUP
350
D
  3
ACAD_LAYOUT
350
1A
  3
ACAD_MATERIAL
350
3B
  3
ACAD_MLEADERSTYLE
350
48
  3
ACAD_MLINESTYLE
350
17
  3
ACAD_PLOTSETTINGS
350
19
  3
ACAD_PLOTSTYLENAME
350
E
  3
ACAD_TABLESTYLE
350
47
  3
ACAD_VISUALSTYLE
350
2A
  0
SUN
  5
3F
330
29
100
AcDbSun
 90
        1
290
     0
 63
     7
421
 16777215
 40
1.0
291
     1
 91
  2455826
 92
 54000000
292
     0
 70
     2
 71
   256
280
     1
  0
DICTIONARY
  5
D
102
{ACAD_REACTORS
330
C
102
}
330
C
100
AcDbDictionary
281
     1
  0
DICTIONARY
  5
1A
102
{ACAD_REACTORS
330
C
102
}
330
C
100
AcDbDictionary
281
     1
  3
Layout1
350
1E
  3
Layout2
350
26
  3
Model
350
22
  0
DICTIONARY
  5
3B
102
{ACAD_REACTORS
330
C
102
}
330
C
100
AcDbDictionary
281
     1
  3
ByBlock
350
3D
  3
ByLayer
350
3C
  3
Global
350
3E
  0
DICTIONARY
  5
48
102
{ACAD_REACTORS
330
C
102
}
330
C
100
AcDbDictionary
281
     1
  0
DICTIONARY
  5
17
102
{ACAD_REACTORS
330
C
102
}
330
C
100
AcDbDictionary
281
     1
  3
Standard
350
18
  0
DICTIONARY
  5
19
102
{ACAD_REACTORS
330
C
102
}
330
C
100
AcDbDictionary
281
     1
  0
ACDBDICTIONARYWDFLT
  5
E
102
{ACAD_REACTORS
330
C
102
}
330
C
100
AcDbDictionary
281
     1
  3
Normal
350
F
100
AcDbDictionaryWithDefault
340
F
  0
DICTIONARY
  5
47
102
{ACAD_REACTORS
330
C
102
}
330
C
100
AcDbDictionary
281
     1
  0
DICTIONARY
  5
2A
102
{ACAD_REACTORS
330
C
102
}
330
C
100
AcDbDictionary
281
     1
  3
2dWireframe
350
2F
  3
3D Hidden
350
31
  3
3dWireframe
350
30
  3
Basic
350
32
  3
Brighten
350
36
  3
ColorChange
350
3A
  3
Conceptual
350
34
  3
Dim
350
35
  3
Facepattern
350
39
  3
Flat
350
2B
  3
FlatWithEdges
350
2C
  3
Gouraud
350
2D
  3
GouraudWithEdges
350
2E
  3
Linepattern
350
38
  3
Realistic
350
33
  3
Thicken
350
37
  0
LAYOUT
  5
1E
102
{ACAD_REACTORS
330
1A
102
}
330
1A
100
AcDbPlotSettings
  1

  2
none_device
  4

  6

 40
0.0
 41
0.0
 42
0.0
 43
0.0
 44
0.0
 45
0.0
 46
0.0
 47
0.0
 48
0.0
 49
0.0
140
0.0
141
0.0
142
1.0
143
1.0
 70
   688
 72
     0
 73
     0
 74
     5
  7

 75
    16
 76
     0
 77
     2
 78
   300
147
1.0
148
0.0
149
0.0
100
AcDbLayout
  1
Layout1
 70
     1
 71
     1
 10
0.0
 20
0.0
 11
12.0
 21
9.0
 12
0.0
 22
0.0
 32
0.0
 14
1.000000000000000E+20
 24
1.000000000000000E+20
 34
1.000000000000000E+20
 15
-1.000000000000000E+20
 25
-1.000000000000000E+20
 35
-1.000000000000000E+20
146
0.0
 13
0.0
 23
0.0
 33
0.0
 16
1.0
 26
0.0
 36
0.0
 17
0.0
 27
1.0
 37
0.0
 76
     0
330
1B
  0
LAYOUT
  5
26
102
{ACAD_REACTORS
330
1A
102
}
330
1A
100
AcDbPlotSettings
  1

  2
none_device
  4

  6

 40
0.0
 41
0.0
 42
0.0
 43
0.0
 44
0.0
 45
0.0
 46
0.0
 47
0.0
 48
0.0
 49
0.0
140
0.0
141
0.0
142
1.0
143
1.0
 70
   688
 72
     0
 73
     0
 74
     5
  7

 75
    16
 76
     0
 77
     2
 78
   300
147
1.0
148
0.0
149
0.0
100
AcDbLayout
  1
Layout2
 70
     1
 71
     2
 10
0.0
 20
0.0
 11
0.0
 21
0.0
 12
0.0
 22
0.0
 32
0.0
 14
0.0
 24
0.0
 34
0.0
 15
0.0
 25
0.0
 35
0.0
146
0.0
 13
0.0
 23
0.0
 33
0.0
 16
1.0
 26
0.0
 36
0.0
 17
0.0
 27
1.0
 37
0.0
 76
     0
330
23
  0
LAYOUT
  5
22
102
{ACAD_REACTORS
330
1A
102
}
330
1A
100
AcDbPlotSettings
  1

  2
none_device
  4

  6

 40
0.0
 41
0.0
 42
0.0
 43
0.0
 44
0.0
 45
0.0
 46
0.0
 47
0.0
 48
0.0
 49
0.0
140
0.0
141
0.0
142
1.0
143
1.0
 70
  1712
 72
     0
 73
     0
 74
     0
  7

 75
     0
 76
     0
 77
     2
 78
   300
147
1.0
148
0.0
149
0.0
100
AcDbLayout
  1
Model
 70
     1
 71
     0
 10
0.0
 20
0.0
 11
12.0
 21
9.0
 12
0.0
 22
0.0
 32
0.0
 14
1.000000000000000E+20
 24
1.000000000000000E+20
 34
1.000000000000000E+20
 15
-1.000000000000000E+20
 25
-1.000000000000000E+20
 35
-1.000000000000000E+20
146
0.0
 13
0.0
 23
0.0
 33
0.0
 16
1.0
 26
0.0
 36
0.0
 17
0.0
 27
1.0
 37
0.0
 76
     0
330
1F
331
29
  0
MATERIAL
  5
3D
102
{ACAD_REACTORS
330
3B
102
}
330
3B
100
AcDbMaterial
  1
ByBlock
 72
     1
 94
      127
  0
MATERIAL
  5
3C
102
{ACAD_REACTORS
330
3B
102
}
330
3B
100
AcDbMaterial
  1
ByLayer
 72
     1
 94
      127
  0
MATERIAL
  5
3E
102
{ACAD_REACTORS
330
3B
102
}
330
3B
100
AcDbMaterial
  1
Global
 72
     1
 94
      127
  0
MLINESTYLE
  5
18
102
{ACAD_REACTORS
330
17
102
}
330
17
100
AcDbMlineStyle
  2
Standard
 70
     0
  3

 62
   256
 51
90.0
 52
90.0
 71
     2
 49
0.5
 62
   256
  6
BYLAYER
 49
-0.5
 62
   256
  6
BYLAYER
  0
ACDBPLACEHOLDER
  5
F
102
{ACAD_REACTORS
330
E
102
}
330
E
  0
VISUALSTYLE
  5
2F
102
{ACAD_REACTORS
330
2A
102
}
330
2A
100
AcDbVisualStyle
  2
2dWireframe
 70
     4
177
     2
291
     0
 71
     0
176
     1
 72
     2
176
     1
 73
     0
176
     1
 90
        0
176
     1
 40
-0.6
176
     1
 41
-30.0
176
     1
 62
     5
 63
     7
421
 16777215
176
     1
 74
     1
176
     1
 91
        4
176
     1
 64
     7
176
     1
 65
   257
176
     1
 75
     1
176
     1
175
     1
176
     1
 42
1.0
176
     1
 92
        0
176
     1
 66
   257
176
     1
 43
1.0
176
     1
 76
     1
176
     1
 77
     6
176
     1
 78
     2
176
     1
 67
     7
176
     1
 79
     5
176
     1
170
     0
176
     1
171
     0
176
     1
290
     0
176
     1
 93
        1
176
     1
 44
0.0
176
     1
173
     0
176
     1
  0
VISUALSTYLE
  5
31
102
{ACAD_REACTORS
330
2A
102
}
330
2A
100
AcDbVisualStyle
  2
3D Hidden
 70
     6
177
     2
291
     0
 71
     1
176
     1
 72
     2
176
     1
 73
     2
176
     1
 90
        0
176
     1
 40
-0.6
176
     1
 41
-30.0
176
     1
 62
     5
 63
     7
421
 16777215
176
     1
 74
     2
176
     1
 91
        2
176
     1
 64
     7
176
     1
 65
   257
176
     1
 75
     2
176
     1
175
     1
176
     1
 42
40.0
176
     1
 92
        0
176
     1
 66
   257
176
     1
 43
1.0
176
     1
 76
     1
176
     1
 77
     6
176
     1
 78
     2
176
     1
 67
     7
176
     1
 79
     3
176
     1
170
     0
176
     1
171
     0
176
     1
290
     0
176
     1
 93
        1
176
     1
 44
0.0
176
     1
173
     0
176
     1
  0
VISUALSTYLE
  5
30
102
{ACAD_REACTORS
330
2A
102
}
330
2A
100
AcDbVisualStyle
  2
3dWireframe
 70
     5
177
     2
291
     0
 71
     0
176
     1
 72
     2
176
     1
 73
     0
176
     1
 90
        0
176
     1
 40
-0.6
176
     1
 41
-30.0
176
     1
 62
     5
 63
     7
421
 16777215
176
     1
 74
     1
176
     1
 91
        4
176
     1
 64
     7
176
     1
 65
   257
176
     1
 75
     1
176
     1
175
     1
176
     1
 42
1.0
176
     1
 92
        0
176
     1
 66
   257
176
     1
 43
1.0
176
     1
 76
     1
176
     1
 77
     6
176
     1
 78
     2
176
     1
 67
     7
176
     1
 79
     5
176
     1
170
     0
176
     1
171
     0
176
     1
290
     0
176
     1
 93
        1
176
     1
 44
0.0
176
     1
173
     0
176
     1
  0
VISUALSTYLE
  5
32
102
{ACAD_REACTORS
330
2A
102
}
330
2A
100
AcDbVisualStyle
  2
Basic
 70
     7
177
     2
291
     1
 71
     1
176
     1
 72
     0
176
     1
 73
     1
176
     1
 90
        0
176
     1
 40
-0.6
176
     1
 41
-30.0
176
     1
 62
     5
 63
     7
421
 16777215
176
     1
 74
     0
176
     1
 91
        4
176
     1
 64
     7
176
     1
 65
   257
176
     1
 75
     1
176
     1
175
     1
176
     1
 42
1.0
176
     1
 92
        8
176
     1
 66
     7
176
     1
 43
1.0
176
     1
 76
     1
176
     1
 77
     6
176
     1
 78
     2
176
     1
 67
     7
176
     1
 79
     5
176
     1
170
     0
176
     1
171
     0
176
     1
290
     0
176
     1
 93
        1
176
     1
 44
0.0
176
     1
173
     0
176
     1
  0
VISUALSTYLE
  5
36
102
{ACAD_REACTORS
330
2A
102
}
330
2A
100
AcDbVisualStyle
  2
Brighten
 70
    12
177
     2
291
     1
 71
     2
176
     1
 72
     2
176
     1
 73
     0
176
     1
 90
        0
176
     1
 40
-0.6
176
     1
 41
-30.0
176
     1
 62
     5
 63
     7
421
 16777215
176
     1
 74
     1
176
     1
 91
        4
176
     1
 64
     7
176
     1
 65
   257
176
     1
 75
     1
176
     1
175
     1
176
     1
 42
1.0
176
     1
 92
        8
176
     1
 66
     7
176
     1
 43
1.0
176
     1
 76
     1
176
     1
 77
     6
176
     1
 78
     2
176
     1
 67
     7
176
     1
 79
     5
176
     1
170
     0
176
     1
171
     0
176
     1
290
     0
176
     1
 93
        1
176
     1
 44
50.0
176
     1
173
     0
176
     1
  0
VISUALSTYLE
  5
3A
102
{ACAD_REACTORS
330
2A
102
}
330
2A
100
AcDbVisualStyle
  2
ColorChange
 70
    16
177
     2
291
     1
 71
     2
176
     1
 72
     2
176
     1
 73
     3
176
     1
 90
        0
176
     1
 40
-0.6
176
     1
 41
-30.0
176
     1
 62
     5
 63
     8
421
  8421504
176
     1
 74
     1
176
     1
 91
        4
176
     1
 64
     7
176
     1
 65
   257
176
     1
 75
     1
176
     1
175
     1
176
     1
 42
1.0
176
     1
 92
        8
176
     1
 66
     8
424
  8421504
176
     1
 43
1.0
176
     1
 76
     1
176
     1
 77
     6
176
     1
 78
     2
176
     1
 67
     7
176
     1
 79
     5
176
     1
170
     0
176
     1
171
     0
176
     1
290
     0
176
     1
 93
        1
176
     1
 44
0.0
176
     1
173
     0
176
     1
  0
VISUALSTYLE
  5
34
102
{ACAD_REACTORS
330
2A
102
}
330
2A
100
AcDbVisualStyle
  2
Conceptual
 70
     9
177
     2
291
     0
 71
     3
176
     1
 72
     2
176
     1
 73
     0
176
     1
 90
        0
176
     1
 40
-0.6
176
     1
 41
-30.0
176
     1
 62
     5
 63
     7
421
 16777215
176
     1
 74
     2
176
     1
 91
        2
176
     1
 64
     7
176
     1
 65
   257
176
     1
 75
     1
176
     1
175
     1
176
     1
 42
40.0
176
     1
 92
        8
176
     1
 66
     7
176
     1
 43
1.0
176
     1
 76
     1
176
     1
 77
     6
176
     1
 78
     2
176
     1
 67
     7
176
     1
 79
     3
176
     1
170
     0
176
     1
171
     0
176
     1
290
     0
176
     1
 93
        1
176
     1
 44
0.0
176
     1
173
     0
176
     1
  0
VISUALSTYLE
  5
35
102
{ACAD_REACTORS
330
2A
102
}
330
2A
100
AcDbVisualStyle
  2
Dim
 70
    11
177
     2
291
     1
 71
     2
176
     1
 72
     2
176
     1
 73
     0
176
     1
 90
        0
176
     1
 40
-0.6
176
     1
 41
-30.0
176
     1
 62
     5
 63
     7
421
 16777215
176
     1
 74
     1
176
     1
 91
        4
176
     1
 64
     7
176
     1
 65
   257
176
     1
 75
     1
176
     1
175
     1
176
     1
 42
1.0
176
     1
 92
        8
176
     1
 66
     7
176
     1
 43
1.0
176
     1
 76
     1
176
     1
 77
     6
176
     1
 78
     2
176
     1
 67
     7
176
     1
 79
     5
176
     1
170
     0
176
     1
171
     0
176
     1
290
     0
176
     1
 93
        1
176
     1
 44
-50.0
176
     1
173
     0
176
     1
  0
VISUALSTYLE
  5
39
102
{ACAD_REACTORS
330
2A
102
}
330
2A
100
AcDbVisualStyle
  2
Facepattern
 70
    15
177
     2
291
     1
 71
     2
176
     1
 72
     2
176
     1
 73
     0
176
     1
 90
        0
176
     1
 40
-0.6
176
     1
 41
-30.0
176
     1
 62
     5
 63
     7
421
 16777215
176
     1
 74
     1
176
     1
 91
        4
176
     1
 64
     7
176
     1
 65
   257
176
     1
 75
     1
176
     1
175
     1
176
     1
 42
1.0
176
     1
 92
        8
176
     1
 66
     7
176
     1
 43
1.0
176
     1
 76
     1
176
     1
 77
     6
176
     1
 78
     2
176
     1
 67
     7
176
     1
 79
     5
176
     1
170
     0
176
     1
171
     0
176
     1
290
     0
176
     1
 93
        1
176
     1
 44
0.0
176
     1
173
     0
176
     1
  0
VISUALSTYLE
  5
2B
102
{ACAD_REACTORS
330
2A
102
}
330
2A
100
AcDbVisualStyle
  2
Flat
 70
     0
177
     2
291
     1
 71
     2
176
     1
 72
     1
176
     1
 73
     1
176
     1
 90
        2
176
     1
 40
-0.6
176
     1
 41
30.0
176
     1
 62
     5
 63
     7
421
 16777215
176
     1
 74
     0
176
     1
 91
        4
176
     1
 64
     7
176
     1
 65
   257
176
     1
 75
     1
176
     1
175
     1
176
     1
 42
1.0
176
     1
 92
        8
176
     1
 66
     7
176
     1
 43
1.0
176
     1
 76
     1
176
     1
 77
     6
176
     1
 78
     2
176
     1
 67
     7
176
     1
 79
     5
176
     1
170
     0
176
     1
171
     0
176
     1
290
     0
176
     1
 93
       13
176
     1
 44
0.0
176
     1
173
     0
176
     1
  0
VISUALSTYLE
  5
2C
102
{ACAD_REACTORS
330
2A
102
}
330
2A
100
AcDbVisualStyle
  2
FlatWithEdges
 70
     1
177
     2
291
     1
 71
     2
176
     1
 72
     1
176
     1
 73
     1
176
     1
 90
        2
176
     1
 40
-0.6
176
     1
 41
30.0
176
     1
 62
     5
 63
     7
421
 16777215
176
     1
 74
     1
176
     1
 91
        4
176
     1
 64
     7
176
     1
 65
   257
176
     1
 75
     1
176
     1
175
     1
176
     1
 42
1.0
176
     1
 92
        0
176
     1
 66
   257
176
     1
 43
1.0
176
     1
 76
     1
176
     1
 77
     6
176
     1
 78
     2
176
     1
 67
     7
176
     1
 79
     5
176
     1
170
     0
176
     1
171
     0
176
     1
290
     0
176
     1
 93
       13
176
     1
 44
0.0
176
     1
173
     0
176
     1
  0
VISUALSTYLE
  5
2D
102
{ACAD_REACTORS
330
2A
102
}
330
2A
100
AcDbVisualStyle
  2
Gouraud
 70
     2
177
     2
291
     1
 71
     2
176
     1
 72
     2
176
     1
 73
     1
176
     1
 90
        2
176
     1
 40
-0.6
176
     1
 41
30.0
176
     1
 62
     5
 63
     7
421
 16777215
176
     1
 74
     0
176
     1
 91
        4
176
     1
 64
     7
176
     1
 65
   257
176
     1
 75
     1
176
     1
175
     1
176
     1
 42
1.0
176
     1
 92
        0
176
     1
 66
     7
176
     1
 43
1.0
176
     1
 76
     1
176
     1
 77
     6
176
     1
 78
     2
176
     1
 67
     7
176
     1
 79
     5
176
     1
170
     0
176
     1
171
     0
176
     1
290
     0
176
     1
 93
       13
176
     1
 44
0.0
176
     1
173
     0
176
     1
  0
VISUALSTYLE
  5
2E
102
{ACAD_REACTORS
330
2A
102
}
330
2A
100
AcDbVisualStyle
  2
GouraudWithEdges
 70
     3
177
     2
291
     1
 71
     2
176
     1
 72
     2
176
     1
 73
     1
176
     1
 90
        2
176
     1
 40
-0.6
176
     1
 41
30.0
176
     1
 62
     5
 63
     7
421
 16777215
176
     1
 74
     1
176
     1
 91
        4
176
     1
 64
     7
176
     1
 65
   257
176
     1
 75
     1
176
     1
175
     1
176
     1
 42
1.0
176
     1
 92
        0
176
     1
 66
   257
176
     1
 43
1.0
176
     1
 76
     1
176
     1
 77
     6
176
     1
 78
     2
176
     1
 67
     7
176
     1
 79
     5
176
     1
170
     0
176
     1
171
     0
176
     1
290
     0
176
     1
 93
       13
176
     1
 44
0.0
176
     1
173
     0
176
     1
  0
VISUALSTYLE
  5
38
102
{ACAD_REACTORS
330
2A
102
}
330
2A
100
AcDbVisualStyle
  2
Linepattern
 70
    14
177
     2
291
     1
 71
     2
176
     1
 72
     2
176
     1
 73
     0
176
     1
 90
        0
176
     1
 40
-0.6
176
     1
 41
-30.0
176
     1
 62
     5
 63
     7
421
 16777215
176
     1
 74
     1
176
     1
 91
        4
176
     1
 64
     7
176
     1
 65
   257
176
     1
 75
     7
176
     1
175
     7
176
     1
 42
1.0
176
     1
 92
        8
176
     1
 66
     7
176
     1
 43
1.0
176
     1
 76
     1
176
     1
 77
     6
176
     1
 78
     2
176
     1
 67
     7
176
     1
 79
     5
176
     1
170
     0
176
     1
171
     0
176
     1
290
     0
176
     1
 93
        1
176
     1
 44
0.0
176
     1
173
     0
176
     1
  0
VISUALSTYLE
  5
33
102
{ACAD_REACTORS
330
2A
102
}
330
2A
100
AcDbVisualStyle
  2
Realistic
 70
     8
177
     2
291
     0
 71
     2
176
     1
 72
     2
176
     1
 73
     0
176
     1
 90
        0
176
     1
 40
-0.6
176
     1
 41
-30.0
176
     1
 62
     5
 63
     7
421
 16777215
176
     1
 74
     1
176
     1
 91
        0
176
     1
 64
     7
176
     1
 65
   257
176
     1
 75
     1
176
     1
175
     1
176
     1
 42
1.0
176
     1
 92
        8
176
     1
 66
     8
424
  7895160
176
     1
 43
1.0
176
     1
 76
     1
176
     1
 77
     6
176
     1
 78
     2
176
     1
 67
     7
176
     1
 79
     5
176
     1
170
     0
176
     1
171
     0
176
     1
290
     0
176
     1
 93
       13
176
     1
 44
0.0
176
     1
173
     0
176
     1
  0
VISUALSTYLE
  5
37
102
{ACAD_REACTORS
330
2A
102
}
330
2A
100
AcDbVisualStyle
  2
Thicken
 70
    13
177
     2
291
     1
 71
     2
176
     1
 72
     2
176
     1
 73
     0
176
     1
 90
        0
176
     1
 40
-0.6
176
     1
 41
-30.0
176
     1
 62
     5
 63
     7
421
 16777215
176
     1
 74
     1
176
     1
 91
        4
176
     1
 64
     7
176
     1
 65
   257
176
     1
 75
     1
176
     1
175
     1
176
     1
 42
1.0
176
     1
 92
       12
176
     1
 66
     7
176
     1
 43
1.0
176
     1
 76
     1
176
     1
 77
     6
176
     1
 78
     2
176
     1
 67
     7
176
     1
 79
     5
176
     1
170
     0
176
     1
171
     0
176
     1
290
     0
176
     1
 93
        1
176
     1
 44
0.0
176
     1
173
     0
176
     1
  0
ENDSEC
  0
EOF
