<?xml version="1.0" encoding="utf-8"?>
<!-- Generator: Adobe Illustrator 22.1.0, SVG Export Plug-In . SVG Version: 6.00 Build 0)  -->
<svg version="1.1" id="Layer_1" xmlns="http://www.w3.org/2000/svg" xmlns:xlink="http://www.w3.org/1999/xlink" x="0px" y="0px"
	 viewBox="0 0 2000 2000" style="enable-background:new 0 0 2000 2000;" xml:space="preserve">
<path d="M708.5,239c28.5,0,53.2,0,80.1,0c1.4-16.6,2.5-29.9,3.6-43.2c3.9-49.4,37-82.7,86.6-83.4c72.7-1.1,145.3-0.3,218-0.3
	c113.1,0,126.7,12,140.5,125.8c12.4,1.5,25.6,4,38.8,4.4c11.4,0.3,22.9-1.9,37.8-3.2c1.4-14.6,3.2-27.6,4-40.7
	c3.1-51.6,37.1-84.9,90.4-86c53-1.1,106.1-0.2,159.1-0.2c116,0,157.2,51.3,169.5,164.2c15.8,144.9-21.8,255.9-150.8,329.6
	c-105,59.9-130,150.9-121.3,266.7c9.6,127,3.8,255.2,1.3,382.8c-0.8,44.4,10.6,77.2,43.7,108.5c78.4,74.3,151.8,153.7,229.6,228.6
	c29.2,28.1,43.4,57,39.9,97.8c-3.4,39-0.1,78.5-0.9,117.8c-1,51.1-40.8,93.2-91.2,93.2c-449.8,0.5-899.6,0.5-1349.4,0
	c-50.8-0.1-85.9-42.2-92.6-92.8c-15.8-119.4,14.3-214.5,113.7-292.3c72-56.4,155.5-119.9,187.7-199c33.1-81.2,10.6-185.3,11.3-279.4
	c0.7-94.3,2.6-188.7-1.4-282.8c-1.1-25.5-15.6-56.4-34.2-74.2c-62.3-59.8-131.4-112.4-193.1-172.8c-20.6-20.2-33.9-54.4-37.7-83.8
	c-6.1-48.3-1.7-98-1.7-147.1c0-115.4,50.2-165.2,166.2-165.2c39.3,0,78.6,0,117.8,0C681.2,112.1,698,127.3,708.5,239z M667.7,723.2
	c0,178.5,0,353.8,0,530.9c231.9,0,459.1,0,688.2,0c0-179,0-354.5,0-530.9C1124.1,723.2,896.9,723.2,667.7,723.2z M602.5,235
	c-48.6,0-91.5-0.1-134.4,0c-48.8,0.1-67.9,27.4-72.8,73.4c-9.7,91.2,3.2,169.4,95,217.2c30.7,16,53.7,46.1,83.3,64.9
	c20.2,12.8,45.7,24,68.9,24.1c247.2,1.7,494.5,1.6,741.7,0.1c21.5-0.1,46.3-9.2,63.7-22c52.1-38.3,101.8-80,151.4-121.5
	c39-32.6,43.9-182.5,7.1-216.9c-9.3-8.7-22.9-17.5-34.9-18c-48.4-2-97-0.8-148.2-0.8c-1.9,16.7-3.8,27.9-4.5,39.3
	c-3.6,64.4-27,88.2-89.4,88.9c-43.2,0.5-86.4,2-129.5-0.5c-42.3-2.5-68.1-25.5-71.2-70c-1.1-16.7-2.8-33.4-4.1-49.3
	c-79.1,0-152.7,0-218.1,0c-12.3,36.3-15.9,71.5-34.2,95.3c-29.4,38.2-208.7,36.9-242.3,1.4c-12.2-12.9-18.5-32.6-23.6-50.4
	C602.4,275.8,604,259.6,602.5,235z M1553.8,1550.6c-51.2-54.9-99.8-110.7-153.1-161.7c-17.4-16.6-47-28.5-71.1-28.8
	c-211.7-2.2-423.5-1.5-635.2-0.9c-16.8,0-39.8-0.1-49.5,9.9c-58,60.1-112.9,123.1-165.4,181.4
	C830.9,1550.6,1193.5,1550.6,1553.8,1550.6z M1667.6,1666.5c-440.1,0-875.8,0-1311.1,0c0,40.1,0,74.4,0,111.2
	c438.5,0,872.9,0,1311.1,0C1667.6,1740.2,1667.6,1705.9,1667.6,1666.5z"/>
</svg>
