  0
SECTION
  2
HEADER
  9
$ACADVER
  1
AC1024
  9
$ACADMAINTVER
 70
     6
  9
$DWGCODEPAGE
  3
ANSI_1252
  9
$INSBASE
 10
0.0
 20
0.0
 30
0.0
  9
$EXTMIN
 10
1.000000000000000E+20
 20
1.000000000000000E+20
 30
1.000000000000000E+20
  9
$EXTMAX
 10
-1.000000000000000E+20
 20
-1.000000000000000E+20
 30
-1.000000000000000E+20
  9
$LIMMIN
 10
0.0
 20
0.0
  9
$LIMMAX
 10
12.0
 20
9.0
  9
$ORTHOMODE
 70
     0
  9
$REGENMODE
 70
     1
  9
$FILLMODE
 70
     1
  9
$QTEXTMODE
 70
     0
  9
$MIRRTEXT
 70
     1
  9
$LTSCALE
 40
1.0
  9
$ATTMODE
 70
     1
  9
$TEXTSIZE
 40
0.2
  9
$TRACEWID
 40
0.05
  9
$TEXTSTYLE
  7
Standard
  9
$CLAYER
  8
0
  9
$CELTYPE
  6
ByLayer
  9
$CECOLOR
 62
   256
  9
$CELTSCALE
 40
1.0
  9
$DISPSILH
 70
     0
  9
$DIMSCALE
 40
1.0
  9
$DIMASZ
 40
0.18
  9
$DIMEXO
 40
0.0625
  9
$DIMDLI
 40
0.38
  9
$DIMRND
 40
0.0
  9
$DIMDLE
 40
0.0
  9
$DIMEXE
 40
0.18
  9
$DIMTP
 40
0.0
  9
$DIMTM
 40
0.0
  9
$DIMTXT
 40
0.18
  9
$DIMCEN
 40
0.09
  9
$DIMTSZ
 40
0.0
  9
$DIMTOL
 70
     0
  9
$DIMLIM
 70
     0
  9
$DIMTIH
 70
     1
  9
$DIMTOH
 70
     1
  9
$DIMSE1
 70
     0
  9
$DIMSE2
 70
     0
  9
$DIMTAD
 70
     0
  9
$DIMZIN
 70
     0
  9
$DIMBLK
  1

  9
$DIMASO
 70
     1
  9
$DIMSHO
 70
     1
  9
$DIMPOST
  1

  9
$DIMAPOST
  1

  9
$DIMALT
 70
     0
  9
$DIMALTD
 70
     2
  9
$DIMALTF
 40
25.4
  9
$DIMLFAC
 40
1.0
  9
$DIMTOFL
 70
     0
  9
$DIMTVP
 40
0.0
  9
$DIMTIX
 70
     0
  9
$DIMSOXD
 70
     0
  9
$DIMSAH
 70
     0
  9
$DIMBLK1
  1

  9
$DIMBLK2
  1

  9
$DIMSTYLE
  2
Standard
  9
$DIMCLRD
 70
     0
  9
$DIMCLRE
 70
     0
  9
$DIMCLRT
 70
     0
  9
$DIMTFAC
 40
1.0
  9
$DIMGAP
 40
0.09
  9
$DIMJUST
 70
     0
  9
$DIMSD1
 70
     0
  9
$DIMSD2
 70
     0
  9
$DIMTOLJ
 70
     1
  9
$DIMTZIN
 70
     0
  9
$DIMALTZ
 70
     0
  9
$DIMALTTZ
 70
     0
  9
$DIMUPT
 70
     0
  9
$DIMDEC
 70
     4
  9
$DIMTDEC
 70
     4
  9
$DIMALTU
 70
     2
  9
$DIMALTTD
 70
     2
  9
$DIMTXSTY
  7
Standard
  9
$DIMAUNIT
 70
     0
  9
$DIMADEC
 70
     0
  9
$DIMALTRND
 40
0.0
  9
$DIMAZIN
 70
     0
  9
$DIMDSEP
 70
    46
  9
$DIMATFIT
 70
     3
  9
$DIMFRAC
 70
     0
  9
$DIMLDRBLK
  1

  9
$DIMLUNIT
 70
     2
  9
$DIMLWD
 70
    -2
  9
$DIMLWE
 70
    -2
  9
$DIMTMOVE
 70
     0
  9
$DIMFXL
 40
1.0
  9
$DIMFXLON
 70
     0
  9
$DIMJOGANG
 40
0.7853981633974483
  9
$DIMTFILL
 70
     0
  9
$DIMTFILLCLR
 70
     0
  9
$DIMARCSYM
 70
     0
  9
$DIMLTYPE
  6

  9
$DIMLTEX1
  6

  9
$DIMLTEX2
  6

  9
$DIMTXTDIRECTION
 70
     0
  9
$LUNITS
 70
     2
  9
$LUPREC
 70
     4
  9
$SKETCHINC
 40
0.1
  9
$FILLETRAD
 40
0.5
  9
$AUNITS
 70
     0
  9
$AUPREC
 70
     0
  9
$MENU
  1
.
  9
$ELEVATION
 40
0.0
  9
$PELEVATION
 40
0.0
  9
$THICKNESS
 40
0.0
  9
$LIMCHECK
 70
     0
  9
$CHAMFERA
 40
0.5
  9
$CHAMFERB
 40
0.5
  9
$CHAMFERC
 40
1.0
  9
$CHAMFERD
 40
0.0
  9
$SKPOLY
 70
     0
  9
$TDCREATE
 40
2458271.554486713
  9
$TDUCREATE
 40
2458271.721153379
  9
$TDUPDATE
 40
2458271.554486713
  9
$TDUUPDATE
 40
2458271.721153379
  9
$TDINDWG
 40
0.0000000116
  9
$TDUSRTIMER
 40
0.0000000116
  9
$USRTIMER
 70
     1
  9
$ANGBASE
 50
0.0
  9
$ANGDIR
 70
     0
  9
$PDMODE
 70
     0
  9
$PDSIZE
 40
0.0
  9
$PLINEWID
 40
0.0
  9
$SPLFRAME
 70
     0
  9
$SPLINETYPE
 70
     6
  9
$SPLINESEGS
 70
     8
  9
$HANDSEED
  5
45
  9
$SURFTAB1
 70
     6
  9
$SURFTAB2
 70
     6
  9
$SURFTYPE
 70
     6
  9
$SURFU
 70
     6
  9
$SURFV
 70
     6
  9
$UCSBASE
  2

  9
$UCSNAME
  2

  9
$UCSORG
 10
0.0
 20
0.0
 30
0.0
  9
$UCSXDIR
 10
1.0
 20
0.0
 30
0.0
  9
$UCSYDIR
 10
0.0
 20
1.0
 30
0.0
  9
$UCSORTHOREF
  2

  9
$UCSORTHOVIEW
 70
     0
  9
$UCSORGTOP
 10
0.0
 20
0.0
 30
0.0
  9
$UCSORGBOTTOM
 10
0.0
 20
0.0
 30
0.0
  9
$UCSORGLEFT
 10
0.0
 20
0.0
 30
0.0
  9
$UCSORGRIGHT
 10
0.0
 20
0.0
 30
0.0
  9
$UCSORGFRONT
 10
0.0
 20
0.0
 30
0.0
  9
$UCSORGBACK
 10
0.0
 20
0.0
 30
0.0
  9
$PUCSBASE
  2

  9
$PUCSNAME
  2

  9
$PUCSORG
 10
0.0
 20
0.0
 30
0.0
  9
$PUCSXDIR
 10
1.0
 20
0.0
 30
0.0
  9
$PUCSYDIR
 10
0.0
 20
1.0
 30
0.0
  9
$PUCSORTHOREF
  2

  9
$PUCSORTHOVIEW
 70
     0
  9
$PUCSORGTOP
 10
0.0
 20
0.0
 30
0.0
  9
$PUCSORGBOTTOM
 10
0.0
 20
0.0
 30
0.0
  9
$PUCSORGLEFT
 10
0.0
 20
0.0
 30
0.0
  9
$PUCSORGRIGHT
 10
0.0
 20
0.0
 30
0.0
  9
$PUCSORGFRONT
 10
0.0
 20
0.0
 30
0.0
  9
$PUCSORGBACK
 10
0.0
 20
0.0
 30
0.0
  9
$USERI1
 70
     0
  9
$USERI2
 70
     0
  9
$USERI3
 70
     0
  9
$USERI4
 70
     0
  9
$USERI5
 70
     0
  9
$USERR1
 40
0.0
  9
$USERR2
 40
0.0
  9
$USERR3
 40
0.0
  9
$USERR4
 40
0.0
  9
$USERR5
 40
0.0
  9
$WORLDVIEW
 70
     1
  9
$SHADEDGE
 70
     3
  9
$SHADEDIF
 70
    70
  9
$TILEMODE
 70
     1
  9
$MAXACTVP
 70
    64
  9
$PINSBASE
 10
0.0
 20
0.0
 30
0.0
  9
$PLIMCHECK
 70
     0
  9
$PEXTMIN
 10
1.000000000000000E+20
 20
1.000000000000000E+20
 30
1.000000000000000E+20
  9
$PEXTMAX
 10
-1.000000000000000E+20
 20
-1.000000000000000E+20
 30
-1.000000000000000E+20
  9
$PLIMMIN
 10
0.0
 20
0.0
  9
$PLIMMAX
 10
12.0
 20
9.0
  9
$UNITMODE
 70
     0
  9
$VISRETAIN
 70
     1
  9
$PLINEGEN
 70
     0
  9
$PSLTSCALE
 70
     1
  9
$TREEDEPTH
 70
  3020
  9
$CMLSTYLE
  2
Standard
  9
$CMLJUST
 70
     0
  9
$CMLSCALE
 40
1.0
  9
$PROXYGRAPHICS
 70
     1
  9
$MEASUREMENT
 70
     0
  9
$CELWEIGHT
370
    -1
  9
$ENDCAPS
280
     0
  9
$JOINSTYLE
280
     0
  9
$LWDISPLAY
290
     1
  9
$INSUNITS
 70
     1
  9
$HYPERLINKBASE
  1

  9
$STYLESHEET
  1

  9
$XEDIT
290
     1
  9
$CEPSNTYPE
380
     0
  9
$PSTYLEMODE
290
     1
  9
$FINGERPRINTGUID
  2
{357E420F-35A7-488C-8D16-89A0C0BC9636}
  9
$VERSIONGUID
  2
{FAEB1C32-E019-11D5-929B-00C0DF256EC4}
  9
$EXTNAMES
290
     1
  9
$PSVPSCALE
 40
0.0
  9
$OLESTARTUP
290
     0
  9
$SORTENTS
280
   127
  9
$INDEXCTL
280
     0
  9
$HIDETEXT
280
     1
  9
$XCLIPFRAME
280
     2
  9
$HALOGAP
280
     0
  9
$OBSCOLOR
 70
   257
  9
$OBSLTYPE
280
     0
  9
$INTERSECTIONDISPLAY
280
     0
  9
$INTERSECTIONCOLOR
 70
   257
  9
$DIMASSOC
280
     2
  9
$PROJECTNAME
  1

  9
$CAMERADISPLAY
290
     0
  9
$LENSLENGTH
 40
50.0
  9
$CAMERAHEIGHT
 40
0.0
  9
$STEPSPERSEC
 40
2.0
  9
$STEPSIZE
 40
6.0
  9
$3DDWFPREC
 40
2.0
  9
$PSOLWIDTH
 40
0.25
  9
$PSOLHEIGHT
 40
4.0
  9
$LOFTANG1
 40
1.570796326794897
  9
$LOFTANG2
 40
1.570796326794897
  9
$LOFTMAG1
 40
0.0
  9
$LOFTMAG2
 40
0.0
  9
$LOFTPARAM
 70
     7
  9
$LOFTNORMALS
280
     1
  9
$LATITUDE
 40
37.795
  9
$LONGITUDE
 40
-122.394
  9
$NORTHDIRECTION
 40
0.0
  9
$TIMEZONE
 70
 -8000
  9
$LIGHTGLYPHDISPLAY
280
     1
  9
$TILEMODELIGHTSYNCH
280
     1
  9
$CMATERIAL
347
3C
  9
$SOLIDHIST
280
     1
  9
$SHOWHIST
280
     1
  9
$DWFFRAME
280
     2
  9
$DGNFRAME
280
     2
  9
$REALWORLDSCALE
290
     1
  9
$INTERFERECOLOR
 62
   256
  9
$CSHADOW
280
     0
  9
$SHADOWPLANELOCATION
 40
0.0
  0
ENDSEC
  0
SECTION
  2
CLASSES
  0
CLASS
  1
ACDBDICTIONARYWDFLT
  2
AcDbDictionaryWithDefault
  3
ObjectDBX Classes
 90
        0
 91
        4
280
     0
281
     0
  0
CLASS
  1
VISUALSTYLE
  2
AcDbVisualStyle
  3
ObjectDBX Classes
 90
     4095
 91
        4
280
     0
281
     0
  0
CLASS
  1
MATERIAL
  2
AcDbMaterial
  3
ObjectDBX Classes
 90
     1153
 91
        4
280
     0
281
     0
  0
CLASS
  1
SUN
  2
AcDbSun
  3
SCENEOE
 90
     1024
 91
        4
280
     0
281
     0
  0
ENDSEC
  0
SECTION
  2
TABLES
  0
TABLE
  2
VPORT
  5
8
330
0
100
AcDbSymbolTable
 70
     1
  0
VPORT
  5
29
330
8
100
AcDbSymbolTableRecord
100
AcDbViewportTableRecord
  2
*Active
 70
     0
 10
0.0
 20
0.0
 11
1.0
 21
1.0
 12
0.0
 22
0.0
 13
0.0
 23
0.0
 14
0.5
 24
0.5
 15
0.5
 25
0.5
 16
0.0
 26
0.0
 36
1.0
 17
1000.0
 27
-1000.0
 37
0.0
 40
2000.0
 41
1.0
 42
50.0
 43
0.0
 44
0.0
 50
0.0
 51
0.0
 71
     0
 72
   100
 73
     1
 74
     3
 75
     0
 76
     0
 77
     0
 78
     0
281
     0
 65
     1
110
0.0
120
0.0
130
0.0
111
1.0
121
0.0
131
0.0
112
0.0
122
1.0
132
0.0
 79
     0
146
0.0
 60
     3
 61
     5
292
     1
282
     1
141
0.0
142
0.0
 63
   250
361
3F
  0
ENDTAB
  0
TABLE
  2
LTYPE
  5
5
330
0
100
AcDbSymbolTable
 70
     1
  0
LTYPE
  5
14
330
5
100
AcDbSymbolTableRecord
100
AcDbLinetypeTableRecord
  2
ByBlock
 70
     0
  3

 72
    65
 73
     0
 40
0.0
  0
LTYPE
  5
15
330
5
100
AcDbSymbolTableRecord
100
AcDbLinetypeTableRecord
  2
ByLayer
 70
     0
  3

 72
    65
 73
     0
 40
0.0
  0
LTYPE
  5
16
330
5
100
AcDbSymbolTableRecord
100
AcDbLinetypeTableRecord
  2
Continuous
 70
     0
  3
Solid line
 72
    65
 73
     0
 40
0.0
  0
ENDTAB
  0
TABLE
  2
LAYER
  5
2
330
0
100
AcDbSymbolTable
 70
     2
  0
LAYER
  5
10
330
2
100
AcDbSymbolTableRecord
100
AcDbLayerTableRecord
  2
0
 70
     0
 62
     7
  6
Continuous
370
    -3
390
F
347
3E
  0
LAYER
  5
40
330
2
100
AcDbSymbolTableRecord
100
AcDbLayerTableRecord
  2
Layer 1
 70
     0
 62
     7
  6
Continuous
370
    -3
390
F
347
3E
  0
ENDTAB
  0
TABLE
  2
STYLE
  5
3
330
0
100
AcDbSymbolTable
 70
     1
  0
STYLE
  5
11
330
3
100
AcDbSymbolTableRecord
100
AcDbTextStyleTableRecord
  2
Standard
 70
     0
 40
0.0
 41
1.0
 50
0.0
 71
     0
 42
0.2
  3
txt
  4

  0
ENDTAB
  0
TABLE
  2
VIEW
  5
6
330
0
100
AcDbSymbolTable
 70
     0
  0
ENDTAB
  0
TABLE
  2
UCS
  5
7
330
0
100
AcDbSymbolTable
 70
     0
  0
ENDTAB
  0
TABLE
  2
APPID
  5
9
330
0
100
AcDbSymbolTable
 70
     1
  0
APPID
  5
12
330
9
100
AcDbSymbolTableRecord
100
AcDbRegAppTableRecord
  2
ACAD
 70
     0
  0
ENDTAB
  0
TABLE
  2
DIMSTYLE
  5
A
330
0
100
AcDbSymbolTable
 70
     1
100
AcDbDimStyleTable
  0
DIMSTYLE
105
27
330
A
100
AcDbSymbolTableRecord
100
AcDbDimStyleTableRecord
  2
Standard
 70
     0
178
     0
340
11
  0
ENDTAB
  0
TABLE
  2
BLOCK_RECORD
  5
1
330
0
100
AcDbSymbolTable
 70
     1
  0
BLOCK_RECORD
  5
1F
330
1
100
AcDbSymbolTableRecord
100
AcDbBlockTableRecord
  2
*Model_Space
340
22
 70
     0
280
     1
281
     0
  0
BLOCK_RECORD
  5
1B
330
1
100
AcDbSymbolTableRecord
100
AcDbBlockTableRecord
  2
*Paper_Space
340
1E
 70
     0
280
     1
281
     0
  0
BLOCK_RECORD
  5
23
330
1
100
AcDbSymbolTableRecord
100
AcDbBlockTableRecord
  2
*Paper_Space0
340
26
 70
     0
280
     1
281
     0
  0
ENDTAB
  0
ENDSEC
  0
SECTION
  2
BLOCKS
  0
BLOCK
  5
20
330
1F
100
AcDbEntity
  8
0
100
AcDbBlockBegin
  2
*Model_Space
 70
     0
 10
0.0
 20
0.0
 30
0.0
  3
*Model_Space
  1

  0
ENDBLK
  5
21
330
1F
100
AcDbEntity
  8
0
100
AcDbBlockEnd
  0
BLOCK
  5
1C
330
1B
100
AcDbEntity
 67
     1
  8
0
100
AcDbBlockBegin
  2
*Paper_Space
 70
     0
 10
0.0
 20
0.0
 30
0.0
  3
*Paper_Space
  1

  0
ENDBLK
  5
1D
330
1B
100
AcDbEntity
 67
     1
  8
0
100
AcDbBlockEnd
  0
BLOCK
  5
24
330
23
100
AcDbEntity
  8
0
100
AcDbBlockBegin
  2
*Paper_Space0
 70
     0
 10
0.0
 20
0.0
 30
0.0
  3
*Paper_Space0
  1

  0
ENDBLK
  5
25
330
23
100
AcDbEntity
  8
0
100
AcDbBlockEnd
  0
ENDSEC
  0
SECTION
  2
ENTITIES
  0
SPLINE
  5
41
330
1F
100
AcDbEntity
  8
Layer 1
370
     0
100
AcDbSpline
210
0.0
220
0.0
230
1.0
 70
    11
 71
     3
 72
   224
 73
   220
 74
     0
 42
0.0000000001
 43
0.0000000001
 12
1.0
 22
0.0
 32
0.0
 13
1.0
 23
0.0
 33
0.0
 40
0.0
 40
0.0
 40
0.0
 40
0.0
 40
1.0
 40
1.0
 40
1.0
 40
2.0
 40
2.0
 40
2.0
 40
3.0
 40
3.0
 40
3.0
 40
4.0
 40
4.0
 40
4.0
 40
5.0
 40
5.0
 40
5.0
 40
6.0
 40
6.0
 40
6.0
 40
7.0
 40
7.0
 40
7.0
 40
8.0
 40
8.0
 40
8.0
 40
9.0
 40
9.0
 40
9.0
 40
10.0
 40
10.0
 40
10.0
 40
11.0
 40
11.0
 40
11.0
 40
12.0
 40
12.0
 40
12.0
 40
13.0
 40
13.0
 40
13.0
 40
14.0
 40
14.0
 40
14.0
 40
15.0
 40
15.0
 40
15.0
 40
16.0
 40
16.0
 40
16.0
 40
17.0
 40
17.0
 40
17.0
 40
18.0
 40
18.0
 40
18.0
 40
19.0
 40
19.0
 40
19.0
 40
20.0
 40
20.0
 40
20.0
 40
21.0
 40
21.0
 40
21.0
 40
22.0
 40
22.0
 40
22.0
 40
23.0
 40
23.0
 40
23.0
 40
24.0
 40
24.0
 40
24.0
 40
25.0
 40
25.0
 40
25.0
 40
26.0
 40
26.0
 40
26.0
 40
27.0
 40
27.0
 40
27.0
 40
28.0
 40
28.0
 40
28.0
 40
29.0
 40
29.0
 40
29.0
 40
30.0
 40
30.0
 40
30.0
 40
31.0
 40
31.0
 40
31.0
 40
32.0
 40
32.0
 40
32.0
 40
33.0
 40
33.0
 40
33.0
 40
34.0
 40
34.0
 40
34.0
 40
35.0
 40
35.0
 40
35.0
 40
36.0
 40
36.0
 40
36.0
 40
37.0
 40
37.0
 40
37.0
 40
38.0
 40
38.0
 40
38.0
 40
39.0
 40
39.0
 40
39.0
 40
40.0
 40
40.0
 40
40.0
 40
41.0
 40
41.0
 40
41.0
 40
42.0
 40
42.0
 40
42.0
 40
43.0
 40
43.0
 40
43.0
 40
44.0
 40
44.0
 40
44.0
 40
45.0
 40
45.0
 40
45.0
 40
46.0
 40
46.0
 40
46.0
 40
47.0
 40
47.0
 40
47.0
 40
48.0
 40
48.0
 40
48.0
 40
49.0
 40
49.0
 40
49.0
 40
50.0
 40
50.0
 40
50.0
 40
51.0
 40
51.0
 40
51.0
 40
52.0
 40
52.0
 40
52.0
 40
53.0
 40
53.0
 40
53.0
 40
54.0
 40
54.0
 40
54.0
 40
55.0
 40
55.0
 40
55.0
 40
56.0
 40
56.0
 40
56.0
 40
57.0
 40
57.0
 40
57.0
 40
58.0
 40
58.0
 40
58.0
 40
59.0
 40
59.0
 40
59.0
 40
60.0
 40
60.0
 40
60.0
 40
61.0
 40
61.0
 40
61.0
 40
62.0
 40
62.0
 40
62.0
 40
63.0
 40
63.0
 40
63.0
 40
64.0
 40
64.0
 40
64.0
 40
65.0
 40
65.0
 40
65.0
 40
66.0
 40
66.0
 40
66.0
 40
67.0
 40
67.0
 40
67.0
 40
68.0
 40
68.0
 40
68.0
 40
69.0
 40
69.0
 40
69.0
 40
70.0
 40
70.0
 40
70.0
 40
71.0
 40
71.0
 40
71.0
 40
72.0
 40
72.0
 40
72.0
 40
73.0
 40
73.0
 40
73.0
 40
73.0
 10
660.6098022460938
 20
-1970.37548828125
 30
0.0
 10
660.8468627929688
 20
-1970.5908203125
 30
0.0
 10
661.0836791992188
 20
-1970.7939453125
 30
0.0
 10
661.320556640625
 20
-1971.0
 30
0.0
 10
661.320556640625
 20
-1971.0
 30
0.0
 10
1387.21533203125
 20
-1971.0
 30
0.0
 10
1387.21533203125
 20
-1971.0
 30
0.0
 10
1402.287963867188
 20
-1963.904174804688
 30
0.0
 10
1416.434326171875
 20
-1954.43701171875
 30
0.0
 10
1429.48046875
 20
-1942.38232421875
 30
0.0
 10
1442.499755859375
 20
-1930.352783203125
 30
0.0
 10
1455.8642578125
 20
-1918.665771484375
 30
0.0
 10
1468.38427734375
 20
-1906.136108398438
 30
0.0
 10
1481.498291015625
 20
-1893.01220703125
 30
0.0
 10
1480.6708984375
 20
-1882.062255859375
 30
0.0
 10
1466.527221679688
 20
-1870.641479492188
 30
0.0
 10
1461.268188476562
 20
-1866.394897460938
 30
0.0
 10
1455.422973632812
 20
-1862.878662109375
 30
0.0
 10
1449.894409179688
 20
-1858.959716796875
 30
0.0
 10
1443.093505859375
 20
-1854.13916015625
 30
0.0
 10
1435.824340820312
 20
-1849.8203125
 30
0.0
 10
1429.68408203125
 20
-1844.26123046875
 30
0.0
 10
1417.807373046875
 20
-1833.508544921875
 30
0.0
 10
1416.870849609375
 20
-1826.421875
 30
0.0
 10
1424.898681640625
 20
-1812.84814453125
 30
0.0
 10
1428.335327148438
 20
-1807.037109375
 30
0.0
 10
1432.743408203125
 20
-1801.793090820312
 30
0.0
 10
1436.79736328125
 20
-1796.356689453125
 30
0.0
 10
1444.788208007812
 20
-1785.640380859375
 30
0.0
 10
1447.020263671875
 20
-1774.060546875
 30
0.0
 10
1443.659423828125
 20
-1760.941772460938
 30
0.0
 10
1438.965942382812
 20
-1742.619873046875
 30
0.0
 10
1424.96875
 20
-1732.434936523438
 30
0.0
 10
1410.807739257812
 20
-1722.701904296875
 30
0.0
 10
1392.771362304688
 20
-1710.304931640625
 30
0.0
 10
1373.7998046875
 20
-1699.27197265625
 30
0.0
 10
1355.70654296875
 20
-1686.953369140625
 30
0.0
 10
1336.70068359375
 20
-1674.01318359375
 30
0.0
 10
1321.7529296875
 20
-1657.650390625
 30
0.0
 10
1316.2705078125
 20
-1634.3642578125
 30
0.0
 10
1312.99267578125
 20
-1620.441162109375
 30
0.0
 10
1303.9580078125
 20
-1611.616943359375
 30
0.0
 10
1290.870361328125
 20
-1606.88671875
 30
0.0
 10
1278.107421875
 20
-1602.274047851562
 30
0.0
 10
1270.966552734375
 20
-1593.20263671875
 30
0.0
 10
1265.88671875
 20
-1580.80615234375
 30
0.0
 10
1240.28515625
 20
-1518.328735351562
 30
0.0
 10
1221.9560546875
 20
-1453.6748046875
 30
0.0
 10
1207.705810546875
 20
-1387.841796875
 30
0.0
 10
1190.007568359375
 20
-1306.080078125
 30
0.0
 10
1179.66796875
 20
-1223.32666015625
 30
0.0
 10
1175.222412109375
 20
-1139.765014648438
 30
0.0
 10
1169.792236328125
 20
-1037.69677734375
 30
0.0
 10
1174.241943359375
 20
-936.2575073242188
 30
0.0
 10
1192.657470703125
 20
-835.6144409179688
 30
0.0
 10
1196.29150390625
 20
-815.7536010742188
 30
0.0
 10
1201.173095703125
 20
-796.1209106445312
 30
0.0
 10
1204.92041015625
 20
-778.9454956054688
 30
0.0
 10
1221.298095703125
 20
-773.7713623046875
 30
0.0
 10
1235.963134765625
 20
-771.1527709960938
 30
0.0
 10
1248.69873046875
 20
-764.7169799804688
 30
0.0
 10
1280.14990234375
 20
-748.82373046875
 30
0.0
 10
1285.886352539062
 20
-700.63232421875
 30
0.0
 10
1255.582275390625
 20
-683.1795654296875
 30
0.0
 10
1250.62841796875
 20
-680.3262939453125
 30
0.0
 10
1245.889526367188
 20
-676.95703125
 30
0.0
 10
1241.51171875
 20
-673.2784423828125
 30
0.0
 10
1234.622314453125
 20
-667.4893798828125
 30
0.0
 10
1231.95751953125
 20
-660.7657470703125
 30
0.0
 10
1234.645751953125
 20
-651.1316528320312
 30
0.0
 10
1241.815673828125
 20
-625.437255859375
 30
0.0
 10
1240.104125976562
 20
-622.0731201171875
 30
0.0
 10
1217.689575195312
 20
-607.5469970703125
 30
0.0
 10
1216.8134765625
 20
-606.9791870117188
 30
0.0
 10
1215.9755859375
 20
-606.3154907226562
 30
0.0
 10
1215.03125
 20
-605.895751953125
 30
0.0
 10
1200.511962890625
 20
-599.4417114257812
 30
0.0
 10
1196.861572265625
 20
-587.9635620117188
 30
0.0
 10
1197.2265625
 20
-572.7739868164062
 30
0.0
 10
1198.251220703125
 20
-530.149658203125
 30
0.0
 10
1210.983154296875
 20
-490.799072265625
 30
0.0
 10
1227.947143554688
 20
-452.3309936523438
 30
0.0
 10
1242.249755859375
 20
-419.8978271484375
 30
0.0
 10
1255.699951171875
 20
-387.0861206054688
 30
0.0
 10
1270.220703125
 20
-354.7532958984375
 30
0.0
 10
1275.205200195312
 20
-343.6541137695312
 30
0.0
 10
1271.806274414062
 20
-335.7236328125
 30
0.0
 10
1264.186767578125
 20
-328.2713623046875
 30
0.0
 10
1251.472412109375
 20
-315.8358764648438
 30
0.0
 10
1235.912353515625
 20
-308.4322509765625
 30
0.0
 10
1218.662109375
 20
-305.5277709960938
 30
0.0
 10
1199.652709960938
 20
-302.3271484375
 30
0.0
 10
1180.420532226562
 20
-300.3492431640625
 30
0.0
 10
1161.233642578125
 20
-298.3298950195312
 30
0.0
 10
1139.21826171875
 20
-296.0127563476562
 30
0.0
 10
1117.146118164062
 20
-294.2349853515625
 30
0.0
 10
1095.109069824219
 20
-292.223876953125
 30
0.0
 10
1103.434692382812
 20
-270.6817016601562
 30
0.0
 10
1111.597045898438
 20
-251.0284423828125
 30
0.0
 10
1118.635681152344
 20
-230.980712890625
 30
0.0
 10
1127.519287109375
 20
-205.6780395507812
 30
0.0
 10
1140.152587890625
 20
-181.5078735351562
 30
0.0
 10
1136.7392578125
 20
-152.8368530273438
 30
0.0
 10
1134.08935546875
 20
-130.5778198242188
 30
0.0
 10
1128.739990234375
 20
-110.0004272460938
 30
0.0
 10
1115.972900390625
 20
-91.4366455078125
 30
0.0
 10
1098.030700683594
 20
-65.34783935546875
 30
0.0
 10
1073.206970214844
 20
-47.41363525390625
 30
0.0
 10
1045.991394042969
 20
-32.53802490234375
 30
0.0
 10
1035.973205566406
 20
-27.062255859375
 30
0.0
 10
1024.996643066406
 20
-27.8096923828125
 30
0.0
 10
1014.352661132812
 20
-32.47698974609375
 30
0.0
 10
981.2801513671875
 20
-46.97906494140625
 30
0.0
 10
957.7901611328125
 20
-71.4268798828125
 30
0.0
 10
942.51708984375
 20
-103.5502319335938
 30
0.0
 10
931.1149291992188
 20
-127.5321655273438
 30
0.0
 10
925.3565063476562
 20
-153.0352783203125
 30
0.0
 10
932.4425048828125
 20
-179.5116577148438
 30
0.0
 10
937.8286743164062
 20
-199.6367797851562
 30
0.0
 10
944.769287109375
 20
-219.3433227539062
 30
0.0
 10
950.8983154296875
 20
-239.2730102539062
 30
0.0
 10
955.84912109375
 20
-255.3712158203125
 30
0.0
 10
960.6209106445312
 20
-271.5245361328125
 30
0.0
 10
965.8280029296875
 20
-288.8368530273438
 30
0.0
 10
949.409423828125
 20
-290.152587890625
 30
0.0
 10
934.8646240234375
 20
-291.1552124023438
 30
0.0
 10
920.3538818359375
 20
-292.519775390625
 30
0.0
 10
899.5777587890625
 20
-294.4734497070312
 30
0.0
 10
878.6212158203125
 20
-295.5364379882812
 30
0.0
 10
858.13232421875
 20
-299.1776733398438
 30
0.0
 10
842.9212036132812
 20
-301.8809814453125
 30
0.0
 10
828.1585693359375
 20
-307.6029052734375
 30
0.0
 10
813.5357055664062
 20
-312.914794921875
 30
0.0
 10
806.087158203125
 20
-315.6204833984375
 30
0.0
 10
803.2178344726562
 20
-321.0843505859375
 30
0.0
 10
805.0744018554688
 20
-330.2948608398438
 30
0.0
 10
809.6290893554688
 20
-352.890869140625
 30
0.0
 10
815.1650390625
 20
-375.033203125
 30
0.0
 10
824.8555908203125
 20
-396.0282592773438
 30
0.0
 10
836.21630859375
 20
-420.6416015625
 30
0.0
 10
847.850830078125
 20
-445.1399536132812
 30
0.0
 10
858.595703125
 20
-470.0211181640625
 30
0.0
 10
863.5217895507812
 20
-481.4279174804688
 30
0.0
 10
867.9986572265625
 20
-493.380126953125
 30
0.0
 10
870.1793823242188
 20
-505.5335083007812
 30
0.0
 10
873.0136108398438
 20
-521.3289184570312
 30
0.0
 10
873.5459594726562
 20
-537.5573120117188
 30
0.0
 10
874.716796875
 20
-553.6248779296875
 30
0.0
 10
875.6847534179688
 20
-566.9077758789062
 30
0.0
 10
878.1553344726562
 20
-580.28515625
 30
0.0
 10
874.6053466796875
 20
-593.2311401367188
 30
0.0
 10
868.5661010742188
 20
-594.558349609375
 30
0.0
 10
863.3060302734375
 20
-595.1643676757812
 30
0.0
 10
858.4415283203125
 20
-596.8872680664062
 30
0.0
 10
844.0758056640625
 20
-601.9750366210938
 30
0.0
 10
839.6723022460938
 20
-608.1498413085938
 30
0.0
 10
839.9330444335938
 20
-623.4064331054688
 30
0.0
 10
840.1446533203125
 20
-635.7857055664062
 30
0.0
 10
841.1400756835938
 20
-648.1516723632812
 30
0.0
 10
841.8131713867188
 20
-661.0071411132812
 30
0.0
 10
841.91552734375
 20
-660.8931274414062
 30
0.0
 10
841.6268920898438
 20
-661.5206909179688
 30
0.0
 10
841.20654296875
 20
-661.626953125
 30
0.0
 10
839.6983642578125
 20
-662.0078735351562
 30
0.0
 10
838.150146484375
 20
-662.24169921875
 30
0.0
 10
836.6090087890625
 20
-662.4791870117188
 30
0.0
 10
821.1285400390625
 20
-664.8633422851562
 30
0.0
 10
811.4522094726562
 20
-673.6741333007812
 30
0.0
 10
806.489013671875
 20
-688.5050659179688
 30
0.0
 10
801.5158081054688
 20
-703.3660888671875
 30
0.0
 10
802.559814453125
 20
-718.320556640625
 30
0.0
 10
804.220458984375
 20
-733.4334106445312
 30
0.0
 10
805.5451049804688
 20
-745.4881591796875
 30
0.0
 10
811.8626098632812
 20
-753.3568725585938
 30
0.0
 10
822.9370727539062
 20
-758.1699829101562
 30
0.0
 10
835.3448486328125
 20
-763.5626831054688
 30
0.0
 10
847.6260986328125
 20
-769.29833984375
 30
0.0
 10
859.6712036132812
 20
-775.4544677734375
 30
0.0
 10
867.3876342773438
 20
-779.3983154296875
 30
0.0
 10
871.5400390625
 20
-785.6860961914062
 30
0.0
 10
873.4946899414062
 20
-794.8781127929688
 30
0.0
 10
887.9893188476562
 20
-863.0399780273438
 30
0.0
 10
894.6502685546875
 20
-932.1228637695312
 30
0.0
 10
896.7164306640625
 20
-1001.553527832031
 30
0.0
 10
900.5074462890625
 20
-1128.94287109375
 30
0.0
 10
887.5529174804688
 20
-1254.895141601562
 30
0.0
 10
859.6970825195312
 20
-1379.231689453125
 30
0.0
 10
843.8248291015625
 20
-1450.078491210938
 30
0.0
 10
823.4832763671875
 20
-1519.611206054688
 30
0.0
 10
794.450439453125
 20
-1586.345703125
 30
0.0
 10
792.685791015625
 20
-1590.40185546875
 30
0.0
 10
790.4291381835938
 20
-1595.1845703125
 30
0.0
 10
786.9727783203125
 20
-1597.388061523438
 30
0.0
 10
776.5491943359375
 20
-1604.033325195312
 30
0.0
 10
765.4199829101562
 20
-1609.571899414062
 30
0.0
 10
755.317138671875
 20
-1615.128662109375
 30
0.0
 10
750.318115234375
 20
-1643.1875
 30
0.0
 10
744.930419921875
 20
-1654.044921875
 30
0.0
 10
723.052490234375
 20
-1671.487060546875
 30
0.0
 10
707.6197509765625
 20
-1683.791015625
 30
0.0
 10
690.4573364257812
 20
-1693.905639648438
 30
0.0
 10
674.2941284179688
 20
-1705.319091796875
 30
0.0
 10
659.8417358398438
 20
-1715.52490234375
 30
0.0
 10
644.6590576171875
 20
-1725.0263671875
 30
0.0
 10
631.6450805664062
 20
-1736.868041992188
 30
0.0
 10
606.9982299804688
 20
-1759.294677734375
 30
0.0
 10
607.7973022460938
 20
-1782.502685546875
 30
0.0
 10
632.4844970703125
 20
-1804.66796875
 30
0.0
 10
640.833251953125
 20
-1812.163818359375
 30
0.0
 10
647.81591796875
 20
-1820.188232421875
 30
0.0
 10
648.9584350585938
 20
-1832.653564453125
 30
0.0
 10
628.5821533203125
 20
-1854.028198242188
 30
0.0
 10
596.0226440429688
 20
-1860.04150390625
 30
0.0
 10
578.1527099609375
 20
-1886.806396484375
 30
0.0
 10
587.5282592773438
 20
-1905.85400390625
 30
0.0
 10
601.1476440429688
 20
-1920.17431640625
 30
0.0
 10
616.2592163085938
 20
-1933.14404296875
 30
0.0
 10
630.9071044921875
 20
-1945.716552734375
 30
0.0
 10
646.3349609375
 20
-1957.406005859375
 30
0.0
 10
660.6098022460938
 20
-1970.37548828125
 30
0.0
  0
HATCH
  5
42
330
1F
100
AcDbEntity
  8
Layer 1
 62
     7
420
 16777215
100
AcDbHatch
 10
0.0
 20
0.0
 30
0.0
210
0.0
220
0.0
230
1.0
  2
SOLID
 70
     1
 71
     0
 91
        1
 92
        1
 93
        1
 72
     4
 94
        3
 73
     0
 74
     1
 95
      224
 96
      220
 40
0.0
 40
0.0
 40
0.0
 40
0.0
 40
1.0
 40
1.0
 40
1.0
 40
2.0
 40
2.0
 40
2.0
 40
3.0
 40
3.0
 40
3.0
 40
4.0
 40
4.0
 40
4.0
 40
5.0
 40
5.0
 40
5.0
 40
6.0
 40
6.0
 40
6.0
 40
7.0
 40
7.0
 40
7.0
 40
8.0
 40
8.0
 40
8.0
 40
9.0
 40
9.0
 40
9.0
 40
10.0
 40
10.0
 40
10.0
 40
11.0
 40
11.0
 40
11.0
 40
12.0
 40
12.0
 40
12.0
 40
13.0
 40
13.0
 40
13.0
 40
14.0
 40
14.0
 40
14.0
 40
15.0
 40
15.0
 40
15.0
 40
16.0
 40
16.0
 40
16.0
 40
17.0
 40
17.0
 40
17.0
 40
18.0
 40
18.0
 40
18.0
 40
19.0
 40
19.0
 40
19.0
 40
20.0
 40
20.0
 40
20.0
 40
21.0
 40
21.0
 40
21.0
 40
22.0
 40
22.0
 40
22.0
 40
23.0
 40
23.0
 40
23.0
 40
24.0
 40
24.0
 40
24.0
 40
25.0
 40
25.0
 40
25.0
 40
26.0
 40
26.0
 40
26.0
 40
27.0
 40
27.0
 40
27.0
 40
28.0
 40
28.0
 40
28.0
 40
29.0
 40
29.0
 40
29.0
 40
30.0
 40
30.0
 40
30.0
 40
31.0
 40
31.0
 40
31.0
 40
32.0
 40
32.0
 40
32.0
 40
33.0
 40
33.0
 40
33.0
 40
34.0
 40
34.0
 40
34.0
 40
35.0
 40
35.0
 40
35.0
 40
36.0
 40
36.0
 40
36.0
 40
37.0
 40
37.0
 40
37.0
 40
38.0
 40
38.0
 40
38.0
 40
39.0
 40
39.0
 40
39.0
 40
40.0
 40
40.0
 40
40.0
 40
41.0
 40
41.0
 40
41.0
 40
42.0
 40
42.0
 40
42.0
 40
43.0
 40
43.0
 40
43.0
 40
44.0
 40
44.0
 40
44.0
 40
45.0
 40
45.0
 40
45.0
 40
46.0
 40
46.0
 40
46.0
 40
47.0
 40
47.0
 40
47.0
 40
48.0
 40
48.0
 40
48.0
 40
49.0
 40
49.0
 40
49.0
 40
50.0
 40
50.0
 40
50.0
 40
51.0
 40
51.0
 40
51.0
 40
52.0
 40
52.0
 40
52.0
 40
53.0
 40
53.0
 40
53.0
 40
54.0
 40
54.0
 40
54.0
 40
55.0
 40
55.0
 40
55.0
 40
56.0
 40
56.0
 40
56.0
 40
57.0
 40
57.0
 40
57.0
 40
58.0
 40
58.0
 40
58.0
 40
59.0
 40
59.0
 40
59.0
 40
60.0
 40
60.0
 40
60.0
 40
61.0
 40
61.0
 40
61.0
 40
62.0
 40
62.0
 40
62.0
 40
63.0
 40
63.0
 40
63.0
 40
64.0
 40
64.0
 40
64.0
 40
65.0
 40
65.0
 40
65.0
 40
66.0
 40
66.0
 40
66.0
 40
67.0
 40
67.0
 40
67.0
 40
68.0
 40
68.0
 40
68.0
 40
69.0
 40
69.0
 40
69.0
 40
70.0
 40
70.0
 40
70.0
 40
71.0
 40
71.0
 40
71.0
 40
72.0
 40
72.0
 40
72.0
 40
73.0
 40
73.0
 40
73.0
 40
73.0
 10
660.6098022460938
 20
-1970.37548828125
 10
660.8468627929688
 20
-1970.5908203125
 10
661.0836791992188
 20
-1970.7939453125
 10
661.320556640625
 20
-1971.0
 10
661.320556640625
 20
-1971.0
 10
1387.21533203125
 20
-1971.0
 10
1387.21533203125
 20
-1971.0
 10
1402.287963867188
 20
-1963.904174804688
 10
1416.434326171875
 20
-1954.43701171875
 10
1429.48046875
 20
-1942.38232421875
 10
1442.499755859375
 20
-1930.352783203125
 10
1455.8642578125
 20
-1918.665771484375
 10
1468.38427734375
 20
-1906.136108398438
 10
1481.498291015625
 20
-1893.01220703125
 10
1480.6708984375
 20
-1882.062255859375
 10
1466.527221679688
 20
-1870.641479492188
 10
1461.268188476562
 20
-1866.394897460938
 10
1455.422973632812
 20
-1862.878662109375
 10
1449.894409179688
 20
-1858.959716796875
 10
1443.093505859375
 20
-1854.13916015625
 10
1435.824340820312
 20
-1849.8203125
 10
1429.68408203125
 20
-1844.26123046875
 10
1417.807373046875
 20
-1833.508544921875
 10
1416.870849609375
 20
-1826.421875
 10
1424.898681640625
 20
-1812.84814453125
 10
1428.335327148438
 20
-1807.037109375
 10
1432.743408203125
 20
-1801.793090820312
 10
1436.79736328125
 20
-1796.356689453125
 10
1444.788208007812
 20
-1785.640380859375
 10
1447.020263671875
 20
-1774.060546875
 10
1443.659423828125
 20
-1760.941772460938
 10
1438.965942382812
 20
-1742.619873046875
 10
1424.96875
 20
-1732.434936523438
 10
1410.807739257812
 20
-1722.701904296875
 10
1392.771362304688
 20
-1710.304931640625
 10
1373.7998046875
 20
-1699.27197265625
 10
1355.70654296875
 20
-1686.953369140625
 10
1336.70068359375
 20
-1674.01318359375
 10
1321.7529296875
 20
-1657.650390625
 10
1316.2705078125
 20
-1634.3642578125
 10
1312.99267578125
 20
-1620.441162109375
 10
1303.9580078125
 20
-1611.616943359375
 10
1290.870361328125
 20
-1606.88671875
 10
1278.107421875
 20
-1602.274047851562
 10
1270.966552734375
 20
-1593.20263671875
 10
1265.88671875
 20
-1580.80615234375
 10
1240.28515625
 20
-1518.328735351562
 10
1221.9560546875
 20
-1453.6748046875
 10
1207.705810546875
 20
-1387.841796875
 10
1190.007568359375
 20
-1306.080078125
 10
1179.66796875
 20
-1223.32666015625
 10
1175.222412109375
 20
-1139.765014648438
 10
1169.792236328125
 20
-1037.69677734375
 10
1174.241943359375
 20
-936.2575073242188
 10
1192.657470703125
 20
-835.6144409179688
 10
1196.29150390625
 20
-815.7536010742188
 10
1201.173095703125
 20
-796.1209106445312
 10
1204.92041015625
 20
-778.9454956054688
 10
1221.298095703125
 20
-773.7713623046875
 10
1235.963134765625
 20
-771.1527709960938
 10
1248.69873046875
 20
-764.7169799804688
 10
1280.14990234375
 20
-748.82373046875
 10
1285.886352539062
 20
-700.63232421875
 10
1255.582275390625
 20
-683.1795654296875
 10
1250.62841796875
 20
-680.3262939453125
 10
1245.889526367188
 20
-676.95703125
 10
1241.51171875
 20
-673.2784423828125
 10
1234.622314453125
 20
-667.4893798828125
 10
1231.95751953125
 20
-660.7657470703125
 10
1234.645751953125
 20
-651.1316528320312
 10
1241.815673828125
 20
-625.437255859375
 10
1240.104125976562
 20
-622.0731201171875
 10
1217.689575195312
 20
-607.5469970703125
 10
1216.8134765625
 20
-606.9791870117188
 10
1215.9755859375
 20
-606.3154907226562
 10
1215.03125
 20
-605.895751953125
 10
1200.511962890625
 20
-599.4417114257812
 10
1196.861572265625
 20
-587.9635620117188
 10
1197.2265625
 20
-572.7739868164062
 10
1198.251220703125
 20
-530.149658203125
 10
1210.983154296875
 20
-490.799072265625
 10
1227.947143554688
 20
-452.3309936523438
 10
1242.249755859375
 20
-419.8978271484375
 10
1255.699951171875
 20
-387.0861206054688
 10
1270.220703125
 20
-354.7532958984375
 10
1275.205200195312
 20
-343.6541137695312
 10
1271.806274414062
 20
-335.7236328125
 10
1264.186767578125
 20
-328.2713623046875
 10
1251.472412109375
 20
-315.8358764648438
 10
1235.912353515625
 20
-308.4322509765625
 10
1218.662109375
 20
-305.5277709960938
 10
1199.652709960938
 20
-302.3271484375
 10
1180.420532226562
 20
-300.3492431640625
 10
1161.233642578125
 20
-298.3298950195312
 10
1139.21826171875
 20
-296.0127563476562
 10
1117.146118164062
 20
-294.2349853515625
 10
1095.109069824219
 20
-292.223876953125
 10
1103.434692382812
 20
-270.6817016601562
 10
1111.597045898438
 20
-251.0284423828125
 10
1118.635681152344
 20
-230.980712890625
 10
1127.519287109375
 20
-205.6780395507812
 10
1140.152587890625
 20
-181.5078735351562
 10
1136.7392578125
 20
-152.8368530273438
 10
1134.08935546875
 20
-130.5778198242188
 10
1128.739990234375
 20
-110.0004272460938
 10
1115.972900390625
 20
-91.4366455078125
 10
1098.030700683594
 20
-65.34783935546875
 10
1073.206970214844
 20
-47.41363525390625
 10
1045.991394042969
 20
-32.53802490234375
 10
1035.973205566406
 20
-27.062255859375
 10
1024.996643066406
 20
-27.8096923828125
 10
1014.352661132812
 20
-32.47698974609375
 10
981.2801513671875
 20
-46.97906494140625
 10
957.7901611328125
 20
-71.4268798828125
 10
942.51708984375
 20
-103.5502319335938
 10
931.1149291992188
 20
-127.5321655273438
 10
925.3565063476562
 20
-153.0352783203125
 10
932.4425048828125
 20
-179.5116577148438
 10
937.8286743164062
 20
-199.6367797851562
 10
944.769287109375
 20
-219.3433227539062
 10
950.8983154296875
 20
-239.2730102539062
 10
955.84912109375
 20
-255.3712158203125
 10
960.6209106445312
 20
-271.5245361328125
 10
965.8280029296875
 20
-288.8368530273438
 10
949.409423828125
 20
-290.152587890625
 10
934.8646240234375
 20
-291.1552124023438
 10
920.3538818359375
 20
-292.519775390625
 10
899.5777587890625
 20
-294.4734497070312
 10
878.6212158203125
 20
-295.5364379882812
 10
858.13232421875
 20
-299.1776733398438
 10
842.9212036132812
 20
-301.8809814453125
 10
828.1585693359375
 20
-307.6029052734375
 10
813.5357055664062
 20
-312.914794921875
 10
806.087158203125
 20
-315.6204833984375
 10
803.2178344726562
 20
-321.0843505859375
 10
805.0744018554688
 20
-330.2948608398438
 10
809.6290893554688
 20
-352.890869140625
 10
815.1650390625
 20
-375.033203125
 10
824.8555908203125
 20
-396.0282592773438
 10
836.21630859375
 20
-420.6416015625
 10
847.850830078125
 20
-445.1399536132812
 10
858.595703125
 20
-470.0211181640625
 10
863.5217895507812
 20
-481.4279174804688
 10
867.9986572265625
 20
-493.380126953125
 10
870.1793823242188
 20
-505.5335083007812
 10
873.0136108398438
 20
-521.3289184570312
 10
873.5459594726562
 20
-537.5573120117188
 10
874.716796875
 20
-553.6248779296875
 10
875.6847534179688
 20
-566.9077758789062
 10
878.1553344726562
 20
-580.28515625
 10
874.6053466796875
 20
-593.2311401367188
 10
868.5661010742188
 20
-594.558349609375
 10
863.3060302734375
 20
-595.1643676757812
 10
858.4415283203125
 20
-596.8872680664062
 10
844.0758056640625
 20
-601.9750366210938
 10
839.6723022460938
 20
-608.1498413085938
 10
839.9330444335938
 20
-623.4064331054688
 10
840.1446533203125
 20
-635.7857055664062
 10
841.1400756835938
 20
-648.1516723632812
 10
841.8131713867188
 20
-661.0071411132812
 10
841.91552734375
 20
-660.8931274414062
 10
841.6268920898438
 20
-661.5206909179688
 10
841.20654296875
 20
-661.626953125
 10
839.6983642578125
 20
-662.0078735351562
 10
838.150146484375
 20
-662.24169921875
 10
836.6090087890625
 20
-662.4791870117188
 10
821.1285400390625
 20
-664.8633422851562
 10
811.4522094726562
 20
-673.6741333007812
 10
806.489013671875
 20
-688.5050659179688
 10
801.5158081054688
 20
-703.3660888671875
 10
802.559814453125
 20
-718.320556640625
 10
804.220458984375
 20
-733.4334106445312
 10
805.5451049804688
 20
-745.4881591796875
 10
811.8626098632812
 20
-753.3568725585938
 10
822.9370727539062
 20
-758.1699829101562
 10
835.3448486328125
 20
-763.5626831054688
 10
847.6260986328125
 20
-769.29833984375
 10
859.6712036132812
 20
-775.4544677734375
 10
867.3876342773438
 20
-779.3983154296875
 10
871.5400390625
 20
-785.6860961914062
 10
873.4946899414062
 20
-794.8781127929688
 10
887.9893188476562
 20
-863.0399780273438
 10
894.6502685546875
 20
-932.1228637695312
 10
896.7164306640625
 20
-1001.553527832031
 10
900.5074462890625
 20
-1128.94287109375
 10
887.5529174804688
 20
-1254.895141601562
 10
859.6970825195312
 20
-1379.231689453125
 10
843.8248291015625
 20
-1450.078491210938
 10
823.4832763671875
 20
-1519.611206054688
 10
794.450439453125
 20
-1586.345703125
 10
792.685791015625
 20
-1590.40185546875
 10
790.4291381835938
 20
-1595.1845703125
 10
786.9727783203125
 20
-1597.388061523438
 10
776.5491943359375
 20
-1604.033325195312
 10
765.4199829101562
 20
-1609.571899414062
 10
755.317138671875
 20
-1615.128662109375
 10
750.318115234375
 20
-1643.1875
 10
744.930419921875
 20
-1654.044921875
 10
723.052490234375
 20
-1671.487060546875
 10
707.6197509765625
 20
-1683.791015625
 10
690.4573364257812
 20
-1693.905639648438
 10
674.2941284179688
 20
-1705.319091796875
 10
659.8417358398438
 20
-1715.52490234375
 10
644.6590576171875
 20
-1725.0263671875
 10
631.6450805664062
 20
-1736.868041992188
 10
606.9982299804688
 20
-1759.294677734375
 10
607.7973022460938
 20
-1782.502685546875
 10
632.4844970703125
 20
-1804.66796875
 10
640.833251953125
 20
-1812.163818359375
 10
647.81591796875
 20
-1820.188232421875
 10
648.9584350585938
 20
-1832.653564453125
 10
628.5821533203125
 20
-1854.028198242188
 10
596.0226440429688
 20
-1860.04150390625
 10
578.1527099609375
 20
-1886.806396484375
 10
587.5282592773438
 20
-1905.85400390625
 10
601.1476440429688
 20
-1920.17431640625
 10
616.2592163085938
 20
-1933.14404296875
 10
630.9071044921875
 20
-1945.716552734375
 10
646.3349609375
 20
-1957.406005859375
 10
660.6098022460938
 20
-1970.37548828125
 97
        0
 97
        0
 75
     2
 76
     1
 98
        0
  0
ENDSEC
  0
SECTION
  2
OBJECTS
  0
DICTIONARY
  5
C
330
0
100
AcDbDictionary
281
     1
  3
ACAD_GROUP
350
D
  3
ACAD_LAYOUT
350
1A
  3
ACAD_MATERIAL
350
3B
  3
ACAD_MLEADERSTYLE
350
44
  3
ACAD_MLINESTYLE
350
17
  3
ACAD_PLOTSETTINGS
350
19
  3
ACAD_PLOTSTYLENAME
350
E
  3
ACAD_TABLESTYLE
350
43
  3
ACAD_VISUALSTYLE
350
2A
  0
SUN
  5
3F
330
29
100
AcDbSun
 90
        1
290
     0
 63
     7
421
 16777215
 40
1.0
291
     1
 91
  2455826
 92
 54000000
292
     0
 70
     2
 71
   256
280
     1
  0
DICTIONARY
  5
D
102
{ACAD_REACTORS
330
C
102
}
330
C
100
AcDbDictionary
281
     1
  0
DICTIONARY
  5
1A
102
{ACAD_REACTORS
330
C
102
}
330
C
100
AcDbDictionary
281
     1
  3
Layout1
350
1E
  3
Layout2
350
26
  3
Model
350
22
  0
DICTIONARY
  5
3B
102
{ACAD_REACTORS
330
C
102
}
330
C
100
AcDbDictionary
281
     1
  3
ByBlock
350
3D
  3
ByLayer
350
3C
  3
Global
350
3E
  0
DICTIONARY
  5
44
102
{ACAD_REACTORS
330
C
102
}
330
C
100
AcDbDictionary
281
     1
  0
DICTIONARY
  5
17
102
{ACAD_REACTORS
330
C
102
}
330
C
100
AcDbDictionary
281
     1
  3
Standard
350
18
  0
DICTIONARY
  5
19
102
{ACAD_REACTORS
330
C
102
}
330
C
100
AcDbDictionary
281
     1
  0
ACDBDICTIONARYWDFLT
  5
E
102
{ACAD_REACTORS
330
C
102
}
330
C
100
AcDbDictionary
281
     1
  3
Normal
350
F
100
AcDbDictionaryWithDefault
340
F
  0
DICTIONARY
  5
43
102
{ACAD_REACTORS
330
C
102
}
330
C
100
AcDbDictionary
281
     1
  0
DICTIONARY
  5
2A
102
{ACAD_REACTORS
330
C
102
}
330
C
100
AcDbDictionary
281
     1
  3
2dWireframe
350
2F
  3
3D Hidden
350
31
  3
3dWireframe
350
30
  3
Basic
350
32
  3
Brighten
350
36
  3
ColorChange
350
3A
  3
Conceptual
350
34
  3
Dim
350
35
  3
Facepattern
350
39
  3
Flat
350
2B
  3
FlatWithEdges
350
2C
  3
Gouraud
350
2D
  3
GouraudWithEdges
350
2E
  3
Linepattern
350
38
  3
Realistic
350
33
  3
Thicken
350
37
  0
LAYOUT
  5
1E
102
{ACAD_REACTORS
330
1A
102
}
330
1A
100
AcDbPlotSettings
  1

  2
none_device
  4

  6

 40
0.0
 41
0.0
 42
0.0
 43
0.0
 44
0.0
 45
0.0
 46
0.0
 47
0.0
 48
0.0
 49
0.0
140
0.0
141
0.0
142
1.0
143
1.0
 70
   688
 72
     0
 73
     0
 74
     5
  7

 75
    16
 76
     0
 77
     2
 78
   300
147
1.0
148
0.0
149
0.0
100
AcDbLayout
  1
Layout1
 70
     1
 71
     1
 10
0.0
 20
0.0
 11
12.0
 21
9.0
 12
0.0
 22
0.0
 32
0.0
 14
1.000000000000000E+20
 24
1.000000000000000E+20
 34
1.000000000000000E+20
 15
-1.000000000000000E+20
 25
-1.000000000000000E+20
 35
-1.000000000000000E+20
146
0.0
 13
0.0
 23
0.0
 33
0.0
 16
1.0
 26
0.0
 36
0.0
 17
0.0
 27
1.0
 37
0.0
 76
     0
330
1B
  0
LAYOUT
  5
26
102
{ACAD_REACTORS
330
1A
102
}
330
1A
100
AcDbPlotSettings
  1

  2
none_device
  4

  6

 40
0.0
 41
0.0
 42
0.0
 43
0.0
 44
0.0
 45
0.0
 46
0.0
 47
0.0
 48
0.0
 49
0.0
140
0.0
141
0.0
142
1.0
143
1.0
 70
   688
 72
     0
 73
     0
 74
     5
  7

 75
    16
 76
     0
 77
     2
 78
   300
147
1.0
148
0.0
149
0.0
100
AcDbLayout
  1
Layout2
 70
     1
 71
     2
 10
0.0
 20
0.0
 11
0.0
 21
0.0
 12
0.0
 22
0.0
 32
0.0
 14
0.0
 24
0.0
 34
0.0
 15
0.0
 25
0.0
 35
0.0
146
0.0
 13
0.0
 23
0.0
 33
0.0
 16
1.0
 26
0.0
 36
0.0
 17
0.0
 27
1.0
 37
0.0
 76
     0
330
23
  0
LAYOUT
  5
22
102
{ACAD_REACTORS
330
1A
102
}
330
1A
100
AcDbPlotSettings
  1

  2
none_device
  4

  6

 40
0.0
 41
0.0
 42
0.0
 43
0.0
 44
0.0
 45
0.0
 46
0.0
 47
0.0
 48
0.0
 49
0.0
140
0.0
141
0.0
142
1.0
143
1.0
 70
  1712
 72
     0
 73
     0
 74
     0
  7

 75
     0
 76
     0
 77
     2
 78
   300
147
1.0
148
0.0
149
0.0
100
AcDbLayout
  1
Model
 70
     1
 71
     0
 10
0.0
 20
0.0
 11
12.0
 21
9.0
 12
0.0
 22
0.0
 32
0.0
 14
1.000000000000000E+20
 24
1.000000000000000E+20
 34
1.000000000000000E+20
 15
-1.000000000000000E+20
 25
-1.000000000000000E+20
 35
-1.000000000000000E+20
146
0.0
 13
0.0
 23
0.0
 33
0.0
 16
1.0
 26
0.0
 36
0.0
 17
0.0
 27
1.0
 37
0.0
 76
     0
330
1F
331
29
  0
MATERIAL
  5
3D
102
{ACAD_REACTORS
330
3B
102
}
330
3B
100
AcDbMaterial
  1
ByBlock
 72
     1
 94
      127
  0
MATERIAL
  5
3C
102
{ACAD_REACTORS
330
3B
102
}
330
3B
100
AcDbMaterial
  1
ByLayer
 72
     1
 94
      127
  0
MATERIAL
  5
3E
102
{ACAD_REACTORS
330
3B
102
}
330
3B
100
AcDbMaterial
  1
Global
 72
     1
 94
      127
  0
MLINESTYLE
  5
18
102
{ACAD_REACTORS
330
17
102
}
330
17
100
AcDbMlineStyle
  2
Standard
 70
     0
  3

 62
   256
 51
90.0
 52
90.0
 71
     2
 49
0.5
 62
   256
  6
BYLAYER
 49
-0.5
 62
   256
  6
BYLAYER
  0
ACDBPLACEHOLDER
  5
F
102
{ACAD_REACTORS
330
E
102
}
330
E
  0
VISUALSTYLE
  5
2F
102
{ACAD_REACTORS
330
2A
102
}
330
2A
100
AcDbVisualStyle
  2
2dWireframe
 70
     4
177
     2
291
     0
 71
     0
176
     1
 72
     2
176
     1
 73
     0
176
     1
 90
        0
176
     1
 40
-0.6
176
     1
 41
-30.0
176
     1
 62
     5
 63
     7
421
 16777215
176
     1
 74
     1
176
     1
 91
        4
176
     1
 64
     7
176
     1
 65
   257
176
     1
 75
     1
176
     1
175
     1
176
     1
 42
1.0
176
     1
 92
        0
176
     1
 66
   257
176
     1
 43
1.0
176
     1
 76
     1
176
     1
 77
     6
176
     1
 78
     2
176
     1
 67
     7
176
     1
 79
     5
176
     1
170
     0
176
     1
171
     0
176
     1
290
     0
176
     1
 93
        1
176
     1
 44
0.0
176
     1
173
     0
176
     1
  0
VISUALSTYLE
  5
31
102
{ACAD_REACTORS
330
2A
102
}
330
2A
100
AcDbVisualStyle
  2
3D Hidden
 70
     6
177
     2
291
     0
 71
     1
176
     1
 72
     2
176
     1
 73
     2
176
     1
 90
        0
176
     1
 40
-0.6
176
     1
 41
-30.0
176
     1
 62
     5
 63
     7
421
 16777215
176
     1
 74
     2
176
     1
 91
        2
176
     1
 64
     7
176
     1
 65
   257
176
     1
 75
     2
176
     1
175
     1
176
     1
 42
40.0
176
     1
 92
        0
176
     1
 66
   257
176
     1
 43
1.0
176
     1
 76
     1
176
     1
 77
     6
176
     1
 78
     2
176
     1
 67
     7
176
     1
 79
     3
176
     1
170
     0
176
     1
171
     0
176
     1
290
     0
176
     1
 93
        1
176
     1
 44
0.0
176
     1
173
     0
176
     1
  0
VISUALSTYLE
  5
30
102
{ACAD_REACTORS
330
2A
102
}
330
2A
100
AcDbVisualStyle
  2
3dWireframe
 70
     5
177
     2
291
     0
 71
     0
176
     1
 72
     2
176
     1
 73
     0
176
     1
 90
        0
176
     1
 40
-0.6
176
     1
 41
-30.0
176
     1
 62
     5
 63
     7
421
 16777215
176
     1
 74
     1
176
     1
 91
        4
176
     1
 64
     7
176
     1
 65
   257
176
     1
 75
     1
176
     1
175
     1
176
     1
 42
1.0
176
     1
 92
        0
176
     1
 66
   257
176
     1
 43
1.0
176
     1
 76
     1
176
     1
 77
     6
176
     1
 78
     2
176
     1
 67
     7
176
     1
 79
     5
176
     1
170
     0
176
     1
171
     0
176
     1
290
     0
176
     1
 93
        1
176
     1
 44
0.0
176
     1
173
     0
176
     1
  0
VISUALSTYLE
  5
32
102
{ACAD_REACTORS
330
2A
102
}
330
2A
100
AcDbVisualStyle
  2
Basic
 70
     7
177
     2
291
     1
 71
     1
176
     1
 72
     0
176
     1
 73
     1
176
     1
 90
        0
176
     1
 40
-0.6
176
     1
 41
-30.0
176
     1
 62
     5
 63
     7
421
 16777215
176
     1
 74
     0
176
     1
 91
        4
176
     1
 64
     7
176
     1
 65
   257
176
     1
 75
     1
176
     1
175
     1
176
     1
 42
1.0
176
     1
 92
        8
176
     1
 66
     7
176
     1
 43
1.0
176
     1
 76
     1
176
     1
 77
     6
176
     1
 78
     2
176
     1
 67
     7
176
     1
 79
     5
176
     1
170
     0
176
     1
171
     0
176
     1
290
     0
176
     1
 93
        1
176
     1
 44
0.0
176
     1
173
     0
176
     1
  0
VISUALSTYLE
  5
36
102
{ACAD_REACTORS
330
2A
102
}
330
2A
100
AcDbVisualStyle
  2
Brighten
 70
    12
177
     2
291
     1
 71
     2
176
     1
 72
     2
176
     1
 73
     0
176
     1
 90
        0
176
     1
 40
-0.6
176
     1
 41
-30.0
176
     1
 62
     5
 63
     7
421
 16777215
176
     1
 74
     1
176
     1
 91
        4
176
     1
 64
     7
176
     1
 65
   257
176
     1
 75
     1
176
     1
175
     1
176
     1
 42
1.0
176
     1
 92
        8
176
     1
 66
     7
176
     1
 43
1.0
176
     1
 76
     1
176
     1
 77
     6
176
     1
 78
     2
176
     1
 67
     7
176
     1
 79
     5
176
     1
170
     0
176
     1
171
     0
176
     1
290
     0
176
     1
 93
        1
176
     1
 44
50.0
176
     1
173
     0
176
     1
  0
VISUALSTYLE
  5
3A
102
{ACAD_REACTORS
330
2A
102
}
330
2A
100
AcDbVisualStyle
  2
ColorChange
 70
    16
177
     2
291
     1
 71
     2
176
     1
 72
     2
176
     1
 73
     3
176
     1
 90
        0
176
     1
 40
-0.6
176
     1
 41
-30.0
176
     1
 62
     5
 63
     8
421
  8421504
176
     1
 74
     1
176
     1
 91
        4
176
     1
 64
     7
176
     1
 65
   257
176
     1
 75
     1
176
     1
175
     1
176
     1
 42
1.0
176
     1
 92
        8
176
     1
 66
     8
424
  8421504
176
     1
 43
1.0
176
     1
 76
     1
176
     1
 77
     6
176
     1
 78
     2
176
     1
 67
     7
176
     1
 79
     5
176
     1
170
     0
176
     1
171
     0
176
     1
290
     0
176
     1
 93
        1
176
     1
 44
0.0
176
     1
173
     0
176
     1
  0
VISUALSTYLE
  5
34
102
{ACAD_REACTORS
330
2A
102
}
330
2A
100
AcDbVisualStyle
  2
Conceptual
 70
     9
177
     2
291
     0
 71
     3
176
     1
 72
     2
176
     1
 73
     0
176
     1
 90
        0
176
     1
 40
-0.6
176
     1
 41
-30.0
176
     1
 62
     5
 63
     7
421
 16777215
176
     1
 74
     2
176
     1
 91
        2
176
     1
 64
     7
176
     1
 65
   257
176
     1
 75
     1
176
     1
175
     1
176
     1
 42
40.0
176
     1
 92
        8
176
     1
 66
     7
176
     1
 43
1.0
176
     1
 76
     1
176
     1
 77
     6
176
     1
 78
     2
176
     1
 67
     7
176
     1
 79
     3
176
     1
170
     0
176
     1
171
     0
176
     1
290
     0
176
     1
 93
        1
176
     1
 44
0.0
176
     1
173
     0
176
     1
  0
VISUALSTYLE
  5
35
102
{ACAD_REACTORS
330
2A
102
}
330
2A
100
AcDbVisualStyle
  2
Dim
 70
    11
177
     2
291
     1
 71
     2
176
     1
 72
     2
176
     1
 73
     0
176
     1
 90
        0
176
     1
 40
-0.6
176
     1
 41
-30.0
176
     1
 62
     5
 63
     7
421
 16777215
176
     1
 74
     1
176
     1
 91
        4
176
     1
 64
     7
176
     1
 65
   257
176
     1
 75
     1
176
     1
175
     1
176
     1
 42
1.0
176
     1
 92
        8
176
     1
 66
     7
176
     1
 43
1.0
176
     1
 76
     1
176
     1
 77
     6
176
     1
 78
     2
176
     1
 67
     7
176
     1
 79
     5
176
     1
170
     0
176
     1
171
     0
176
     1
290
     0
176
     1
 93
        1
176
     1
 44
-50.0
176
     1
173
     0
176
     1
  0
VISUALSTYLE
  5
39
102
{ACAD_REACTORS
330
2A
102
}
330
2A
100
AcDbVisualStyle
  2
Facepattern
 70
    15
177
     2
291
     1
 71
     2
176
     1
 72
     2
176
     1
 73
     0
176
     1
 90
        0
176
     1
 40
-0.6
176
     1
 41
-30.0
176
     1
 62
     5
 63
     7
421
 16777215
176
     1
 74
     1
176
     1
 91
        4
176
     1
 64
     7
176
     1
 65
   257
176
     1
 75
     1
176
     1
175
     1
176
     1
 42
1.0
176
     1
 92
        8
176
     1
 66
     7
176
     1
 43
1.0
176
     1
 76
     1
176
     1
 77
     6
176
     1
 78
     2
176
     1
 67
     7
176
     1
 79
     5
176
     1
170
     0
176
     1
171
     0
176
     1
290
     0
176
     1
 93
        1
176
     1
 44
0.0
176
     1
173
     0
176
     1
  0
VISUALSTYLE
  5
2B
102
{ACAD_REACTORS
330
2A
102
}
330
2A
100
AcDbVisualStyle
  2
Flat
 70
     0
177
     2
291
     1
 71
     2
176
     1
 72
     1
176
     1
 73
     1
176
     1
 90
        2
176
     1
 40
-0.6
176
     1
 41
30.0
176
     1
 62
     5
 63
     7
421
 16777215
176
     1
 74
     0
176
     1
 91
        4
176
     1
 64
     7
176
     1
 65
   257
176
     1
 75
     1
176
     1
175
     1
176
     1
 42
1.0
176
     1
 92
        8
176
     1
 66
     7
176
     1
 43
1.0
176
     1
 76
     1
176
     1
 77
     6
176
     1
 78
     2
176
     1
 67
     7
176
     1
 79
     5
176
     1
170
     0
176
     1
171
     0
176
     1
290
     0
176
     1
 93
       13
176
     1
 44
0.0
176
     1
173
     0
176
     1
  0
VISUALSTYLE
  5
2C
102
{ACAD_REACTORS
330
2A
102
}
330
2A
100
AcDbVisualStyle
  2
FlatWithEdges
 70
     1
177
     2
291
     1
 71
     2
176
     1
 72
     1
176
     1
 73
     1
176
     1
 90
        2
176
     1
 40
-0.6
176
     1
 41
30.0
176
     1
 62
     5
 63
     7
421
 16777215
176
     1
 74
     1
176
     1
 91
        4
176
     1
 64
     7
176
     1
 65
   257
176
     1
 75
     1
176
     1
175
     1
176
     1
 42
1.0
176
     1
 92
        0
176
     1
 66
   257
176
     1
 43
1.0
176
     1
 76
     1
176
     1
 77
     6
176
     1
 78
     2
176
     1
 67
     7
176
     1
 79
     5
176
     1
170
     0
176
     1
171
     0
176
     1
290
     0
176
     1
 93
       13
176
     1
 44
0.0
176
     1
173
     0
176
     1
  0
VISUALSTYLE
  5
2D
102
{ACAD_REACTORS
330
2A
102
}
330
2A
100
AcDbVisualStyle
  2
Gouraud
 70
     2
177
     2
291
     1
 71
     2
176
     1
 72
     2
176
     1
 73
     1
176
     1
 90
        2
176
     1
 40
-0.6
176
     1
 41
30.0
176
     1
 62
     5
 63
     7
421
 16777215
176
     1
 74
     0
176
     1
 91
        4
176
     1
 64
     7
176
     1
 65
   257
176
     1
 75
     1
176
     1
175
     1
176
     1
 42
1.0
176
     1
 92
        0
176
     1
 66
     7
176
     1
 43
1.0
176
     1
 76
     1
176
     1
 77
     6
176
     1
 78
     2
176
     1
 67
     7
176
     1
 79
     5
176
     1
170
     0
176
     1
171
     0
176
     1
290
     0
176
     1
 93
       13
176
     1
 44
0.0
176
     1
173
     0
176
     1
  0
VISUALSTYLE
  5
2E
102
{ACAD_REACTORS
330
2A
102
}
330
2A
100
AcDbVisualStyle
  2
GouraudWithEdges
 70
     3
177
     2
291
     1
 71
     2
176
     1
 72
     2
176
     1
 73
     1
176
     1
 90
        2
176
     1
 40
-0.6
176
     1
 41
30.0
176
     1
 62
     5
 63
     7
421
 16777215
176
     1
 74
     1
176
     1
 91
        4
176
     1
 64
     7
176
     1
 65
   257
176
     1
 75
     1
176
     1
175
     1
176
     1
 42
1.0
176
     1
 92
        0
176
     1
 66
   257
176
     1
 43
1.0
176
     1
 76
     1
176
     1
 77
     6
176
     1
 78
     2
176
     1
 67
     7
176
     1
 79
     5
176
     1
170
     0
176
     1
171
     0
176
     1
290
     0
176
     1
 93
       13
176
     1
 44
0.0
176
     1
173
     0
176
     1
  0
VISUALSTYLE
  5
38
102
{ACAD_REACTORS
330
2A
102
}
330
2A
100
AcDbVisualStyle
  2
Linepattern
 70
    14
177
     2
291
     1
 71
     2
176
     1
 72
     2
176
     1
 73
     0
176
     1
 90
        0
176
     1
 40
-0.6
176
     1
 41
-30.0
176
     1
 62
     5
 63
     7
421
 16777215
176
     1
 74
     1
176
     1
 91
        4
176
     1
 64
     7
176
     1
 65
   257
176
     1
 75
     7
176
     1
175
     7
176
     1
 42
1.0
176
     1
 92
        8
176
     1
 66
     7
176
     1
 43
1.0
176
     1
 76
     1
176
     1
 77
     6
176
     1
 78
     2
176
     1
 67
     7
176
     1
 79
     5
176
     1
170
     0
176
     1
171
     0
176
     1
290
     0
176
     1
 93
        1
176
     1
 44
0.0
176
     1
173
     0
176
     1
  0
VISUALSTYLE
  5
33
102
{ACAD_REACTORS
330
2A
102
}
330
2A
100
AcDbVisualStyle
  2
Realistic
 70
     8
177
     2
291
     0
 71
     2
176
     1
 72
     2
176
     1
 73
     0
176
     1
 90
        0
176
     1
 40
-0.6
176
     1
 41
-30.0
176
     1
 62
     5
 63
     7
421
 16777215
176
     1
 74
     1
176
     1
 91
        0
176
     1
 64
     7
176
     1
 65
   257
176
     1
 75
     1
176
     1
175
     1
176
     1
 42
1.0
176
     1
 92
        8
176
     1
 66
     8
424
  7895160
176
     1
 43
1.0
176
     1
 76
     1
176
     1
 77
     6
176
     1
 78
     2
176
     1
 67
     7
176
     1
 79
     5
176
     1
170
     0
176
     1
171
     0
176
     1
290
     0
176
     1
 93
       13
176
     1
 44
0.0
176
     1
173
     0
176
     1
  0
VISUALSTYLE
  5
37
102
{ACAD_REACTORS
330
2A
102
}
330
2A
100
AcDbVisualStyle
  2
Thicken
 70
    13
177
     2
291
     1
 71
     2
176
     1
 72
     2
176
     1
 73
     0
176
     1
 90
        0
176
     1
 40
-0.6
176
     1
 41
-30.0
176
     1
 62
     5
 63
     7
421
 16777215
176
     1
 74
     1
176
     1
 91
        4
176
     1
 64
     7
176
     1
 65
   257
176
     1
 75
     1
176
     1
175
     1
176
     1
 42
1.0
176
     1
 92
       12
176
     1
 66
     7
176
     1
 43
1.0
176
     1
 76
     1
176
     1
 77
     6
176
     1
 78
     2
176
     1
 67
     7
176
     1
 79
     5
176
     1
170
     0
176
     1
171
     0
176
     1
290
     0
176
     1
 93
        1
176
     1
 44
0.0
176
     1
173
     0
176
     1
  0
ENDSEC
  0
EOF
