<?xml version="1.0" encoding="utf-8"?>
<!-- Generator: Adobe Illustrator 22.0.1, SVG Export Plug-In . SVG Version: 6.00 Build 0)  -->
<svg version="1.1" id="Layer_1" xmlns="http://www.w3.org/2000/svg" xmlns:xlink="http://www.w3.org/1999/xlink" x="0px" y="0px"
	 viewBox="0 0 2000 2000" style="enable-background:new 0 0 2000 2000;" xml:space="preserve">
<path d="M660.6,1970.4c0.2,0.2,0.5,0.4,0.7,0.6h725.9c15.1-7.1,29.2-16.6,42.3-28.6c13-12,26.4-23.7,38.9-36.2
	c13.1-13.1,12.3-24.1-1.9-35.5c-5.3-4.2-11.1-7.8-16.6-11.7c-6.8-4.8-14.1-9.1-20.2-14.7c-11.9-10.8-12.8-17.8-4.8-31.4
	c3.4-5.8,7.8-11.1,11.9-16.5c8-10.7,10.2-22.3,6.9-35.4c-4.7-18.3-18.7-28.5-32.9-38.2c-18-12.4-37-23.4-55.1-35.7
	c-19-12.9-34-29.3-39.4-52.6c-3.3-13.9-12.3-22.7-25.4-27.5c-12.8-4.6-19.9-13.7-25-26.1c-25.6-62.5-43.9-127.1-58.2-193
	c-17.7-81.8-28-164.5-32.5-248.1c-5.4-102.1-1-203.5,17.4-304.2c3.6-19.9,8.5-39.5,12.3-56.7c16.4-5.2,31-7.8,43.8-14.2
	c31.5-15.9,37.2-64.1,6.9-81.5c-5-2.9-9.7-6.2-14.1-9.9c-6.9-5.8-9.6-12.5-6.9-22.1c7.2-25.7,5.5-29.1-17-43.6
	c-0.9-0.6-1.7-1.2-2.7-1.7c-14.5-6.5-18.2-17.9-17.8-33.1c1-42.6,13.8-82,30.7-120.4c14.3-32.4,27.8-65.2,42.3-97.6
	c5-11.1,1.6-19-6-26.5c-12.7-12.4-28.3-19.8-45.5-22.7c-19-3.2-38.2-5.2-57.4-7.2c-22-2.3-44.1-4.1-66.1-6.1
	c8.3-21.5,16.5-41.2,23.5-61.2c8.9-25.3,21.5-49.5,18.1-78.1c-2.6-22.3-8-42.8-20.8-61.4c-17.9-26.1-42.8-44-70-58.9
	c-10-5.5-21-4.7-31.6-0.1c-33.1,14.5-56.6,38.9-71.8,71.1c-11.4,24-17.2,49.5-10.1,76c5.4,20.1,12.3,39.8,18.5,59.8
	c5,16.1,9.7,32.3,14.9,49.6c-16.4,1.3-31,2.3-45.5,3.7c-20.8,2-41.7,3-62.2,6.7c-15.2,2.7-30,8.4-44.6,13.7
	c-7.4,2.7-10.3,8.2-8.5,17.4c4.6,22.6,10.1,44.7,19.8,65.7c11.4,24.6,23,49.1,33.7,74c4.9,11.4,9.4,23.4,11.6,35.5
	c2.8,15.8,3.4,32,4.5,48.1c1,13.3,3.4,26.7-0.1,39.6c-6,1.3-11.3,1.9-16.2,3.7c-14.4,5.1-18.8,11.3-18.5,26.5
	c0.2,12.4,1.2,24.7,1.9,37.6c0.1-0.1-0.2,0.5-0.6,0.6c-1.5,0.4-3.1,0.6-4.6,0.9c-15.5,2.4-25.2,11.2-30.1,26
	c-5,14.9-3.9,29.8-2.3,44.9c1.3,12.1,7.6,19.9,18.7,24.7c12.4,5.4,24.7,11.1,36.7,17.3c7.7,3.9,11.9,10.2,13.8,19.4
	c14.5,68.2,21.2,137.2,23.2,206.7c3.8,127.4-9.2,253.3-37,377.7c-15.9,70.8-36.2,140.4-65.2,207.1c-1.8,4.1-4,8.8-7.5,11
	c-10.4,6.6-21.6,12.2-31.7,17.7c-5,28.1-10.4,38.9-32.3,56.4c-15.4,12.3-32.6,22.4-48.8,33.8c-14.5,10.2-29.6,19.7-42.6,31.5
	c-24.6,22.4-23.8,45.6,0.8,67.8c8.3,7.5,15.3,15.5,16.5,28c-20.4,21.4-52.9,27.4-70.8,54.2c9.4,19,23,33.4,38.1,46.3
	C630.9,1945.7,646.3,1957.4,660.6,1970.4z"/>
</svg>
